<svg xmlns="http://www.w3.org/2000/svg" width="175" height="40" viewBox="0 0 175 40"><g transform="translate(-4822 -3858)"><path d="M173.556,7.444V38.556H7.444V7.444H173.556m0-4.444H7.444A4.458,4.458,0,0,0,3,7.444V38.556A4.458,4.458,0,0,0,7.444,43H173.556A4.458,4.458,0,0,0,178,38.556V7.444A4.458,4.458,0,0,0,173.556,3Z" transform="translate(4819 3855)" fill="#e0e0e0"/><path d="M-71.4-6.6V0h-3.3V-17.5h6.85a5.826,5.826,0,0,1,2.35.438,4.934,4.934,0,0,1,1.662,1.15,4.818,4.818,0,0,1,1,1.625,5.33,5.33,0,0,1,.338,1.863v.6a5.607,5.607,0,0,1-.338,1.913,5.034,5.034,0,0,1-1,1.675A4.9,4.9,0,0,1-65.5-7.05a5.684,5.684,0,0,1-2.35.45Zm0-3.15h3.225a2.433,2.433,0,0,0,1.738-.6A2.033,2.033,0,0,0-65.8-11.9v-.3a2.033,2.033,0,0,0-.638-1.55,2.433,2.433,0,0,0-1.738-.6H-71.4Zm24.15-7.75V-6.05a6.617,6.617,0,0,1-1.588,4.7A6.141,6.141,0,0,1-53.55.35a6.141,6.141,0,0,1-4.713-1.7,6.617,6.617,0,0,1-1.588-4.7V-17.5h3.3V-6.05a3.693,3.693,0,0,0,.725,2.425,2.788,2.788,0,0,0,2.275.875,2.788,2.788,0,0,0,2.275-.875A3.693,3.693,0,0,0-50.55-6.05V-17.5Zm2.5,14.35h1.65v-11.2h-1.65V-17.5h7.675a6.455,6.455,0,0,1,2.212.35,4.864,4.864,0,0,1,1.625.95,3.86,3.86,0,0,1,1,1.437A4.8,4.8,0,0,1-31.9-12.95v.3a3.382,3.382,0,0,1-.837,2.4A4.413,4.413,0,0,1-34.85-9v.45a4.369,4.369,0,0,1,2.112,1.263A3.428,3.428,0,0,1-31.9-4.875v.3a4.8,4.8,0,0,1-.338,1.813,3.974,3.974,0,0,1-1,1.45,4.751,4.751,0,0,1-1.625.962A6.455,6.455,0,0,1-37.075,0H-44.75Zm4.95,0h2.4a2.928,2.928,0,0,0,1.7-.45,1.694,1.694,0,0,0,.65-1.5v-.15a1.694,1.694,0,0,0-.65-1.5,2.928,2.928,0,0,0-1.7-.45h-2.4Zm0-7.2h2.4a2.991,2.991,0,0,0,1.7-.437,1.66,1.66,0,0,0,.65-1.488v-.15a1.66,1.66,0,0,0-.65-1.488,2.991,2.991,0,0,0-1.7-.437h-2.4Zm11.25-7.15h3.3V-3.15h7.95V0H-28.55Zm15.05,0H-1.8v3.15H-6v11.2h4.2V0H-13.5V-3.15h4.2v-11.2h-4.2ZM7.7-2.65a3.686,3.686,0,0,0,1.563-.288,2.324,2.324,0,0,0,.95-.775,2.947,2.947,0,0,0,.462-1.125A6.806,6.806,0,0,0,10.8-6.15V-6.6h3.3v.45a6.63,6.63,0,0,1-1.637,4.813A6.337,6.337,0,0,1,7.7.35,6.271,6.271,0,0,1,2.95-1.475,7.4,7.4,0,0,1,1.2-6.8v-3.9a9.417,9.417,0,0,1,.45-3.012,6.1,6.1,0,0,1,1.3-2.25A5.687,5.687,0,0,1,5-17.363a7.118,7.118,0,0,1,2.7-.487,7.8,7.8,0,0,1,2.75.45,5.32,5.32,0,0,1,2.012,1.3,5.517,5.517,0,0,1,1.225,2.05,8.274,8.274,0,0,1,.413,2.7v.45H10.8v-.45a5.34,5.34,0,0,0-.15-1.25,3.274,3.274,0,0,0-.5-1.125,2.6,2.6,0,0,0-.95-.813,3.226,3.226,0,0,0-1.5-.312,3.047,3.047,0,0,0-1.425.313,2.9,2.9,0,0,0-1,.85,3.607,3.607,0,0,0-.587,1.25A5.821,5.821,0,0,0,4.5-10.95v4.4a6.547,6.547,0,0,0,.175,1.563,3.57,3.57,0,0,0,.55,1.237,2.487,2.487,0,0,0,.987.813A3.482,3.482,0,0,0,7.7-2.65ZM17.1-17.5H28.8v3.15H24.6v11.2h4.2V0H17.1V-3.15h4.2v-11.2H17.1Zm14.65,0H38.1a6.74,6.74,0,0,1,4.825,1.513A6.233,6.233,0,0,1,44.5-11.3v5.1a6.233,6.233,0,0,1-1.575,4.688A6.74,6.74,0,0,1,38.1,0H31.75V-3.175H33.4V-14.35H31.75ZM38.1-3.15a3.026,3.026,0,0,0,2.412-.812A3.879,3.879,0,0,0,41.2-6.5v-4.8a3.33,3.33,0,0,0-.687-2.275A3.113,3.113,0,0,0,38.1-14.35H36.7v11.2Zm18.425-.6h-5.95L49.725,0h-3.45L50.45-17.5h6.2L60.825,0h-3.45ZM51.275-6.9H55.8l-2.025-8.95h-.45ZM62.35-17.5H68.7a6.74,6.74,0,0,1,4.825,1.513A6.233,6.233,0,0,1,75.1-11.3v5.1a6.233,6.233,0,0,1-1.575,4.688A6.74,6.74,0,0,1,68.7,0H62.35V-3.175H64V-14.35H62.35ZM68.7-3.15a3.026,3.026,0,0,0,2.412-.812A3.879,3.879,0,0,0,71.8-6.5v-4.8a3.33,3.33,0,0,0-.687-2.275A3.113,3.113,0,0,0,68.7-14.35H67.3v11.2Z" transform="translate(4910 3886)" fill="#e0e0e0"/></g></svg>