<svg xmlns="http://www.w3.org/2000/svg" width="82" height="32" viewBox="0 0 82 32">
  <g id="ciencia" transform="translate(-194 -2393)">
    <rect id="Rectangle_4188" data-name="Rectangle 4188" width="82" height="32" rx="3" transform="translate(194 2393)" fill="#61ae24"/>
    <path id="Path_7139" data-name="Path 7139" d="M5.666,18.15a6.116,6.116,0,0,0,3.665-.972l-.9-1.4a4.446,4.446,0,0,1-2.674.748c-2.655,0-3.31-1.739-3.31-5.4,0-3.684.692-5.367,3.291-5.367a4.638,4.638,0,0,1,2.468.617l.954-1.5A5.928,5.928,0,0,0,5.8,3.994c-4.32,0-5.18,2.842-5.18,7.087C.617,15.4,1.571,18.15,5.666,18.15ZM11.893,18h1.814V4.143H11.893Zm5.161,0h7.667V16.373H18.831V11.661h5.535V10.015H18.831V5.808h5.834V4.143H17.054Zm10.509,0h1.72V7.285L35.193,18h1.683V4.143H35.137V14.391L29.527,4.143H27.564Zm16.98.15a6.116,6.116,0,0,0,3.665-.972l-.9-1.4a4.446,4.446,0,0,1-2.674.748c-2.655,0-3.31-1.739-3.31-5.4,0-3.684.692-5.367,3.291-5.367a4.638,4.638,0,0,1,2.468.617l.954-1.5a5.928,5.928,0,0,0-3.366-.879c-4.32,0-5.18,2.842-5.18,7.087C39.494,15.4,40.448,18.15,44.543,18.15ZM50.771,18h1.814V4.143H50.771Zm4.32,0h1.8l.823-2.88h5.124l.86,2.88h1.833L61.261,4.05H59.354Zm3.1-4.525,2.094-6.882,2.076,6.882Z" transform="translate(202.383 2398)" fill="#fff"/>
  </g>
</svg>
