<svg xmlns="http://www.w3.org/2000/svg" width="113" height="32" viewBox="0 0 113 32">
  <g id="educacion" transform="translate(-194 -2472)">
    <rect id="Rectangle_4163" data-name="Rectangle 4163" width="113" height="32" rx="3" transform="translate(194 2472)" fill="#3f51b5"/>
    <path id="Path_7140" data-name="Path 7140" d="M1.216,18H8.883V16.373H2.992V11.661H8.527V10.015H2.992V5.808H8.826V4.143H1.216Zm10.509,0h3.852c4.469,0,5.535-2.169,5.535-6.938,0-4.675-1.1-6.919-5.46-6.919H11.725Zm1.814-1.59V5.808h2.207c2.955,0,3.534,1.683,3.534,5.273,0,3.628-.6,5.33-3.572,5.33Zm14.754,1.777c3.684,0,4.712-1.739,4.712-4.806V4.143H31.266V13.25c0,2.188-.617,3.272-2.955,3.272-2.356,0-2.936-1.122-2.936-3.272V4.143H23.562v9.238C23.562,16.448,24.665,18.187,28.293,18.187ZM40.5,18.15a6.116,6.116,0,0,0,3.665-.972l-.9-1.4a4.446,4.446,0,0,1-2.674.748c-2.655,0-3.31-1.739-3.31-5.4,0-3.684.692-5.367,3.291-5.367a4.638,4.638,0,0,1,2.468.617L44,4.873a5.928,5.928,0,0,0-3.366-.879c-4.32,0-5.18,2.842-5.18,7.087C35.455,15.4,36.409,18.15,40.5,18.15ZM45.665,18h1.8l.823-2.88h5.124l.86,2.88H56.1L51.836,4.05H49.929Zm3.1-4.525,2.094-6.882,2.076,6.882ZM62.477,18.15a6.116,6.116,0,0,0,3.665-.972l-.9-1.4a4.446,4.446,0,0,1-2.674.748c-2.655,0-3.31-1.739-3.31-5.4,0-3.684.692-5.367,3.291-5.367a4.638,4.638,0,0,1,2.468.617l.954-1.5a5.928,5.928,0,0,0-3.366-.879c-4.32,0-5.18,2.842-5.18,7.087C57.428,15.4,58.381,18.15,62.477,18.15ZM68.7,18h1.814V4.143H68.7ZM77.268,3.358H78.82L81.308.328H79.363ZM78.54,18.15c4.656,0,5.236-3.235,5.236-7.069S83.2,3.994,78.54,3.994c-4.675,0-5.273,3.254-5.273,7.087S73.865,18.15,78.54,18.15Zm0-1.627c-3.123,0-3.441-2.281-3.441-5.386s.318-5.4,3.441-5.4c3.085,0,3.422,2.3,3.422,5.4S81.644,16.523,78.54,16.523ZM86.413,18h1.72V7.285L94.042,18h1.683V4.143H93.986V14.391L88.376,4.143H86.413Z" transform="translate(201.784 2477)" fill="#fff"/>
  </g>
</svg>
