<svg xmlns="http://www.w3.org/2000/svg" width="118" height="32" viewBox="0 0 118 32">
  <g id="elecciones" transform="translate(-194 -2314)">
    <rect id="Rectangle_4206" data-name="Rectangle 4206" width="118" height="32" rx="3" transform="translate(194 2314)" fill="#e67e22"/>
    <path id="Path_7138" data-name="Path 7138" d="M1.216,18H8.883V16.373H2.992V11.661H8.527V10.015H2.992V5.808H8.826V4.143H1.216Zm10.509,0H19.2V16.373H13.539V4.143H11.725Zm9.818,0h7.667V16.373h-5.89V11.661h5.535V10.015H23.319V5.808h5.834V4.143H21.542Zm14.773.15a6.116,6.116,0,0,0,3.665-.972l-.9-1.4a4.446,4.446,0,0,1-2.674.748c-2.655,0-3.31-1.739-3.31-5.4,0-3.684.692-5.367,3.291-5.367a4.638,4.638,0,0,1,2.468.617l.954-1.5a5.928,5.928,0,0,0-3.366-.879c-4.32,0-5.18,2.842-5.18,7.087C31.266,15.4,32.22,18.15,36.315,18.15Zm10.173,0a6.116,6.116,0,0,0,3.665-.972l-.9-1.4a4.446,4.446,0,0,1-2.674.748c-2.655,0-3.31-1.739-3.31-5.4,0-3.684.692-5.367,3.291-5.367a4.638,4.638,0,0,1,2.468.617l.954-1.5a5.928,5.928,0,0,0-3.366-.879c-4.32,0-5.18,2.842-5.18,7.087C41.439,15.4,42.393,18.15,46.488,18.15ZM52.715,18h1.814V4.143H52.715Zm9.836.15c4.656,0,5.236-3.235,5.236-7.069s-.58-7.087-5.236-7.087c-4.675,0-5.273,3.254-5.273,7.087S57.876,18.15,62.551,18.15Zm0-1.627c-3.123,0-3.441-2.281-3.441-5.386s.318-5.4,3.441-5.4c3.085,0,3.422,2.3,3.422,5.4S65.656,16.523,62.551,16.523ZM70.424,18h1.72V7.285L78.054,18h1.683V4.143H78V14.391L72.388,4.143H70.424Zm12.529,0H90.62V16.373H84.73V11.661h5.535V10.015H84.73V5.808h5.834V4.143H82.953Zm14.062.15c2.917,0,4.376-1.4,4.376-3.684,0-2.506-1.2-3.2-4.021-4.395-1.982-.879-2.562-1.234-2.562-2.524,0-1.122.729-1.851,2.412-1.851a6.549,6.549,0,0,1,2.88.6l.767-1.552a8.331,8.331,0,0,0-3.684-.748c-2.73,0-4.151,1.365-4.151,3.609,0,2.169,1.234,3.029,3.534,3.983,2.225.916,3.048,1.328,3.048,2.9,0,1.328-.841,2.094-2.637,2.094a6.9,6.9,0,0,1-3.572-.954l-.9,1.4A8.362,8.362,0,0,0,97.016,18.15Z" transform="translate(201.785 2319)" fill="#fff"/>
  </g>
</svg>
