<svg xmlns="http://www.w3.org/2000/svg" width="122" height="32" viewBox="0 0 122 32">
  <g id="feminismos" transform="translate(-194 -2551)">
    <rect id="Rectangle_4156" data-name="Rectangle 4156" width="122" height="32" rx="3" transform="translate(194 2551)" fill="#ae424e"/>
    <path id="Path_7141" data-name="Path 7141" d="M1.216,18H3.029V11.773h5.5V10.127h-5.5V5.808H8.845V4.143H1.216Zm10.135,0h7.667V16.373H13.127V11.661h5.535V10.015H13.127V5.808h5.834V4.143H11.351ZM21.86,18h1.608V7.565L26.853,18h1.309L31.528,7.565V18H33.3V4.143H31.023L27.583,14.914,24.142,4.143H21.86Zm14.81,0h1.814V4.143H36.671Zm5.161,0h1.72V7.285L49.461,18h1.683V4.143H49.405V14.391L43.8,4.143H41.832Zm12.66,0h1.814V4.143H54.492Zm8.995.15c2.917,0,4.376-1.4,4.376-3.684,0-2.506-1.2-3.2-4.021-4.395C61.86,9.192,61.28,8.837,61.28,7.547c0-1.122.729-1.851,2.412-1.851a6.549,6.549,0,0,1,2.88.6l.767-1.552a8.331,8.331,0,0,0-3.684-.748c-2.73,0-4.151,1.365-4.151,3.609,0,2.169,1.234,3.029,3.534,3.983,2.225.916,3.048,1.328,3.048,2.9,0,1.328-.842,2.094-2.637,2.094a6.9,6.9,0,0,1-3.572-.954l-.9,1.4A8.362,8.362,0,0,0,63.486,18.15Zm7.05-.15h1.608V7.565L75.529,18h1.309L80.2,7.565V18h1.777V4.143H79.7L76.259,14.914,72.818,4.143H70.536Zm19.354.15c4.656,0,5.236-3.235,5.236-7.069s-.58-7.087-5.236-7.087c-4.675,0-5.273,3.254-5.273,7.087S85.216,18.15,89.891,18.15Zm0-1.627c-3.123,0-3.441-2.281-3.441-5.386s.318-5.4,3.441-5.4c3.085,0,3.422,2.3,3.422,5.4S93,16.523,89.891,16.523Zm11.332,1.627c2.917,0,4.376-1.4,4.376-3.684,0-2.506-1.2-3.2-4.021-4.395-1.982-.879-2.562-1.234-2.562-2.524,0-1.122.729-1.851,2.412-1.851a6.549,6.549,0,0,1,2.88.6l.767-1.552a8.331,8.331,0,0,0-3.684-.748c-2.73,0-4.151,1.365-4.151,3.609,0,2.169,1.234,3.029,3.534,3.983,2.225.916,3.048,1.328,3.048,2.9,0,1.328-.841,2.094-2.637,2.094a6.9,6.9,0,0,1-3.572-.954l-.9,1.4A8.362,8.362,0,0,0,101.223,18.15Z" transform="translate(201.784 2556)" fill="#fff"/>
  </g>
</svg>
