<svg xmlns="http://www.w3.org/2000/svg" viewBox="0 0 732.916 404.315"><defs><style>.cls-1{fill:#e50043}</style></defs><g id="Group_6109" data-name="Group 6109" transform="translate(-8645.999 2590.787)"><path id="Path_7035" data-name="Path 7035" d="M79.628 19.9c-36.528 0-66.347 18.391-66.347 54.751v144.6c0 35.042 29.8 54.822 66.347 54.822 36.642 0 66.561-18.659 66.561-55.07V125.3c0-7.5-6.994-8.132-11.756-5.275l-55.6 30.764c-3.105 1.088-4.39 2.66-4.39 5.286v31.79c0 3.652 2.525 4.638 5.3 3.652l11.344-7.631c2.671-1 3.793.772 3.793 2.637v29.153c0 6.943-6.633 12.652-15.255 12.652-7.856 0-15.21-5.709-15.21-12.652V80.507c0-7.309 7.366-14.867 15.21-14.867 8.622 0 15.255 6.289 15.255 14.867V99.87a4.941 4.941 0 0 0 5.224 5.23h40.858a5.163 5.163 0 0 0 5.224-5.23v-24.9c-.002-36.414-29.916-55.07-66.558-55.07z" transform="translate(8632.718 -2610.689)"/><path id="Path_7036" data-name="Path 7036" d="M132.56 25.789c-.789-2.023-2.553-5.466-5.867-5.466H86.918v.006c-2.947 0-5.506 2.17-6.594 5.461L43.508 127.257a80.211 80.211 0 0 0-3.624 21.223v115.681a4.861 4.861 0 0 0 5.224 5.219h38.277a5.33 5.33 0 0 0 5.23-5.219V232.98c.152-2.046 1.353-4.537 3.015-5.461l28.155-16.873c3.139-1.1 4.683 1.375 4.689 3.579v49.937a5.1 5.1 0 0 0 5.23 5.219h38.288a5.012 5.012 0 0 0 5.224-5.219V148.836c0-5.675-1.933-16.935-3.657-21.657zm-8.076 137.783a5.987 5.987 0 0 1-3.438 5.889L94.4 185.788c-2.254.744-5.776 0-5.776-3.325v-29.88a50.511 50.511 0 0 1 1.995-13.61L103.566 96.3c.53-2.08 1.95-3.173 2.981-3.173 1.629 0 2.254 1.42 2.671 2.739l13.136 42.684a71.813 71.813 0 0 1 2.146 15.07c-.015 5.427-.015 9.953-.015 9.953z" transform="translate(8756.034 -2608.736)"/><path id="Path_7037" data-name="Path 7037" d="M249.355 127.19l-36.992-101.4c-.783-2.023-2.553-5.466-5.878-5.466H166.7v.006c-2.936 0-5.495 2.17-6.571 5.461L123.3 127.257a79.979 79.979 0 0 0-3.624 21.223v115.681a5.835 5.835 0 0 0 5.219 5.219h38.282a5.836 5.836 0 0 0 5.23-5.219V232.98c.141-2.046 1.144-4.492 3.026-5.461l29.17-17.267c2.1-.372 3.669 1.781 3.68 3.973v49.936a5.824 5.824 0 0 0 5.218 5.219h38.282a5.824 5.824 0 0 0 5.217-5.219V148.836c0-5.658-1.92-16.929-3.645-21.646zm-45.079 36.383a5.955 5.955 0 0 1-3.438 5.878l-26.656 16.32c-2.254.75-5.776 0-5.776-3.308v-29.891a50.882 50.882 0 0 1 1.984-13.6l14.4-47 .045-.023c.451-1.657 1.037-1.724 1.42-1.724a.109.109 0 0 0 .079-.079c.034.045.056.079.09.079.383 0 .98.068 1.431 1.724l.068.039 14.224 46.561a71.719 71.719 0 0 1 2.147 15.069c-.017 5.424-.017 9.955-.017 9.955z" transform="translate(9125.912 -2608.736)"/><path id="Path_7038" data-name="Path 7038" d="M133.521 20.292H73.113c-4.26 0-6.537 2.181-6.537 6.881v237.143c0 3.269 1.871 5.219 5.23 5.219h40.181c3.4 0 5.224-1.584 5.224-5.219v-31.181c0-2.485.721-4.565 3.2-5.461l24.475-15.684c2.373-.738 3.764.671 3.764 3.071v49.255c0 4 1.8 5.219 5.219 5.219h40.238a5.83 5.83 0 0 0 5.224-5.219V241.65c0-11.609-1.741-27.3-20.559-36.051 9.141-4.954 19.719-14.7 20.508-40.373l.056-.011v-92c-.009-36.405-29.19-52.923-65.815-52.923zM148.6 81.838V161.9c0 3.855-1.42 8.211-5.213 9.671l-20.88 14.173c-2.277.834-5.3-.316-5.3-2.807V69.58a3.474 3.474 0 0 1 3.511-3.753h15.441c9.344 0 12.438 6.137 12.438 15.847v.163z" transform="translate(8879.764 -2608.881)"/><path id="Path_7039" data-name="Path 7039" d="M160.2 20.292H99.781c-4.249 0-6.52 2.181-6.52 6.881v237.143c0 3.269 1.865 5.219 5.219 5.219h40.193c3.4 0 5.218-1.584 5.218-5.219v-31.181c0-2.485.716-4.565 3.2-5.461l24.486-15.684c2.367-.738 3.759.671 3.759 3.071v49.255c0 4 1.8 5.219 5.23 5.219h40.232a5.83 5.83 0 0 0 5.219-5.219v-31.547c0-15.024-10.933-23.557-20.558-27.175 9.146-4.954 19.741-14.7 20.525-40.373l.039-.011V73.215C226 36.81 196.848 20.292 160.2 20.292zm15.075 61.546V161.9c0 3.855-1.426 8.211-5.213 9.671l-20.874 14.173c-2.288.834-5.3-.316-5.3-2.807V69.58a3.47 3.47 0 0 1 3.505-3.753h15.436c9.366 0 12.449 6.137 12.449 15.847z" transform="translate(9003.462 -2608.881)"/><path id="Path_7043" data-name="Path 7043" d="M132.56 25.789c-.789-2.023-2.553-5.466-5.867-5.466H86.918v.006c-2.947 0-5.506 2.17-6.594 5.461L43.508 127.257a80.211 80.211 0 0 0-3.624 21.223v115.681a4.861 4.861 0 0 0 5.224 5.219h38.277a5.33 5.33 0 0 0 5.23-5.219V232.98c.152-2.046 1.353-4.537 3.015-5.461l28.155-16.873c3.139-1.1 4.683 1.375 4.689 3.579v49.937a5.1 5.1 0 0 0 5.23 5.219h38.288a5.012 5.012 0 0 0 5.224-5.219V148.836c0-5.675-1.933-16.935-3.657-21.657zm-8.076 137.783a5.987 5.987 0 0 1-3.438 5.889L94.4 185.788c-2.254.744-5.776 0-5.776-3.325v-29.88a50.511 50.511 0 0 1 1.995-13.61L103.566 96.3c.53-2.08 1.95-3.173 2.981-3.173 1.629 0 2.254 1.42 2.671 2.739l13.136 42.684a71.813 71.813 0 0 1 2.146 15.07c-.015 5.427-.015 9.953-.015 9.953z" transform="translate(8756.034 -2608.736)"/><path id="Path_7044" data-name="Path 7044" d="M249.355 127.19l-36.992-101.4c-.783-2.023-2.553-5.466-5.878-5.466H166.7v.006c-2.936 0-5.495 2.17-6.571 5.461L123.3 127.257a79.979 79.979 0 0 0-3.624 21.223v115.681a5.835 5.835 0 0 0 5.219 5.219h38.282a5.836 5.836 0 0 0 5.23-5.219V232.98c.141-2.046 1.144-4.492 3.026-5.461l29.17-17.267c2.1-.372 3.669 1.781 3.68 3.973v49.936a5.824 5.824 0 0 0 5.218 5.219h38.282a5.824 5.824 0 0 0 5.217-5.219V148.836c0-5.658-1.92-16.929-3.645-21.646zm-45.079 36.383a5.955 5.955 0 0 1-3.438 5.878l-26.656 16.32c-2.254.75-5.776 0-5.776-3.308v-29.891a50.882 50.882 0 0 1 1.984-13.6l14.4-47 .045-.023c.451-1.657 1.037-1.724 1.42-1.724a.109.109 0 0 0 .079-.079c.034.045.056.079.09.079.383 0 .98.068 1.431 1.724l.068.039 14.224 46.561a71.719 71.719 0 0 1 2.147 15.069c-.017 5.424-.017 9.955-.017 9.955z" transform="translate(9125.912 -2608.736)"/><path id="Path_7045" data-name="Path 7045" d="M133.521 20.292H73.113c-4.26 0-6.537 2.181-6.537 6.881v237.143c0 3.269 1.871 5.219 5.23 5.219h40.181c3.4 0 5.224-1.584 5.224-5.219v-31.181c0-2.485.721-4.565 3.2-5.461l24.475-15.684c2.373-.738 3.764.671 3.764 3.071v49.255c0 4 1.8 5.219 5.219 5.219h40.238a5.83 5.83 0 0 0 5.224-5.219V241.65c0-11.609-1.741-27.3-20.559-36.051 9.141-4.954 19.719-14.7 20.508-40.373l.056-.011v-92c-.009-36.405-29.19-52.923-65.815-52.923zM148.6 81.838V161.9c0 3.855-1.42 8.211-5.213 9.671l-20.88 14.173c-2.277.834-5.3-.316-5.3-2.807V69.58a3.474 3.474 0 0 1 3.511-3.753h15.441c9.344 0 12.438 6.137 12.438 15.847v.163z" transform="translate(8879.77 -2608.879)"/><path id="Path_7046" data-name="Path 7046" d="M160.2 20.292H99.781c-4.249 0-6.52 2.181-6.52 6.881v237.143c0 3.269 1.865 5.219 5.219 5.219h40.193c3.4 0 5.218-1.584 5.218-5.219v-31.181c0-2.485.716-4.565 3.2-5.461l24.486-15.684c2.367-.738 3.759.671 3.759 3.071v49.255c0 4 1.8 5.219 5.23 5.219h40.232a5.83 5.83 0 0 0 5.219-5.219v-31.547c0-15.024-10.933-23.557-20.558-27.175 9.146-4.954 19.741-14.7 20.525-40.373l.039-.011V73.215C226 36.81 196.848 20.292 160.2 20.292zm15.075 61.546V161.9c0 3.855-1.426 8.211-5.213 9.671l-20.874 14.173c-2.288.834-5.3-.316-5.3-2.807V69.58a3.47 3.47 0 0 1 3.505-3.753h15.436c9.366 0 12.449 6.137 12.449 15.847z" transform="translate(9003.475 -2608.879)"/><g id="Group_6107" data-name="Group 6107" transform="translate(8658.47 -2305.496)"><g id="Group_6105" data-name="Group 6105" transform="translate(0 1.728)"><path id="Rectangle_4199" data-name="Rectangle 4199" class="cls-1" transform="translate(33.266 43.379)" d="M0 0h41.621v27.436H0z"/><path id="Rectangle_4200" data-name="Rectangle 4200" class="cls-1" d="M0 0h26.162v115.591H0z"/><path id="Rectangle_4201" data-name="Rectangle 4201" class="cls-1" transform="translate(33.266)" d="M0 0h43.495v28.238H0z"/><path id="Rectangle_4202" data-name="Rectangle 4202" class="cls-1" transform="translate(33.266 88.143)" d="M0 0h43.495v27.442H0z"/><path id="Path_7051" data-name="Path 7051" class="cls-1" d="M211.661 117.957V20.524h-29.486v47.308z" transform="translate(-14.093 -20.523)"/><path id="Path_7052" data-name="Path 7052" class="cls-1" d="M198.555 20.524H170.5v115.585h29.326V76.067l35.886 60.042h28.4v-4.12z" transform="translate(-66.541 -20.523)"/></g><g id="Group_6106" data-name="Group 6106" transform="translate(248.943)"><path id="Path_7047" data-name="Path 7047" class="cls-1" d="M170.461 116.752v-73.48h31.051v70.514c0 14.053 3.109 19.185 16.366 19.185 12.96 0 16.542-4.516 16.542-19.185V43.272h30.106v73.48c0 28.859-11.845 43.995-47.1 43.995-34.631 0-46.965-15.136-46.965-43.995z" transform="translate(-65.372 -41.723)"/><path id="Path_7048" data-name="Path 7048" class="cls-1" d="M189.668 150.461l15.613-23.547c7.01 4.664 18.24 8.581 31.353 8.581 12.015 0 14.509-2.967 14.509-8.274 0-7.939-4.049-8.109-23.091-12.773-22.618-5.637-32.606-15.3-32.606-34.8 0-25.277 16.064-36.66 43.528-36.66 17.778 0 28.706 3.1 38.693 7.944l-13.416 25.9a55.576 55.576 0 0 0-24.491-5.3c-10.153 0-14.207 1.258-14.207 7.169 0 6.082 4.373 7.021 16.383 10 29.172 7.164 39.308 14.191 39.308 38.039 0 21.388-12.79 34.968-43.687 34.968-20.266.004-35.704-3.144-47.889-11.247z" transform="translate(20.94 -42.99)"/><path id="Path_7049" data-name="Path 7049" class="cls-1" d="M209.508 43.272h30.886v115.58h-30.886z" transform="translate(110.104 -41.723)"/><path id="Rectangle_4203" data-name="Rectangle 4203" class="cls-1" transform="translate(0 1.549)" d="M0 0h26.733v115.58H0z"/><path id="Path_7050" data-name="Path 7050" class="cls-1" d="M212.107 81.789c0-23.552-10.29-38.517-40.561-38.517h-14.053V70.1h13.125c8.427 0 11.382 3.91 11.382 13.881 0 9.664-2.956 13.581-11.383 13.581h-13.124v25.409h7.038l14.817 35.88h32.3l-17.487-40.715c13.112-6.856 17.946-20.261 17.946-36.347z" transform="translate(-123.651 -41.723)"/><path id="Path_7053" data-name="Path 7053" class="cls-1" d="M278.863 43.13h-24.678L217.849 159.5h27.48z" transform="translate(147.581 -42.363)"/><path id="Path_7054" data-name="Path 7054" class="cls-1" d="M255.815 43.13H254.5l-13.848 48.038 8.455 28.085h-16.553l-7.636 26.519h31.353l3.906 13.724h31.98z" transform="translate(179.345 -42.363)"/></g></g></g></svg>