<svg xmlns="http://www.w3.org/2000/svg" viewBox="0 0 174.695 81.221">
  <g data-name="Group 5730">
    <path data-name="Path 6955" d="M20.694 20.307h9.739a1.229 1.229 0 0 0 1.245-1.244v-5.937C31.678 4.448 24.548 0 15.814 0 7.107 0 0 4.384 0 13.049v34.467c0 8.354 7.1 13.067 15.814 13.067 8.733 0 15.864-4.447 15.864-13.126V25.121c0-1.787-1.666-1.938-2.8-1.257l-13.256 7.334c-.74.261-1.046.633-1.046 1.258v7.578c0 .871.6 1.107 1.265.871l2.705-1.817c.637-.236.9.182.9.627v6.95c0 1.653-1.581 3.014-3.636 3.014-1.874 0-3.627-1.36-3.627-3.014V14.446a3.834 3.834 0 0 1 3.626-3.544 3.509 3.509 0 0 1 3.636 3.544v4.616a1.176 1.176 0 0 0 1.245 1.245z"/>
    <path data-name="Path 6956" d="M57.825 1.869c-.188-.482-.608-1.3-1.4-1.3h-9.481a1.729 1.729 0 0 0-1.572 1.3l-8.777 24.187a19.1 19.1 0 0 0-.863 5.058v27.572a1.157 1.157 0 0 0 1.244 1.244h9.128a1.269 1.269 0 0 0 1.244-1.244v-7.432a1.738 1.738 0 0 1 .721-1.3l6.711-4.023a.813.813 0 0 1 1.119.852v11.9a1.212 1.212 0 0 0 1.244 1.244h9.126a1.194 1.194 0 0 0 1.244-1.244V31.199a20.7 20.7 0 0 0-.87-5.162zm-6.913 16.808c.126-.5.463-.757.71-.757.39 0 .539.337.637.654l3.13 10.173a16.977 16.977 0 0 1 .51 3.592v2.371a1.424 1.424 0 0 1-.818 1.4l-6.356 3.891c-.537.177-1.377 0-1.377-.792v-7.118a12.155 12.155 0 0 1 .473-3.243z"/>
    <path data-name="Path 6957" d="M165.006 1.869c-.188-.482-.609-1.3-1.4-1.3h-9.483a1.727 1.727 0 0 0-1.571 1.3l-8.777 24.187a19.1 19.1 0 0 0-.863 5.058v27.572a1.39 1.39 0 0 0 1.244 1.244h9.126a1.389 1.389 0 0 0 1.244-1.244v-7.432a1.614 1.614 0 0 1 .721-1.3l6.953-4.117c.5-.089.875.423.877.947v11.9a1.389 1.389 0 0 0 1.244 1.244h9.126a1.39 1.39 0 0 0 1.245-1.244V31.2a20.687 20.687 0 0 0-.871-5.162zm-6.573 15.777l.01-.005c.107-.394.25-.411.339-.411.007 0 .015-.007.02-.018.005.011.012.018.02.018.089 0 .232.018.34.411l.017.008 3.391 11.1a17.067 17.067 0 0 1 .51 3.592v2.371a1.424 1.424 0 0 1-.817 1.4l-6.357 3.892c-.537.177-1.377 0-1.377-.792v-7.121a12.153 12.153 0 0 1 .473-3.243z"/>
    <path data-name="Path 6958" d="M87.546.523h-14.4c-1.012 0-1.555.521-1.555 1.639v56.524a1.133 1.133 0 0 0 1.244 1.244h9.575a1.092 1.092 0 0 0 1.244-1.244v-7.43a1.213 1.213 0 0 1 .765-1.3l5.834-3.736c.565-.176.9.159.9.732v11.736c0 .953.429 1.244 1.243 1.244h9.59a1.39 1.39 0 0 0 1.245-1.244v-5.405c0-2.765-.416-6.507-4.9-8.593 2.182-1.179 4.7-3.5 4.89-9.622h.012v-21.93C103.231 4.461 96.278.523 87.546.523zm3.595 14.669v19.085a2.346 2.346 0 0 1-1.242 2.3l-4.977 3.379c-.544.2-1.265-.075-1.265-.67V12.272a.829.829 0 0 1 .837-.895h3.68c2.23 0 2.967 1.463 2.967 3.777z"/>
    <path data-name="Path 6959" d="M123.388.523h-14.4c-1.012 0-1.556.521-1.556 1.639v56.524a1.134 1.134 0 0 0 1.245 1.244h9.578a1.092 1.092 0 0 0 1.244-1.244v-7.43a1.213 1.213 0 0 1 .765-1.3l5.834-3.736c.565-.176.9.159.9.732v11.736c0 .953.43 1.244 1.244 1.244h9.59a1.389 1.389 0 0 0 1.244-1.244v-7.521c0-3.58-2.608-5.613-4.9-6.476 2.181-1.179 4.7-3.5 4.891-9.622h.01V13.138C139.074 4.461 132.122.523 123.388.523zm3.595 14.669v19.085a2.345 2.345 0 0 1-1.241 2.3l-4.977 3.379c-.545.2-1.264-.075-1.264-.67V12.272a.829.829 0 0 1 .837-.895h3.679c2.232 0 2.967 1.463 2.967 3.777z"/>
  </g>
  <g data-name="Group 5733">
    <g data-name="Group 5731">
      <path data-name="Path 6960" d="M106.386 76.161c0-1.909-.105-2.342-1-2.342-.754 0-.847.446-.847 2.342s.093 2.24.847 2.24c.883 0 1-.316 1-2.24m-3.607 3.769c-.759-.728-.876-1.772-.876-3.848 0-1.982.1-3.278.936-3.988a2.612 2.612 0 0 1 1.771-.552 3.5 3.5 0 0 1 1.777.323v-2.794h2.606v11.421l-2.192.022-.075-.424a3.849 3.849 0 0 1-2.223.467 2.43 2.43 0 0 1-1.725-.627"/>
      <path data-name="Rectangle 4020" d="M88.532 69.071h2.609v11.393h-2.609z"/>
      <path data-name="Path 6961" d="M96.355 76.394l.014.988c0 .768-.131 1.153-.929 1.153-.545 0-.662-.276-.662-1.124 0-.767.1-1.018 1.578-1.018m2.57-2.113a2.867 2.867 0 0 0-.575-2.046 3.431 3.431 0 0 0-2.413-.722 12.181 12.181 0 0 0-3.232.52l.6 1.856a6.541 6.541 0 0 1 2.46-.307c.309.038.574.3.592.977h-.154c-2.8 0-3.931.576-3.931 3.039 0 2.394.925 2.961 2.523 2.961a2.816 2.816 0 0 0 1.91-.461l.1.413 2.1-.046z"/>
      <path data-name="Path 6962" d="M136.232 76.394l.013.988c0 .768-.131 1.153-.929 1.153-.544 0-.663-.276-.663-1.124 0-.767.1-1.018 1.579-1.018m2.568-2.113a2.874 2.874 0 0 0-.573-2.046 3.43 3.43 0 0 0-2.412-.722 12.182 12.182 0 0 0-3.234.52l.6 1.856a6.533 6.533 0 0 1 2.459-.307c.307.038.574.3.591.977h-.145c-2.8 0-3.931.576-3.931 3.039 0 2.394.924 2.961 2.524 2.961a2.811 2.811 0 0 0 1.909-.461l.1.413 2.1-.046z"/>
      <path data-name="Path 6963" d="M128.173 71.647h2.609v8.84h-2.609zm0-2.576h2.609v1.883h-2.609z"/>
      <path data-name="Path 6964" d="M122.533 71.747l2.174-.121.112.484a3.439 3.439 0 0 1 2.062-.484v2.323c-1.157.029-1.734.332-1.734 1.533v4.993h-2.614z"/>
      <path data-name="Path 6965" d="M118.593 76.394l.013.988c0 .768-.129 1.153-.928 1.153-.545 0-.662-.276-.662-1.124 0-.767.1-1.018 1.577-1.018m2.569-2.113a2.867 2.867 0 0 0-.574-2.046 3.427 3.427 0 0 0-2.411-.722 12.193 12.193 0 0 0-3.235.52l.6 1.856a6.54 6.54 0 0 1 2.461-.307c.307.038.574.3.591.977h-.155c-2.8 0-3.932.576-3.932 3.039 0 2.394.926 2.961 2.525 2.961a2.812 2.812 0 0 0 1.909-.461l.105.413 2.1-.046z"/>
      <path data-name="Path 6966" d="M110.535 71.647h2.609v8.84h-2.609zm0-2.576h2.609v1.883h-2.609z"/>
    </g>
    <g data-name="Group 5732">
      <path data-name="Path 6967" d="M35.965 76.274c0-1.713.238-3.2 2.1-3.2 1.1 0 1.543.261 1.8.7v-3.071h.828v8.69l-.658.057-.08-.738c-.261.477-.749.794-1.928.794-1.844-.003-2.062-1.503-2.062-3.232zm3.9.023c0-1.384-.1-2.45-1.611-2.45-1.293 0-1.463 1.055-1.463 2.45s.159 2.473 1.463 2.473c1.5 0 1.611-1.089 1.611-2.474z"/>
      <path data-name="Path 6968" d="M42.931 76.283c0-1.917.408-3.21 2.36-3.21 2.076 0 2.088 1.339 2.076 3.562h-3.641c.034 1.35.295 2.144 1.6 2.144a3.151 3.151 0 0 0 1.567-.363l.329.647a3.825 3.825 0 0 1-1.928.442c-2.023.002-2.363-1.269-2.363-3.222zm.794-.408h2.87c-.034-1.237-.023-2.064-1.316-2.064-1.225 0-1.509.794-1.554 2.065z"/>
      <path data-name="Path 6969" d="M49.579 73.222l.658-.045.068.692c.261-.465.771-.794 1.94-.794 1.849 0 2.065 1.509 2.065 3.21 0 1.725-.238 3.222-2.088 3.222-1.1 0-1.543-.272-1.815-.715v2.428h-.828v-8zm3.9 3.1c0-1.4-.17-2.473-1.463-2.473-1.5 0-1.611 1.089-1.611 2.473s.113 2.451 1.611 2.451c1.282 0 1.463-1.043 1.463-2.45z"/>
      <path data-name="Path 6970" d="M56.307 76.283c0-1.8.329-3.21 2.405-3.21s2.416 1.43 2.416 3.21c0 1.838-.329 3.233-2.416 3.233-2.053.003-2.405-1.404-2.405-3.233zm3.982.034c0-1.384-.148-2.473-1.577-2.473s-1.577 1.089-1.577 2.473c0 1.361.159 2.462 1.577 2.462s1.577-1.096 1.577-2.46z"/>
      <path data-name="Path 6971" d="M63.352 73.223l.647-.045.091.749c.227-.442.7-.805 1.736-.805v.783c-1.567.034-1.645 1.2-1.645 2.428v3.1h-.828z"/>
      <path data-name="Path 6972" d="M67.312 73.177h.953l.136-1.747.681-.148v1.895h1.486v.726h-1.486v3.88c0 .59.091.908.794.908h.693v.737a19.23 19.23 0 0 1-.771.023c-1.282 0-1.543-.511-1.543-1.588v-3.959h-.942z"/>
      <path data-name="Path 6973" d="M72.326 76.283c0-1.917.408-3.21 2.36-3.21 2.076 0 2.088 1.339 2.076 3.562h-3.641c.034 1.35.295 2.144 1.6 2.144a3.151 3.151 0 0 0 1.567-.363l.329.647a3.825 3.825 0 0 1-1.928.442c-2.023.002-2.363-1.269-2.363-3.222zm.794-.408h2.87c-.034-1.237-.023-2.064-1.316-2.064-1.226 0-1.509.794-1.554 2.065z"/>
      <path data-name="Path 6974" d="M78.521 79.11l.329-.669a3.5 3.5 0 0 0 1.6.374c.737 0 1.168-.307 1.168-.964s-.42-.908-1.316-1.339c-1-.477-1.6-.851-1.6-1.827 0-1.078.658-1.611 1.861-1.611a3.644 3.644 0 0 1 1.6.295l-.317.692a3.267 3.267 0 0 0-1.3-.261c-.76 0-1.044.329-1.044.873s.386.794 1.271 1.214c1.021.477 1.634.862 1.634 1.963 0 1.123-.737 1.656-1.951 1.656a4.313 4.313 0 0 1-1.935-.396z"/>
    </g>
  </g>
</svg>
