<svg xmlns="http://www.w3.org/2000/svg" viewBox="0 0 172.735 34.799">
  <defs>
    <style>
      .cls-1 {
        fill: #e50043;
      }
    </style>
  </defs>
  <g id="Group_6103" data-name="Group 6103" transform="translate(-7190.001 2750.786)">
    <path id="Path_7035" data-name="Path 7035" d="M22.365,19.9c-5,0-9.084,2.518-9.084,7.5V47.2c0,4.8,4.079,7.506,9.084,7.506s9.113-2.555,9.113-7.54V34.332c0-1.026-.958-1.113-1.609-.722l-7.612,4.212c-.425.149-.6.364-.6.724V42.9c0,.5.346.635.726.5l1.553-1.045c.366-.137.519.106.519.361v3.991a1.923,1.923,0,0,1-2.089,1.732,1.985,1.985,0,0,1-2.082-1.732V28.2a2.2,2.2,0,0,1,2.082-2.035A2.015,2.015,0,0,1,24.453,28.2v2.651a.676.676,0,0,0,.715.716h5.594a.707.707,0,0,0,.715-.716V27.442C31.477,22.456,27.381,19.9,22.365,19.9Z" transform="translate(7176.72 -2770.688)"/>
    <path id="Path_7036" data-name="Path 7036" d="M52.572,21.071c-.108-.277-.35-.748-.8-.748H46.323a.992.992,0,0,0-.9.748L40.38,34.963a10.982,10.982,0,0,0-.5,2.906V53.707a.666.666,0,0,0,.715.714h5.24a.73.73,0,0,0,.716-.714V49.438a1,1,0,0,1,.413-.748l3.855-2.31c.43-.15.641.188.642.49v6.837a.7.7,0,0,0,.716.714h5.242a.686.686,0,0,0,.715-.714V37.918a11.885,11.885,0,0,0-.5-2.965ZM51.467,39.935a.82.82,0,0,1-.471.806l-3.649,2.235c-.309.1-.791,0-.791-.455V38.431a6.916,6.916,0,0,1,.273-1.863L48.6,30.725c.073-.285.267-.434.408-.434.223,0,.309.194.366.375l1.8,5.844a9.832,9.832,0,0,1,.293,2.063C51.467,39.316,51.467,39.935,51.467,39.935Z" transform="translate(7170.643 -2770.784)"/>
    <path id="Path_7037" data-name="Path 7037" d="M137.431,34.954l-5.065-13.883c-.107-.277-.35-.748-.8-.748h-5.447a.989.989,0,0,0-.9.748l-5.042,13.892a10.95,10.95,0,0,0-.5,2.906V53.707a.8.8,0,0,0,.714.714h5.241a.8.8,0,0,0,.716-.714V49.438a.922.922,0,0,1,.414-.748l3.994-2.364c.287-.051.5.244.5.544v6.837a.8.8,0,0,0,.714.714h5.241a.8.8,0,0,0,.714-.714V37.918A11.92,11.92,0,0,0,137.431,34.954Zm-6.172,4.981a.815.815,0,0,1-.471.8l-3.65,2.234c-.309.1-.791,0-.791-.453V38.429a6.966,6.966,0,0,1,.272-1.862l1.971-6.435.006,0c.062-.227.142-.236.194-.236a.015.015,0,0,0,.011-.011c0,.006.008.011.012.011.052,0,.134.009.2.236l.009.005,1.947,6.375a9.82,9.82,0,0,1,.294,2.063C131.259,39.315,131.259,39.935,131.259,39.935Z" transform="translate(7152.416 -2770.784)"/>
    <path id="Path_7038" data-name="Path 7038" d="M75.741,20.292h-8.27c-.583,0-.9.3-.9.942V53.7a.652.652,0,0,0,.716.714h5.5a.628.628,0,0,0,.715-.714V49.433a.7.7,0,0,1,.438-.748L77.3,46.538c.325-.1.515.092.515.421V53.7c0,.547.246.714.714.714h5.509a.8.8,0,0,0,.715-.714V50.6c0-1.589-.238-3.738-2.815-4.936,1.251-.678,2.7-2.012,2.808-5.528l.008,0v-12.6C84.751,22.553,80.756,20.292,75.741,20.292Zm2.065,8.426V39.68A1.345,1.345,0,0,1,77.092,41l-2.859,1.94c-.312.114-.725-.043-.725-.384V27.04a.476.476,0,0,1,.481-.514H76.1c1.279,0,1.7.84,1.7,2.17v.022Z" transform="translate(7164.545 -2770.777)"/>
    <path id="Path_7039" data-name="Path 7039" d="M102.426,20.292H94.154c-.582,0-.893.3-.893.942V53.7a.651.651,0,0,0,.714.714h5.5a.627.627,0,0,0,.714-.714V49.433a.7.7,0,0,1,.437-.748l3.352-2.147c.324-.1.515.092.515.421V53.7c0,.547.247.714.716.714h5.508a.8.8,0,0,0,.714-.714V49.382a4,4,0,0,0-2.815-3.72c1.252-.678,2.7-2.012,2.81-5.528l.005,0v-12.6C111.434,22.553,107.443,20.292,102.426,20.292Zm2.064,8.426V39.68A1.347,1.347,0,0,1,103.776,41l-2.858,1.94c-.313.114-.726-.043-.726-.384V27.04a.475.475,0,0,1,.48-.514h2.113c1.282,0,1.7.84,1.7,2.17Z" transform="translate(7158.45 -2770.777)"/>
    <path id="Path_7043" data-name="Path 7043" d="M52.572,21.071c-.108-.277-.35-.748-.8-.748H46.323a.992.992,0,0,0-.9.748L40.38,34.963a10.982,10.982,0,0,0-.5,2.906V53.707a.666.666,0,0,0,.715.714h5.24a.73.73,0,0,0,.716-.714V49.438a1,1,0,0,1,.413-.748l3.855-2.31c.43-.15.641.188.642.49v6.837a.7.7,0,0,0,.716.714h5.242a.686.686,0,0,0,.715-.714V37.918a11.885,11.885,0,0,0-.5-2.965ZM51.467,39.935a.82.82,0,0,1-.471.806l-3.649,2.235c-.309.1-.791,0-.791-.455V38.431a6.916,6.916,0,0,1,.273-1.863L48.6,30.725c.073-.285.267-.434.408-.434.223,0,.309.194.366.375l1.8,5.844a9.832,9.832,0,0,1,.293,2.063C51.467,39.316,51.467,39.935,51.467,39.935Z" transform="translate(7170.643 -2770.784)"/>
    <path id="Path_7044" data-name="Path 7044" d="M137.431,34.954l-5.065-13.883c-.107-.277-.35-.748-.8-.748h-5.447a.989.989,0,0,0-.9.748l-5.042,13.892a10.95,10.95,0,0,0-.5,2.906V53.707a.8.8,0,0,0,.714.714h5.241a.8.8,0,0,0,.716-.714V49.438a.922.922,0,0,1,.414-.748l3.994-2.364c.287-.051.5.244.5.544v6.837a.8.8,0,0,0,.714.714h5.241a.8.8,0,0,0,.714-.714V37.918A11.92,11.92,0,0,0,137.431,34.954Zm-6.172,4.981a.815.815,0,0,1-.471.8l-3.65,2.234c-.309.1-.791,0-.791-.453V38.429a6.966,6.966,0,0,1,.272-1.862l1.971-6.435.006,0c.062-.227.142-.236.194-.236a.015.015,0,0,0,.011-.011c0,.006.008.011.012.011.052,0,.134.009.2.236l.009.005,1.947,6.375a9.82,9.82,0,0,1,.294,2.063C131.259,39.315,131.259,39.935,131.259,39.935Z" transform="translate(7152.416 -2770.784)"/>
    <path id="Path_7045" data-name="Path 7045" d="M75.741,20.292h-8.27c-.583,0-.9.3-.9.942V53.7a.652.652,0,0,0,.716.714h5.5a.628.628,0,0,0,.715-.714V49.433a.7.7,0,0,1,.438-.748L77.3,46.538c.325-.1.515.092.515.421V53.7c0,.547.246.714.714.714h5.509a.8.8,0,0,0,.715-.714V50.6c0-1.589-.238-3.738-2.815-4.936,1.251-.678,2.7-2.012,2.808-5.528l.008,0v-12.6C84.751,22.553,80.756,20.292,75.741,20.292Zm2.065,8.426V39.68A1.345,1.345,0,0,1,77.092,41l-2.859,1.94c-.312.114-.725-.043-.725-.384V27.04a.476.476,0,0,1,.481-.514H76.1c1.279,0,1.7.84,1.7,2.17v.022Z" transform="translate(7164.546 -2770.777)"/>
    <path id="Path_7046" data-name="Path 7046" d="M102.426,20.292H94.154c-.582,0-.893.3-.893.942V53.7a.651.651,0,0,0,.714.714h5.5a.627.627,0,0,0,.714-.714V49.433a.7.7,0,0,1,.437-.748l3.352-2.147c.324-.1.515.092.515.421V53.7c0,.547.247.714.716.714h5.508a.8.8,0,0,0,.714-.714V49.382a4,4,0,0,0-2.815-3.72c1.252-.678,2.7-2.012,2.81-5.528l.005,0v-12.6C111.434,22.553,107.443,20.292,102.426,20.292Zm2.064,8.426V39.68A1.347,1.347,0,0,1,103.776,41l-2.858,1.94c-.313.114-.726-.043-.726-.384V27.04a.475.475,0,0,1,.48-.514h2.113c1.282,0,1.7.84,1.7,2.17Z" transform="translate(7158.45 -2770.777)"/>
    <path id="Path_7047" data-name="Path 7047" class="cls-1" d="M170.461,53.592V43.272h4.361v9.9c0,1.974.437,2.694,2.3,2.694,1.82,0,2.323-.634,2.323-2.694v-9.9h4.228v10.32c0,4.053-1.664,6.179-6.615,6.179C172.193,59.77,170.461,57.645,170.461,53.592Z" transform="translate(7140.815 -2776.026)"/>
    <path id="Path_7048" data-name="Path 7048" class="cls-1" d="M189.668,58.083l2.193-3.307a8.167,8.167,0,0,0,4.4,1.205c1.687,0,2.038-.417,2.038-1.162,0-1.115-.569-1.139-3.243-1.794-3.177-.792-4.579-2.149-4.579-4.887,0-3.55,2.256-5.149,6.113-5.149a11.566,11.566,0,0,1,5.434,1.116l-1.884,3.638A7.805,7.805,0,0,0,196.7,47c-1.426,0-2,.177-2,1.007,0,.854.614.986,2.3,1.4,4.1,1.006,5.521,1.993,5.521,5.342,0,3-1.8,4.911-6.135,4.911C193.547,59.664,191.379,59.221,189.668,58.083Z" transform="translate(7136.427 -2775.962)"/>
    <path id="Path_7049" data-name="Path 7049" class="cls-1" d="M209.508,43.272h4.338V59.5h-4.338Z" transform="translate(7131.896 -2776.026)"/>
    <rect id="Rectangle_4199" data-name="Rectangle 4199" class="cls-1" width="5.845" height="3.853" transform="translate(7301.38 -2744.214)"/>
    <rect id="Rectangle_4200" data-name="Rectangle 4200" class="cls-1" width="3.674" height="16.234" transform="translate(7296.708 -2750.306)"/>
    <rect id="Rectangle_4201" data-name="Rectangle 4201" class="cls-1" width="6.108" height="3.966" transform="translate(7301.38 -2750.306)"/>
    <rect id="Rectangle_4202" data-name="Rectangle 4202" class="cls-1" width="6.108" height="3.854" transform="translate(7301.38 -2737.927)"/>
    <rect id="Rectangle_4203" data-name="Rectangle 4203" class="cls-1" width="3.754" height="16.232" transform="translate(7296.518 -2732.754)"/>
    <path id="Path_7050" data-name="Path 7050" class="cls-1" d="M165.163,48.681c0-3.308-1.445-5.409-5.7-5.409h-1.974V47.04h1.843c1.184,0,1.6.549,1.6,1.95,0,1.357-.415,1.907-1.6,1.907h-1.843v3.568h.988l2.081,5.039H165.1l-2.456-5.718C164.484,52.823,165.163,50.941,165.163,48.681Z" transform="translate(7143.777 -2776.026)"/>
    <path id="Path_7051" data-name="Path 7051" class="cls-1" d="M186.316,34.208V20.524h-4.141v6.644Z" transform="translate(7138.139 -2770.83)"/>
    <path id="Path_7052" data-name="Path 7052" class="cls-1" d="M174.443,20.524H170.5V36.757h4.119V28.325l5.04,8.432h3.988v-.579Z" transform="translate(7140.806 -2770.83)"/>
    <path id="Path_7053" data-name="Path 7053" class="cls-1" d="M226.418,43.13h-3.466l-5.1,16.343h3.859Z" transform="translate(7129.99 -2775.994)"/>
    <path id="Path_7054" data-name="Path 7054" class="cls-1" d="M229.257,43.13h-.185l-1.944,6.747,1.187,3.944H225.99l-1.072,3.724h4.4l.549,1.927h4.491Z" transform="translate(7128.375 -2775.994)"/>
  </g>
</svg>
