<svg xmlns="http://www.w3.org/2000/svg" viewBox="0 0 397.45 80.07"><defs><style>.a{fill:#fff;}.b{fill:#e50043;}</style></defs><g transform="translate(-6544 -1827.911)"><g transform="translate(6544.002 1827.911)"><path d="M34.182,19.9c-11.506,0-20.9,5.793-20.9,17.247V82.7c0,11.039,9.386,17.27,20.9,17.27,11.543,0,20.968-5.878,20.968-17.348V53.1c0-2.361-2.2-2.562-3.7-1.662L33.931,61.133c-.978.343-1.383.838-1.383,1.665V72.813c0,1.15.8,1.461,1.671,1.15l3.574-2.4c.841-.314,1.195.243,1.195.831v9.184c0,2.187-2.09,3.986-4.806,3.986-2.475,0-4.792-1.8-4.792-3.986V38.994a5.067,5.067,0,0,1,4.792-4.683,4.636,4.636,0,0,1,4.806,4.683v6.1a1.556,1.556,0,0,0,1.646,1.647H53.5a1.627,1.627,0,0,0,1.646-1.647V37.25C55.148,25.778,45.725,19.9,34.182,19.9Z" transform="translate(-13.281 -19.902)"/><path d="M69.079,22.045c-.249-.637-.8-1.722-1.848-1.722H54.7v0a2.283,2.283,0,0,0-2.077,1.72l-11.6,31.964A25.268,25.268,0,0,0,39.884,60.7V97.137a1.531,1.531,0,0,0,1.646,1.644H53.588a1.679,1.679,0,0,0,1.647-1.644V87.314a2.3,2.3,0,0,1,.95-1.72l8.869-5.315c.989-.346,1.475.433,1.477,1.127V97.137a1.6,1.6,0,0,0,1.647,1.644H80.24a1.579,1.579,0,0,0,1.646-1.644V60.807a27.346,27.346,0,0,0-1.152-6.822Zm-2.544,43.4A1.886,1.886,0,0,1,65.452,67.3l-8.4,5.143c-.71.234-1.82,0-1.82-1.047V61.988a15.912,15.912,0,0,1,.628-4.287l4.08-13.443c.167-.655.614-1,.939-1,.513,0,.71.447.841.863l4.138,13.446a22.623,22.623,0,0,1,.675,4.747C66.535,64.024,66.535,65.449,66.535,65.449Z" transform="translate(7.344 -19.576)"/><path d="M160.528,53.988,148.874,22.045c-.247-.637-.8-1.722-1.852-1.722H134.489v0a2.275,2.275,0,0,0-2.07,1.72l-11.6,31.964a25.2,25.2,0,0,0-1.142,6.686V97.137a1.838,1.838,0,0,0,1.644,1.644h12.06a1.838,1.838,0,0,0,1.647-1.644V87.314a2.122,2.122,0,0,1,.953-1.72l9.189-5.44c.66-.117,1.156.561,1.159,1.252V97.137a1.835,1.835,0,0,0,1.644,1.644h12.06a1.835,1.835,0,0,0,1.644-1.644V60.807A27.426,27.426,0,0,0,160.528,53.988Zm-14.2,11.461a1.876,1.876,0,0,1-1.083,1.852l-8.4,5.141c-.71.236-1.82,0-1.82-1.042V61.984a16.028,16.028,0,0,1,.625-4.284l4.536-14.806.014-.007c.142-.522.327-.543.447-.543a.034.034,0,0,0,.025-.025c.011.014.018.025.028.025.121,0,.309.021.451.543l.021.012,4.481,14.668a22.593,22.593,0,0,1,.676,4.747C146.327,64.022,146.327,65.449,146.327,65.449Z" transform="translate(69.208 -19.576)"/><path d="M87.665,20.292H68.635c-1.342,0-2.059.687-2.059,2.168v74.7a1.5,1.5,0,0,0,1.647,1.644H80.881a1.445,1.445,0,0,0,1.646-1.644V87.342a1.6,1.6,0,0,1,1.008-1.72l7.71-4.941c.747-.233,1.186.211,1.186.968V97.164c0,1.259.566,1.644,1.644,1.644h12.676a1.837,1.837,0,0,0,1.646-1.644v-7.14c0-3.657-.549-8.6-6.476-11.357,2.88-1.56,6.212-4.63,6.46-12.718l.018,0V36.964C108.4,25.5,99.2,20.292,87.665,20.292ZM92.416,39.68V64.9a3.1,3.1,0,0,1-1.642,3.046L84.2,72.413c-.717.263-1.669-.1-1.669-.884V35.819a1.1,1.1,0,0,1,1.106-1.182H88.5c2.943,0,3.918,1.933,3.918,4.992v.051Z" transform="translate(28.039 -19.6)"/><path d="M114.348,20.292H95.315c-1.339,0-2.054.687-2.054,2.168v74.7A1.5,1.5,0,0,0,94.9,98.808h12.661a1.444,1.444,0,0,0,1.644-1.644V87.342a1.6,1.6,0,0,1,1.007-1.72l7.714-4.941c.746-.233,1.184.211,1.184.968V97.164c0,1.259.568,1.644,1.647,1.644h12.674a1.836,1.836,0,0,0,1.644-1.644V87.226c0-4.733-3.444-7.421-6.476-8.561,2.881-1.56,6.219-4.63,6.466-12.718l.012,0V36.964C135.077,25.5,125.893,20.292,114.348,20.292ZM119.1,39.68V64.9a3.1,3.1,0,0,1-1.642,3.046l-6.576,4.465c-.721.263-1.671-.1-1.671-.884V35.819a1.093,1.093,0,0,1,1.1-1.182h4.863c2.951,0,3.922,1.933,3.922,4.992Z" transform="translate(48.728 -19.6)"/></g><g transform="translate(6544 1848.773)"><path class="a" d="M43.922,32.544v-.891L27.761,33.412V34.3Z" transform="translate(-2.053 -31.653)"/><path class="a" d="M29.389,34.122v-.891L13.28,34.985v.891Z" transform="translate(-13.28 -30.43)"/><path class="a" d="M52.932,56.029c.009-.231.037-.449.037-.685v-.261L16.093,67.214c.252.234.517.458.783.676Z" transform="translate(-11.099 -13.488)"/></g><path d="M69.079,22.045c-.249-.637-.8-1.722-1.848-1.722H54.7v0a2.283,2.283,0,0,0-2.077,1.72l-11.6,31.964A25.268,25.268,0,0,0,39.884,60.7V97.137a1.531,1.531,0,0,0,1.646,1.644H53.588a1.679,1.679,0,0,0,1.647-1.644V87.314a2.3,2.3,0,0,1,.95-1.72l8.869-5.315c.989-.346,1.475.433,1.477,1.127V97.137a1.6,1.6,0,0,0,1.647,1.644H80.24a1.579,1.579,0,0,0,1.646-1.644V60.807a27.346,27.346,0,0,0-1.152-6.822Zm-2.544,43.4A1.886,1.886,0,0,1,65.452,67.3l-8.4,5.143c-.71.234-1.82,0-1.82-1.047V61.988a15.912,15.912,0,0,1,.628-4.287l4.08-13.443c.167-.655.614-1,.939-1,.513,0,.71.447.841.863l4.138,13.446a22.623,22.623,0,0,1,.675,4.747C66.535,64.024,66.535,65.449,66.535,65.449Z" transform="translate(6551.347 1808.336)"/><path d="M160.528,53.988,148.874,22.045c-.247-.637-.8-1.722-1.852-1.722H134.489v0a2.275,2.275,0,0,0-2.07,1.72l-11.6,31.964a25.2,25.2,0,0,0-1.142,6.686V97.137a1.838,1.838,0,0,0,1.644,1.644h12.06a1.838,1.838,0,0,0,1.647-1.644V87.314a2.122,2.122,0,0,1,.953-1.72l9.189-5.44c.66-.117,1.156.561,1.159,1.252V97.137a1.835,1.835,0,0,0,1.644,1.644h12.06a1.835,1.835,0,0,0,1.644-1.644V60.807A27.426,27.426,0,0,0,160.528,53.988Zm-14.2,11.461a1.876,1.876,0,0,1-1.083,1.852l-8.4,5.141c-.71.236-1.82,0-1.82-1.042V61.984a16.028,16.028,0,0,1,.625-4.284l4.536-14.806.014-.007c.142-.522.327-.543.447-.543a.034.034,0,0,0,.025-.025c.011.014.018.025.028.025.121,0,.309.021.451.543l.021.012,4.481,14.668a22.593,22.593,0,0,1,.676,4.747C146.327,64.022,146.327,65.449,146.327,65.449Z" transform="translate(6613.209 1808.336)"/><path d="M87.665,20.292H68.635c-1.342,0-2.059.687-2.059,2.168v74.7a1.5,1.5,0,0,0,1.647,1.644H80.881a1.445,1.445,0,0,0,1.646-1.644V87.342a1.6,1.6,0,0,1,1.008-1.72l7.71-4.941c.747-.233,1.186.211,1.186.968V97.164c0,1.259.566,1.644,1.644,1.644h12.676a1.837,1.837,0,0,0,1.646-1.644v-7.14c0-3.657-.549-8.6-6.476-11.357,2.88-1.56,6.212-4.63,6.46-12.718l.018,0V36.964C108.4,25.5,99.2,20.292,87.665,20.292ZM92.416,39.68V64.9a3.1,3.1,0,0,1-1.642,3.046L84.2,72.413c-.717.263-1.669-.1-1.669-.884V35.819a1.1,1.1,0,0,1,1.106-1.182H88.5c2.943,0,3.918,1.933,3.918,4.992v.051Z" transform="translate(6572.041 1808.312)"/><path d="M114.348,20.292H95.315c-1.339,0-2.054.687-2.054,2.168v74.7A1.5,1.5,0,0,0,94.9,98.808h12.661a1.444,1.444,0,0,0,1.644-1.644V87.342a1.6,1.6,0,0,1,1.007-1.72l7.714-4.941c.746-.233,1.184.211,1.184.968V97.164c0,1.259.568,1.644,1.647,1.644h12.674a1.836,1.836,0,0,0,1.644-1.644V87.226c0-4.733-3.444-7.421-6.476-8.561,2.881-1.56,6.219-4.63,6.466-12.718l.012,0V36.964C135.077,25.5,125.893,20.292,114.348,20.292ZM119.1,39.68V64.9a3.1,3.1,0,0,1-1.642,3.046l-6.576,4.465c-.721.263-1.671-.1-1.671-.884V35.819a1.093,1.093,0,0,1,1.1-1.182h4.863c2.951,0,3.922,1.933,3.922,4.992Z" transform="translate(6592.73 1808.312)"/><path class="b" d="M170.461,67.017V43.272H180.5V66.058c0,4.541,1,6.2,5.289,6.2,4.188,0,5.345-1.459,5.345-6.2V43.272h9.729V67.017c0,9.326-3.828,14.217-15.221,14.217C174.447,81.233,170.461,76.342,170.461,67.017Z" transform="translate(6652.583 1826.128)"/><path class="b" d="M189.668,77.719l5.045-7.609a18.792,18.792,0,0,0,10.132,2.773c3.883,0,4.689-.959,4.689-2.674,0-2.565-1.308-2.62-7.462-4.128-7.309-1.821-10.536-4.944-10.536-11.245,0-8.168,5.191-11.847,14.066-11.847,5.745,0,9.276,1,12.5,2.567l-4.335,8.371a17.959,17.959,0,0,0-7.914-1.713c-3.281,0-4.591.407-4.591,2.317,0,1.965,1.413,2.269,5.294,3.231,9.427,2.315,12.7,4.586,12.7,12.292,0,6.911-4.133,11.3-14.117,11.3C198.594,81.354,193.606,80.337,189.668,77.719Z" transform="translate(6667.475 1825.91)"/><path class="b" d="M209.508,43.272h9.981V80.621h-9.981Z" transform="translate(6682.857 1826.128)"/><g transform="translate(6789.525 1829.016)"><rect class="b" width="13.45" height="8.866" transform="translate(10.751 14.018)"/><rect class="b" width="8.454" height="37.352" transform="translate(0 0)"/><rect class="b" width="14.055" height="9.125" transform="translate(10.751 0)"/><rect class="b" width="14.055" height="8.868" transform="translate(10.751 28.483)"/></g><g transform="translate(6789.086 1869.4)"><rect class="b" width="8.639" height="37.349" transform="translate(0 0)"/><path class="b" d="M175.141,55.719c0-7.611-3.325-12.447-13.107-12.447h-4.541v8.669h4.241c2.723,0,3.678,1.264,3.678,4.486,0,3.123-.955,4.389-3.678,4.389h-4.241v8.211h2.274l4.788,11.595h10.437l-5.651-13.157C173.579,65.249,175.141,60.917,175.141,55.719Z" transform="translate(-146.557 -43.272)"/></g><g transform="translate(6823.119 1829.016)"><path class="b" d="M191.7,52.009V20.524h-9.528V35.811Z" transform="translate(-161.454 -20.524)"/><path class="b" d="M179.568,20.524H170.5V57.875h9.477v-19.4l11.6,19.4h9.177V56.543Z" transform="translate(-170.503 -20.524)"/></g><g transform="translate(6907.173 1869.148)"><path class="b" d="M237.566,43.13h-7.975l-11.742,37.6h8.88Z" transform="translate(-217.849 -43.13)"/><path class="b" d="M234.9,43.13h-.426L230,58.653l2.732,9.075h-5.349L224.918,76.3H235.05l1.262,4.435h10.334Z" transform="translate(-212.368 -43.13)"/></g><g transform="translate(6591.232 1844.457)"><path class="a" d="M71.82,30.078l-.312-.856L43.713,32.245l-.337.927Z" transform="translate(-37.178 -29.222)"/><path class="a" d="M81.885,47.24v-.932l-42,13.815v.934Z" transform="translate(-39.885 -15.975)"/></g><g transform="translate(6638.617 1838.627)"><path class="a" d="M92.046,52.666l-10.907,6.35v1.026L91.5,54.013c-.279-.154-.563-.307-.87-.449A12.688,12.688,0,0,0,92.046,52.666Z" transform="translate(-55.285 -5.216)"/><path class="a" d="M97.111,38.495v-.934l-15.98,5.255v.936Z" transform="translate(-55.291 -16.927)"/><path class="a" d="M82.141,59.491,67.074,68.263a1.945,1.945,0,0,0,.765.151h.74l13.563-7.9V59.491Z" transform="translate(-66.19 0.076)"/><path class="a" d="M82.527,43.288v-.934L66.576,47.6v.934Z" transform="translate(-66.576 -13.211)"/><path class="a" d="M107.47,26.788c-.1-.295-.238-.568-.359-.85L66.576,30.346v.891Z" transform="translate(-66.576 -25.938)"/></g><g transform="translate(6685.991 1833.834)"><path class="a" d="M123.761,29.717c-.011-.311-.023-.618-.046-.92l-15.9,5.23v.934Z" transform="translate(-81.977 -18.928)"/><path class="a" d="M131.254,24.046c-.252-.275-.506-.55-.779-.808L93.261,27.286v.891Z" transform="translate(-93.261 -23.238)"/><path class="a" d="M123.794,36.5V35.472l-15.98,9.3V45.8Z" transform="translate(-81.978 -13.753)"/><path class="a" d="M109.209,34.512v-.936L93.261,38.822v.936Z" transform="translate(-93.261 -15.223)"/><path class="a" d="M121.134,58.133a8.675,8.675,0,0,0-.181-1.269l-9.8,13.586h1.094Z" transform="translate(-79.386 2.832)"/><path class="a" d="M108.478,68.678a1.5,1.5,0,0,1,.985-1.466l2.152-1.378,22.71-20.6v-1.2L94.233,80.4h1.323Z" transform="translate(-92.507 -7.114)"/><path class="a" d="M109.209,44.98V43.956L93.261,53.241v1.026Z" transform="translate(-93.261 -7.175)"/></g><g transform="translate(6732.886 1829.646)"><path class="a" d="M143.662,21.726l-.039-.11a4.411,4.411,0,0,0-.366-.737l-16.471,1.793-.336.927Z" transform="translate(-114.424 -20.879)"/><path class="a" d="M145.777,23.145l-.3-.834L125.3,28.947l-.385,1.06Z" transform="translate(-115.618 -19.769)"/><path class="a" d="M142.917,29.371l-8.814,20,.362,1.188c.009.039.018.087.028.126l8.864-20.107Z" transform="translate(-108.491 -14.295)"/><path class="a" d="M148.366,24.562l-.309-.845L123.224,38.175l-.472,1.3Z" transform="translate(-117.291 -18.679)"/><path class="a" d="M132.724,42.366l10.35-14.355L142.706,27,132.4,41.3Z" transform="translate(-109.812 -16.13)"/><path class="a" d="M151.694,26.125l-.33-.9L119.93,53.734c-.078.476-.137.932-.186,1.369Z" transform="translate(-119.623 -17.511)"/><path class="a" d="M145.434,34.645l-.577-1.582L134.688,81.776v4.342Z" transform="translate(-108.037 -11.433)"/><path class="a" d="M135.932,42.01l.808-2.638L119.676,63.04v1.516Z" transform="translate(-119.676 -6.541)"/><path class="a" d="M137.017,48.581l-1.33.811L123.573,76.874h.969Z" transform="translate(-116.655 0.598)"/></g></g></svg>