<svg xmlns="http://www.w3.org/2000/svg" width="20" height="20" viewBox="0 0 20 20">
  <path fill="#FFFFFF" d="M10,4.4408921e-16 C4.4771525,-2.22044605e-16 2.66453526e-15,4.4771525 2.22044605e-15,10 C1.77635684e-15,15.5228475 4.4771525,20 10,20 C15.5228475,20 20,15.5228475 20,10 C20,7.3478351 18.9464316,4.80429597 17.0710678,2.92893219 C15.195704,1.0535684 12.6521649,2.22044605e-16 10,4.4408921e-16 Z M7.29,14.29 L3.7,10.7 C3.31227641,10.3099625 3.31227641,9.68003745 3.7,9.29 C4.09003745,8.90227641 4.71996255,8.90227641 5.11,9.29 L8,12.17 L14.88,5.29 C15.2700375,4.90227641 15.8999625,4.90227641 16.29,5.29 C16.6777236,5.68003745 16.6777236,6.30996255 16.29,6.7 L8.7,14.29 C8.30996255,14.6777236 7.68003745,14.6777236 7.29,14.29 Z"/>
</svg>
