<svg xmlns="http://www.w3.org/2000/svg" viewBox="0 0 33.604 30.245"><defs><style>.a{fill:#595959;}</style></defs><path class="a" d="M30.564,11.4H7.041A5.034,5.034,0,0,0,2,16.442v6.721a3.37,3.37,0,0,0,3.36,3.36h3.36v3.36a3.37,3.37,0,0,0,3.36,3.36H25.523a3.37,3.37,0,0,0,3.36-3.36v-3.36h3.36a3.37,3.37,0,0,0,3.361-3.36V16.442A5.034,5.034,0,0,0,30.564,11.4ZM23.843,29.884H13.762a1.685,1.685,0,0,1-1.68-1.68V21.483H25.523V28.2A1.685,1.685,0,0,1,23.843,29.884Zm6.721-11.762a1.68,1.68,0,1,1,1.68-1.68A1.685,1.685,0,0,1,30.564,18.122ZM27.2,3H10.4a1.685,1.685,0,0,0-1.68,1.68v3.36a1.685,1.685,0,0,0,1.68,1.68H27.2a1.685,1.685,0,0,0,1.68-1.68V4.68A1.685,1.685,0,0,0,27.2,3Z" transform="translate(-2 -3)"/></svg>
