<svg xmlns="http://www.w3.org/2000/svg" viewBox="12319.999 1396 20.112 18.101">
  <defs>
    <style>
      .a{fill:#a4a4a4}
    </style>
  </defs>
  <g transform="translate(11743.889 -79)">
    <circle class="a" cx="3.218" cy="3.218" r="3.218" transform="translate(582.948 1481.838)"/>
    <path class="a" d="M583.149 1475l-1.839 2.011h-3.189a2.017 2.017 0 0 0-2.011 2.011v12.068a2.017 2.017 0 0 0 2.011 2.01h16.089a2.017 2.017 0 0 0 2.011-2.011v-12.067a2.017 2.017 0 0 0-2.011-2.011h-3.187l-1.84-2.011zm3.017 15.084a5.028 5.028 0 1 1 5.028-5.028 5.03 5.03 0 0 1-5.028 5.028z"/>
  </g>
</svg>
