<svg xmlns="http://www.w3.org/2000/svg" width="256.54" height="64.704" viewBox="0 0 256.54 64.704"><g transform="translate(22618.9 -2718.1)"><g transform="translate(-22618.9 2718.1)"><rect width="13.291" height="10.589" transform="translate(112.314 0.438)" fill="#262626"/><rect width="13.291" height="10.589" transform="translate(202.939 0.438)" fill="#262626"/><path d="M26.055-1528.431c-3.87-4.089-4.455-10-4.455-21.689,0-11.173.511-18.476,4.747-22.492,1.9-1.753,4.6-3.14,9.055-3.14,4.309,0,6.864.511,9.055,1.825V-1589.7H57.748v64.336l-11.173.146-.365-2.41C43.362-1525.583,40-1525,34.891-1525A11.425,11.425,0,0,1,26.055-1528.431Zm18.4-21.251c0-10.735-.511-13.218-5.112-13.218-3.87,0-4.309,2.483-4.309,13.218,0,10.662.511,12.634,4.309,12.634C43.873-1537.048,44.457-1538.874,44.457-1549.682Z" transform="translate(46.679 1589.7)" fill="#262626" fill-rule="evenodd"/><path d="M-71.9-1589.6h13.364v64.19H-71.9Z" transform="translate(71.9 1589.673)" fill="#262626"/><path d="M-11.77-1555.172c0-5.185-.876-9.274-2.921-11.538-2.264-2.556-6.572-4.09-12.341-4.09a57.932,57.932,0,0,0-16.5,2.921l3.067,10.443a30.337,30.337,0,0,1,12.56-1.753c1.607.219,2.921,1.68,2.994,5.477h-.8c-14.313,0-20.082,3.213-20.082,17.161,0,13.51,4.747,16.65,12.853,16.65,5.112,0,7.741-.8,9.712-2.629l.511,2.337,10.735-.292Zm-13.145,11.9.073,5.55c0,4.308-.657,6.5-4.747,6.5-2.775,0-3.359-1.533-3.359-6.353C-32.947-1541.882-32.436-1543.269-24.915-1543.269Z" transform="translate(64.86 1584.602)" fill="#262626" fill-rule="evenodd"/><path d="M266.83-1555.172c0-5.185-.876-9.274-2.921-11.538-2.264-2.556-6.572-4.09-12.341-4.09a57.434,57.434,0,0,0-16.5,2.921l3.067,10.443a30.337,30.337,0,0,1,12.56-1.753c1.607.219,2.921,1.68,2.994,5.477h-.8c-14.313,0-20.082,3.213-20.082,17.161,0,13.51,4.747,16.65,12.853,16.65,5.112,0,7.741-.8,9.712-2.629l.511,2.337,10.735-.292Zm-13.072,11.9.073,5.55c0,4.308-.657,6.5-4.747,6.5-2.775,0-3.359-1.533-3.359-6.353C245.726-1541.882,246.164-1543.269,253.758-1543.269Z" transform="translate(-10.29 1584.602)" fill="#262626" fill-rule="evenodd"/><rect width="13.291" height="49.804" transform="translate(202.939 14.532)" fill="#262626"/><path d="M165.8-1569.243l11.1-.657.584,2.7c2.41-1.9,5.477-2.629,10.516-2.7v13.072c-5.915.146-8.836,1.9-8.836,8.617v28.115H165.8Z" transform="translate(7.782 1584.359)" fill="#262626"/><path d="M143.63-1555.172c0-5.185-.8-9.274-2.921-11.538-2.264-2.556-6.572-4.09-12.341-4.09a57.932,57.932,0,0,0-16.5,2.921l3.067,10.443a30.338,30.338,0,0,1,12.56-1.753c1.607.219,2.921,1.68,2.994,5.477h-.8c-14.313,0-20.082,3.213-20.082,17.161,0,13.51,4.747,16.65,12.853,16.65,5.112,0,7.741-.8,9.712-2.629l.511,2.337,10.735-.292Zm-13.145,11.9.073,5.55c0,4.308-.657,6.5-4.747,6.5-2.775,0-3.359-1.533-3.359-6.353C122.453-1541.882,122.964-1543.269,130.485-1543.269Z" transform="translate(22.942 1584.602)" fill="#262626" fill-rule="evenodd"/><rect width="13.291" height="49.804" transform="translate(112.314 14.532)" fill="#262626"/><path d="M26.055-1528.431c-3.87-4.089-4.455-10-4.455-21.689,0-11.173.511-18.476,4.747-22.492,1.9-1.753,4.6-3.14,9.055-3.14,4.309,0,6.864.511,9.055,1.825V-1589.7H57.748v64.336l-11.173.146-.365-2.41C43.362-1525.583,40-1525,34.891-1525A11.425,11.425,0,0,1,26.055-1528.431Zm18.4-21.251c0-10.735-.511-13.218-5.112-13.218-3.87,0-4.309,2.483-4.309,13.218,0,10.662.511,12.634,4.309,12.634C43.873-1537.048,44.457-1538.874,44.457-1549.682Z" transform="translate(46.679 1589.7)" fill="#262626" fill-rule="evenodd"/><path d="M-71.9-1589.6h13.364v64.19H-71.9Z" transform="translate(71.9 1589.673)" fill="#262626"/><path d="M-11.77-1555.172c0-5.185-.876-9.274-2.921-11.538-2.264-2.556-6.572-4.09-12.341-4.09a57.932,57.932,0,0,0-16.5,2.921l3.067,10.443a30.337,30.337,0,0,1,12.56-1.753c1.607.219,2.921,1.68,2.994,5.477h-.8c-14.313,0-20.082,3.213-20.082,17.161,0,13.51,4.747,16.65,12.853,16.65,5.112,0,7.741-.8,9.712-2.629l.511,2.337,10.735-.292Zm-13.145,11.9.073,5.55c0,4.308-.657,6.5-4.747,6.5-2.775,0-3.359-1.533-3.359-6.353C-32.947-1541.882-32.436-1543.269-24.915-1543.269Z" transform="translate(64.86 1584.602)" fill="#262626" fill-rule="evenodd"/><path d="M266.83-1555.172c0-5.185-.876-9.274-2.921-11.538-2.264-2.556-6.572-4.09-12.341-4.09a57.434,57.434,0,0,0-16.5,2.921l3.067,10.443a30.337,30.337,0,0,1,12.56-1.753c1.607.219,2.921,1.68,2.994,5.477h-.8c-14.313,0-20.082,3.213-20.082,17.161,0,13.51,4.747,16.65,12.853,16.65,5.112,0,7.741-.8,9.712-2.629l.511,2.337,10.735-.292Zm-13.072,11.9.073,5.55c0,4.308-.657,6.5-4.747,6.5-2.775,0-3.359-1.533-3.359-6.353C245.726-1541.882,246.164-1543.269,253.758-1543.269Z" transform="translate(-10.29 1584.602)" fill="#262626" fill-rule="evenodd"/><rect width="13.291" height="49.804" transform="translate(202.939 14.532)" fill="#262626"/><path d="M165.8-1569.243l11.1-.657.584,2.7c2.41-1.9,5.477-2.629,10.516-2.7v13.072c-5.915.146-8.836,1.9-8.836,8.617v28.115H165.8Z" transform="translate(7.782 1584.359)" fill="#262626"/><path d="M143.63-1555.172c0-5.185-.8-9.274-2.921-11.538-2.264-2.556-6.572-4.09-12.341-4.09a57.932,57.932,0,0,0-16.5,2.921l3.067,10.443a30.338,30.338,0,0,1,12.56-1.753c1.607.219,2.921,1.68,2.994,5.477h-.8c-14.313,0-20.082,3.213-20.082,17.161,0,13.51,4.747,16.65,12.853,16.65,5.112,0,7.741-.8,9.712-2.629l.511,2.337,10.735-.292Zm-13.145,11.9.073,5.55c0,4.308-.657,6.5-4.747,6.5-2.775,0-3.359-1.533-3.359-6.353C122.453-1541.882,122.964-1543.269,130.485-1543.269Z" transform="translate(22.942 1584.602)" fill="#262626" fill-rule="evenodd"/><rect width="13.291" height="49.804" transform="translate(112.314 14.532)" fill="#262626"/><rect width="13.291" height="10.589" transform="translate(112.314 0.438)" fill="#262626"/></g></g></svg>