<svg xmlns="http://www.w3.org/2000/svg" viewBox="-568.5 183 83.324 28.896">
  <defs>
    <style>
      .a{fill:#fff}
    </style>
  </defs>
  <path class="a" d="M-558.629 192.686h4.645a.586.586 0 0 0 .594-.594v-2.831c0-4.139-3.4-6.261-7.567-6.261s-7.543 2.091-7.543 6.224v16.439c0 3.985 3.387 6.233 7.543 6.233s7.567-2.121 7.567-6.261v-10.653c0-.852-.795-.924-1.337-.6l-6.321 3.5c-.353.124-.5.3-.5.6v3.614c0 .416.288.528.6.416l1.29-.867c.3-.113.431.087.431.3v3.315a1.6 1.6 0 0 1-1.734 1.438 1.649 1.649 0 0 1-1.73-1.438v-15.37a1.828 1.828 0 0 1 1.73-1.69 1.673 1.673 0 0 1 1.734 1.69v2.2a.561.561 0 0 0 .598.596zM-540.919 183.892c-.089-.23-.29-.621-.667-.621h-4.522a.825.825 0 0 0-.75.62l-4.186 11.536a9.109 9.109 0 0 0-.411 2.412v13.153a.552.552 0 0 0 .594.593h4.353a.605.605 0 0 0 .593-.593v-3.545a.829.829 0 0 1 .344-.62l3.2-1.919c.357-.125.533.157.534.406v5.677a.578.578 0 0 0 .594.593h4.353a.569.569 0 0 0 .593-.593v-13.11a9.874 9.874 0 0 0-.415-2.462zm-3.3 8.017c.06-.236.221-.361.338-.361.186 0 .257.161.3.312l1.493 4.852a8.1 8.1 0 0 1 .243 1.714v1.131a.679.679 0 0 1-.39.669l-3.032 1.856c-.256.084-.657 0-.657-.378v-3.4a5.8 5.8 0 0 1 .226-1.547zM-489.797 183.892c-.09-.23-.291-.621-.667-.621h-4.523a.824.824 0 0 0-.749.62l-4.186 11.536a9.11 9.11 0 0 0-.411 2.412v13.153a.663.663 0 0 0 .593.593h4.353a.663.663 0 0 0 .593-.593v-3.545a.77.77 0 0 1 .344-.62l3.317-1.964c.238-.043.417.2.418.452v5.677a.663.663 0 0 0 .593.593h4.353a.663.663 0 0 0 .594-.593v-13.11a9.866 9.866 0 0 0-.416-2.462zm-3.135 7.525c.051-.188.119-.2.162-.2 0 0 .007 0 .01-.009s.006.009.01.009c.042 0 .111.009.162.2h.008l1.617 5.293a8.14 8.14 0 0 1 .243 1.714v1.131a.679.679 0 0 1-.39.669l-3.032 1.856c-.256.084-.657 0-.657-.378v-3.4a5.8 5.8 0 0 1 .226-1.547zM-526.743 183.245h-6.868c-.483 0-.742.249-.742.782v26.964a.54.54 0 0 0 .593.593h4.568a.521.521 0 0 0 .593-.593v-3.546a.579.579 0 0 1 .365-.621l2.782-1.783c.27-.084.428.076.428.349v5.6c0 .455.2.593.593.593h4.574a.663.663 0 0 0 .594-.593v-2.576a4.009 4.009 0 0 0-2.338-4.1c1.041-.562 2.243-1.671 2.332-4.589h.005v-10.458c.002-4.139-3.315-6.022-7.479-6.022zm1.715 7v9.1a1.118 1.118 0 0 1-.592 1.1l-2.374 1.612c-.26.094-.6-.036-.6-.319v-12.885a.4.4 0 0 1 .4-.427h1.755c1.064 0 1.415.7 1.415 1.8zM-509.648 183.245h-6.868c-.483 0-.742.249-.742.782v26.964a.541.541 0 0 0 .594.593h4.568a.521.521 0 0 0 .593-.593v-3.546a.579.579 0 0 1 .365-.621l2.782-1.783c.269-.084.427.076.427.349v5.6c0 .455.2.593.593.593h4.574a.663.663 0 0 0 .593-.593v-3.586a3.322 3.322 0 0 0-2.338-3.089c1.04-.562 2.243-1.671 2.333-4.589v-10.459c.008-4.139-3.308-6.022-7.474-6.022zm1.715 7v9.1a1.118 1.118 0 0 1-.592 1.1l-2.374 1.612c-.26.094-.6-.036-.6-.319v-12.885a.4.4 0 0 1 .4-.427h1.755c1.064 0 1.415.7 1.415 1.8z"/>
</svg>
