<svg viewBox="11914 -847.647 270 97.158" xmlns="http://www.w3.org/2000/svg">
  <path d="M11914.001-771.448v-55.275c0-13.9 11.4-20.928 25.361-20.928 14.006 0 25.441 7.133 25.441 21.051v9.521a1.971 1.971 0 0 1-1.994 1.994h-15.623a1.886 1.886 0 0 1-1.994-1.994v-7.4a5.627 5.627 0 0 0-5.83-5.682 6.149 6.149 0 0 0-5.814 5.682v51.67c0 2.656 2.811 4.832 5.814 4.832 3.295 0 5.83-2.182 5.83-4.832v-11.149c0-.711-.428-1.383-1.449-1l-4.338 2.916c-1.061.379-2.029 0-2.029-1.4v-12.154c0-1 .49-1.6 1.68-2.018l21.254-11.758c1.82-1.092 4.494-.85 4.494 2.016v35.82c0 13.92-11.436 21.051-25.441 21.051-13.974-.004-25.362-7.563-25.362-20.963zm253.369 19.906a2.225 2.225 0 0 1-2-1.994v-19.082c0-.842-.607-1.662-1.408-1.52l-11.15 6.6a2.6 2.6 0 0 0-1.154 2.084v11.918a2.228 2.228 0 0 1-1.994 1.994h-14.639a2.225 2.225 0 0 1-1.992-1.994v-44.212a30.627 30.627 0 0 1 1.381-8.113l14.078-38.789a2.766 2.766 0 0 1 2.518-2.084h15.205c1.268 0 1.943 1.314 2.246 2.088l14.143 38.76a33.344 33.344 0 0 1 1.395 8.275v44.084a2.23 2.23 0 0 1-2 1.994zm-8.889-68.479c-.145 0-.375.031-.543.658l-.018.008-5.5 17.967a19.318 19.318 0 0 0-.76 5.2v11.426c0 1.27 1.348 1.555 2.209 1.27l10.193-6.242a2.284 2.284 0 0 0 1.311-2.25v-3.8a27.485 27.485 0 0 0-.816-5.76l-5.437-17.8-.027-.012c-.174-.627-.4-.658-.549-.658-.014 0-.021-.014-.031-.029-.012.013-.023.027-.033.027zm-46.439 68.479c-1.307 0-2-.467-2-1.994v-18.822c0-.922-.533-1.459-1.437-1.178l-9.352 6a1.944 1.944 0 0 0-1.23 2.086v11.918a1.75 1.75 0 0 1-1.994 1.994h-15.361a1.816 1.816 0 0 1-1.994-1.994v-90.648c0-1.793.871-2.627 2.5-2.627h23.09c14.006 0 25.154 6.314 25.154 20.232v35.156l-.016.01c-.3 9.813-4.344 13.541-7.844 15.432 3.678 1.385 7.859 4.645 7.859 10.387v12.059a2.225 2.225 0 0 1-2 1.994zm-14.018-76.43v43.33c0 .955 1.156 1.393 2.027 1.076l7.984-5.424c1.447-.553 1.99-2.223 1.99-3.693v-30.664c0-3.713-1.182-6.059-4.76-6.059h-5.9a1.328 1.328 0 0 0-1.342 1.439zm-40.924 76.43c-1.3 0-2-.467-2-1.994v-18.822c0-.922-.527-1.459-1.436-1.178l-9.355 6a1.946 1.946 0 0 0-1.227 2.086v11.918a1.75 1.75 0 0 1-1.994 1.994h-15.357a1.818 1.818 0 0 1-2-1.994v-90.648c0-1.793.873-2.627 2.494-2.627h23.094c14 0 25.154 6.314 25.154 20.232v35.156l-.02.008c-.3 9.814-4.342 13.543-7.842 15.434 7.2 3.346 7.861 9.344 7.861 13.779v8.666a2.227 2.227 0 0 1-2 1.994zm-14.018-76.43v43.33c0 .955 1.158 1.393 2.029 1.076l7.984-5.424c1.447-.553 1.992-2.223 1.992-3.693v-30.664c0-3.713-1.182-6.059-4.76-6.059h-5.9a1.329 1.329 0 0 0-1.345 1.439zm-39.979 76.43a1.942 1.942 0 0 1-1.994-1.994v-19.082a1.308 1.308 0 0 0-1.795-1.371l-10.764 6.455a2.779 2.779 0 0 0-1.154 2.084v11.918a2.034 2.034 0 0 1-1.994 1.994h-14.637a1.857 1.857 0 0 1-2-1.994v-44.216a30.637 30.637 0 0 1 1.383-8.113l14.076-38.789a2.772 2.772 0 0 1 2.52-2.084h15.205c1.268 0 1.943 1.314 2.246 2.088l14.139 38.76a33.1 33.1 0 0 1 1.4 8.275v44.084a1.915 1.915 0 0 1-2 1.994zm-9.992-66.158l-4.955 16.313a19.49 19.49 0 0 0-.76 5.2v11.422c0 1.271 1.348 1.557 2.209 1.271l10.193-6.244a2.281 2.281 0 0 0 1.311-2.25v-3.8a27.23 27.23 0 0 0-.816-5.76l-5.023-16.316c-.156-.506-.4-1.047-1.021-1.047-.397.002-.935.422-1.138 1.215z"/>
</svg>
