<svg xmlns="http://www.w3.org/2000/svg" width="119" height="42" viewBox="0 0 119 42"><g transform="translate(-1181 -3232)"><path d="M33.727,28.411c-1.794-1.9-2.065-4.64-2.065-10.058,0-5.181.237-8.566,2.2-10.429a5.8,5.8,0,0,1,4.2-1.457,7.714,7.714,0,0,1,4.2.847V0h6.163V29.834l-5.181.067-.169-1.118C41.752,29.732,40.2,30,37.824,30h-.137A5.264,5.264,0,0,1,33.727,28.411Zm4.166-9.854c0,4.944.236,5.858,2,5.858,2.1,0,2.371-.847,2.371-5.858,0-4.978-.237-6.129-2.371-6.129C38.1,12.428,37.893,13.579,37.893,18.557Zm65.286,3.725c0-6.468,2.675-7.958,9.312-7.958h.373c-.034-1.761-.644-2.438-1.389-2.54a14.087,14.087,0,0,0-5.824.813l-1.422-4.843A26.644,26.644,0,0,1,111.882,6.4c2.675,0,4.673.711,5.723,1.9.949,1.05,1.354,2.946,1.354,5.351l-.1,16.084-4.978.136-.237-1.084c-.914.847-2.133,1.22-4.5,1.22C105.38,30,103.179,28.546,103.179,22.282Zm5.994-.474c0,2.234.271,2.946,1.558,2.946,1.9,0,2.2-1.016,2.2-3.014l-.034-2.574C109.376,19.166,109.173,19.81,109.173,21.808Zm-47.712.474c0-6.468,2.675-7.958,9.312-7.958h.373c-.035-1.761-.644-2.438-1.389-2.54a14.091,14.091,0,0,0-5.825.813L62.51,7.754A26.888,26.888,0,0,1,70.163,6.4c2.675,0,4.672.711,5.723,1.9.982,1.05,1.354,2.946,1.354,5.351l-.1,16.084-4.978.136-.237-1.084c-.914.847-2.133,1.22-4.5,1.22C63.661,30,61.46,28.546,61.46,22.282Zm5.96-.474c0,2.234.271,2.946,1.558,2.946,1.9,0,2.2-1.016,2.2-3.014l-.034-2.574C67.657,19.166,67.421,19.81,67.421,21.808Zm-58.582.474c0-6.468,2.674-7.958,9.312-7.958h.372c-.034-1.761-.643-2.438-1.388-2.54a14.091,14.091,0,0,0-5.825.813L9.888,7.754A26.875,26.875,0,0,1,17.54,6.4c2.675,0,4.673.711,5.723,1.9.949,1.05,1.355,2.946,1.355,5.351l-.1,16.084-4.978.136L19.3,28.783c-.915.847-2.133,1.22-4.5,1.22C11.039,30,8.838,28.546,8.838,22.282Zm5.959-.474c0,2.234.271,2.946,1.558,2.946,1.9,0,2.2-1.016,2.2-3.014l-.034-2.574C15.035,19.166,14.8,19.81,14.8,21.808ZM94.1,29.834V6.74h6.163V29.834Zm-42.023,0V6.74h6.163V29.834Zm28.41-.035V7.01l5.147-.3.271,1.253c1.117-.88,2.539-1.22,4.876-1.253v6.062c-2.743.067-4.1.88-4.1,3.995V29.8ZM0,29.8V.035H6.2V29.8ZM94.1,5.114V.2h6.163v4.91Zm-42.023,0V.2h6.163v4.91Z" transform="translate(1181 3238)" fill="#fff"/><rect width="119" height="42" transform="translate(1181 3232)" fill="none" opacity="0.12"/></g></svg>