<svg xmlns="http://www.w3.org/2000/svg" viewBox="-564 490.099 152.12 35.901"><defs><style>.a{fill:#fff;}</style></defs><g transform="translate(-826 -980)"><g transform="translate(317.774 1470.099)"><path class="a" d="M455.6,746.2h5.067a4.4,4.4,0,0,1,3.269,1.144,3.681,3.681,0,0,1,.981,2.452h0a3.379,3.379,0,0,1-2.7,3.432l3.105,4.331h-2.37l-2.778-4h-2.452v4h-2.043V746.2Zm4.9,5.72c1.471,0,2.37-.735,2.37-1.88h0c0-1.226-.9-1.879-2.37-1.879h-2.942V752H460.5Z" transform="translate(-454.701 -742.604)"/><path class="a" d="M474.5,745.4h2.043v11.441H474.5Zm1.961-3.6,1.8.817L476.3,744.5h-1.553Z" transform="translate(-458.156 -741.8)"/><path class="a" d="M484.5,751.966h0a5.966,5.966,0,0,1,11.931-.082h0a5.827,5.827,0,0,1-5.966,5.884A5.713,5.713,0,0,1,484.5,751.966Zm9.888,0h0a3.912,3.912,0,0,0-3.923-4.086,3.824,3.824,0,0,0-3.841,4h0a3.96,3.96,0,0,0,3.922,4.086A3.824,3.824,0,0,0,494.388,751.966Z" transform="translate(-459.984 -742.568)"/><path class="a" d="M459.4,770.1h1.88l5.067,11.522h-2.125l-1.144-2.778h-5.393l-1.144,2.778H454.5Zm2.86,6.946L460.3,772.47l-1.961,4.576Z" transform="translate(-454.5 -746.974)"/><path class="a" d="M475.7,770.2h5.148a4.207,4.207,0,0,1,3.024.981,2.588,2.588,0,0,1,.735,1.879h0a2.7,2.7,0,0,1-1.634,2.533c1.308.49,2.288,1.226,2.288,2.779h0c0,2.043-1.716,3.105-4.249,3.105H475.7Zm4.74,4.821c1.307,0,2.125-.49,2.125-1.553h0c0-.9-.736-1.471-2.043-1.471h-2.86v3.024Zm.572,4.821c1.389,0,2.206-.572,2.206-1.553h0c0-.981-.736-1.553-2.37-1.553h-3.187v3.105h3.35Z" transform="translate(-458.376 -746.992)"/><path class="a" d="M494.7,770.2h2.043v11.441H494.7Z" transform="translate(-461.849 -746.992)"/><path class="a" d="M505.3,770.2h8.5V772h-6.456v2.942h5.72v1.8h-5.72v3.105h6.538v1.8H505.3V770.2Z" transform="translate(-463.787 -746.992)"/><path class="a" d="M523,770.2h5.067a4.4,4.4,0,0,1,3.269,1.144,3.681,3.681,0,0,1,.981,2.452h0a3.379,3.379,0,0,1-2.7,3.432l3.105,4.331h-2.37l-2.779-4h-2.451v4H523Zm4.985,5.639c1.471,0,2.37-.735,2.37-1.88h0c0-1.226-.9-1.88-2.37-1.88h-2.942v3.841h2.942Z" transform="translate(-467.023 -746.992)"/><path class="a" d="M544.5,772.08h-3.6V770.2h9.234v1.88h-3.6v9.561H544.5Z" transform="translate(-470.295 -746.992)"/><path class="a" d="M557.8,775.866h0a5.966,5.966,0,0,1,11.931-.082h0a5.827,5.827,0,0,1-5.965,5.884A5.667,5.667,0,0,1,557.8,775.866Zm9.806,0h0a3.912,3.912,0,0,0-3.922-4.086,3.824,3.824,0,0,0-3.841,4h0a3.96,3.96,0,0,0,3.922,4.086A3.824,3.824,0,0,0,567.606,775.866Z" transform="translate(-473.385 -746.937)"/></g><g transform="translate(262 1474.383)"><path class="a" d="M374.383,759.417H370.14l-12-26.092L346.1,759.417H342L356.485,728.4h3.365Z" transform="translate(-342 -728.4)"/><path class="a" d="M369.213,769.056h0a5.278,5.278,0,0,0-6.1-.049.68.68,0,0,0-.244.975.707.707,0,0,0,.975.2,4.033,4.033,0,0,1,4.633,0h0a5.361,5.361,0,0,0,6.1.049.68.68,0,0,0,.244-.975.707.707,0,0,0-.975-.2A4.034,4.034,0,0,1,369.213,769.056Z" transform="translate(-352.631 -748.719)"/></g><rect class="a" width="2" height="32" rx="1" transform="translate(305 1474)"/></g></svg>