<svg xmlns="http://www.w3.org/2000/svg" width="72" height="32" viewBox="0 0 72 32">
  <g id="salud" transform="translate(-194 -2630)">
    <rect id="Rectangle_4160" data-name="Rectangle 4160" width="72" height="32" rx="3" transform="translate(194 2630)" fill="#30cce5"/>
    <path id="Path_7142" data-name="Path 7142" d="M5.049,18.15c2.917,0,4.376-1.4,4.376-3.684,0-2.506-1.2-3.2-4.021-4.395C3.422,9.192,2.842,8.837,2.842,7.547c0-1.122.729-1.851,2.412-1.851a6.549,6.549,0,0,1,2.88.6L8.9,4.742a8.331,8.331,0,0,0-3.684-.748c-2.73,0-4.151,1.365-4.151,3.609,0,2.169,1.234,3.029,3.534,3.983,2.225.916,3.048,1.328,3.048,2.9,0,1.328-.841,2.094-2.637,2.094a6.9,6.9,0,0,1-3.572-.954l-.9,1.4A8.362,8.362,0,0,0,5.049,18.15ZM10.883,18h1.8l.823-2.88h5.124l.86,2.88h1.833L17.054,4.05H15.147Zm3.1-4.525,2.094-6.882,2.076,6.882ZM23.712,18h7.48V16.373H25.526V4.143H23.712Zm13.857.187c3.684,0,4.712-1.739,4.712-4.806V4.143H40.542V13.25c0,2.188-.617,3.272-2.955,3.272-2.356,0-2.936-1.122-2.936-3.272V4.143H32.837v9.238C32.837,16.448,33.941,18.187,37.568,18.187ZM45.422,18h3.852c4.469,0,5.535-2.169,5.535-6.938,0-4.675-1.1-6.919-5.46-6.919H45.422Zm1.814-1.59V5.808h2.207c2.955,0,3.534,1.683,3.534,5.273,0,3.628-.6,5.33-3.572,5.33Z" transform="translate(202.458 2635)" fill="#fff"/>
  </g>
</svg>
