<svg xmlns="http://www.w3.org/2000/svg" width="94" height="32" viewBox="0 0 94 32">
  <g id="trabajo" transform="translate(-194 -2709)">
    <rect id="Rectangle_4157" data-name="Rectangle 4157" width="94" height="32" rx="3" transform="translate(194 2709)" fill="#00746e"/>
    <path id="Path_7143" data-name="Path 7143" d="M4.208,18H6.021V5.808H9.93V4.143H.318V5.808h3.89ZM19,18h1.889l-2.506-5.517c1.87-.468,2.674-1.964,2.674-4.208,0-2.768-1.234-4.133-4.114-4.133H12.267V18h1.8V12.652h2.524Zm-4.937-6.975V5.77h2.824c1.664,0,2.375.692,2.375,2.6,0,1.945-.711,2.655-2.375,2.655ZM22.87,18h1.8l.823-2.88h5.124l.86,2.88H33.3L29.041,4.05H27.134Zm3.1-4.525,2.094-6.882,2.076,6.882ZM35.7,18h4.525c2.581,0,4.207-.954,4.207-3.815,0-2.094-.711-3.067-2-3.46,1.047-.374,1.72-1.29,1.72-3.085,0-2.487-1.309-3.5-4.039-3.5H35.7Zm1.8-1.552V11.679h2.712c1.459,0,2.412.5,2.412,2.375,0,1.889-.954,2.394-2.412,2.394Zm0-6.4V5.733h2.562c1.477,0,2.3.467,2.3,2.132,0,1.683-.823,2.188-2.3,2.188ZM46.077,18h1.8l.823-2.88h5.124l.86,2.88h1.833L52.248,4.05H50.34Zm3.1-4.525,2.094-6.882,2.076,6.882ZM58.157,18h1.571c2.225,0,3.441-.9,3.441-3.347V4.143H61.355v10.4c0,1.234-.449,1.833-1.889,1.833H58.157ZM71,18.15c4.656,0,5.236-3.235,5.236-7.069S75.66,3.994,71,3.994c-4.675,0-5.273,3.254-5.273,7.087S66.329,18.15,71,18.15Zm0-1.627c-3.123,0-3.441-2.281-3.441-5.386s.318-5.4,3.441-5.4c3.085,0,3.422,2.3,3.422,5.4S74.108,16.523,71,16.523Z" transform="translate(202.682 2714)" fill="#fff"/>
  </g>
</svg>
