<svg class="{{ className }}" xmlns="http://www.w3.org/2000/svg" viewBox="0 0 1000 1000">
  <path d="M508.9 10C243.2 10 27.8 223.7 27.8 487.4c0 90.2 25.2 174.5 69 246.5L10 990l266.4-84.6a482.14 482.14 0 0 0 232.5 59.4C774.6 964.8 990 751 990 487.4 990 223.7 774.6 10 508.9 10zm239.2 658.7c-11.3 28.1-62.5 53.7-85.1 54.8-22.6 1.2-23.2 17.5-146.2-35.9-123-53.5-197-183.4-202.8-191.8-5.8-8.3-47.6-67.9-45.4-127.9 2.3-60 35.1-88.3 46.8-100 11.7-11.8 25.1-13.9 33.3-14 9.7-.2 16-.3 23.1 0 7.2.3 17.9-1.5 27.2 23.3s31.6 85.6 34.4 91.9c2.8 6.2 4.6 13.4.2 21.4-4.4 8-6.7 13-13 19.9-6.4 6.9-13.5 15.4-19.2 20.7-6.4 5.8-13.1 12.2-6.3 24.7 6.7 12.5 29.9 53.3 65.1 86.9 45.3 43.2 84.4 57.6 96.5 64.1 12.1 6.6 19.3 5.8 26.7-2 7.4-7.9 32-34.4 40.7-46.3 8.7-11.9 16.8-9.6 27.9-5.1 11.1 4.5 70.3 36.2 82.4 42.8 12.1 6.5 20.1 9.9 23 15.1 2.9 4.9 2 29.3-9.3 57.4z"/>
</svg>
