<?xml version="1.0" standalone="no"?>
<!DOCTYPE svg PUBLIC "-//W3C//DTD SVG 1.1//EN" "http://www.w3.org/Graphics/SVG/1.1/DTD/svg11.dtd" >
<svg xmlns="http://www.w3.org/2000/svg" xmlns:xlink="http://www.w3.org/1999/xlink" version="1.1">
<metadata>
Created by FontForge 20170910 at Mon Mar 19 10:04:58 2012
 By Jimmy Wärting

</metadata>
<defs>
<font id="MetaSerifPro-MediumItalic" horiz-adv-x="1" >
  <font-face 
    font-family="MetaSerifPro-MediumItalic"
    font-weight="500"
    font-style="italic"
    font-stretch="normal"
    units-per-em="1000"
    panose-1="2 1 6 4 5 1 1 2 1 2"
    ascent="763"
    descent="-237"
    x-height="506"
    cap-height="692"
    bbox="-767 -281 1529 1115"
    underline-thickness="63"
    underline-position="-93"
    slope="-11"
    stemh="99"
    stemv="99"
    unicode-range="U+000D-FEFF"
  />
<missing-glyph horiz-adv-x="553" 
d="M71 0v689h411v-689h-411zM121 50h311v589h-311v-589z" />
    <glyph glyph-name="f_b" unicode="fb" horiz-adv-x="846" 
d="M340 142l93 438c3 14 4 23 4 33c0 42 -24 65 -70 65c-47 0 -81 -19 -97 -93l-18 -84h113l-28 -65h-97l-94 -467c-20 -96 -76 -157 -169 -157c-32 0 -54 8 -72 17v35c84 5 108 27 123 106l91 466h-63l10 42l66 22l14 62c27 114 102 170 215 170c53 0 87 -14 115 -30l72 28
h13c3 -9 6 -25 6 -50c0 -28 -3 -63 -15 -119l-40 -176c42 66 105 128 186 128c72 0 118 -53 118 -152c0 -201 -115 -375 -297 -375c-60 0 -98 29 -113 60c-8 -16 -21 -36 -33 -46h-75c14 31 29 80 42 142zM512 46c110 0 174 156 174 302c0 59 -20 78 -47 78
c-47 0 -109 -69 -146 -129l-46 -217c8 -17 32 -34 65 -34z" />
    <glyph glyph-name="f_f" unicode="ff" horiz-adv-x="616" 
d="M635 732c44 0 88 -9 115 -22l-17 -89h-77c0 34 -6 57 -33 57c-29 0 -51 -16 -63 -73l-21 -104h122l-28 -65h-106l-91 -453c-20 -97 -75 -158 -168 -158c-32 0 -52 8 -70 17v35c83 5 105 27 120 106l88 453h-166l-94 -467c-20 -96 -76 -157 -169 -157c-32 0 -54 8 -72 17
v35c84 5 108 27 123 106l91 466h-63l10 42l66 22l13 54c28 119 108 171 226 171c63 0 102 -17 136 -34c34 27 82 41 128 41zM420 501l14 66c3 17 6 35 6 48c0 36 -26 56 -74 56c-49 0 -81 -25 -97 -94l-17 -76h168z" />
    <glyph glyph-name="f_f_b" unicode="ffb" horiz-adv-x="1133" 
d="M252 501h168l14 66c3 17 6 35 6 48c0 36 -26 56 -74 56c-45 0 -80 -20 -97 -95zM627 142l93 438c3 12 4 23 4 33c0 42 -24 65 -70 65c-44 0 -80 -16 -96 -90l-19 -87h113l-28 -65h-97l-91 -453c-20 -97 -75 -158 -168 -158c-32 0 -52 8 -70 17v35c83 5 105 27 120 106
l88 453h-166l-94 -467c-20 -96 -76 -157 -169 -157c-32 0 -54 8 -72 17v35c84 5 108 27 123 106l91 466h-63l10 42l66 22l13 54c28 119 108 171 226 171c62 0 102 -17 136 -34c36 27 87 41 141 41c53 0 87 -14 115 -30l72 28h13c3 -9 6 -25 6 -50c0 -28 -4 -68 -15 -119
l-40 -176c42 66 105 128 187 128c71 0 117 -53 117 -152c0 -201 -115 -375 -297 -375c-60 0 -98 29 -113 60c-8 -16 -21 -36 -33 -46h-75c14 31 29 80 42 142zM799 46c110 0 174 156 174 302c0 59 -20 78 -47 78c-47 0 -109 -69 -146 -129l-46 -217c8 -17 32 -34 65 -34z
" />
    <glyph glyph-name="f_f_h" unicode="ffh" horiz-adv-x="1130" 
d="M252 501h168l14 66c3 17 6 35 6 48c0 36 -26 56 -74 56c-45 0 -80 -21 -96 -91zM595 0l124 575c5 23 5 32 5 37c0 43 -24 66 -70 66c-49 0 -81 -20 -97 -95l-18 -82h113l-28 -65h-97l-91 -453c-20 -97 -75 -158 -168 -158c-32 0 -52 8 -70 17v35c83 5 105 27 120 106
l88 453h-166l-94 -467c-20 -96 -76 -157 -169 -157c-32 0 -54 8 -72 17v35c84 5 108 27 123 106l91 466h-63l10 42l66 22l13 54c28 119 108 171 226 171c62 0 102 -17 136 -34c36 27 87 41 141 41c53 0 87 -14 115 -30l72 28h13c3 -9 6 -25 6 -50c0 -28 -4 -68 -15 -119
l-40 -181c47 74 114 134 191 134c66 0 94 -41 94 -97c0 -17 -2 -29 -5 -44l-54 -242c-4 -17 -6 -30 -6 -41c0 -23 11 -33 42 -33c6 0 20 1 34 3l4 -37c-45 -22 -83 -32 -119 -32c-58 0 -84 30 -84 82c0 17 3 37 8 59l50 223c2 11 4 22 4 28c0 23 -9 35 -31 35
c-51 0 -110 -71 -150 -134l-61 -284h-121z" />
    <glyph glyph-name="f_f_i" unicode="ffi" horiz-adv-x="850" 
d="M421 501l14 66c4 17 7 35 7 48c0 36 -27 56 -75 56c-49 0 -83 -25 -98 -100l-15 -70h167zM622 436h-94l-91 -453c-19 -97 -74 -158 -168 -158c-31 0 -52 8 -70 17v35c83 5 105 27 120 106l88 453h-166l-94 -467c-19 -96 -76 -157 -169 -157c-32 0 -54 8 -72 17v35
c84 5 108 27 123 106l91 466h-63l10 42l66 22l13 54c28 119 108 171 226 171c61 0 105 -17 137 -35c38 28 90 42 150 42c63 0 112 -12 149 -32l-22 -102h-90c0 52 -6 80 -54 80c-37 0 -71 -21 -84 -86l-19 -91h179c54 0 82 -20 82 -73c0 -15 -2 -33 -7 -54l-56 -243
c-4 -17 -6 -30 -6 -40c0 -25 11 -33 42 -33c10 0 21 0 35 2l3 -37c-45 -22 -84 -32 -124 -32c-55 0 -81 30 -81 83c0 17 3 36 8 58l55 228c3 15 5 27 5 37c0 30 -16 39 -52 39z" />
    <glyph glyph-name="f_f_j" unicode="ffj" horiz-adv-x="831" 
d="M421 501l14 66c4 17 7 35 7 48c0 36 -27 56 -75 56c-49 0 -83 -25 -98 -100l-15 -70h167zM528 436l-91 -453c-19 -97 -74 -158 -168 -158c-31 0 -52 8 -70 17v35c83 5 105 27 120 106l88 453h-166l-94 -467c-19 -96 -76 -157 -169 -157c-32 0 -54 8 -72 17v35
c84 5 108 27 123 106l91 466h-63l10 42l66 22l13 54c28 119 108 171 226 171c61 0 105 -17 137 -35c38 28 90 42 150 42c63 0 112 -12 149 -32l-22 -102h-90c0 52 -6 80 -54 80c-37 0 -71 -21 -84 -86l-19 -91h179c54 0 82 -20 82 -75c0 -19 -2 -32 -6 -52l-77 -378
c-25 -121 -95 -170 -232 -201l-16 49c86 32 110 64 131 169l69 347c3 15 4 26 4 37c0 30 -15 39 -51 39h-94z" />
    <glyph glyph-name="f_f_k" unicode="ffk" horiz-adv-x="1091" 
d="M252 501h168l14 66c3 17 6 35 6 48c0 36 -26 56 -74 56c-50 0 -81 -25 -97 -95zM596 0l124 580c4 17 4 29 4 33c0 42 -24 65 -70 65c-50 0 -82 -24 -96 -90l-19 -87h113l-28 -65h-97l-91 -453c-20 -97 -75 -158 -168 -158c-32 0 -52 8 -70 17v35c83 5 105 27 120 106
l88 453h-166l-94 -467c-20 -96 -76 -157 -169 -157c-32 0 -54 8 -72 17v35c84 5 108 27 123 106l91 466h-63l10 42l66 22l13 54c28 119 108 171 226 171c62 0 102 -17 136 -34c36 27 87 41 141 41c53 0 87 -14 115 -30l72 28h13c3 -9 6 -25 6 -50c0 -28 -4 -68 -15 -119
l-122 -561h-121zM850 90l-65 179l206 232h124l-9 -43c-48 0 -99 -38 -156 -96l-56 -56l74 -189c16 -42 28 -59 66 -59c9 0 19 1 31 3l4 -35c-36 -22 -77 -33 -109 -33c-56 0 -83 23 -110 97z" />
    <glyph glyph-name="f_f_l" unicode="ffl" horiz-adv-x="861" 
d="M420 501l14 66c3 17 6 35 6 48c0 36 -26 56 -74 56c-52 0 -82 -28 -97 -94l-17 -76h168zM654 678c-47 0 -81 -19 -97 -95l-18 -82h113l-28 -65h-97l-91 -453c-20 -97 -75 -158 -168 -158c-32 0 -52 8 -70 17v35c83 5 105 27 120 106l88 453h-166l-94 -467
c-20 -96 -76 -157 -169 -157c-32 0 -54 8 -72 17v35c84 5 108 27 123 106l91 466h-63l10 42l66 22l13 54c28 119 108 171 226 171c62 0 102 -17 136 -34c36 27 87 41 141 41c53 0 87 -14 115 -30l72 28h13c3 -9 6 -25 6 -50c0 -28 -4 -68 -15 -119l-93 -430
c-2 -9 -6 -30 -6 -41c0 -23 11 -33 43 -33c10 0 22 1 37 3l3 -37c-44 -22 -84 -32 -123 -32c-58 0 -83 30 -83 84c0 17 3 36 7 57l96 448c3 12 4 23 4 33c0 42 -24 65 -70 65z" />
    <glyph glyph-name="f_f_t" unicode="fft" horiz-adv-x="913" 
d="M420 501l14 66c3 17 6 35 6 48c0 36 -26 56 -74 56c-44 0 -80 -20 -97 -95l-17 -75h168zM539 501h170c19 50 52 110 85 142l73 8c-13 -35 -33 -104 -43 -150h119l-27 -65h-106l-61 -286c-4 -20 -6 -35 -6 -49c0 -35 16 -49 53 -49c17 0 41 4 63 12l8 -40
c-40 -25 -86 -38 -132 -38c-75 0 -114 34 -114 98c0 17 2 38 7 62l61 290h-162l-91 -453c-20 -97 -75 -158 -168 -158c-32 0 -52 8 -70 17v35c83 5 105 27 120 106l88 453h-166l-94 -467c-20 -96 -76 -157 -169 -157c-32 0 -54 8 -72 17v35c84 5 108 27 123 106l91 466h-63
l10 42l66 22l13 54c28 119 108 171 226 171c63 0 102 -17 136 -34c34 27 82 41 128 41c44 0 79 -9 106 -22l-17 -89h-76c0 34 -3 57 -28 57c-28 0 -48 -16 -60 -73z" />
    <glyph glyph-name="f_h" unicode="fh" horiz-adv-x="843" 
d="M361 732c53 0 87 -14 115 -30l72 28h13c3 -9 6 -25 6 -50c0 -28 -4 -68 -15 -119l-40 -181c47 74 114 134 191 134c66 0 94 -41 94 -97c0 -17 -2 -29 -5 -44l-54 -242c-4 -17 -6 -30 -6 -41c0 -23 11 -33 42 -33c6 0 20 1 34 3l4 -37c-45 -22 -83 -32 -119 -32
c-58 0 -84 30 -84 82c0 17 3 37 8 59l50 223c2 11 4 22 4 28c0 23 -9 35 -31 35c-51 0 -110 -71 -150 -134l-61 -284h-121l124 575c5 23 5 32 5 37c0 43 -24 66 -70 66c-48 0 -81 -20 -97 -94l-18 -83h113l-28 -65h-97l-94 -467c-20 -96 -76 -157 -169 -157
c-32 0 -54 8 -72 17v35c84 5 108 27 123 106l91 466h-63l10 42l66 22l14 62c27 114 102 170 215 170z" />
    <glyph glyph-name="f_i" unicode="fi" horiz-adv-x="563" 
d="M327 132l55 228c3 15 5 27 5 37c0 30 -16 39 -52 39h-95l-94 -467c-20 -96 -76 -157 -169 -157c-32 0 -54 8 -72 17v35c84 5 108 27 123 106l91 466h-63l10 42l66 22l14 62c27 119 113 170 228 170c63 0 110 -12 147 -32l-23 -102h-89c0 52 -6 80 -54 80
c-37 0 -71 -21 -84 -86l-19 -91h179c54 0 82 -20 82 -73c0 -15 -2 -33 -7 -54l-56 -243c-4 -17 -6 -30 -6 -40c0 -25 11 -33 42 -33c10 0 21 0 35 2l3 -37c-45 -22 -84 -32 -124 -32c-55 0 -81 30 -81 83c0 17 3 36 8 58z" />
    <glyph glyph-name="f_j" unicode="fj" horiz-adv-x="544" 
d="M240 436l-94 -467c-20 -96 -76 -157 -169 -157c-32 0 -54 8 -72 17v35c84 5 108 27 123 106l91 466h-63l10 42l66 22l14 62c27 119 113 170 228 170c63 0 110 -12 147 -32l-23 -102h-89c0 52 -6 80 -54 80c-37 0 -71 -21 -84 -86l-19 -91h179c54 0 82 -19 82 -75
c0 -17 -2 -32 -6 -52l-77 -378c-25 -121 -95 -170 -232 -201l-16 49c84 31 110 62 130 164l70 352c3 14 4 26 4 36c0 31 -14 40 -51 40h-95z" />
    <glyph glyph-name="f_k" unicode="fk" horiz-adv-x="804" 
d="M271 588l-19 -87h113l-28 -65h-97l-94 -467c-20 -96 -76 -157 -169 -157c-32 0 -54 8 -72 17v35c84 5 108 27 123 106l91 466h-63l10 42l66 22l14 62c27 114 102 170 215 170c53 0 87 -14 115 -30l72 28h13c3 -9 6 -25 6 -50c0 -28 -4 -68 -15 -119l-122 -561h-121
l124 580c4 17 4 29 4 33c0 42 -24 65 -70 65c-50 0 -82 -24 -96 -90zM563 90l-65 179l206 232h124l-9 -43c-48 0 -99 -38 -156 -96l-56 -56l74 -189c16 -42 28 -59 66 -59c9 0 19 1 31 3l4 -35c-36 -22 -77 -33 -109 -33c-56 0 -83 23 -110 97z" />
    <glyph glyph-name="f_l" unicode="fl" horiz-adv-x="574" 
d="M337 132l96 448c3 12 4 23 4 33c0 43 -24 65 -70 65c-52 0 -82 -25 -97 -94l-18 -83h113l-28 -65h-97l-94 -467c-20 -96 -76 -157 -169 -157c-32 0 -54 8 -72 17v35c84 5 108 27 123 106l91 466h-63l10 42l66 22l14 62c27 114 102 170 215 170c53 0 87 -14 115 -30l72 28
h13c3 -9 6 -25 6 -50c0 -28 -4 -68 -15 -119l-93 -430c-2 -9 -6 -30 -6 -41c0 -23 11 -33 43 -33c10 0 22 1 37 3l3 -37c-44 -22 -84 -32 -123 -32c-58 0 -83 30 -83 84c0 17 3 36 7 57z" />
    <glyph glyph-name="f_t" unicode="ft" horiz-adv-x="626" 
d="M422 501c19 50 52 110 85 142l73 8c-13 -35 -33 -104 -43 -150h119l-27 -65h-106l-61 -286c-4 -20 -6 -35 -6 -49c0 -35 16 -49 53 -49c17 0 41 4 63 12l8 -40c-40 -25 -86 -38 -132 -38c-75 0 -114 34 -114 98c0 17 2 38 7 62l61 290h-162l-94 -467
c-20 -96 -76 -157 -169 -157c-32 0 -54 8 -72 17v35c84 5 108 27 123 106l91 466h-63l10 42l66 22l15 72c22 105 100 160 201 160c44 0 79 -9 106 -22l-17 -89h-76c0 34 -3 57 -28 57c-28 0 -48 -16 -60 -73l-21 -104h170z" />
    <glyph glyph-name=".notdef" horiz-adv-x="553" 
d="M71 0v689h411v-689h-411zM121 50h311v589h-311v-589z" />
    <glyph glyph-name=".null" horiz-adv-x="0" 
 />
    <glyph glyph-name=".null" horiz-adv-x="0" 
 />
    <glyph glyph-name="CR" unicode="&#xd;" horiz-adv-x="225" 
 />
    <glyph glyph-name="space" unicode=" " horiz-adv-x="225" 
 />
    <glyph glyph-name="exclam" unicode="!" horiz-adv-x="315" 
d="M330 703l-151 -486h-74l67 470zM197 71c0 -45 -37 -81 -81 -81c-43 0 -78 36 -78 81c0 44 35 79 79 79s80 -35 80 -79z" />
    <glyph glyph-name="quotedbl" unicode="&#x22;" horiz-adv-x="437" 
d="M385 453h-92l49 256h93zM206 453h-92l49 256h93z" />
    <glyph glyph-name="numbersign" unicode="#" horiz-adv-x="568" 
d="M580 426h-107l-47 -139h96l-14 -76h-106l-71 -211h-78l70 211h-120l-70 -211h-77l70 211h-93l15 76h103l46 139h-93l15 77h103l69 205h78l-69 -205h120l69 205h78l-69 -205h96zM395 426h-120l-46 -139h120z" />
    <glyph glyph-name="dollar" unicode="$" horiz-adv-x="518" 
d="M145 -100l17 88c-84 6 -140 32 -170 59l24 132h82c0 -77 15 -123 75 -136l53 259l-36 17c-74 34 -121 84 -121 173c0 127 95 209 237 211l18 86h50l-18 -88c86 -7 137 -34 161 -53l-23 -123h-80c0 60 -20 103 -70 117l-47 -233l35 -16c77 -37 136 -82 136 -181
c0 -141 -94 -222 -256 -226l-17 -86h-50zM353 165c0 55 -29 89 -82 116l-48 -242c79 4 130 49 130 126zM178 536c0 -56 28 -81 74 -105l43 217c-72 -2 -117 -48 -117 -112z" />
    <glyph glyph-name="percent" unicode="%" horiz-adv-x="985" 
d="M960 254c0 -150 -90 -264 -223 -264c-92 0 -147 54 -147 155c0 134 80 261 223 261c95 0 147 -56 147 -152zM745 31c73 0 101 131 109 215c1 12 2 27 2 35c0 53 -16 82 -51 82c-63 0 -102 -108 -110 -214c-1 -12 -1 -23 -1 -33c0 -63 18 -85 51 -85zM418 504
c0 -150 -91 -264 -223 -264c-92 0 -148 54 -148 155c0 134 81 261 223 261c96 0 148 -56 148 -152zM202 281c88 0 112 189 112 252c0 50 -16 80 -52 80c-63 0 -102 -108 -109 -214c-1 -12 -2 -24 -2 -34c0 -59 18 -84 51 -84zM827 730l-613 -853h-65l615 853h63z" />
    <glyph glyph-name="ampersand" unicode="&#x26;" horiz-adv-x="700" 
d="M608 287c-25 -61 -47 -103 -77 -143l55 -68c24 -30 52 -37 80 -37l-6 -39h-168l-49 59c-60 -44 -126 -73 -214 -73c-141 0 -221 60 -221 165c0 99 88 159 203 192l-26 30c-37 42 -59 83 -59 141c0 94 74 189 223 189c116 0 188 -52 188 -143c0 -93 -82 -152 -189 -192
l150 -183c24 33 46 75 46 117c0 30 -16 39 -66 42l7 39h215l-7 -39c-51 -2 -67 -13 -85 -57zM263 43c55 0 108 21 149 53l-175 214c-63 -34 -97 -78 -97 -152c0 -73 47 -115 123 -115zM307 418l15 -17c67 42 106 85 106 155c0 59 -31 94 -83 94c-56 0 -102 -39 -102 -105
c0 -43 25 -82 64 -127z" />
    <glyph glyph-name="quotesingle" unicode="'" horiz-adv-x="258" 
d="M206 453h-92l49 256h93z" />
    <glyph glyph-name="parenleft" unicode="(" horiz-adv-x="383" 
d="M279 -124l-32 -34c-107 51 -187 167 -187 343c0 248 108 478 365 590l26 -38c-198 -120 -272 -365 -272 -573c0 -128 30 -232 100 -288z" />
    <glyph glyph-name="parenright" unicode=")" horiz-adv-x="396" 
d="M137 741l32 34c106 -51 187 -167 187 -341c0 -251 -108 -481 -365 -592l-26 38c198 119 272 364 272 572c0 129 -30 233 -100 289z" />
    <glyph glyph-name="asterisk" unicode="*" horiz-adv-x="459" 
d="M427 466l-132 -6l8 -136l-55 -14l-44 132l-124 -53l-26 48l106 84l-83 105l37 40l109 -79l72 114l47 -21l-40 -129l131 -31z" />
    <glyph glyph-name="plus" unicode="+" horiz-adv-x="582" 
d="M303 507h70l-40 -204h199l-12 -63h-199l-40 -207h-70l40 207h-198l12 63h198z" />
    <glyph glyph-name="comma" unicode="," horiz-adv-x="269" 
d="M206 52c0 -97 -89 -170 -187 -194l-19 34c63 21 106 55 106 88c0 19 -11 24 -29 32c-23 11 -39 28 -39 61c0 44 32 75 79 75c55 0 89 -43 89 -96z" />
    <glyph glyph-name="hyphen" unicode="-" horiz-adv-x="335" 
d="M273 228h-230l19 95h229z" />
    <glyph glyph-name="period" unicode="." horiz-adv-x="265" 
d="M198 71c0 -47 -37 -85 -84 -85c-46 0 -82 38 -82 85c0 46 36 83 82 83c47 0 84 -37 84 -83z" />
    <glyph glyph-name="slash" unicode="/" horiz-adv-x="393" 
d="M461 761l-437 -910h-82l436 910h83z" />
    <glyph glyph-name="zero" unicode="0" horiz-adv-x="579" 
d="M538 316c0 -169 -98 -330 -287 -330c-134 0 -210 80 -210 206c0 163 95 335 283 335c132 0 214 -74 214 -211zM409 357c0 75 -30 111 -88 111c-42 0 -74 -19 -99 -65c-46 -85 -57 -191 -57 -252c0 -73 30 -107 89 -107c36 0 68 15 94 54c40 61 61 170 61 259z" />
    <glyph glyph-name="one" unicode="1" horiz-adv-x="403" 
d="M341 514l-84 -392c-14 -65 -6 -79 79 -82l-8 -40h-319l8 40c88 4 103 17 116 78l62 293c-46 -22 -77 -33 -122 -45l-9 41l197 107h80z" />
    <glyph glyph-name="two" unicode="2" horiz-adv-x="465" 
d="M265 527c113 0 170 -54 170 -136c0 -115 -104 -188 -269 -279l-41 -23h284l-32 -89h-396l13 63l120 80c115 78 185 134 185 228c0 48 -27 74 -81 74c-52 0 -101 -30 -137 -64l-31 43c45 56 120 103 215 103z" />
    <glyph glyph-name="three" unicode="3" horiz-adv-x="455" 
d="M205 449c-60 0 -104 -24 -145 -59l-30 42c54 57 132 95 216 95c108 0 173 -54 173 -150c0 -85 -69 -148 -160 -176c77 -13 122 -59 122 -130c0 -165 -185 -235 -339 -235c-52 0 -88 7 -119 17l-13 51c33 -6 68 -12 105 -12c134 0 236 60 236 186c0 64 -41 92 -117 92
c-12 0 -20 0 -47 -2l12 61c16 -1 33 -2 55 -2c83 0 140 52 140 139c0 54 -31 83 -89 83z" />
    <glyph glyph-name="four" unicode="4" horiz-adv-x="549" 
d="M241 -179l41 192h-299l12 55l314 446h126l-348 -443h208c24 111 54 189 102 267l83 13l-59 -280h82l-13 -58h-82l-37 -173z" />
    <glyph glyph-name="five" unicode="5" horiz-adv-x="444" 
d="M384 96c0 -177 -163 -260 -332 -260c-56 0 -91 9 -123 21l-9 50c33 -10 64 -15 111 -15c104 0 223 47 223 185c0 68 -32 105 -101 105c-44 0 -88 -9 -124 -22l100 349h329l-36 -100h-256l-47 -173c27 9 64 14 102 14c104 0 163 -60 163 -154z" />
    <glyph glyph-name="six" unicode="6" horiz-adv-x="562" 
d="M527 696l8 -47c-170 -64 -284 -159 -343 -289c36 30 93 55 164 55c85 0 157 -62 157 -166c0 -162 -114 -263 -265 -263c-134 0 -209 77 -209 216c0 269 220 426 488 494zM386 235c0 76 -27 111 -83 111c-39 0 -90 -15 -129 -42c-10 -27 -20 -75 -20 -121
c0 -72 23 -144 97 -144c85 0 135 90 135 196z" />
    <glyph glyph-name="seven" unicode="7" horiz-adv-x="463" 
d="M485 509l-34 -90c-143 -150 -247 -354 -322 -565l-140 -27c86 213 236 433 383 581h-332l36 101h409z" />
    <glyph glyph-name="eight" unicode="8" horiz-adv-x="553" 
d="M541 531c0 -91 -66 -150 -169 -173c92 -51 129 -98 129 -170c0 -117 -99 -202 -254 -202c-149 0 -230 70 -230 165c0 105 91 154 183 183c-57 33 -90 83 -90 149c0 114 96 193 230 193c127 0 201 -63 201 -145zM381 158c0 54 -28 87 -141 148c-62 -33 -107 -85 -107 -152
c0 -70 38 -116 117 -116c88 0 131 54 131 120zM432 533c0 51 -30 88 -99 88c-64 0 -106 -43 -106 -109c0 -43 22 -81 100 -124c84 33 105 90 105 145z" />
    <glyph glyph-name="nine" unicode="9" horiz-adv-x="562" 
d="M522 309c0 -293 -230 -447 -522 -494l-26 45c182 45 337 153 388 270c-33 -23 -79 -45 -146 -45c-100 0 -175 62 -175 175c0 153 111 267 264 267c137 0 217 -83 217 -218zM382 192c12 29 21 77 21 124c0 77 -25 154 -101 154c-88 0 -137 -92 -137 -200
c0 -76 31 -118 92 -118c43 0 86 11 125 40z" />
    <glyph glyph-name="colon" unicode=":" horiz-adv-x="319" 
d="M210 71c0 -47 -36 -85 -83 -85s-83 38 -83 85c0 46 36 83 83 83s83 -37 83 -83zM269 373c0 -47 -36 -84 -83 -84c-46 0 -82 37 -82 84c0 46 36 84 82 84c47 0 83 -38 83 -84z" />
    <glyph glyph-name="semicolon" unicode=";" horiz-adv-x="312" 
d="M263 373c0 -47 -37 -84 -84 -84c-46 0 -82 37 -82 84c0 46 36 84 82 84c47 0 84 -38 84 -84zM212 52c0 -97 -89 -170 -186 -194l-20 34c63 21 106 55 106 88c0 19 -11 24 -28 32c-24 11 -40 28 -40 61c0 44 32 75 79 75c56 0 89 -43 89 -96z" />
    <glyph glyph-name="less" unicode="&#x3c;" horiz-adv-x="534" 
d="M399 51l-332 200l15 77l416 234l-15 -84l-342 -188l272 -167z" />
    <glyph glyph-name="equal" unicode="=" horiz-adv-x="611" 
d="M53 165l12 63h466l-12 -63h-466zM82 318l13 63h466l-13 -63h-466z" />
    <glyph glyph-name="greater" unicode="&#x3e;" horiz-adv-x="527" 
d="M39 51l15 79l336 166l-267 189l15 77l325 -234l-15 -77z" />
    <glyph glyph-name="question" unicode="?" horiz-adv-x="462" 
d="M262 71c0 -46 -38 -84 -83 -84s-81 38 -81 84c0 45 36 81 81 81s83 -36 83 -81zM275 645c-61 0 -84 -34 -101 -94h-86l23 107c43 25 101 45 175 45c108 0 184 -39 184 -136c0 -95 -64 -147 -151 -195c-84 -46 -103 -76 -103 -142v-11h-52c-7 11 -17 34 -17 64
c0 61 38 105 98 147c62 44 96 73 96 143c0 45 -20 72 -66 72z" />
    <glyph glyph-name="at" unicode="@" horiz-adv-x="907" 
d="M607 4c-89 0 -126 29 -126 96c-29 -57 -69 -98 -143 -98c-70 0 -111 47 -111 132c0 182 129 317 285 317c61 0 112 -14 148 -40c-9 -26 -19 -62 -26 -94l-44 -189c-1 -5 -5 -28 -5 -40c0 -30 15 -40 48 -40c70 0 144 72 144 227c0 212 -126 304 -302 304
c-203 0 -346 -146 -346 -386c0 -190 114 -325 304 -325c71 0 119 10 161 24l15 -33c-53 -21 -109 -35 -188 -35c-219 0 -378 133 -378 370c0 254 184 431 434 431c234 0 387 -137 387 -346c0 -196 -126 -275 -257 -275zM497 185l45 193c-9 13 -24 22 -46 22
c-98 0 -159 -133 -159 -258c0 -52 17 -68 44 -68c43 0 79 51 116 111z" />
    <glyph glyph-name="A" unicode="A" horiz-adv-x="646" 
d="M409 104l-9 96h-219l-46 -93c-25 -50 -14 -64 45 -66l-7 -41h-219l8 41c47 6 67 15 98 75l298 576h110l74 -575c7 -54 18 -71 63 -76l-8 -41h-264l8 41c62 2 72 18 68 63zM316 469l-104 -207h181l-21 196c-5 46 -6 76 -6 93c0 7 1 13 1 19h-6c-1 -4 -13 -38 -45 -101z
" />
    <glyph glyph-name="B" unicode="B" horiz-adv-x="625" 
d="M264 385h63c49 0 80 6 107 31c29 26 45 68 45 123c0 72 -33 92 -110 92h-58zM333 326h-81l-52 -267h76c54 0 93 5 120 26c32 25 51 72 51 135c0 71 -29 106 -114 106zM111 650l8 42h289c143 0 205 -56 205 -153c0 -106 -72 -168 -175 -178v-4c91 -11 146 -67 146 -141
s-30 -133 -99 -176c-57 -36 -120 -40 -219 -40h-281l7 41c60 1 78 16 89 73l90 462c11 57 -1 73 -60 74z" />
    <glyph glyph-name="C" unicode="C" horiz-adv-x="599" 
d="M308 -14c-176 0 -252 99 -252 264c0 230 133 453 382 453c91 0 145 -22 183 -51l-24 -123h-90c-3 77 -13 115 -83 115c-164 0 -231 -227 -231 -420c0 -135 44 -178 123 -178c75 0 115 35 144 115h89l-24 -122c-44 -28 -132 -53 -217 -53z" />
    <glyph glyph-name="D" unicode="D" horiz-adv-x="679" 
d="M-15 0l7 41c60 1 78 16 89 73l90 462c11 57 -1 73 -60 74l8 42h258c177 0 278 -81 278 -255c0 -142 -43 -273 -122 -355c-60 -63 -140 -82 -256 -82h-292zM370 633h-58l-111 -573h64c74 0 130 10 174 71c48 66 80 208 80 328c0 113 -27 174 -149 174z" />
    <glyph glyph-name="E" unicode="E" horiz-adv-x="582" 
d="M-15 0l7 41c60 1 78 16 89 73l90 462c11 57 -1 73 -60 74l8 42h486l-20 -160h-60c-7 76 -16 99 -81 99h-133l-47 -246h73c62 0 83 14 98 71h55l-40 -200h-54c7 54 -7 71 -69 71h-75l-52 -268h142c71 0 97 23 124 116h61l-33 -175h-509z" />
    <glyph glyph-name="F" unicode="F" horiz-adv-x="555" 
d="M250 317l-39 -201c-11 -58 2 -74 71 -75l-7 -41h-290l7 41c60 1 78 16 89 73l90 462c11 57 -1 73 -60 74l8 42h483l-20 -163h-59c-11 83 -19 102 -86 102h-126l-50 -256h70c62 0 83 14 98 71h55l-40 -202h-55c7 54 -6 73 -68 73h-71z" />
    <glyph glyph-name="G" unicode="G" horiz-adv-x="672" 
d="M329 44c36 0 73 9 97 25l31 159c2 12 4 24 4 31c0 32 -18 42 -75 43l9 41h275l-8 -41c-51 -1 -69 -17 -80 -74l-37 -189c-61 -34 -148 -53 -216 -53c-190 0 -273 98 -273 266c0 219 127 451 388 451c98 0 157 -23 195 -51l-25 -123h-88c-2 79 -21 114 -97 114
c-165 0 -236 -215 -236 -419c0 -134 48 -180 136 -180z" />
    <glyph glyph-name="H" unicode="H" horiz-adv-x="727" 
d="M111 650l8 42h278l-8 -42c-60 -1 -77 -17 -88 -74l-36 -184h252l37 184c2 12 4 23 4 31c0 32 -17 42 -64 43l8 42h278l-8 -42c-60 -1 -77 -17 -88 -74l-90 -462c-11 -57 0 -72 59 -73l-7 -41h-278l7 41c60 1 78 16 89 73l41 215h-253l-41 -215c-2 -11 -4 -23 -4 -32
c0 -31 17 -40 63 -41l-7 -41h-278l7 41c60 1 78 16 89 73l90 462c11 57 -1 73 -60 74z" />
    <glyph glyph-name="I" unicode="I" horiz-adv-x="344" 
d="M301 576l-90 -462c-2 -11 -4 -23 -4 -32c0 -31 17 -40 63 -41l-7 -41h-278l7 41c60 1 78 16 89 73l90 462c11 57 -1 73 -60 74l8 42h278l-8 -42c-60 -1 -77 -17 -88 -74z" />
    <glyph glyph-name="J" unicode="J" horiz-adv-x="347" 
d="M303 576l-92 -475c-31 -160 -106 -222 -272 -248l-16 42c113 40 135 94 157 205l93 476c11 57 -1 73 -59 74l7 42h278l-7 -42c-60 -1 -78 -17 -89 -74z" />
    <glyph glyph-name="K" unicode="K" horiz-adv-x="645" 
d="M556 559l-165 -165l139 -304c17 -36 38 -46 84 -49l-7 -41h-181l-152 355l218 227c17 17 26 32 26 44c0 15 -15 24 -43 25l7 41h219l-8 -41c-46 -6 -75 -30 -137 -92zM301 576l-90 -462c-2 -11 -4 -23 -4 -32c0 -31 17 -40 63 -41l-7 -41h-278l7 41c60 1 78 16 89 73
l90 462c11 57 -1 73 -60 74l8 42h278l-8 -42c-60 -1 -77 -17 -88 -74z" />
    <glyph glyph-name="L" unicode="L" horiz-adv-x="548" 
d="M200 59h115c69 0 103 29 140 123h62l-49 -182h-483l7 41c60 1 78 16 89 73l90 462c11 57 -1 73 -60 74l8 42h281l-8 -42c-63 -1 -81 -18 -93 -81z" />
    <glyph glyph-name="M" unicode="M" horiz-adv-x="863" 
d="M901 692l-8 -41c-71 -4 -84 -23 -91 -76l-59 -456c-7 -58 -1 -76 56 -78l-7 -41h-269l7 41c64 2 76 15 84 71l47 339c6 46 16 99 22 128h-6c-10 -27 -29 -78 -52 -123l-233 -456h-76l-44 437c-4 36 -5 98 -5 125v17h-6c-4 -21 -14 -86 -28 -137l-88 -329
c-4 -15 -7 -28 -7 -38c0 -25 17 -33 63 -34l-7 -41h-218l7 41c58 2 72 18 88 78l123 456c15 56 7 72 -61 76l7 41h230l37 -392c3 -30 6 -76 6 -100c0 -18 -1 -33 -1 -39h6c5 18 21 73 49 131l198 400h236z" />
    <glyph glyph-name="N" unicode="N" horiz-adv-x="685" 
d="M543 0h-83l-171 396c-38 89 -47 146 -50 168h-6c-2 -25 -7 -87 -24 -176l-52 -274c-2 -11 -4 -23 -4 -32c0 -31 17 -40 63 -41l-7 -41h-224l7 41c60 1 78 16 89 73l90 462c11 57 -1 73 -60 74l8 42h189l159 -374c28 -66 35 -116 38 -142h6c2 25 10 102 25 181l43 219
c2 8 4 23 4 32c0 31 -17 41 -63 42l8 42h218l-8 -42c-56 -1 -72 -17 -83 -74z" />
    <glyph glyph-name="O" unicode="O" horiz-adv-x="689" 
d="M666 430c0 -197 -103 -444 -352 -444c-167 0 -258 109 -258 276c0 192 107 441 354 441c155 0 256 -95 256 -273zM528 470c0 114 -32 173 -119 173c-62 0 -101 -26 -132 -75c-61 -95 -84 -246 -84 -353c0 -117 37 -171 120 -171c59 0 98 24 131 75c59 92 84 249 84 351z
" />
    <glyph glyph-name="P" unicode="P" horiz-adv-x="591" 
d="M211 116c-2 -10 -4 -22 -4 -31c0 -33 20 -43 75 -44l-7 -41h-290l7 41c60 1 78 16 89 73l90 462c11 57 -1 73 -60 74l8 42h258c162 0 236 -51 236 -177c0 -98 -49 -174 -131 -212c-46 -21 -101 -27 -163 -27h-77zM479 517c0 76 -25 114 -110 114h-58l-57 -293h60
c42 0 76 4 105 28c35 27 60 80 60 151z" />
    <glyph glyph-name="Q" unicode="Q" horiz-adv-x="689" 
d="M666 430c0 -181 -91 -404 -296 -435c47 -13 126 -35 190 -35c24 0 52 2 76 10l-36 -96c-15 -8 -51 -13 -79 -13c-114 0 -183 97 -303 137c-106 35 -162 134 -162 265c0 191 107 440 354 440c155 0 256 -95 256 -273zM528 470c0 114 -31 173 -118 173
c-63 0 -102 -26 -133 -75c-61 -95 -84 -246 -84 -353c0 -117 35 -171 118 -171c57 0 98 20 133 75c57 89 84 249 84 351z" />
    <glyph glyph-name="R" unicode="R" horiz-adv-x="636" 
d="M311 631l-52 -269h63c100 0 154 60 154 164c0 78 -36 105 -113 105h-52zM248 304l-37 -190c-2 -11 -4 -23 -4 -32c0 -31 17 -40 63 -41l-7 -41h-278l7 41c60 1 78 16 89 73l90 462c11 57 -1 73 -60 74l8 42h273c139 0 218 -49 218 -160c0 -139 -98 -205 -231 -213v-4
c41 -12 75 -36 93 -68c20 -35 37 -86 60 -148c13 -37 23 -57 69 -58l-7 -41h-170c-25 88 -45 151 -72 222c-24 64 -50 78 -104 82z" />
    <glyph glyph-name="S" unicode="S" horiz-adv-x="521" 
d="M226 39c81 0 133 46 133 126c0 62 -30 95 -91 124l-62 30c-70 34 -116 84 -116 173c0 129 100 211 239 211c110 0 170 -33 197 -55l-23 -123h-81v4c0 74 -27 119 -105 119c-74 0 -117 -46 -117 -112c0 -59 33 -85 82 -110l64 -31c75 -35 132 -81 132 -182
c0 -139 -98 -227 -261 -227c-109 0 -181 30 -216 61l24 132h84v-5c0 -89 28 -135 117 -135z" />
    <glyph glyph-name="T" unicode="T" horiz-adv-x="594" 
d="M116 692h534l-30 -172h-61c-1 79 -1 111 -64 111h-58l-101 -517c-3 -15 -3 -22 -3 -30c0 -32 18 -42 70 -43l-8 -41h-292l8 41c65 1 84 16 95 73l100 517h-55c-66 0 -81 -28 -111 -111h-63z" />
    <glyph glyph-name="U" unicode="U" horiz-adv-x="678" 
d="M337 58c97 0 148 60 168 166l68 352c11 57 0 73 -62 74l8 42h222l-7 -42c-57 -1 -73 -17 -84 -74l-68 -352c-31 -161 -114 -238 -261 -238c-160 0 -233 66 -233 176c0 25 2 53 9 89l62 325c11 57 -3 73 -59 74l7 42h279l-8 -42c-61 -1 -77 -17 -88 -74l-66 -332
c-6 -31 -9 -58 -9 -82c1 -71 37 -104 122 -104z" />
    <glyph glyph-name="V" unicode="V" horiz-adv-x="650" 
d="M275 585l30 -314c5 -51 7 -132 8 -155h6c7 18 30 77 71 157l158 312c8 16 12 28 12 37c0 20 -18 27 -57 28l8 42h219l-8 -42c-48 -6 -65 -16 -99 -80l-300 -570h-110l-71 574c-7 55 -15 71 -59 76l8 42h264l-8 -42c-57 -1 -76 -20 -72 -65z" />
    <glyph glyph-name="W" unicode="W" horiz-adv-x="904" 
d="M607 692l21 -401c2 -40 2 -86 2 -118v-39h6c6 19 25 77 57 158l115 291c3 8 8 23 8 33c0 24 -20 33 -59 34l7 42h220l-7 -42c-47 -6 -68 -24 -92 -81l-241 -569h-120l-21 379c-1 16 -1 37 -1 57c0 32 1 64 2 78h-6c-9 -31 -27 -88 -46 -131l-165 -383h-123l-23 574
c-2 58 -14 71 -58 76l8 42h259l-7 -42c-53 -3 -74 -16 -74 -57v-6l9 -295v-23c0 -50 -2 -104 -4 -136h6c8 24 27 85 59 160l166 399h102z" />
    <glyph glyph-name="X" unicode="X" horiz-adv-x="640" 
d="M566 579l-167 -204l110 -266c20 -49 38 -63 76 -68l-7 -41h-266l7 41c42 1 59 14 59 38c0 9 -3 21 -7 31l-69 178h-5l-133 -176c-15 -20 -22 -34 -22 -46c0 -17 19 -24 49 -25l-7 -41h-215l7 41c40 5 64 20 111 80l185 232l-95 230c-21 52 -37 62 -73 67l8 42h260l-7 -42
c-43 -1 -59 -14 -59 -35c0 -10 2 -20 7 -32l56 -146h5l109 144c15 19 22 34 22 45c0 15 -14 23 -44 24l8 42h210l-8 -42c-40 -5 -64 -20 -105 -71z" />
    <glyph glyph-name="Y" unicode="Y" horiz-adv-x="610" 
d="M214 114l29 154l-90 310c-16 57 -34 67 -70 72l8 42h251l-7 -42c-42 -1 -56 -14 -56 -39c0 -9 2 -19 5 -31l61 -237h5l151 239c12 18 18 33 18 43c0 17 -18 24 -49 25l7 42h213l-8 -42c-42 -5 -60 -18 -96 -70l-211 -308l-31 -158c-11 -57 2 -72 67 -73l-8 -41h-292l8 41
c65 1 85 16 95 73z" />
    <glyph glyph-name="Z" unicode="Z" horiz-adv-x="563" 
d="M-16 0l10 56l452 578h-149c-67 0 -100 -35 -135 -113h-62l45 171h463l-10 -56l-451 -577h166c77 0 111 33 149 123h60l-48 -182h-490z" />
    <glyph glyph-name="bracketleft" unicode="[" horiz-adv-x="363" 
d="M243 -155h-217l181 928h217l-9 -50h-106l-162 -828h106z" />
    <glyph glyph-name="backslash" unicode="\" horiz-adv-x="438" 
d="M374 -149h-79l-173 910h79z" />
    <glyph glyph-name="bracketright" unicode="]" horiz-adv-x="363" 
d="M141 773h217l-181 -928h-217l11 50h105l161 828h-106z" />
    <glyph glyph-name="asciicircum" unicode="^" horiz-adv-x="573" 
d="M523 310h-87l-90 307l-205 -307h-92l273 398h83z" />
    <glyph glyph-name="underscore" unicode="_" horiz-adv-x="496" 
d="M445 -125h-500v63h500v-63z" />
    <glyph glyph-name="grave" unicode="`" horiz-adv-x="505" 
d="M361 596l-23 -35l-228 97l67 109z" />
    <glyph glyph-name="a" unicode="a" horiz-adv-x="564" 
d="M344 514c49 0 85 -19 94 -55c11 19 25 32 39 44h72c-16 -29 -33 -79 -46 -135l-53 -237c-4 -19 -5 -25 -5 -36c0 -28 13 -37 44 -37c9 0 24 1 31 2l3 -37c-39 -21 -75 -32 -115 -32c-58 0 -82 33 -82 87c0 11 1 22 3 35c-42 -66 -103 -126 -179 -126
c-77 0 -121 52 -121 140c0 201 151 387 315 387zM343 454c-102 0 -188 -160 -188 -312c0 -53 18 -74 45 -74c46 0 106 74 145 139l52 219c-8 17 -26 28 -54 28z" />
    <glyph glyph-name="b" unicode="b" horiz-adv-x="567" 
d="M246 -14c-65 0 -104 29 -118 60c-8 -16 -21 -36 -34 -46h-75c14 31 29 80 42 142l93 437c3 15 5 28 5 38c0 36 -20 47 -64 49l9 38l165 26h13c3 -9 6 -24 6 -52c0 -32 -3 -66 -15 -117l-40 -176c42 66 105 128 187 128c71 0 118 -53 118 -159c0 -194 -119 -368 -292 -368
zM235 46c109 0 173 156 173 302c0 59 -21 78 -47 78c-48 0 -110 -69 -146 -129l-46 -217c7 -17 32 -34 66 -34z" />
    <glyph glyph-name="c" unicode="c" horiz-adv-x="466" 
d="M326 514c76 0 120 -22 143 -41l-20 -101h-85v14c0 48 -13 71 -51 71c-91 0 -154 -139 -154 -281c0 -77 34 -117 96 -117c52 0 90 22 128 54l29 -41c-38 -44 -102 -86 -192 -86c-117 0 -187 71 -187 199c0 155 114 329 293 329z" />
    <glyph glyph-name="d" unicode="d" horiz-adv-x="576" 
d="M356 207l48 224c-11 14 -28 23 -52 23c-106 0 -197 -147 -197 -309c0 -56 20 -77 47 -77c56 0 114 74 154 139zM340 113c-41 -66 -107 -126 -186 -126c-77 0 -125 52 -125 143c0 211 161 384 329 384c25 0 46 -5 62 -15l16 80c3 15 5 28 5 38c0 36 -20 47 -64 49l9 38
l164 26h13c3 -9 6 -27 6 -49c0 -27 -4 -68 -15 -120l-92 -430c-3 -15 -5 -28 -5 -38c0 -26 12 -35 44 -35c9 0 19 1 31 2l3 -37c-45 -22 -78 -32 -118 -32c-55 0 -79 34 -79 90c0 10 0 21 2 32z" />
    <glyph glyph-name="e" unicode="e" horiz-adv-x="498" 
d="M157 171c0 -69 33 -111 97 -111c55 0 101 20 148 63l28 -40c-50 -58 -124 -97 -214 -97c-121 0 -183 72 -183 196c0 167 126 332 291 332c95 0 160 -42 160 -132c0 -115 -126 -165 -304 -165h-21c-2 -13 -2 -30 -2 -46zM368 395c0 36 -20 61 -52 61
c-69 0 -125 -79 -147 -185h13c133 0 186 45 186 124z" />
    <glyph glyph-name="f" unicode="f" horiz-adv-x="329" 
d="M146 -31c-20 -96 -76 -157 -169 -157c-32 0 -54 8 -72 17v35c84 5 108 27 123 106l91 466h-63l10 42l66 22l15 72c22 105 102 160 201 160c44 0 88 -9 115 -22l-17 -89h-77c0 34 -6 57 -33 57c-29 0 -51 -16 -63 -73l-21 -104h122l-28 -65h-106z" />
    <glyph glyph-name="g" unicode="g" horiz-adv-x="513" 
d="M172 -200c-144 0 -213 37 -213 102c0 42 32 66 62 79l71 2c-10 -15 -21 -38 -21 -67c0 -42 31 -63 106 -63c100 0 147 35 147 95c0 40 -31 56 -95 60c-36 2 -78 6 -115 10c-48 6 -80 22 -80 72c0 57 49 93 122 113c-63 15 -100 65 -100 130c0 110 96 181 216 181
c70 0 126 -25 169 -25c34 0 61 13 90 33l27 -83c-26 -13 -44 -16 -71 -16c-21 0 -46 5 -69 18c22 -19 41 -52 41 -96c0 -69 -59 -155 -225 -155h-22c-35 -8 -67 -27 -67 -48c0 -12 5 -22 28 -24l103 -7c101 -7 160 -39 160 -126c0 -128 -120 -185 -264 -185zM245 243
c68 0 97 68 97 142c0 49 -25 74 -71 74c-56 0 -96 -56 -96 -141c0 -50 27 -75 70 -75z" />
    <glyph glyph-name="h" unicode="h" horiz-adv-x="557" 
d="M332 132l49 223c2 11 4 22 4 28c0 23 -9 35 -31 35c-51 0 -110 -71 -150 -134l-61 -284h-121l125 579c3 15 5 28 5 38c0 35 -19 47 -64 49l9 38l165 26h13c3 -9 6 -25 6 -50c0 -28 -4 -68 -15 -119l-40 -181c47 74 114 134 191 134c66 0 94 -41 94 -97
c0 -17 -2 -29 -5 -44l-54 -242c-4 -17 -6 -30 -6 -41c0 -23 11 -32 42 -32c10 0 21 0 35 2l3 -37c-45 -22 -83 -32 -119 -32c-58 0 -83 30 -83 82c0 17 3 37 8 59z" />
    <glyph glyph-name="i" unicode="i" horiz-adv-x="285" 
d="M230 374l-56 -243c-4 -17 -6 -30 -6 -40c0 -25 11 -33 42 -33c10 0 21 0 35 2l3 -37c-45 -22 -84 -32 -124 -32c-55 0 -81 30 -81 83c0 17 3 36 8 58l54 223c4 15 6 33 6 38c0 26 -10 49 -74 49l8 35c29 15 75 29 115 29c50 0 77 -23 77 -77c0 -16 -2 -34 -7 -55z
M283 650c0 -41 -33 -74 -74 -74c-42 0 -75 33 -75 74s33 74 75 74s74 -33 74 -74z" />
    <glyph glyph-name="j" unicode="j" horiz-adv-x="275" 
d="M160 -4c-24 -121 -94 -170 -231 -201l-16 49c86 32 110 64 131 169l68 342c4 20 5 27 5 38c0 37 -21 49 -73 49l8 35c29 15 74 29 115 29c50 0 77 -22 77 -79c0 -14 -3 -32 -7 -53zM290 650c0 -41 -33 -74 -75 -74c-41 0 -74 33 -74 74s33 74 75 74c41 0 74 -33 74 -74z
" />
    <glyph glyph-name="k" unicode="k" horiz-adv-x="518" 
d="M265 561l-122 -561h-121l125 579c3 14 5 31 5 38c0 34 -20 48 -65 49l9 38l166 26h13c3 -9 6 -28 6 -47c0 -29 -5 -72 -16 -122zM277 90l-65 179l206 232h124l-9 -43c-49 0 -98 -39 -138 -78l-75 -74l74 -189c16 -42 28 -59 66 -59c9 0 20 1 32 3l3 -35
c-36 -22 -77 -33 -108 -33c-56 0 -84 23 -110 97z" />
    <glyph glyph-name="l" unicode="l" horiz-adv-x="283" 
d="M262 561l-93 -430c-2 -9 -6 -30 -6 -41c0 -23 11 -33 43 -33c10 0 22 1 37 3l3 -37c-44 -22 -84 -32 -123 -32c-58 0 -83 30 -83 84c0 17 3 36 7 57l96 447c3 15 5 28 5 38c0 36 -20 47 -64 49l8 38l166 26h13c3 -9 6 -25 6 -50c0 -28 -4 -68 -15 -119z" />
    <glyph glyph-name="m" unicode="m" horiz-adv-x="829" 
d="M680 -9c-58 0 -83 30 -83 84c0 17 2 36 7 57l49 221c2 9 4 21 4 29c0 22 -9 34 -32 34c-43 0 -98 -69 -137 -128l-61 -288h-120l74 351c2 10 4 22 4 30c0 23 -9 35 -31 35c-44 0 -100 -71 -138 -132l-61 -284h-121l78 362c3 14 4 22 4 31c0 34 -19 49 -72 49l8 35
c31 16 71 29 113 29c43 0 68 -27 68 -87c0 -14 -1 -30 -4 -48c49 78 110 143 187 143c65 0 91 -47 91 -104c0 -9 -1 -22 -3 -34c48 72 111 138 186 138c65 0 93 -42 93 -97c0 -14 -1 -25 -5 -44l-54 -242c-4 -17 -6 -33 -6 -41c0 -23 11 -33 42 -33c10 0 21 1 35 3l3 -37
c-45 -22 -80 -32 -118 -32z" />
    <glyph glyph-name="n" unicode="n" horiz-adv-x="568" 
d="M343 132l49 223c2 10 4 22 4 28c0 24 -9 35 -31 35c-51 0 -110 -71 -149 -134l-61 -284h-121l78 362c3 13 4 25 4 31c0 34 -19 49 -72 49l8 35c31 16 71 29 113 29c43 0 68 -27 68 -87c0 -14 -1 -30 -4 -48c49 78 118 143 200 143c65 0 93 -41 93 -97
c0 -14 -1 -24 -5 -44l-54 -242c-3 -12 -6 -33 -6 -41c0 -23 11 -33 42 -33c10 0 21 1 35 3l3 -37c-45 -22 -82 -32 -118 -32c-59 0 -84 31 -84 82c0 14 3 37 8 59z" />
    <glyph glyph-name="o" unicode="o" horiz-adv-x="537" 
d="M507 312c0 -170 -100 -326 -277 -326c-121 0 -197 80 -197 199c0 175 111 329 275 329c123 0 199 -77 199 -202zM381 346c0 73 -23 111 -77 111c-37 0 -67 -21 -91 -65c-32 -60 -55 -156 -55 -245c0 -65 22 -105 76 -105c32 0 60 12 89 58c34 54 58 152 58 246z" />
    <glyph glyph-name="p" unicode="p" horiz-adv-x="573" 
d="M220 298l-48 -231c9 -16 28 -26 54 -26c127 0 187 172 187 307c0 59 -20 78 -47 78c-47 0 -109 -69 -146 -128zM156 -4l-17 -83c-3 -14 -5 -24 -5 -33c0 -27 15 -34 61 -36l-9 -40h-257l9 40c54 3 67 13 79 70l95 448c3 12 4 24 4 33c0 33 -19 47 -71 47l8 35
c30 16 70 29 113 29s70 -27 70 -88c0 -12 -1 -25 -3 -39c44 68 111 134 193 134c71 0 118 -53 118 -152c0 -197 -129 -375 -319 -375c-28 0 -50 4 -69 10z" />
    <glyph glyph-name="q" unicode="q" horiz-adv-x="550" 
d="M278 -87l50 200c-42 -66 -104 -126 -181 -126c-76 0 -121 52 -121 140c0 201 154 387 318 387c49 0 85 -19 94 -55c11 19 25 32 39 44h72c-16 -29 -33 -79 -46 -135l-103 -454c-13 -55 -4 -67 50 -70l-10 -40h-258l10 40c61 2 73 15 86 69zM343 454
c-103 0 -191 -157 -191 -312c0 -53 18 -74 45 -74c49 0 109 74 148 139l52 219c-8 17 -26 28 -54 28z" />
    <glyph glyph-name="r" unicode="r" horiz-adv-x="392" 
d="M34 0l78 362c1 5 4 22 4 31c0 34 -19 49 -72 49l8 35c31 16 71 29 113 29c44 0 66 -32 66 -95c0 -17 -1 -28 -3 -45c36 81 92 148 154 148c14 0 25 -2 38 -8l-29 -128c-15 6 -26 8 -44 8c-68 0 -120 -45 -147 -172l-45 -214h-121z" />
    <glyph glyph-name="s" unicode="s" horiz-adv-x="441" 
d="M172 -14c-97 0 -145 28 -169 46l17 103h79v-8c0 -58 23 -85 84 -85c54 0 101 20 101 79c0 42 -26 58 -69 75l-47 18c-64 24 -106 62 -106 137c0 107 92 163 203 163c80 0 127 -22 154 -38l-17 -99h-75c-2 52 -21 82 -79 82c-48 0 -84 -26 -84 -72c0 -29 16 -48 59 -64
l46 -18c82 -31 123 -70 123 -145c0 -105 -87 -174 -220 -174z" />
    <glyph glyph-name="t" unicode="t" horiz-adv-x="339" 
d="M369 501l-27 -65h-106l-61 -286c-4 -20 -6 -35 -6 -49c0 -35 16 -49 53 -49c17 0 41 4 63 12l8 -40c-40 -25 -86 -38 -131 -38c-75 0 -115 34 -115 98c0 17 2 38 7 62l61 290h-59l9 42l71 23c19 50 48 110 81 142l77 8c-14 -35 -34 -104 -44 -150h119z" />
    <glyph glyph-name="u" unicode="u" horiz-adv-x="558" 
d="M327 112c-45 -69 -108 -126 -188 -126c-66 0 -96 40 -96 97c0 15 2 31 6 48l50 224c3 15 5 28 5 39c0 35 -19 48 -71 48l8 35c29 15 70 29 113 29c47 0 75 -28 75 -86c0 -15 -2 -33 -6 -53l-50 -223c-3 -13 -4 -25 -4 -34c0 -25 10 -35 32 -35c51 0 109 73 145 134
l62 292h119l-77 -370c-3 -14 -5 -26 -5 -36c0 -25 13 -37 47 -37c8 0 18 1 29 2l3 -37c-39 -21 -77 -32 -117 -32c-57 0 -83 34 -83 88c0 10 1 21 3 33z" />
    <glyph glyph-name="v" unicode="v" horiz-adv-x="475" 
d="M121 -2l-34 361c-6 66 -9 84 -76 84l8 35c26 15 69 28 107 28c50 0 67 -31 74 -116l13 -156c3 -29 3 -54 3 -74c0 -27 -1 -43 -2 -54h6l84 163c58 114 74 181 76 239l108 -15v-39l-272 -456h-95z" />
    <glyph glyph-name="w" unicode="w" horiz-adv-x="736" 
d="M126 -3l-40 372c-6 59 -11 73 -75 74l8 35c26 15 69 28 107 28c50 0 67 -30 75 -114l14 -142c3 -31 4 -58 4 -79c0 -31 -1 -37 -2 -49h6l161 379h88l24 -239c8 -78 8 -106 9 -140h5l48 103c70 151 81 225 84 283l106 -15v-39l-249 -457h-87l-21 223c-3 38 -5 75 -5 102
c0 12 0 24 1 30h-4l-160 -355h-97z" />
    <glyph glyph-name="x" unicode="x" horiz-adv-x="499" 
d="M192 252l-46 132c-19 55 -38 62 -90 62l7 35c26 13 58 25 101 25c46 0 70 -17 88 -79l30 -102l113 176h125l-9 -44c-48 -5 -78 -26 -113 -72l-95 -122l50 -149c14 -44 28 -59 67 -59c8 0 18 1 29 2l4 -37c-30 -14 -78 -29 -117 -29c-55 0 -76 34 -97 108l-26 90
l-123 -189h-118l9 46c50 9 74 26 119 86z" />
    <glyph glyph-name="y" unicode="y" horiz-adv-x="479" 
d="M176 7l-47 -3c-2 57 -7 127 -22 226l-19 134c-10 66 -20 79 -77 79l7 36c26 13 64 27 106 27c56 0 68 -36 81 -132l15 -114c6 -45 8 -83 8 -111c0 -15 -1 -44 -3 -57h6c20 38 36 70 58 115c45 92 90 203 93 301l110 -15v-39l-255 -467c-68 -126 -132 -179 -230 -197
l-37 81c86 16 159 43 206 136z" />
    <glyph glyph-name="z" unicode="z" horiz-adv-x="460" 
d="M474 447l-358 -341c14 1 28 2 41 2c56 0 98 -9 131 -9c46 0 75 15 103 71l36 -10c-33 -141 -68 -172 -136 -172c-84 0 -127 44 -196 44c-32 0 -52 -13 -66 -32h-51l9 52l347 339c-65 1 -116 6 -149 6c-41 0 -68 -19 -86 -67l-42 7c16 115 55 171 132 171
c71 0 138 -42 185 -42c25 0 40 9 61 35h50z" />
    <glyph glyph-name="braceleft" unicode="{" horiz-adv-x="385" 
d="M36 288l8 42c70 0 111 24 124 91l43 222c16 86 72 130 153 130h88l-9 -46h-43c-57 0 -78 -42 -86 -85l-40 -206c-18 -95 -78 -120 -109 -125l-1 -4c25 -4 65 -23 65 -87c0 -6 -1 -23 -4 -37l-41 -207c-2 -10 -3 -20 -3 -30c0 -31 13 -55 56 -55h43l-9 -46h-88
c-74 0 -106 30 -106 87c0 14 1 28 4 43l43 222c2 10 3 19 3 27c0 46 -31 64 -91 64z" />
    <glyph glyph-name="bar" unicode="|" horiz-adv-x="265" 
d="M97 -149h-78l176 910h78z" />
    <glyph glyph-name="braceright" unicode="}" horiz-adv-x="394" 
d="M373 330l-9 -42c-70 0 -110 -24 -123 -91l-45 -226c-16 -82 -71 -126 -152 -126h-87l9 45h42c58 0 78 42 86 85l40 207c18 95 78 120 109 125l1 4c-25 4 -64 23 -64 86c0 11 1 24 4 38l40 207c2 10 3 20 3 30c0 31 -13 55 -56 55h-43l9 46h88c74 0 107 -30 107 -89
c0 -12 -1 -26 -4 -41l-43 -222c-2 -10 -3 -19 -3 -27c0 -46 31 -64 91 -64z" />
    <glyph glyph-name="asciitilde" unicode="~" horiz-adv-x="567" 
d="M381 332c35 0 71 18 92 57l38 -19c-26 -79 -80 -135 -137 -135c-70 0 -131 42 -186 42c-36 0 -64 -22 -86 -61l-34 18c20 82 71 140 130 140c70 0 122 -42 183 -42z" />
    <glyph glyph-name="uni00A0" unicode="&#xa0;" horiz-adv-x="225" 
 />
    <glyph glyph-name="exclamdown" unicode="&#xa1;" horiz-adv-x="315" 
d="M-10 -199l151 486h75l-68 -470zM124 433c0 45 37 81 80 81c44 0 79 -36 79 -81c0 -43 -35 -79 -79 -79s-80 36 -80 79z" />
    <glyph glyph-name="cent" unicode="&#xa2;" horiz-adv-x="485" 
d="M175 -100l17 87c-102 11 -163 80 -163 198c0 146 104 309 268 327l18 90h51l-18 -89c64 -4 108 -25 130 -42l-21 -101h-82v13c0 46 -10 68 -38 75l-81 -401c51 1 92 23 132 57l29 -40c-36 -41 -95 -81 -175 -87l-17 -87h-50zM150 176c0 -57 21 -95 58 -111l77 390
c-78 -26 -135 -150 -135 -279z" />
    <glyph glyph-name="sterling" unicode="&#xa3;" horiz-adv-x="577" 
d="M42 304l12 53h76l17 89c33 166 140 230 273 230c83 0 131 -23 157 -48l-22 -108h-86c0 65 -9 101 -66 101c-62 0 -99 -39 -120 -145l-24 -119h187l-12 -53h-184l-48 -245h127c69 0 103 29 141 123h62l-50 -182h-503l8 41c63 1 85 16 96 73l37 190h-78z" />
    <glyph glyph-name="currency" unicode="&#xa4;" horiz-adv-x="494" 
d="M80 31l-51 38l63 76c-21 23 -33 55 -33 95c0 78 36 142 88 180l-34 74l65 38l34 -77c24 9 48 12 74 12c24 0 47 -4 67 -11l64 76l50 -39l-60 -71c22 -24 35 -57 35 -96c0 -82 -39 -148 -94 -185l33 -73l-64 -38l-36 79c-22 -7 -43 -9 -66 -9c-25 0 -49 3 -69 11zM275 412
c-79 0 -117 -77 -117 -179c0 -52 20 -79 67 -79c94 0 119 115 119 183c0 48 -20 75 -69 75z" />
    <glyph glyph-name="yen" unicode="&#xa5;" horiz-adv-x="605" 
d="M75 327l10 50h118l-58 201c-16 57 -34 67 -70 72l8 42h251l-7 -42c-41 -1 -56 -14 -56 -39c0 -9 2 -19 5 -31l61 -237h5l151 239c12 18 18 33 18 43c0 17 -17 24 -49 25l8 42h212l-8 -42c-45 -6 -60 -19 -97 -72l-138 -201h133l-10 -50h-158l-37 -55l-4 -15h187l-11 -50
h-185l-18 -93c-2 -12 -3 -22 -3 -30c0 -33 18 -42 70 -43l-8 -41h-291l7 41c65 1 85 16 95 73l17 93h-171l11 50h169l3 11l-18 59h-142z" />
    <glyph glyph-name="brokenbar" unicode="&#xa6;" horiz-adv-x="266" 
d="M196 356h-78l78 401h78zM97 -150h-78l78 401h78z" />
    <glyph glyph-name="section" unicode="&#xa7;" horiz-adv-x="481" 
d="M29 274c0 92 60 147 157 175c-43 27 -74 60 -74 126c0 103 90 158 197 158c85 0 131 -22 158 -38l-17 -99h-75c-2 51 -20 82 -79 82c-48 0 -83 -25 -83 -72c0 -29 19 -46 52 -64l83 -44c83 -44 114 -87 114 -157c0 -96 -67 -154 -157 -176c53 -33 82 -67 82 -132
c0 -93 -85 -165 -215 -165c-100 0 -148 28 -172 45l17 103h79v-8c0 -58 22 -85 84 -85c57 0 100 21 100 74c0 41 -27 62 -68 83l-91 48c-52 27 -92 71 -92 146zM129 310c0 -37 21 -65 57 -84l65 -33c62 14 104 46 104 105c0 54 -28 82 -73 103l-43 21
c-69 -17 -110 -56 -110 -112z" />
    <glyph glyph-name="dieresis" unicode="&#xa8;" horiz-adv-x="493" 
d="M210 643c0 -40 -31 -71 -72 -71c-40 0 -72 31 -72 71s32 71 73 71c40 0 71 -31 71 -71zM427 643c0 -40 -32 -71 -72 -71s-72 31 -72 71s32 71 73 71c40 0 71 -31 71 -71z" />
    <glyph glyph-name="copyright" unicode="&#xa9;" horiz-adv-x="799" 
d="M314 352c0 -101 28 -172 104 -172c54 0 70 23 78 73h66v-85c-27 -16 -74 -33 -142 -33c-144 0 -214 74 -214 208s68 214 211 214c68 0 116 -17 142 -34v-85h-72c-7 49 -17 78 -71 78c-77 0 -102 -63 -102 -164zM411 31c168 0 301 122 301 312c0 194 -133 314 -301 314
s-301 -120 -301 -314c0 -190 133 -312 301 -312zM411 -12c-202 0 -356 140 -356 356c0 214 160 357 356 357s356 -143 356 -357c0 -216 -154 -356 -356 -356z" />
    <glyph glyph-name="ordfeminine" unicode="&#xaa;" horiz-adv-x="458" 
d="M296 740c38 0 65 -15 72 -42c8 15 19 25 29 33h66c-11 -22 -24 -59 -34 -103l-41 -180c-3 -14 -4 -17 -4 -30c0 -17 7 -26 32 -26c7 0 19 1 26 2l2 -28c-31 -19 -63 -26 -96 -26c-46 0 -66 27 -66 70c0 8 1 16 2 25c-32 -51 -79 -97 -139 -97c-59 0 -94 39 -94 108
c0 156 117 294 245 294zM296 693c-75 0 -138 -121 -138 -236c0 -40 13 -56 33 -56c34 0 76 55 106 105l39 166c-6 14 -20 21 -40 21z" />
    <glyph glyph-name="guillemotleft" unicode="&#xab;" horiz-adv-x="557" 
d="M161 246l74 -184l-45 -35l-154 221l235 221l35 -37zM382 246l73 -184l-45 -35l-153 221l234 221l36 -37z" />
    <glyph glyph-name="logicalnot" unicode="&#xac;" horiz-adv-x="510" 
d="M53 232l13 66h394l-44 -228h-71l31 162h-323z" />
    <glyph glyph-name="uni00AD" unicode="&#xad;" horiz-adv-x="335" 
d="M273 228h-230l19 95h229z" />
    <glyph glyph-name="registered" unicode="&#xae;" horiz-adv-x="799" 
d="M228 144v32c46 0 48 13 48 57v227c0 44 -2 57 -48 57v34h177c94 0 158 -24 158 -111c0 -83 -48 -104 -120 -107v-3c30 -6 56 -22 75 -54c11 -19 21 -38 34 -65c16 -29 21 -34 56 -35v-32h-124c-15 37 -34 75 -48 103c-30 61 -37 77 -72 78v-92c0 -46 7 -57 53 -57v-32
h-189zM364 362h32c55 0 74 18 74 76c0 52 -19 71 -85 71h-21v-147zM411 31c168 0 301 122 301 312c0 194 -133 314 -301 314s-301 -120 -301 -314c0 -190 133 -312 301 -312zM411 -12c-202 0 -356 140 -356 356c0 214 160 357 356 357s356 -143 356 -357
c0 -216 -154 -356 -356 -356z" />
    <glyph glyph-name="macron" unicode="&#xaf;" horiz-adv-x="403" 
d="M341 596h-292l13 68h292z" />
    <glyph glyph-name="degree" unicode="&#xb0;" horiz-adv-x="396" 
d="M395 549c0 -99 -67 -192 -183 -192c-90 0 -148 54 -148 144c0 119 72 195 180 195c93 0 151 -55 151 -147zM219 420c65 0 95 58 95 131c0 61 -26 83 -75 83c-60 0 -95 -51 -95 -128c0 -64 25 -86 75 -86z" />
    <glyph glyph-name="plusminus" unicode="&#xb1;" horiz-adv-x="563" 
d="M301 507h71l-29 -148h161l-13 -65h-161l-30 -157h-70l30 157h-164l13 65h164zM44 25l12 65h395l-12 -65h-395z" />
    <glyph glyph-name="twosuperior" unicode="&#xb2;" horiz-adv-x="352" 
d="M223 656c74 0 125 -33 125 -99c0 -91 -85 -141 -196 -207l-48 -29h223l-25 -71h-291l9 56l94 71c88 68 130 103 130 163c0 37 -21 52 -61 52c-37 0 -72 -18 -101 -44l-22 32c34 43 89 76 163 76z" />
    <glyph glyph-name="threesuperior" unicode="&#xb3;" horiz-adv-x="334" 
d="M166 601c-32 0 -57 -13 -82 -36l-23 30c32 37 81 61 142 61c66 0 116 -28 116 -85c0 -60 -49 -98 -112 -108c58 -5 92 -38 92 -85c0 -107 -118 -148 -224 -148c-34 0 -63 5 -81 12l-6 40c16 -4 45 -7 61 -7c79 0 148 32 148 104c0 43 -23 57 -62 57c-16 0 -23 -1 -34 -2
l10 49c9 -1 19 -1 30 -1c48 0 81 23 81 71c0 33 -21 48 -56 48z" />
    <glyph glyph-name="acute" unicode="&#xb4;" horiz-adv-x="505" 
d="M140 596l184 171l66 -109l-227 -97z" />
    <glyph glyph-name="mu" unicode="&#xb5;" horiz-adv-x="572" 
d="M-18 -202v27c23 53 38 114 54 183l77 347c3 15 5 29 5 39c0 35 -19 48 -71 48l8 35c29 15 70 29 113 29c47 0 76 -27 76 -84c0 -13 -3 -34 -8 -55l-49 -220c-4 -17 -6 -27 -6 -37c0 -24 12 -35 34 -35c51 0 109 73 145 134l62 292h119l-77 -368c-4 -18 -5 -29 -5 -38
c0 -26 14 -37 47 -37c7 0 18 1 29 2l3 -37c-39 -21 -77 -32 -117 -32c-54 0 -77 30 -79 81c0 12 1 27 4 41c-41 -76 -97 -127 -154 -127c-30 0 -47 11 -55 32l-4 -2c4 -13 6 -28 6 -47c0 -18 -3 -38 -8 -61l-19 -86z" />
    <glyph glyph-name="paragraph" unicode="&#xb6;" horiz-adv-x="661" 
d="M703 692l-8 -39c-67 -2 -84 -19 -95 -76l-135 -699h-65l148 759h-83l-148 -759h-64l81 417h-60c-140 0 -208 59 -208 159c0 161 97 238 269 238h368zM400 637h-42c-71 0 -113 -68 -113 -201c0 -59 17 -86 69 -86h30z" />
    <glyph glyph-name="periodcentered" unicode="&#xb7;" horiz-adv-x="293" 
d="M231 284c0 -47 -37 -84 -83 -84c-47 0 -83 37 -83 84c0 46 36 84 83 84c46 0 83 -38 83 -84z" />
    <glyph glyph-name="cedilla" unicode="&#xb8;" horiz-adv-x="328" 
d="M263 -116c0 -58 -38 -85 -109 -85c-43 0 -72 12 -91 25l17 36c22 -14 42 -19 64 -19s38 7 38 32s-31 31 -67 32l1 21l37 87l41 -6l-21 -47c62 -5 90 -35 90 -76z" />
    <glyph glyph-name="onesuperior" unicode="&#xb9;" horiz-adv-x="316" 
d="M280 649l-68 -319c-8 -35 6 -44 71 -47l-6 -33h-263l7 33c71 4 83 10 91 47l52 243c-27 -14 -65 -27 -94 -33l-7 35l146 74h71z" />
    <glyph glyph-name="ordmasculine" unicode="&#xba;" horiz-adv-x="434" 
d="M423 585c0 -129 -77 -247 -216 -247c-95 0 -154 61 -154 151c0 133 87 248 216 248c95 0 154 -58 154 -152zM319 609c0 53 -16 83 -55 83c-27 0 -48 -16 -65 -48c-24 -45 -41 -117 -41 -183c0 -47 16 -78 54 -78c24 0 44 10 63 41c25 41 44 113 44 185z" />
    <glyph glyph-name="guillemotright" unicode="&#xbb;" horiz-adv-x="557" 
d="M395 250l-74 184l46 35l153 -221l-234 -221l-36 37zM65 27l-35 37l145 186l-74 184l46 35l153 -221z" />
    <glyph glyph-name="onequarter" unicode="&#xbc;" horiz-adv-x="896" 
d="M684 -22l23 112h-199l7 37l203 272h93l-218 -263h123c15 68 35 114 64 156l69 10l-35 -166h52l-9 -46h-52l-20 -101zM775 730l-613 -853h-65l615 853h63zM280 649l-68 -319c-8 -35 6 -44 71 -47l-6 -33h-263l7 33c71 4 83 10 91 47l52 243c-27 -14 -65 -27 -94 -33l-7 35
l146 74h71z" />
    <glyph glyph-name="onehalf" unicode="&#xbd;" horiz-adv-x="912" 
d="M753 406c74 0 124 -33 124 -99c0 -89 -78 -135 -169 -191l-74 -45h222l-25 -71h-290l9 56l93 71c89 68 131 103 131 163c0 37 -22 52 -62 52c-37 0 -72 -18 -100 -44l-22 32c33 43 88 76 163 76zM771 730l-613 -853h-65l615 853h63zM280 649l-68 -319
c-8 -35 6 -44 71 -47l-6 -33h-263l7 33c71 4 83 10 91 47l52 243c-27 -14 -65 -27 -94 -33l-7 35l146 74h71z" />
    <glyph glyph-name="threequarters" unicode="&#xbe;" horiz-adv-x="901" 
d="M681 -22l23 112h-199l7 37l203 272h93l-218 -263h123c15 68 35 114 64 156l69 10l-35 -166h52l-9 -46h-52l-20 -101zM166 601c-32 0 -57 -13 -82 -36l-23 30c32 37 81 61 142 61c66 0 116 -28 116 -85c0 -60 -49 -98 -112 -108c58 -5 92 -38 92 -85
c0 -107 -118 -148 -224 -148c-34 0 -63 5 -81 12l-6 40c16 -4 45 -7 61 -7c79 0 148 32 148 104c0 43 -23 57 -62 57c-16 0 -23 -1 -34 -2l10 49c9 -1 19 -1 30 -1c48 0 81 23 81 71c0 33 -21 48 -56 48zM777 730l-613 -853h-65l615 853h63z" />
    <glyph glyph-name="questiondown" unicode="&#xbf;" horiz-adv-x="462" 
d="M206 430c0 46 38 84 83 84s81 -38 81 -84c0 -45 -36 -81 -81 -81s-83 36 -83 81zM183 -202c-109 0 -185 39 -185 136c0 95 64 147 151 195c84 46 103 76 103 142v11h52c7 -11 17 -34 17 -64c0 -60 -40 -107 -98 -147c-64 -45 -96 -73 -96 -143c0 -44 20 -72 66 -72
c61 0 84 34 101 94h86l-23 -107c-43 -24 -101 -45 -174 -45z" />
    <glyph glyph-name="Agrave" unicode="&#xc0;" horiz-adv-x="646" 
d="M409 104l-9 96h-219l-46 -93c-25 -50 -14 -64 45 -66l-7 -41h-219l8 41c47 6 67 15 98 75l298 576h110l74 -575c7 -54 18 -71 63 -76l-8 -41h-264l8 41c62 2 72 18 68 63zM316 469l-104 -207h181l-21 196c-5 46 -6 76 -6 93c0 7 1 13 1 19h-6c-1 -4 -13 -38 -45 -101z
M509 761l-22 -36l-231 71l55 112z" />
    <glyph glyph-name="Aacute" unicode="&#xc1;" horiz-adv-x="646" 
d="M409 104l-9 96h-219l-46 -93c-25 -50 -14 -64 45 -66l-7 -41h-219l8 41c47 6 67 15 98 75l298 576h110l74 -575c7 -54 18 -71 63 -76l-8 -41h-264l8 41c62 2 72 18 68 63zM316 469l-104 -207h181l-21 196c-5 46 -6 76 -6 93c0 7 1 13 1 19h-6c-1 -4 -13 -38 -45 -101z
M300 761l198 147l55 -112l-231 -71z" />
    <glyph glyph-name="Acircumflex" unicode="&#xc2;" horiz-adv-x="646" 
d="M409 104l-9 96h-219l-46 -93c-25 -50 -14 -64 45 -66l-7 -41h-219l8 41c47 6 67 15 98 75l298 576h110l74 -575c7 -54 18 -71 63 -76l-8 -41h-264l8 41c62 2 72 18 68 63zM316 469l-104 -207h181l-21 196c-5 46 -6 76 -6 93c0 7 1 13 1 19h-6c-1 -4 -13 -38 -45 -101z
M427 809l-161 -82l-22 33l202 165l133 -168l-25 -30z" />
    <glyph glyph-name="Atilde" unicode="&#xc3;" horiz-adv-x="646" 
d="M409 104l-9 96h-219l-46 -93c-25 -50 -14 -64 45 -66l-7 -41h-219l8 41c47 6 67 15 98 75l298 576h110l74 -575c7 -54 18 -71 63 -76l-8 -41h-264l8 41c62 2 72 18 68 63zM316 469l-104 -207h181l-21 196c-5 46 -6 76 -6 93c0 7 1 13 1 19h-6c-1 -4 -13 -38 -45 -101z
M494 839c33 0 56 14 74 46l36 -15c-17 -62 -54 -114 -112 -114c-65 0 -95 40 -139 40c-35 0 -54 -17 -72 -48l-34 14c12 64 49 119 108 119c63 0 89 -42 139 -42z" />
    <glyph glyph-name="Adieresis" unicode="&#xc4;" horiz-adv-x="646" 
d="M409 104l-9 96h-219l-46 -93c-25 -50 -14 -64 45 -66l-7 -41h-219l8 41c47 6 67 15 98 75l298 576h110l74 -575c7 -54 18 -71 63 -76l-8 -41h-264l8 41c62 2 72 18 68 63zM316 469l-104 -207h181l-21 196c-5 46 -6 76 -6 93c0 7 1 13 1 19h-6c-1 -4 -13 -38 -45 -101z
M387 803c0 -39 -31 -71 -72 -71c-40 0 -72 32 -72 71c0 40 32 72 73 72c40 0 71 -32 71 -72zM604 803c0 -39 -32 -71 -72 -71s-72 32 -72 71c0 40 32 72 72 72c41 0 72 -32 72 -72z" />
    <glyph glyph-name="Aring" unicode="&#xc5;" horiz-adv-x="646" 
d="M409 104l-9 96h-219l-46 -93c-25 -50 -14 -64 45 -66l-7 -41h-219l8 41c47 6 67 15 98 75l298 576h110l74 -575c7 -54 18 -71 63 -76l-8 -41h-264l8 41c62 2 72 18 68 63zM316 469l-104 -207h181l-21 196c-5 46 -6 76 -6 93c0 7 1 13 1 19h-6c-1 -4 -13 -38 -45 -101z
M416 725c-65 0 -104 46 -104 103c0 68 48 116 117 116c65 0 104 -46 104 -104c0 -67 -46 -115 -117 -115zM425 899c-37 0 -61 -29 -61 -69c0 -35 19 -58 52 -58c38 0 64 28 64 65c0 36 -20 62 -55 62z" />
    <glyph glyph-name="AE" unicode="&#xc6;" horiz-adv-x="925" 
d="M-46 0l8 41c47 6 71 21 111 75l342 472c12 16 17 28 17 36c0 18 -20 25 -59 26l8 42h567l-20 -160h-60c-7 76 -16 99 -81 99h-133l-47 -246h73c62 0 83 14 98 71h55l-39 -200h-55c1 8 2 18 2 22c0 36 -18 49 -71 49h-75l-52 -268h142c71 0 97 23 124 116h61l-33 -175
h-509l7 41c60 1 78 16 89 73l24 126h-205l-97 -133c-13 -17 -19 -31 -19 -41c0 -16 17 -24 53 -25l-7 -41h-219zM531 632l-242 -330h171l29 149c16 82 39 155 48 181h-6z" />
    <glyph glyph-name="Ccedilla" unicode="&#xc7;" horiz-adv-x="599" 
d="M369 -116c0 -58 -38 -85 -109 -85c-43 0 -72 12 -91 25l17 36c22 -14 42 -19 64 -19s38 7 38 32s-31 31 -67 32l1 21l27 64c-134 20 -193 114 -193 260c0 230 133 453 382 453c91 0 145 -22 183 -51l-24 -123h-90c-3 77 -13 115 -83 115c-164 0 -231 -227 -231 -420
c0 -135 44 -178 123 -178c75 0 115 35 144 115h89l-24 -122c-44 -28 -132 -53 -217 -53h-18l-11 -26c62 -5 90 -35 90 -76z" />
    <glyph glyph-name="Egrave" unicode="&#xc8;" horiz-adv-x="582" 
d="M494 761l-22 -36l-231 71l55 112zM-15 0l7 41c60 1 78 16 89 73l90 462c11 57 -1 73 -60 74l8 42h486l-20 -160h-60c-7 76 -16 99 -81 99h-133l-47 -246h73c62 0 83 14 98 71h55l-40 -200h-54c7 54 -7 71 -69 71h-75l-52 -268h142c71 0 97 23 124 116h61l-33 -175h-509z
" />
    <glyph glyph-name="Eacute" unicode="&#xc9;" horiz-adv-x="582" 
d="M280 761l198 147l55 -112l-231 -71zM-15 0l7 41c60 1 78 16 89 73l90 462c11 57 -1 73 -60 74l8 42h486l-20 -160h-60c-7 76 -16 99 -81 99h-133l-47 -246h73c62 0 83 14 98 71h55l-40 -200h-54c7 54 -7 71 -69 71h-75l-52 -268h142c71 0 97 23 124 116h61l-33 -175h-509
z" />
    <glyph glyph-name="Ecircumflex" unicode="&#xca;" horiz-adv-x="582" 
d="M395 809l-161 -82l-22 33l202 165l133 -168l-25 -30zM-15 0l7 41c60 1 78 16 89 73l90 462c11 57 -1 73 -60 74l8 42h486l-20 -160h-60c-7 76 -16 99 -81 99h-133l-47 -246h73c62 0 83 14 98 71h55l-40 -200h-54c7 54 -7 71 -69 71h-75l-52 -268h142c71 0 97 23 124 116
h61l-33 -175h-509z" />
    <glyph glyph-name="Edieresis" unicode="&#xcb;" horiz-adv-x="582" 
d="M-15 0l7 41c60 1 78 16 89 73l90 462c11 57 -1 73 -60 74l8 42h486l-20 -160h-60c-7 76 -16 99 -81 99h-133l-47 -246h73c62 0 83 14 98 71h55l-40 -200h-54c7 54 -7 71 -69 71h-75l-52 -268h142c71 0 97 23 124 116h61l-33 -175h-509zM354 803c0 -39 -31 -71 -72 -71
c-40 0 -72 32 -72 71c0 40 32 72 73 72c40 0 71 -32 71 -72zM571 803c0 -39 -32 -71 -72 -71s-72 32 -72 71c0 40 32 72 72 72c41 0 72 -32 72 -72z" />
    <glyph glyph-name="Igrave" unicode="&#xcc;" horiz-adv-x="344" 
d="M301 576l-90 -462c-2 -11 -4 -23 -4 -32c0 -31 17 -40 63 -41l-7 -41h-278l7 41c60 1 78 16 89 73l90 462c11 57 -1 73 -60 74l8 42h278l-8 -42c-60 -1 -77 -17 -88 -74zM371 761l-22 -36l-231 71l55 112z" />
    <glyph glyph-name="Iacute" unicode="&#xcd;" horiz-adv-x="344" 
d="M301 576l-90 -462c-2 -11 -4 -23 -4 -32c0 -31 17 -40 63 -41l-7 -41h-278l7 41c60 1 78 16 89 73l90 462c11 57 -1 73 -60 74l8 42h278l-8 -42c-60 -1 -77 -17 -88 -74zM151 761l198 147l55 -112l-231 -71z" />
    <glyph glyph-name="Icircumflex" unicode="&#xce;" horiz-adv-x="344" 
d="M301 576l-90 -462c-2 -11 -4 -23 -4 -32c0 -31 17 -40 63 -41l-7 -41h-278l7 41c60 1 78 16 89 73l90 462c11 57 -1 73 -60 74l8 42h278l-8 -42c-60 -1 -77 -17 -88 -74zM287 809l-161 -82l-22 33l202 165l133 -168l-25 -30z" />
    <glyph glyph-name="Idieresis" unicode="&#xcf;" horiz-adv-x="344" 
d="M301 576l-90 -462c-2 -11 -4 -23 -4 -32c0 -31 17 -40 63 -41l-7 -41h-278l7 41c60 1 78 16 89 73l90 462c11 57 -1 73 -60 74l8 42h278l-8 -42c-60 -1 -77 -17 -88 -74zM238 803c0 -39 -31 -71 -72 -71c-40 0 -72 32 -72 71c0 40 32 72 73 72c40 0 71 -32 71 -72z
M455 803c0 -39 -32 -71 -72 -71s-72 32 -72 71c0 40 32 72 72 72c41 0 72 -32 72 -72z" />
    <glyph glyph-name="Eth" unicode="&#xd0;" horiz-adv-x="679" 
d="M-15 0l7 41c60 1 78 16 89 73l42 216h-78l13 61h77l36 185c2 12 4 24 4 31c0 32 -18 42 -64 43l8 42h258c177 0 278 -81 278 -255c0 -142 -45 -276 -118 -351c-68 -70 -146 -86 -260 -86h-292zM370 633h-58l-47 -242h141l-13 -61h-140l-52 -270h64c74 0 130 10 174 71
c48 66 80 208 80 328c0 113 -27 174 -149 174z" />
    <glyph glyph-name="Ntilde" unicode="&#xd1;" horiz-adv-x="685" 
d="M525 839c33 0 56 14 74 46l36 -15c-17 -62 -54 -114 -112 -114c-65 0 -95 40 -139 40c-35 0 -54 -17 -72 -48l-34 14c12 64 49 119 108 119c63 0 89 -42 139 -42zM543 0h-83l-171 396c-38 89 -47 146 -50 168h-6c-2 -25 -7 -87 -24 -176l-52 -274c-2 -11 -4 -23 -4 -32
c0 -31 17 -40 63 -41l-7 -41h-224l7 41c60 1 78 16 89 73l90 462c11 57 -1 73 -60 74l8 42h189l159 -374c28 -66 35 -116 38 -142h6c2 25 10 102 25 181l43 219c2 8 4 23 4 32c0 31 -17 41 -63 42l8 42h218l-8 -42c-56 -1 -72 -17 -83 -74z" />
    <glyph glyph-name="Ograve" unicode="&#xd2;" horiz-adv-x="689" 
d="M539 761l-22 -36l-231 71l55 112zM666 430c0 -197 -103 -444 -352 -444c-167 0 -258 109 -258 276c0 192 107 441 354 441c155 0 256 -95 256 -273zM528 470c0 114 -32 173 -119 173c-62 0 -101 -26 -132 -75c-61 -95 -84 -246 -84 -353c0 -117 37 -171 120 -171
c59 0 98 24 131 75c59 92 84 249 84 351z" />
    <glyph glyph-name="Oacute" unicode="&#xd3;" horiz-adv-x="689" 
d="M309 761l198 147l55 -112l-231 -71zM666 430c0 -197 -103 -444 -352 -444c-167 0 -258 109 -258 276c0 192 107 441 354 441c155 0 256 -95 256 -273zM528 470c0 114 -32 173 -119 173c-62 0 -101 -26 -132 -75c-61 -95 -84 -246 -84 -353c0 -117 37 -171 120 -171
c59 0 98 24 131 75c59 92 84 249 84 351z" />
    <glyph glyph-name="Ocircumflex" unicode="&#xd4;" horiz-adv-x="689" 
d="M445 809l-161 -82l-22 33l202 165l133 -168l-25 -30zM666 430c0 -197 -103 -444 -352 -444c-167 0 -258 109 -258 276c0 192 107 441 354 441c155 0 256 -95 256 -273zM528 470c0 114 -32 173 -119 173c-62 0 -101 -26 -132 -75c-61 -95 -84 -246 -84 -353
c0 -117 37 -171 120 -171c59 0 98 24 131 75c59 92 84 249 84 351z" />
    <glyph glyph-name="Otilde" unicode="&#xd5;" horiz-adv-x="689" 
d="M505 839c33 0 56 14 74 46l36 -15c-17 -62 -54 -114 -112 -114c-65 0 -95 40 -139 40c-35 0 -54 -17 -72 -48l-34 14c12 64 49 119 108 119c63 0 89 -42 139 -42zM666 430c0 -197 -103 -444 -352 -444c-167 0 -258 109 -258 276c0 192 107 441 354 441
c155 0 256 -95 256 -273zM528 470c0 114 -32 173 -119 173c-62 0 -101 -26 -132 -75c-61 -95 -84 -246 -84 -353c0 -117 37 -171 120 -171c59 0 98 24 131 75c59 92 84 249 84 351z" />
    <glyph glyph-name="Odieresis" unicode="&#xd6;" horiz-adv-x="689" 
d="M399 803c0 -39 -31 -71 -72 -71c-40 0 -72 32 -72 71c0 40 32 72 73 72c40 0 71 -32 71 -72zM616 803c0 -39 -32 -71 -72 -71s-72 32 -72 71c0 40 32 72 72 72c41 0 72 -32 72 -72zM666 430c0 -197 -103 -444 -352 -444c-167 0 -258 109 -258 276c0 192 107 441 354 441
c155 0 256 -95 256 -273zM528 470c0 114 -32 173 -119 173c-62 0 -101 -26 -132 -75c-61 -95 -84 -246 -84 -353c0 -117 37 -171 120 -171c59 0 98 24 131 75c59 92 84 249 84 351z" />
    <glyph glyph-name="multiply" unicode="&#xd7;" horiz-adv-x="566" 
d="M116 430l50 42l127 -156l186 156l37 -45l-187 -156l127 -156l-52 -43l-126 157l-189 -158l-35 45l187 157z" />
    <glyph glyph-name="Oslash" unicode="&#xd8;" horiz-adv-x="689" 
d="M666 430c0 -197 -103 -444 -352 -444c-67 0 -122 18 -164 50l-63 -82l-40 30l67 88c-38 48 -58 113 -58 190c0 192 107 441 354 441c60 0 112 -15 154 -44l59 77l43 -31l-63 -82c40 -46 63 -111 63 -193zM530 470c0 20 -1 38 -3 54l-320 -415c18 -44 53 -65 106 -65
c59 0 99 24 132 75c59 92 85 249 85 351zM191 215c0 -15 0 -28 1 -41l317 413c-19 37 -51 56 -100 56c-62 0 -102 -26 -132 -73c-62 -97 -86 -248 -86 -355z" />
    <glyph glyph-name="Ugrave" unicode="&#xd9;" horiz-adv-x="678" 
d="M568 761l-22 -36l-231 71l55 112zM337 58c97 0 148 60 168 166l68 352c11 57 0 73 -62 74l8 42h222l-7 -42c-57 -1 -73 -17 -84 -74l-68 -352c-31 -161 -114 -238 -261 -238c-160 0 -233 66 -233 176c0 25 2 53 9 89l62 325c11 57 -3 73 -59 74l7 42h279l-8 -42
c-61 -1 -77 -17 -88 -74l-66 -332c-6 -31 -9 -58 -9 -82c1 -71 37 -104 122 -104z" />
    <glyph glyph-name="Uacute" unicode="&#xda;" horiz-adv-x="678" 
d="M341 761l198 147l55 -112l-231 -71zM337 58c97 0 148 60 168 166l68 352c11 57 0 73 -62 74l8 42h222l-7 -42c-57 -1 -73 -17 -84 -74l-68 -352c-31 -161 -114 -238 -261 -238c-160 0 -233 66 -233 176c0 25 2 53 9 89l62 325c11 57 -3 73 -59 74l7 42h279l-8 -42
c-61 -1 -77 -17 -88 -74l-66 -332c-6 -31 -9 -58 -9 -82c1 -71 37 -104 122 -104z" />
    <glyph glyph-name="Ucircumflex" unicode="&#xdb;" horiz-adv-x="678" 
d="M478 809l-161 -82l-22 33l202 165l133 -168l-25 -30zM337 58c97 0 148 60 168 166l68 352c11 57 0 73 -62 74l8 42h222l-7 -42c-57 -1 -73 -17 -84 -74l-68 -352c-31 -161 -114 -238 -261 -238c-160 0 -233 66 -233 176c0 25 2 53 9 89l62 325c11 57 -3 73 -59 74l7 42
h279l-8 -42c-61 -1 -77 -17 -88 -74l-66 -332c-6 -31 -9 -58 -9 -82c1 -71 37 -104 122 -104z" />
    <glyph glyph-name="Udieresis" unicode="&#xdc;" horiz-adv-x="678" 
d="M337 58c97 0 148 60 168 166l68 352c11 57 0 73 -62 74l8 42h222l-7 -42c-57 -1 -73 -17 -84 -74l-68 -352c-31 -161 -114 -238 -261 -238c-160 0 -233 66 -233 176c0 25 2 53 9 89l62 325c11 57 -3 73 -59 74l7 42h279l-8 -42c-61 -1 -77 -17 -88 -74l-66 -332
c-6 -31 -9 -58 -9 -82c1 -71 37 -104 122 -104zM420 803c0 -39 -31 -71 -72 -71c-40 0 -72 32 -72 71c0 40 32 72 73 72c40 0 71 -32 71 -72zM637 803c0 -39 -32 -71 -72 -71s-72 32 -72 71c0 40 32 72 72 72c41 0 72 -32 72 -72z" />
    <glyph glyph-name="Yacute" unicode="&#xdd;" horiz-adv-x="610" 
d="M214 114l29 154l-90 310c-16 57 -34 67 -70 72l8 42h251l-7 -42c-42 -1 -56 -14 -56 -39c0 -9 2 -19 5 -31l61 -237h5l151 239c12 18 18 33 18 43c0 17 -18 24 -49 25l7 42h213l-8 -42c-42 -5 -60 -18 -96 -70l-211 -308l-31 -158c-11 -57 2 -72 67 -73l-8 -41h-292l8 41
c65 1 85 16 95 73zM303 761l198 147l55 -112l-231 -71z" />
    <glyph glyph-name="Thorn" unicode="&#xde;" horiz-adv-x="579" 
d="M455 392c0 69 -26 104 -110 104h-60l-52 -270h59c41 0 75 2 103 23c35 27 60 76 60 143zM301 576l-4 -20h57c160 0 234 -48 234 -166c0 -92 -46 -163 -137 -201c-47 -20 -108 -23 -155 -23h-75l-10 -50c-2 -12 -4 -22 -4 -31c0 -33 20 -43 75 -44l-7 -41h-290l7 41
c60 1 78 16 89 73l90 462c2 10 4 22 4 31c0 32 -18 42 -64 43l8 42h278l-8 -42c-60 -1 -77 -17 -88 -74z" />
    <glyph glyph-name="germandbls" unicode="&#xdf;" horiz-adv-x="579" 
d="M119 436h-63l10 42l66 22l9 42c26 125 131 189 249 189c106 0 174 -49 174 -125c0 -85 -88 -136 -150 -166c-27 -13 -35 -20 -35 -33c0 -8 6 -14 29 -31c76 -55 132 -118 132 -206c0 -107 -89 -181 -205 -181c-62 0 -101 22 -130 52l27 41c28 -21 50 -32 89 -32
c60 0 92 48 92 110c0 63 -17 110 -69 171c-29 33 -39 48 -39 69c0 28 17 41 60 71c42 29 89 74 89 132c0 46 -21 76 -71 76c-61 0 -100 -36 -119 -131l-117 -579c-19 -96 -77 -157 -170 -157c-32 0 -54 8 -72 17v35c84 5 108 27 123 106z" />
    <glyph glyph-name="agrave" unicode="&#xe0;" horiz-adv-x="564" 
d="M344 514c49 0 85 -19 94 -55c11 19 25 32 39 44h72c-16 -29 -33 -79 -46 -135l-53 -237c-4 -19 -5 -25 -5 -36c0 -28 13 -37 44 -37c9 0 24 1 31 2l3 -37c-39 -21 -75 -32 -115 -32c-58 0 -82 33 -82 87c0 11 1 22 3 35c-42 -66 -103 -126 -179 -126
c-77 0 -121 52 -121 140c0 201 151 387 315 387zM343 454c-102 0 -188 -160 -188 -312c0 -53 18 -74 45 -74c46 0 106 74 145 139l52 219c-8 17 -26 28 -54 28zM469 596l-23 -35l-228 97l67 109z" />
    <glyph glyph-name="aacute" unicode="&#xe1;" horiz-adv-x="564" 
d="M344 514c49 0 85 -19 94 -55c11 19 25 32 39 44h72c-16 -29 -33 -79 -46 -135l-53 -237c-4 -19 -5 -25 -5 -36c0 -28 13 -37 44 -37c9 0 24 1 31 2l3 -37c-39 -21 -75 -32 -115 -32c-58 0 -82 33 -82 87c0 11 1 22 3 35c-42 -66 -103 -126 -179 -126
c-77 0 -121 52 -121 140c0 201 151 387 315 387zM343 454c-102 0 -188 -160 -188 -312c0 -53 18 -74 45 -74c46 0 106 74 145 139l52 219c-8 17 -26 28 -54 28zM251 596l184 171l66 -109l-227 -97z" />
    <glyph glyph-name="acircumflex" unicode="&#xe2;" horiz-adv-x="564" 
d="M344 514c49 0 85 -19 94 -55c11 19 25 32 39 44h72c-16 -29 -33 -79 -46 -135l-53 -237c-4 -19 -5 -25 -5 -36c0 -28 13 -37 44 -37c9 0 24 1 31 2l3 -37c-39 -21 -75 -32 -115 -32c-58 0 -82 33 -82 87c0 11 1 22 3 35c-42 -66 -103 -126 -179 -126
c-77 0 -121 52 -121 140c0 201 151 387 315 387zM343 454c-102 0 -188 -160 -188 -312c0 -53 18 -74 45 -74c46 0 106 74 145 139l52 219c-8 17 -26 28 -54 28zM387 641l-161 -81l-22 33l202 165l133 -168l-25 -31z" />
    <glyph glyph-name="atilde" unicode="&#xe3;" horiz-adv-x="564" 
d="M344 514c49 0 85 -19 94 -55c11 19 25 32 39 44h72c-16 -29 -33 -79 -46 -135l-53 -237c-4 -19 -5 -25 -5 -36c0 -28 13 -37 44 -37c9 0 24 1 31 2l3 -37c-39 -21 -75 -32 -115 -32c-58 0 -82 33 -82 87c0 11 1 22 3 35c-42 -66 -103 -126 -179 -126
c-77 0 -121 52 -121 140c0 201 151 387 315 387zM343 454c-102 0 -188 -160 -188 -312c0 -53 18 -74 45 -74c46 0 106 74 145 139l52 219c-8 17 -26 28 -54 28zM440 678c31 0 53 13 70 44l36 -16c-16 -61 -54 -117 -108 -117c-56 0 -91 30 -130 30c-33 0 -51 -15 -67 -45
l-34 14c11 64 48 123 103 123c56 0 86 -33 130 -33z" />
    <glyph glyph-name="adieresis" unicode="&#xe4;" horiz-adv-x="564" 
d="M344 514c49 0 85 -19 94 -55c11 19 25 32 39 44h72c-16 -29 -33 -79 -46 -135l-53 -237c-4 -19 -5 -25 -5 -36c0 -28 13 -37 44 -37c9 0 24 1 31 2l3 -37c-39 -21 -75 -32 -115 -32c-58 0 -82 33 -82 87c0 11 1 22 3 35c-42 -66 -103 -126 -179 -126
c-77 0 -121 52 -121 140c0 201 151 387 315 387zM343 454c-102 0 -188 -160 -188 -312c0 -53 18 -74 45 -74c46 0 106 74 145 139l52 219c-8 17 -26 28 -54 28zM344 643c0 -40 -31 -71 -72 -71c-40 0 -72 31 -72 71s32 71 73 71c40 0 71 -31 71 -71zM561 643
c0 -40 -32 -71 -72 -71s-72 31 -72 71s32 71 73 71c40 0 71 -31 71 -71z" />
    <glyph glyph-name="aring" unicode="&#xe5;" horiz-adv-x="564" 
d="M344 514c49 0 85 -19 94 -55c11 19 25 32 39 44h72c-16 -29 -33 -79 -46 -135l-53 -237c-4 -19 -5 -25 -5 -36c0 -28 13 -37 44 -37c9 0 24 1 31 2l3 -37c-39 -21 -75 -32 -115 -32c-58 0 -82 33 -82 87c0 11 1 22 3 35c-42 -66 -103 -126 -179 -126
c-77 0 -121 52 -121 140c0 201 151 387 315 387zM343 454c-102 0 -188 -160 -188 -312c0 -53 18 -74 45 -74c46 0 106 74 145 139l52 219c-8 17 -26 28 -54 28zM366 561c-65 0 -105 46 -105 103c0 68 49 116 118 116c65 0 104 -46 104 -104c0 -67 -46 -115 -117 -115z
M375 735c-37 0 -61 -29 -61 -68c0 -36 18 -59 52 -59c38 0 64 28 64 65c0 36 -20 62 -55 62z" />
    <glyph glyph-name="ae" unicode="&#xe6;" horiz-adv-x="777" 
d="M436 171c0 -69 33 -111 96 -111c56 0 101 20 148 63l29 -40c-51 -58 -124 -97 -214 -97c-79 0 -133 31 -161 89c-34 -46 -84 -89 -169 -89c-88 0 -143 45 -143 133c0 130 133 165 285 165h21l7 40c5 26 8 49 8 67c0 45 -18 65 -59 65c-63 0 -89 -28 -104 -82h-86l19 99
c51 26 111 41 182 41c74 0 119 -19 143 -66c47 44 106 66 164 66c96 0 161 -42 161 -132c0 -113 -116 -158 -296 -158h-29c-2 -13 -2 -37 -2 -53zM209 60c45 0 75 21 109 59c-4 20 -6 39 -6 63c0 14 1 33 4 48h-13c-86 0 -157 -16 -157 -101c0 -48 23 -69 63 -69zM647 395
c0 36 -20 61 -53 61c-68 0 -124 -71 -147 -177h15c132 0 185 38 185 116z" />
    <glyph glyph-name="ccedilla" unicode="&#xe7;" horiz-adv-x="466" 
d="M271 -116c0 -58 -38 -85 -109 -85c-43 0 -72 12 -91 25l17 36c22 -14 42 -19 64 -19s38 7 38 32s-31 31 -67 32l1 21l29 69c-76 23 -120 88 -120 190c0 155 114 329 293 329c76 0 120 -22 143 -41l-20 -101h-85v12c0 49 -12 73 -51 73c-91 0 -154 -139 -154 -281
c0 -77 34 -117 96 -117c52 0 90 22 128 54l29 -41c-38 -44 -102 -86 -192 -86c-10 0 -19 0 -27 1l-12 -27c62 -5 90 -35 90 -76z" />
    <glyph glyph-name="egrave" unicode="&#xe8;" horiz-adv-x="498" 
d="M157 171c0 -69 33 -111 97 -111c55 0 101 20 148 63l28 -40c-50 -58 -124 -97 -214 -97c-121 0 -183 72 -183 196c0 167 126 332 291 332c95 0 160 -42 160 -132c0 -115 -126 -165 -304 -165h-21c-2 -13 -2 -30 -2 -46zM368 395c0 36 -20 61 -52 61
c-69 0 -125 -79 -147 -185h13c133 0 186 45 186 124zM449 596l-23 -35l-228 97l67 109z" />
    <glyph glyph-name="eacute" unicode="&#xe9;" horiz-adv-x="498" 
d="M228 596l184 171l66 -109l-227 -97zM157 171c0 -69 33 -111 97 -111c55 0 101 20 148 63l28 -40c-50 -58 -124 -97 -214 -97c-121 0 -183 72 -183 196c0 167 126 332 291 332c95 0 160 -42 160 -132c0 -115 -126 -165 -304 -165h-21c-2 -13 -2 -30 -2 -46zM368 395
c0 36 -20 61 -52 61c-69 0 -125 -79 -147 -185h13c133 0 186 45 186 124z" />
    <glyph glyph-name="ecircumflex" unicode="&#xea;" horiz-adv-x="498" 
d="M351 641l-161 -81l-22 33l202 165l133 -168l-25 -31zM157 171c0 -69 33 -111 97 -111c55 0 101 20 148 63l28 -40c-50 -58 -124 -97 -214 -97c-121 0 -183 72 -183 196c0 167 126 332 291 332c95 0 160 -42 160 -132c0 -115 -126 -165 -304 -165h-21
c-2 -13 -2 -30 -2 -46zM368 395c0 36 -20 61 -52 61c-69 0 -125 -79 -147 -185h13c133 0 186 45 186 124z" />
    <glyph glyph-name="edieresis" unicode="&#xeb;" horiz-adv-x="498" 
d="M299 643c0 -40 -31 -71 -72 -71c-40 0 -72 31 -72 71s32 71 73 71c40 0 71 -31 71 -71zM516 643c0 -40 -32 -71 -72 -71s-72 31 -72 71s32 71 73 71c40 0 71 -31 71 -71zM157 171c0 -69 33 -111 97 -111c55 0 101 20 148 63l28 -40c-50 -58 -124 -97 -214 -97
c-121 0 -183 72 -183 196c0 167 126 332 291 332c95 0 160 -42 160 -132c0 -115 -126 -165 -304 -165h-21c-2 -13 -2 -30 -2 -46zM368 395c0 36 -20 61 -52 61c-69 0 -125 -79 -147 -185h13c133 0 186 45 186 124z" />
    <glyph glyph-name="igrave" unicode="&#xec;" horiz-adv-x="285" 
d="M230 374l-56 -243c-4 -17 -6 -30 -6 -40c0 -25 11 -33 42 -33c10 0 21 0 35 2l3 -37c-45 -22 -84 -32 -124 -32c-55 0 -81 30 -81 83c0 17 3 36 8 58l54 223c4 15 6 33 6 38c0 26 -10 49 -74 49l8 35c29 15 75 29 115 29c50 0 77 -23 77 -77c0 -16 -2 -34 -7 -55z
M298 596l-23 -35l-228 97l67 109z" />
    <glyph glyph-name="iacute" unicode="&#xed;" horiz-adv-x="285" 
d="M91 596l184 171l66 -109l-227 -97zM230 374l-56 -243c-4 -17 -6 -30 -6 -40c0 -25 11 -33 42 -33c10 0 21 0 35 2l3 -37c-45 -22 -84 -32 -124 -32c-55 0 -81 30 -81 83c0 17 3 36 8 58l54 223c4 15 6 33 6 38c0 26 -10 49 -74 49l8 35c29 15 75 29 115 29
c50 0 77 -23 77 -77c0 -16 -2 -34 -7 -55z" />
    <glyph glyph-name="icircumflex" unicode="&#xee;" horiz-adv-x="285" 
d="M207 641l-161 -81l-22 33l202 165l133 -168l-25 -31zM230 374l-56 -243c-4 -17 -6 -30 -6 -40c0 -25 11 -33 42 -33c10 0 21 0 35 2l3 -37c-45 -22 -84 -32 -124 -32c-55 0 -81 30 -81 83c0 17 3 36 8 58l54 223c4 15 6 33 6 38c0 26 -10 49 -74 49l8 35
c29 15 75 29 115 29c50 0 77 -23 77 -77c0 -16 -2 -34 -7 -55z" />
    <glyph glyph-name="idieresis" unicode="&#xef;" horiz-adv-x="285" 
d="M158 643c0 -40 -31 -71 -72 -71c-40 0 -72 31 -72 71s32 71 73 71c40 0 71 -31 71 -71zM375 643c0 -40 -32 -71 -72 -71s-72 31 -72 71s32 71 73 71c40 0 71 -31 71 -71zM230 374l-56 -243c-4 -17 -6 -30 -6 -40c0 -25 11 -33 42 -33c10 0 21 0 35 2l3 -37
c-45 -22 -84 -32 -124 -32c-55 0 -81 30 -81 83c0 17 3 36 8 58l54 223c4 15 6 33 6 38c0 26 -10 49 -74 49l8 35c29 15 75 29 115 29c50 0 77 -23 77 -77c0 -16 -2 -34 -7 -55z" />
    <glyph glyph-name="eth" unicode="&#xf0;" horiz-adv-x="537" 
d="M130 582l135 51c-34 25 -75 45 -125 58l23 37c72 -10 132 -33 182 -65l122 47l19 -43l-97 -37c78 -71 118 -172 118 -292c0 -196 -100 -352 -277 -352c-121 0 -197 80 -197 199c0 175 111 324 270 324c21 0 39 -3 56 -12c-13 39 -31 72 -56 100l-155 -59zM382 343
c0 33 -3 65 -8 94c-15 9 -33 18 -62 18c-43 0 -77 -26 -99 -67c-33 -60 -55 -152 -55 -241c0 -65 22 -105 76 -105c28 0 56 8 86 54c36 55 62 157 62 247z" />
    <glyph glyph-name="ntilde" unicode="&#xf1;" horiz-adv-x="568" 
d="M343 132l49 223c2 10 4 22 4 28c0 24 -9 35 -31 35c-51 0 -110 -71 -149 -134l-61 -284h-121l78 362c3 13 4 25 4 31c0 34 -19 49 -72 49l8 35c31 16 71 29 113 29c43 0 68 -27 68 -87c0 -14 -1 -30 -4 -48c49 78 118 143 200 143c65 0 93 -41 93 -97
c0 -14 -1 -24 -5 -44l-54 -242c-3 -12 -6 -33 -6 -41c0 -23 11 -33 42 -33c10 0 21 1 35 3l3 -37c-45 -22 -82 -32 -118 -32c-59 0 -84 31 -84 82c0 14 3 37 8 59zM415 678c31 0 53 13 70 44l36 -16c-16 -61 -54 -117 -108 -117c-56 0 -91 30 -130 30c-33 0 -51 -15 -67 -45
l-34 14c11 64 48 123 103 123c56 0 86 -33 130 -33z" />
    <glyph glyph-name="ograve" unicode="&#xf2;" horiz-adv-x="537" 
d="M507 312c0 -170 -100 -326 -277 -326c-121 0 -197 80 -197 199c0 175 111 329 275 329c123 0 199 -77 199 -202zM381 346c0 73 -23 111 -77 111c-37 0 -67 -21 -91 -65c-32 -60 -55 -156 -55 -245c0 -65 22 -105 76 -105c32 0 60 12 89 58c34 54 58 152 58 246zM442 596
l-23 -35l-228 97l67 109z" />
    <glyph glyph-name="oacute" unicode="&#xf3;" horiz-adv-x="537" 
d="M222 596l184 171l66 -109l-227 -97zM507 312c0 -170 -100 -326 -277 -326c-121 0 -197 80 -197 199c0 175 111 329 275 329c123 0 199 -77 199 -202zM381 346c0 73 -23 111 -77 111c-37 0 -67 -21 -91 -65c-32 -60 -55 -156 -55 -245c0 -65 22 -105 76 -105
c32 0 60 12 89 58c34 54 58 152 58 246z" />
    <glyph glyph-name="ocircumflex" unicode="&#xf4;" horiz-adv-x="537" 
d="M344 641l-161 -81l-22 33l202 165l133 -168l-25 -31zM507 312c0 -170 -100 -326 -277 -326c-121 0 -197 80 -197 199c0 175 111 329 275 329c123 0 199 -77 199 -202zM381 346c0 73 -23 111 -77 111c-37 0 -67 -21 -91 -65c-32 -60 -55 -156 -55 -245
c0 -65 22 -105 76 -105c32 0 60 12 89 58c34 54 58 152 58 246z" />
    <glyph glyph-name="otilde" unicode="&#xf5;" horiz-adv-x="537" 
d="M507 312c0 -170 -100 -326 -277 -326c-121 0 -197 80 -197 199c0 175 111 329 275 329c123 0 199 -77 199 -202zM381 346c0 73 -23 111 -77 111c-37 0 -67 -21 -91 -65c-32 -60 -55 -156 -55 -245c0 -65 22 -105 76 -105c32 0 60 12 89 58c34 54 58 152 58 246zM405 678
c31 0 53 13 70 44l36 -16c-16 -61 -54 -117 -108 -117c-56 0 -91 30 -130 30c-33 0 -51 -15 -67 -45l-34 14c11 64 48 123 103 123c56 0 86 -33 130 -33z" />
    <glyph glyph-name="odieresis" unicode="&#xf6;" horiz-adv-x="537" 
d="M305 643c0 -40 -31 -71 -72 -71c-40 0 -72 31 -72 71s32 71 73 71c40 0 71 -31 71 -71zM522 643c0 -40 -32 -71 -72 -71s-72 31 -72 71s32 71 73 71c40 0 71 -31 71 -71zM507 312c0 -170 -100 -326 -277 -326c-121 0 -197 80 -197 199c0 175 111 329 275 329
c123 0 199 -77 199 -202zM381 346c0 73 -23 111 -77 111c-37 0 -67 -21 -91 -65c-32 -60 -55 -156 -55 -245c0 -65 22 -105 76 -105c32 0 60 12 89 58c34 54 58 152 58 246z" />
    <glyph glyph-name="divide" unicode="&#xf7;" horiz-adv-x="620" 
d="M53 240l12 63h505l-12 -63h-505zM418 477c0 -40 -31 -71 -68 -71c-38 0 -68 30 -68 69c0 38 30 70 68 70c37 0 68 -31 68 -68zM342 60c0 -40 -31 -71 -67 -71c-39 0 -69 30 -69 69c0 38 30 70 69 70c36 0 67 -31 67 -68z" />
    <glyph glyph-name="oslash" unicode="&#xf8;" horiz-adv-x="537" 
d="M507 312c0 -170 -100 -326 -277 -326c-43 0 -79 10 -109 27l-51 -66l-36 27l51 67c-34 35 -52 85 -52 144c0 175 111 329 275 329c44 0 83 -10 114 -29l50 66l39 -28l-53 -69c31 -34 49 -83 49 -142zM156 147v-13l214 283c-12 26 -34 40 -66 40c-37 0 -69 -21 -93 -65
c-33 -60 -55 -156 -55 -245zM383 346v10l-213 -279c12 -22 33 -35 64 -35c32 0 64 14 87 54c38 55 62 156 62 250z" />
    <glyph glyph-name="ugrave" unicode="&#xf9;" horiz-adv-x="558" 
d="M327 112c-45 -69 -108 -126 -188 -126c-66 0 -96 40 -96 97c0 15 2 31 6 48l50 224c3 15 5 28 5 39c0 35 -19 48 -71 48l8 35c29 15 70 29 113 29c47 0 75 -28 75 -86c0 -15 -2 -33 -6 -53l-50 -223c-3 -13 -4 -25 -4 -34c0 -25 10 -35 32 -35c51 0 109 73 145 134
l62 292h119l-77 -370c-3 -14 -5 -26 -5 -36c0 -25 13 -37 47 -37c8 0 18 1 29 2l3 -37c-39 -21 -77 -32 -117 -32c-57 0 -83 34 -83 88c0 10 1 21 3 33zM420 596l-23 -35l-228 97l67 109z" />
    <glyph glyph-name="uacute" unicode="&#xfa;" horiz-adv-x="558" 
d="M220 596l184 171l66 -109l-227 -97zM327 112c-45 -69 -108 -126 -188 -126c-66 0 -96 40 -96 97c0 15 2 31 6 48l50 224c3 15 5 28 5 39c0 35 -19 48 -71 48l8 35c29 15 70 29 113 29c47 0 75 -28 75 -86c0 -15 -2 -33 -6 -53l-50 -223c-3 -13 -4 -25 -4 -34
c0 -25 10 -35 32 -35c51 0 109 73 145 134l62 292h119l-77 -370c-3 -14 -5 -26 -5 -36c0 -25 13 -37 47 -37c8 0 18 1 29 2l3 -37c-39 -21 -77 -32 -117 -32c-57 0 -83 34 -83 88c0 10 1 21 3 33z" />
    <glyph glyph-name="ucircumflex" unicode="&#xfb;" horiz-adv-x="558" 
d="M355 641l-161 -81l-22 33l202 165l133 -168l-25 -31zM327 112c-45 -69 -108 -126 -188 -126c-66 0 -96 40 -96 97c0 15 2 31 6 48l50 224c3 15 5 28 5 39c0 35 -19 48 -71 48l8 35c29 15 70 29 113 29c47 0 75 -28 75 -86c0 -15 -2 -33 -6 -53l-50 -223
c-3 -13 -4 -25 -4 -34c0 -25 10 -35 32 -35c51 0 109 73 145 134l62 292h119l-77 -370c-3 -14 -5 -26 -5 -36c0 -25 13 -37 47 -37c8 0 18 1 29 2l3 -37c-39 -21 -77 -32 -117 -32c-57 0 -83 34 -83 88c0 10 1 21 3 33z" />
    <glyph glyph-name="udieresis" unicode="&#xfc;" horiz-adv-x="558" 
d="M290 643c0 -40 -31 -71 -72 -71c-40 0 -72 31 -72 71s32 71 73 71c40 0 71 -31 71 -71zM507 643c0 -40 -32 -71 -72 -71s-72 31 -72 71s32 71 73 71c40 0 71 -31 71 -71zM327 112c-45 -69 -108 -126 -188 -126c-66 0 -96 40 -96 97c0 15 2 31 6 48l50 224c3 15 5 28 5 39
c0 35 -19 48 -71 48l8 35c29 15 70 29 113 29c47 0 75 -28 75 -86c0 -15 -2 -33 -6 -53l-50 -223c-3 -13 -4 -25 -4 -34c0 -25 10 -35 32 -35c51 0 109 73 145 134l62 292h119l-77 -370c-3 -14 -5 -26 -5 -36c0 -25 13 -37 47 -37c8 0 18 1 29 2l3 -37
c-39 -21 -77 -32 -117 -32c-57 0 -83 34 -83 88c0 10 1 21 3 33z" />
    <glyph glyph-name="yacute" unicode="&#xfd;" horiz-adv-x="479" 
d="M176 7l-47 -3c-2 57 -7 127 -22 226l-19 134c-10 66 -20 79 -77 79l7 36c26 13 64 27 106 27c56 0 68 -36 81 -132l15 -114c6 -45 8 -83 8 -111c0 -15 -1 -44 -3 -57h6c20 38 36 70 58 115c45 92 90 203 93 301l110 -15v-39l-255 -467c-68 -126 -132 -179 -230 -197
l-37 81c86 16 159 43 206 136zM189 596l184 171l66 -109l-227 -97z" />
    <glyph glyph-name="thorn" unicode="&#xfe;" horiz-adv-x="570" 
d="M218 298l-49 -231c9 -16 28 -26 55 -26c127 0 187 172 187 307c0 59 -21 78 -47 78c-48 0 -110 -69 -146 -128zM277 561l-39 -175c43 66 106 127 185 127c72 0 118 -53 118 -152c0 -197 -128 -375 -319 -375c-28 0 -50 4 -68 10l-18 -83c-3 -13 -5 -24 -5 -31
c0 -29 17 -36 62 -38l-9 -40h-258l9 40c54 3 67 13 79 70l142 665c3 15 5 30 5 38c0 36 -20 47 -64 49l9 38l165 26h13c4 -14 7 -28 7 -56s-3 -59 -14 -113z" />
    <glyph glyph-name="ydieresis" unicode="&#xff;" horiz-adv-x="479" 
d="M176 7l-47 -3c-2 57 -7 127 -22 226l-19 134c-10 66 -20 79 -77 79l7 36c26 13 64 27 106 27c56 0 68 -36 81 -132l15 -114c6 -45 8 -83 8 -111c0 -15 -1 -44 -3 -57h6c20 38 36 70 58 115c45 92 90 203 93 301l110 -15v-39l-255 -467c-68 -126 -132 -179 -230 -197
l-37 81c86 16 159 43 206 136zM258 643c0 -40 -31 -71 -72 -71c-40 0 -72 31 -72 71s32 71 73 71c40 0 71 -31 71 -71zM475 643c0 -40 -32 -71 -72 -71s-72 31 -72 71s32 71 73 71c40 0 71 -31 71 -71z" />
    <glyph glyph-name="Amacron" unicode="&#x100;" horiz-adv-x="646" 
d="M409 104l-9 96h-219l-46 -93c-25 -50 -14 -64 45 -66l-7 -41h-219l8 41c47 6 67 15 98 75l298 576h110l74 -575c7 -54 18 -71 63 -76l-8 -41h-264l8 41c62 2 72 18 68 63zM316 469l-104 -207h181l-21 196c-5 46 -6 76 -6 93c0 7 1 13 1 19h-6c-1 -4 -13 -38 -45 -101z
M560 771h-292l13 69h292z" />
    <glyph glyph-name="amacron" unicode="&#x101;" horiz-adv-x="564" 
d="M344 514c49 0 85 -19 94 -55c11 19 25 32 39 44h72c-16 -29 -33 -79 -46 -135l-53 -237c-4 -19 -5 -25 -5 -36c0 -28 13 -37 44 -37c9 0 24 1 31 2l3 -37c-39 -21 -75 -32 -115 -32c-58 0 -82 33 -82 87c0 11 1 22 3 35c-42 -66 -103 -126 -179 -126
c-77 0 -121 52 -121 140c0 201 151 387 315 387zM343 454c-102 0 -188 -160 -188 -312c0 -53 18 -74 45 -74c46 0 106 74 145 139l52 219c-8 17 -26 28 -54 28zM514 596h-292l13 68h292z" />
    <glyph glyph-name="Abreve" unicode="&#x102;" horiz-adv-x="646" 
d="M409 104l-9 96h-219l-46 -93c-25 -50 -14 -64 45 -66l-7 -41h-219l8 41c47 6 67 15 98 75l298 576h110l74 -575c7 -54 18 -71 63 -76l-8 -41h-264l8 41c62 2 72 18 68 63zM316 469l-104 -207h181l-21 196c-5 46 -6 76 -6 93c0 7 1 13 1 19h-6c-1 -4 -13 -38 -45 -101z
M410 743c-85 0 -130 78 -134 152l37 19c21 -53 51 -79 107 -79c55 0 97 31 139 80l35 -22c-35 -73 -100 -150 -184 -150z" />
    <glyph glyph-name="abreve" unicode="&#x103;" horiz-adv-x="564" 
d="M344 514c49 0 85 -19 94 -55c11 19 25 32 39 44h72c-16 -29 -33 -79 -46 -135l-53 -237c-4 -19 -5 -25 -5 -36c0 -28 13 -37 44 -37c9 0 24 1 31 2l3 -37c-39 -21 -75 -32 -115 -32c-58 0 -82 33 -82 87c0 11 1 22 3 35c-42 -66 -103 -126 -179 -126
c-77 0 -121 52 -121 140c0 201 151 387 315 387zM343 454c-102 0 -188 -160 -188 -312c0 -53 18 -74 45 -74c46 0 106 74 145 139l52 219c-8 17 -26 28 -54 28zM356 566c-91 0 -131 80 -139 155l39 14c21 -53 52 -78 107 -78c57 0 97 29 138 81l34 -22
c-35 -77 -93 -150 -179 -150z" />
    <glyph glyph-name="Aogonek" unicode="&#x104;" horiz-adv-x="646" 
d="M393 -137l17 -24c-27 -28 -64 -44 -111 -44c-61 0 -102 29 -102 80c0 61 45 96 172 163c33 17 44 33 40 71l-9 91h-219l-46 -93c-25 -50 -14 -64 45 -66l-7 -41h-219l8 41c47 6 67 15 98 75l298 576h110l74 -575c7 -54 18 -71 63 -76l-8 -41h-170
c-84 0 -128 -60 -128 -109c0 -29 19 -44 43 -44c20 0 32 5 51 16zM316 469l-104 -207h181l-21 196c-5 46 -6 76 -6 93c0 7 1 13 1 19h-6c-1 -4 -13 -38 -45 -101z" />
    <glyph glyph-name="aogonek" unicode="&#x105;" horiz-adv-x="564" 
d="M503 368l-53 -237c-4 -19 -5 -25 -5 -36c0 -28 13 -37 44 -37c9 0 24 1 31 2l3 -37c-76 -34 -156 -74 -156 -134c0 -26 19 -42 42 -42c21 0 32 5 52 16l16 -24c-26 -28 -63 -44 -110 -44c-62 0 -102 30 -102 78c0 51 44 88 119 121c-39 9 -58 40 -58 86c0 10 1 21 3 33
c-42 -66 -103 -126 -179 -126c-77 0 -121 52 -121 140c0 201 151 387 315 387c49 0 85 -19 94 -55c11 19 25 32 39 44h72c-16 -29 -33 -79 -46 -135zM343 454c-102 0 -188 -160 -188 -312c0 -53 18 -74 45 -74c46 0 106 74 145 139l52 219c-8 17 -26 28 -54 28z" />
    <glyph glyph-name="Cacute" unicode="&#x106;" horiz-adv-x="599" 
d="M308 -14c-176 0 -252 99 -252 264c0 230 133 453 382 453c91 0 145 -22 183 -51l-24 -123h-90c-3 77 -13 115 -83 115c-164 0 -231 -227 -231 -420c0 -135 44 -178 123 -178c75 0 115 35 144 115h89l-24 -122c-44 -28 -132 -53 -217 -53zM313 761l198 147l55 -112
l-231 -71z" />
    <glyph glyph-name="cacute" unicode="&#x107;" horiz-adv-x="466" 
d="M226 596l184 171l66 -109l-227 -97zM326 514c76 0 120 -22 143 -41l-20 -101h-85v14c0 48 -13 71 -51 71c-91 0 -154 -139 -154 -281c0 -77 34 -117 96 -117c52 0 90 22 128 54l29 -41c-38 -44 -102 -86 -192 -86c-117 0 -187 71 -187 199c0 155 114 329 293 329z" />
    <glyph glyph-name="Ccircumflex" unicode="&#x108;" horiz-adv-x="599" 
d="M450 809l-161 -82l-22 33l202 165l133 -168l-25 -30zM308 -14c-176 0 -252 99 -252 264c0 230 133 453 382 453c91 0 145 -22 183 -51l-24 -123h-90c-3 77 -13 115 -83 115c-164 0 -231 -227 -231 -420c0 -135 44 -178 123 -178c75 0 115 35 144 115h89l-24 -122
c-44 -28 -132 -53 -217 -53z" />
    <glyph glyph-name="ccircumflex" unicode="&#x109;" horiz-adv-x="466" 
d="M350 641l-161 -81l-22 33l202 165l133 -168l-25 -31zM326 514c76 0 120 -22 143 -41l-20 -101h-85v14c0 48 -13 71 -51 71c-91 0 -154 -139 -154 -281c0 -77 34 -117 96 -117c52 0 90 22 128 54l29 -41c-38 -44 -102 -86 -192 -86c-117 0 -187 71 -187 199
c0 155 114 329 293 329z" />
    <glyph glyph-name="Cdotaccent" unicode="&#x10a;" horiz-adv-x="599" 
d="M308 -14c-176 0 -252 99 -252 264c0 230 133 453 382 453c91 0 145 -22 183 -51l-24 -123h-90c-3 77 -13 115 -83 115c-164 0 -231 -227 -231 -420c0 -135 44 -178 123 -178c75 0 115 35 144 115h89l-24 -122c-44 -28 -132 -53 -217 -53zM505 819c0 -41 -33 -75 -75 -75
c-41 0 -74 34 -74 75s33 74 75 74s74 -33 74 -74z" />
    <glyph glyph-name="cdotaccent" unicode="&#x10b;" horiz-adv-x="466" 
d="M326 514c76 0 120 -22 143 -41l-20 -101h-85v14c0 48 -13 71 -51 71c-91 0 -154 -139 -154 -281c0 -77 34 -117 96 -117c52 0 90 22 128 54l29 -41c-38 -44 -102 -86 -192 -86c-117 0 -187 71 -187 199c0 155 114 329 293 329zM410 649c0 -42 -33 -75 -75 -75
c-41 0 -74 33 -74 75c0 41 33 74 75 74s74 -33 74 -74z" />
    <glyph glyph-name="Ccaron" unicode="&#x10c;" horiz-adv-x="599" 
d="M438 843l162 81l21 -33l-202 -164l-133 168l25 30zM308 -14c-176 0 -252 99 -252 264c0 230 133 453 382 453c91 0 145 -22 183 -51l-24 -123h-90c-3 77 -13 115 -83 115c-164 0 -231 -227 -231 -420c0 -135 44 -178 123 -178c75 0 115 35 144 115h89l-24 -122
c-44 -28 -132 -53 -217 -53z" />
    <glyph glyph-name="ccaron" unicode="&#x10d;" horiz-adv-x="466" 
d="M337 665l162 81l22 -33l-202 -164l-133 168l25 30zM326 514c76 0 120 -22 143 -41l-20 -101h-85v14c0 48 -13 71 -51 71c-91 0 -154 -139 -154 -281c0 -77 34 -117 96 -117c52 0 90 22 128 54l29 -41c-38 -44 -102 -86 -192 -86c-117 0 -187 71 -187 199
c0 155 114 329 293 329z" />
    <glyph glyph-name="Dcaron" unicode="&#x10e;" horiz-adv-x="679" 
d="M398 843l162 81l21 -33l-202 -164l-133 168l25 30zM-15 0l7 41c60 1 78 16 89 73l90 462c11 57 -1 73 -60 74l8 42h258c177 0 278 -81 278 -255c0 -142 -43 -273 -122 -355c-60 -63 -140 -82 -256 -82h-292zM370 633h-58l-111 -573h64c74 0 130 10 174 71
c48 66 80 208 80 328c0 113 -27 174 -149 174z" />
    <glyph glyph-name="dcaron" unicode="&#x10f;" horiz-adv-x="576" 
d="M356 207l48 224c-11 14 -28 23 -52 23c-106 0 -197 -147 -197 -309c0 -56 20 -77 47 -77c56 0 114 74 154 139zM340 113c-41 -66 -107 -126 -186 -126c-77 0 -125 52 -125 143c0 211 161 384 329 384c25 0 46 -5 62 -15l16 80c3 15 5 28 5 38c0 36 -20 47 -64 49l9 38
l164 26h13c3 -9 6 -27 6 -49c0 -27 -4 -68 -15 -120l-92 -430c-3 -15 -5 -28 -5 -38c0 -26 12 -35 44 -35c9 0 19 1 31 2l3 -37c-45 -22 -78 -32 -118 -32c-55 0 -79 34 -79 90c0 10 0 21 2 32zM735 720l-81 -182l-52 10l31 186z" />
    <glyph glyph-name="Dcroat" unicode="&#x110;" horiz-adv-x="679" 
d="M-15 0l7 41c60 1 78 16 89 73l42 216h-78l13 61h77l36 185c2 12 4 24 4 31c0 32 -18 42 -64 43l8 42h258c177 0 278 -81 278 -255c0 -142 -45 -276 -118 -351c-68 -70 -146 -86 -260 -86h-292zM370 633h-58l-47 -242h141l-13 -61h-140l-52 -270h64c74 0 130 10 174 71
c48 66 80 208 80 328c0 113 -27 174 -149 174z" />
    <glyph glyph-name="dcroat" unicode="&#x111;" horiz-adv-x="576" 
d="M281 565l10 43h152c1 4 1 11 1 16c0 31 -18 42 -67 43l9 37l164 26h13c3 -9 5 -26 5 -49c0 -19 -1 -43 -6 -73h84l-10 -43h-81l-93 -434c-3 -15 -5 -28 -5 -38c0 -26 12 -35 44 -35c9 0 19 1 31 2l3 -37c-45 -22 -78 -32 -118 -32c-55 0 -79 34 -79 90c0 10 0 21 2 32
c-41 -66 -107 -126 -186 -126c-77 0 -125 52 -125 143c0 211 161 384 329 384c25 0 46 -5 62 -15l14 66h-153zM356 207l48 224c-11 14 -28 23 -52 23c-106 0 -197 -147 -197 -309c0 -56 20 -77 47 -77c56 0 114 74 154 139z" />
    <glyph glyph-name="Emacron" unicode="&#x112;" horiz-adv-x="582" 
d="M-15 0l7 41c60 1 78 16 89 73l90 462c11 57 -1 73 -60 74l8 42h486l-20 -160h-60c-7 76 -16 99 -81 99h-133l-47 -246h73c62 0 83 14 98 71h55l-40 -200h-54c7 54 -7 71 -69 71h-75l-52 -268h142c71 0 97 23 124 116h61l-33 -175h-509zM537 771h-292l13 69h292z" />
    <glyph glyph-name="emacron" unicode="&#x113;" horiz-adv-x="498" 
d="M157 171c0 -69 33 -111 97 -111c55 0 101 20 148 63l28 -40c-50 -58 -124 -97 -214 -97c-121 0 -183 72 -183 196c0 167 126 332 291 332c95 0 160 -42 160 -132c0 -115 -126 -165 -304 -165h-21c-2 -13 -2 -30 -2 -46zM368 395c0 36 -20 61 -52 61
c-69 0 -125 -79 -147 -185h13c133 0 186 45 186 124zM475 596h-292l13 68h292z" />
    <glyph glyph-name="Ebreve" unicode="&#x114;" horiz-adv-x="582" 
d="M-15 0l7 41c60 1 78 16 89 73l90 462c11 57 -1 73 -60 74l8 42h486l-20 -160h-60c-7 76 -16 99 -81 99h-133l-47 -246h73c62 0 83 14 98 71h55l-40 -200h-54c7 54 -7 71 -69 71h-75l-52 -268h142c71 0 97 23 124 116h61l-33 -175h-509zM390 742c-91 0 -131 80 -139 155
l39 14c21 -53 52 -78 107 -78c57 0 97 29 138 81l34 -22c-35 -77 -93 -150 -179 -150z" />
    <glyph glyph-name="ebreve" unicode="&#x115;" horiz-adv-x="498" 
d="M157 171c0 -69 33 -111 97 -111c55 0 101 20 148 63l28 -40c-50 -58 -124 -97 -214 -97c-121 0 -183 72 -183 196c0 167 126 332 291 332c95 0 160 -42 160 -132c0 -115 -126 -165 -304 -165h-21c-2 -13 -2 -30 -2 -46zM368 395c0 36 -20 61 -52 61
c-69 0 -125 -79 -147 -185h13c133 0 186 45 186 124zM346 566c-91 0 -131 80 -139 155l39 14c21 -53 52 -78 107 -78c57 0 97 29 138 81l34 -22c-35 -77 -93 -150 -179 -150z" />
    <glyph glyph-name="Edotaccent" unicode="&#x116;" horiz-adv-x="582" 
d="M473 819c0 -41 -33 -75 -75 -75c-41 0 -74 34 -74 75s33 74 75 74s74 -33 74 -74zM-15 0l7 41c60 1 78 16 89 73l90 462c11 57 -1 73 -60 74l8 42h486l-20 -160h-60c-7 76 -16 99 -81 99h-133l-47 -246h73c62 0 83 14 98 71h55l-40 -200h-54c7 54 -7 71 -69 71h-75
l-52 -268h142c71 0 97 23 124 116h61l-33 -175h-509z" />
    <glyph glyph-name="edotaccent" unicode="&#x117;" horiz-adv-x="498" 
d="M157 171c0 -69 33 -111 97 -111c55 0 101 20 148 63l28 -40c-50 -58 -124 -97 -214 -97c-121 0 -183 72 -183 196c0 167 126 332 291 332c95 0 160 -42 160 -132c0 -115 -126 -165 -304 -165h-21c-2 -13 -2 -30 -2 -46zM368 395c0 36 -20 61 -52 61
c-69 0 -125 -79 -147 -185h13c133 0 186 45 186 124zM412 649c0 -42 -33 -75 -75 -75c-41 0 -74 33 -74 75c0 41 33 74 75 74s74 -33 74 -74z" />
    <glyph glyph-name="Eogonek" unicode="&#x118;" horiz-adv-x="582" 
d="M379 0h-394l7 41c60 1 78 16 89 73l90 462c2 12 4 22 4 31c0 32 -18 42 -64 43l8 42h486l-20 -160h-60c-7 76 -16 99 -81 99h-133l-47 -246h73c62 0 83 14 98 71h55l-40 -200h-54c1 8 2 15 2 21c0 38 -18 50 -71 50h-75l-52 -268h142c71 0 97 23 124 116h61l-33 -175h-9
c-72 0 -135 -60 -135 -109c0 -28 18 -44 42 -44c21 0 32 5 52 16l16 -24c-26 -28 -63 -44 -110 -44c-62 0 -103 30 -103 79c0 53 48 92 132 126z" />
    <glyph glyph-name="eogonek" unicode="&#x119;" horiz-adv-x="498" 
d="M313 -137l17 -24c-27 -28 -64 -44 -111 -44c-61 0 -102 30 -102 78s36 83 105 115h-10c-119 0 -179 71 -179 194c0 167 126 332 291 332c95 0 160 -42 160 -132c0 -115 -124 -165 -302 -165h-23c-2 -13 -2 -30 -2 -46c0 -69 33 -111 97 -111c55 0 101 20 148 63l28 -40
c-28 -31 -63 -56 -94 -72c-83 -45 -117 -79 -117 -122c0 -26 19 -42 42 -42c21 0 32 5 52 16zM368 395c0 36 -20 61 -52 61c-69 0 -125 -79 -147 -185h13c133 0 186 45 186 124z" />
    <glyph glyph-name="Ecaron" unicode="&#x11a;" horiz-adv-x="582" 
d="M395 843l162 81l21 -33l-202 -164l-133 168l25 30zM-15 0l7 41c60 1 78 16 89 73l90 462c11 57 -1 73 -60 74l8 42h486l-20 -160h-60c-7 76 -16 99 -81 99h-133l-47 -246h73c62 0 83 14 98 71h55l-40 -200h-54c7 54 -7 71 -69 71h-75l-52 -268h142c71 0 97 23 124 116h61
l-33 -175h-509z" />
    <glyph glyph-name="ecaron" unicode="&#x11b;" horiz-adv-x="498" 
d="M326 665l162 81l22 -33l-202 -164l-133 168l25 30zM157 171c0 -69 33 -111 97 -111c55 0 101 20 148 63l28 -40c-50 -58 -124 -97 -214 -97c-121 0 -183 72 -183 196c0 167 126 332 291 332c95 0 160 -42 160 -132c0 -115 -126 -165 -304 -165h-21c-2 -13 -2 -30 -2 -46z
M368 395c0 36 -20 61 -52 61c-69 0 -125 -79 -147 -185h13c133 0 186 45 186 124z" />
    <glyph glyph-name="Gcircumflex" unicode="&#x11c;" horiz-adv-x="672" 
d="M486 809l-161 -82l-22 33l202 165l133 -168l-25 -30zM329 44c36 0 73 9 97 25l31 159c2 12 4 24 4 31c0 32 -18 42 -75 43l9 41h275l-8 -41c-51 -1 -69 -17 -80 -74l-37 -189c-61 -34 -148 -53 -216 -53c-190 0 -273 98 -273 266c0 219 127 451 388 451
c98 0 157 -23 195 -51l-25 -123h-88c-2 79 -21 114 -97 114c-165 0 -236 -215 -236 -419c0 -134 48 -180 136 -180z" />
    <glyph glyph-name="gcircumflex" unicode="&#x11d;" horiz-adv-x="513" 
d="M337 641l-161 -81l-22 33l202 165l133 -168l-25 -31zM172 -200c-144 0 -213 37 -213 102c0 42 32 66 62 79l71 2c-10 -15 -21 -38 -21 -67c0 -42 31 -63 106 -63c100 0 147 35 147 95c0 40 -31 56 -95 60c-36 2 -78 6 -115 10c-48 6 -80 22 -80 72c0 57 49 93 122 113
c-63 15 -100 65 -100 130c0 110 96 181 216 181c70 0 126 -25 169 -25c34 0 61 13 90 33l27 -83c-26 -13 -44 -16 -71 -16c-21 0 -46 5 -69 18c22 -19 41 -52 41 -96c0 -69 -59 -155 -225 -155h-22c-35 -8 -67 -27 -67 -48c0 -12 5 -22 28 -24l103 -7
c101 -7 160 -39 160 -126c0 -128 -120 -185 -264 -185zM245 243c68 0 97 68 97 142c0 49 -25 74 -71 74c-56 0 -96 -56 -96 -141c0 -50 27 -75 70 -75z" />
    <glyph glyph-name="Gbreve" unicode="&#x11e;" horiz-adv-x="672" 
d="M445 743c-85 0 -130 78 -134 152l37 19c21 -53 51 -79 107 -79c55 0 97 31 139 80l35 -22c-35 -73 -100 -150 -184 -150zM329 44c36 0 73 9 97 25l31 159c2 12 4 24 4 31c0 32 -18 42 -75 43l9 41h275l-8 -41c-51 -1 -69 -17 -80 -74l-37 -189c-61 -34 -148 -53 -216 -53
c-190 0 -273 98 -273 266c0 219 127 451 388 451c98 0 157 -23 195 -51l-25 -123h-88c-2 79 -21 114 -97 114c-165 0 -236 -215 -236 -419c0 -134 48 -180 136 -180z" />
    <glyph glyph-name="gbreve" unicode="&#x11f;" horiz-adv-x="513" 
d="M172 -200c-144 0 -213 37 -213 102c0 42 32 66 62 79l71 2c-10 -15 -21 -38 -21 -67c0 -42 31 -63 106 -63c100 0 147 35 147 95c0 40 -31 56 -95 60c-36 2 -78 6 -115 10c-48 6 -80 22 -80 72c0 57 49 93 122 113c-63 15 -100 65 -100 130c0 110 96 181 216 181
c70 0 126 -25 169 -25c34 0 61 13 90 33l27 -83c-26 -13 -44 -16 -71 -16c-21 0 -46 5 -69 18c22 -19 41 -52 41 -96c0 -69 -59 -155 -225 -155h-22c-35 -8 -67 -27 -67 -48c0 -12 5 -22 28 -24l103 -7c101 -7 160 -39 160 -126c0 -128 -120 -185 -264 -185zM245 243
c68 0 97 68 97 142c0 49 -25 74 -71 74c-56 0 -96 -56 -96 -141c0 -50 27 -75 70 -75zM316 566c-91 0 -131 80 -139 155l39 14c21 -53 52 -78 107 -78c57 0 97 29 138 81l34 -22c-35 -77 -93 -150 -179 -150z" />
    <glyph glyph-name="Gdotaccent" unicode="&#x120;" horiz-adv-x="672" 
d="M528 819c0 -41 -33 -75 -75 -75c-41 0 -74 34 -74 75s33 74 75 74s74 -33 74 -74zM329 44c36 0 73 9 97 25l31 159c2 12 4 24 4 31c0 32 -18 42 -75 43l9 41h275l-8 -41c-51 -1 -69 -17 -80 -74l-37 -189c-61 -34 -148 -53 -216 -53c-190 0 -273 98 -273 266
c0 219 127 451 388 451c98 0 157 -23 195 -51l-25 -123h-88c-2 79 -21 114 -97 114c-165 0 -236 -215 -236 -419c0 -134 48 -180 136 -180z" />
    <glyph glyph-name="gdotaccent" unicode="&#x121;" horiz-adv-x="513" 
d="M172 -200c-144 0 -213 37 -213 102c0 42 32 66 62 79l71 2c-10 -15 -21 -38 -21 -67c0 -42 31 -63 106 -63c100 0 147 35 147 95c0 40 -31 56 -95 60c-36 2 -78 6 -115 10c-48 6 -80 22 -80 72c0 57 49 93 122 113c-63 15 -100 65 -100 130c0 110 96 181 216 181
c70 0 126 -25 169 -25c34 0 61 13 90 33l27 -83c-26 -13 -44 -16 -71 -16c-21 0 -46 5 -69 18c22 -19 41 -52 41 -96c0 -69 -59 -155 -225 -155h-22c-35 -8 -67 -27 -67 -48c0 -12 5 -22 28 -24l103 -7c101 -7 160 -39 160 -126c0 -128 -120 -185 -264 -185zM245 243
c68 0 97 68 97 142c0 49 -25 74 -71 74c-56 0 -96 -56 -96 -141c0 -50 27 -75 70 -75zM391 649c0 -42 -33 -75 -75 -75c-41 0 -74 33 -74 75c0 41 33 74 75 74s74 -33 74 -74z" />
    <glyph glyph-name="Gcommaaccent" unicode="&#x122;" horiz-adv-x="672" 
d="M361 -136c0 -75 -65 -129 -151 -145l-19 31c54 17 78 34 78 58c0 12 -7 17 -25 25c-17 7 -33 22 -33 53c0 34 29 62 72 62c51 0 78 -38 78 -84zM329 44c36 0 73 9 97 25l31 159c2 12 4 24 4 31c0 32 -18 42 -75 43l9 41h275l-8 -41c-51 -1 -69 -17 -80 -74l-37 -189
c-61 -34 -148 -53 -216 -53c-190 0 -273 98 -273 266c0 219 127 451 388 451c98 0 157 -23 195 -51l-25 -123h-88c-2 79 -21 114 -97 114c-165 0 -236 -215 -236 -419c0 -134 48 -180 136 -180z" />
    <glyph glyph-name="gcommaaccent" unicode="&#x123;" horiz-adv-x="513" 
d="M250 657c0 77 73 131 159 148l16 -33c-54 -18 -84 -37 -84 -61c0 -12 6 -17 20 -22c24 -8 39 -23 39 -55c0 -35 -29 -64 -73 -64c-50 0 -77 39 -77 87zM172 -200c-144 0 -213 37 -213 102c0 42 32 66 62 79l71 2c-10 -15 -21 -38 -21 -67c0 -42 31 -63 106 -63
c100 0 147 35 147 95c0 40 -31 56 -95 60c-36 2 -78 6 -115 10c-48 6 -80 22 -80 72c0 57 49 93 122 113c-63 15 -100 65 -100 130c0 110 96 181 216 181c70 0 126 -25 169 -25c34 0 61 13 90 33l27 -83c-26 -13 -44 -16 -71 -16c-21 0 -46 5 -69 18c22 -19 41 -52 41 -96
c0 -69 -59 -155 -225 -155h-22c-35 -8 -67 -27 -67 -48c0 -12 5 -22 28 -24l103 -7c101 -7 160 -39 160 -126c0 -128 -120 -185 -264 -185zM245 243c68 0 97 68 97 142c0 49 -25 74 -71 74c-56 0 -96 -56 -96 -141c0 -50 27 -75 70 -75z" />
    <glyph glyph-name="Hcircumflex" unicode="&#x124;" horiz-adv-x="727" 
d="M111 650l8 42h278l-8 -42c-60 -1 -77 -17 -88 -74l-36 -184h252l37 184c2 12 4 23 4 31c0 32 -17 42 -64 43l8 42h278l-8 -42c-60 -1 -77 -17 -88 -74l-90 -462c-11 -57 0 -72 59 -73l-7 -41h-278l7 41c60 1 78 16 89 73l41 215h-253l-41 -215c-2 -11 -4 -23 -4 -32
c0 -31 17 -40 63 -41l-7 -41h-278l7 41c60 1 78 16 89 73l90 462c11 57 -1 73 -60 74zM474 809l-161 -82l-22 33l202 165l133 -168l-25 -30z" />
    <glyph glyph-name="hcircumflex" unicode="&#x125;" horiz-adv-x="557" 
d="M332 132l49 223c2 11 4 22 4 28c0 23 -9 35 -31 35c-51 0 -110 -71 -150 -134l-61 -284h-121l125 579c3 15 5 28 5 38c0 35 -19 47 -64 49l9 38l165 26h13c3 -9 6 -25 6 -50c0 -28 -4 -68 -15 -119l-40 -181c47 74 114 134 191 134c66 0 94 -41 94 -97
c0 -17 -2 -29 -5 -44l-54 -242c-4 -17 -6 -30 -6 -41c0 -23 11 -32 42 -32c10 0 21 0 35 2l3 -37c-45 -22 -83 -32 -119 -32c-58 0 -83 30 -83 82c0 17 3 37 8 59zM376 843l-161 -82l-22 33l202 165l133 -168l-25 -30z" />
    <glyph glyph-name="Hbar" unicode="&#x126;" horiz-adv-x="727" 
d="M684 576l-6 -31h72l-12 -56h-71l-73 -375c-2 -11 -4 -23 -4 -32c0 -31 17 -40 63 -41l-7 -41h-278l7 41c60 1 78 16 89 73l41 215h-253l-41 -215c-2 -11 -4 -23 -4 -32c0 -31 17 -40 63 -41l-7 -41h-278l7 41c60 1 78 16 89 73l73 375h-71l12 56h70l6 31
c11 57 -1 73 -60 74l8 42h278l-8 -42c-60 -1 -77 -17 -88 -74l-6 -31h253l6 31c11 57 -1 73 -60 74l8 42h278l-8 -42c-60 -1 -77 -17 -88 -74zM265 392h252l19 97h-252z" />
    <glyph glyph-name="hbar" unicode="&#x127;" horiz-adv-x="557" 
d="M523 60l3 -37c-45 -22 -83 -32 -119 -32c-58 0 -83 30 -83 82c0 17 3 37 8 59l49 223c2 11 4 22 4 30c0 22 -9 33 -31 33c-51 0 -110 -71 -150 -134l-61 -284h-121l122 565h-72l9 43h72c1 5 1 10 1 14c0 32 -19 42 -66 44l9 38l165 26h13c3 -10 6 -27 6 -52
c0 -19 -2 -42 -6 -70h161l-9 -43h-160l-41 -185c47 74 114 134 191 134c66 0 94 -41 94 -97c0 -14 -2 -29 -5 -44l-54 -242c-4 -17 -6 -30 -6 -41c0 -23 11 -32 42 -32c10 0 21 0 35 2z" />
    <glyph glyph-name="Itilde" unicode="&#x128;" horiz-adv-x="344" 
d="M301 576l-90 -462c-2 -11 -4 -23 -4 -32c0 -31 17 -40 63 -41l-7 -41h-278l7 41c60 1 78 16 89 73l90 462c11 57 -1 73 -60 74l8 42h278l-8 -42c-60 -1 -77 -17 -88 -74zM351 839c33 0 56 14 74 46l36 -15c-17 -62 -54 -114 -112 -114c-65 0 -95 40 -139 40
c-35 0 -54 -17 -72 -48l-34 14c12 64 49 119 108 119c63 0 89 -42 139 -42z" />
    <glyph glyph-name="itilde" unicode="&#x129;" horiz-adv-x="285" 
d="M230 374l-56 -243c-4 -17 -6 -30 -6 -40c0 -25 11 -33 42 -33c10 0 21 0 35 2l3 -37c-45 -22 -84 -32 -124 -32c-55 0 -81 30 -81 83c0 17 3 36 8 58l54 223c4 15 6 33 6 38c0 26 -10 49 -74 49l8 35c29 15 75 29 115 29c50 0 77 -23 77 -77c0 -16 -2 -34 -7 -55z
M258 678c31 0 53 13 70 44l36 -16c-16 -61 -54 -117 -108 -117c-56 0 -91 30 -130 30c-33 0 -51 -15 -67 -45l-34 14c11 64 48 123 103 123c56 0 86 -33 130 -33z" />
    <glyph glyph-name="Imacron" unicode="&#x12a;" horiz-adv-x="344" 
d="M301 576l-90 -462c-2 -11 -4 -23 -4 -32c0 -31 17 -40 63 -41l-7 -41h-278l7 41c60 1 78 16 89 73l90 462c11 57 -1 73 -60 74l8 42h278l-8 -42c-60 -1 -77 -17 -88 -74zM418 771h-292l13 69h292z" />
    <glyph glyph-name="imacron" unicode="&#x12b;" horiz-adv-x="285" 
d="M318 596h-261l13 68h262zM230 374l-56 -243c-4 -17 -6 -30 -6 -40c0 -25 11 -33 42 -33c10 0 21 0 35 2l3 -37c-45 -22 -84 -32 -124 -32c-55 0 -81 30 -81 83c0 17 3 36 8 58l54 223c4 15 6 33 6 38c0 26 -10 49 -74 49l8 35c29 15 75 29 115 29c50 0 77 -23 77 -77
c0 -16 -2 -34 -7 -55z" />
    <glyph glyph-name="Ibreve" unicode="&#x12c;" horiz-adv-x="344" 
d="M301 576l-90 -462c-2 -11 -4 -23 -4 -32c0 -31 17 -40 63 -41l-7 -41h-278l7 41c60 1 78 16 89 73l90 462c11 57 -1 73 -60 74l8 42h278l-8 -42c-60 -1 -77 -17 -88 -74zM260 743c-85 0 -130 78 -134 152l37 19c21 -53 51 -79 107 -79c55 0 97 31 139 80l35 -22
c-35 -73 -100 -150 -184 -150z" />
    <glyph glyph-name="ibreve" unicode="&#x12d;" horiz-adv-x="285" 
d="M230 374l-56 -243c-4 -17 -6 -30 -6 -40c0 -25 11 -33 42 -33c10 0 21 0 35 2l3 -37c-45 -22 -84 -32 -124 -32c-55 0 -81 30 -81 83c0 17 3 36 8 58l54 223c4 15 6 33 6 38c0 26 -10 49 -74 49l8 35c29 15 75 29 115 29c50 0 77 -23 77 -77c0 -16 -2 -34 -7 -55z
M195 566c-91 0 -131 80 -139 155l39 14c21 -53 52 -78 107 -78c57 0 97 29 138 81l34 -22c-35 -77 -93 -150 -179 -150z" />
    <glyph glyph-name="Iogonek" unicode="&#x12e;" horiz-adv-x="344" 
d="M270 41l-7 -41h-10c-72 0 -131 -63 -131 -111c0 -26 18 -42 42 -42c21 0 32 5 52 16l16 -24c-26 -28 -63 -44 -110 -44c-62 0 -103 31 -103 79c0 54 47 94 129 126h-163l7 41c60 1 78 16 89 73l90 462c11 57 -1 73 -60 74l8 42h278l-8 -42c-60 -1 -77 -17 -88 -74
l-90 -462c-2 -11 -4 -23 -4 -32c0 -31 17 -40 63 -41z" />
    <glyph glyph-name="iogonek" unicode="&#x12f;" horiz-adv-x="285" 
d="M51 132l54 223c4 15 6 33 6 38c0 26 -10 49 -74 49l8 35c29 15 75 29 115 29c50 0 77 -23 77 -77c0 -16 -2 -34 -7 -55l-56 -243c-4 -17 -6 -30 -6 -40c0 -25 11 -33 42 -33c10 0 21 0 35 2l3 -37c-46 -24 -146 -64 -146 -134c0 -26 18 -42 42 -42c20 0 32 5 51 16
l17 -24c-26 -28 -64 -44 -110 -44c-62 0 -103 30 -103 78c0 51 42 88 118 121c-50 3 -74 32 -74 82c0 17 3 35 8 56zM283 650c0 -41 -33 -74 -74 -74c-42 0 -75 33 -75 74s33 74 75 74s74 -33 74 -74z" />
    <glyph glyph-name="Idotaccent" unicode="&#x130;" horiz-adv-x="344" 
d="M301 576l-90 -462c-2 -11 -4 -23 -4 -32c0 -31 17 -40 63 -41l-7 -41h-278l7 41c60 1 78 16 89 73l90 462c11 57 -1 73 -60 74l8 42h278l-8 -42c-60 -1 -77 -17 -88 -74zM353 819c0 -41 -33 -75 -75 -75c-41 0 -74 34 -74 75s33 74 75 74s74 -33 74 -74z" />
    <glyph glyph-name="dotlessi" unicode="&#x131;" horiz-adv-x="285" 
d="M230 374l-56 -243c-4 -17 -6 -30 -6 -40c0 -25 11 -33 42 -33c10 0 21 0 35 2l3 -37c-45 -22 -84 -32 -124 -32c-55 0 -81 30 -81 83c0 17 3 36 8 58l54 223c4 15 6 33 6 38c0 26 -10 49 -74 49l8 35c29 15 75 29 115 29c50 0 77 -23 77 -77c0 -16 -2 -34 -7 -55z" />
    <glyph glyph-name="IJ" unicode="&#x132;" horiz-adv-x="686" 
d="M301 576l-90 -462c-2 -11 -4 -23 -4 -32c0 -31 17 -40 63 -41l-7 -41h-278l7 41c60 1 78 16 89 73l90 462c11 57 -1 73 -60 74l8 42h278l-8 -42c-60 -1 -77 -17 -88 -74zM641 576l-92 -475c-31 -160 -106 -222 -272 -248l-16 42c113 40 135 94 157 205l93 476
c11 57 -1 73 -59 74l7 42h278l-7 -42c-60 -1 -78 -17 -89 -74z" />
    <glyph glyph-name="ij" unicode="&#x133;" horiz-adv-x="546" 
d="M230 374l-56 -243c-4 -17 -6 -30 -6 -40c0 -25 11 -33 42 -33c10 0 21 0 35 2l3 -37c-45 -22 -84 -32 -124 -32c-55 0 -81 30 -81 83c0 17 3 36 8 58l54 223c4 15 6 33 6 38c0 26 -10 49 -74 49l8 35c29 15 75 29 115 29c50 0 77 -23 77 -77c0 -16 -2 -34 -7 -55z
M283 650c0 -41 -33 -74 -74 -74c-42 0 -75 33 -75 74s33 74 75 74s74 -33 74 -74zM430 -4c-24 -121 -94 -170 -231 -201l-16 49c86 32 110 64 131 169l68 342c4 20 5 27 5 38c0 37 -21 49 -73 49l8 35c29 15 74 29 115 29c50 0 77 -22 77 -79c0 -14 -3 -32 -7 -53zM560 650
c0 -41 -33 -74 -75 -74c-41 0 -74 33 -74 74s33 74 75 74c41 0 74 -33 74 -74z" />
    <glyph glyph-name="Jcircumflex" unicode="&#x134;" horiz-adv-x="347" 
d="M286 809l-161 -82l-22 33l202 165l133 -168l-25 -30zM303 576l-92 -475c-31 -160 -106 -222 -272 -248l-16 42c113 40 135 94 157 205l93 476c11 57 -1 73 -59 74l7 42h278l-7 -42c-60 -1 -78 -17 -89 -74z" />
    <glyph glyph-name="jcircumflex" unicode="&#x135;" horiz-adv-x="275" 
d="M160 -4c-24 -121 -94 -170 -231 -201l-16 49c86 32 110 64 131 169l68 342c4 20 5 27 5 38c0 37 -21 49 -73 49l8 35c29 15 74 29 115 29c50 0 77 -22 77 -79c0 -14 -3 -32 -7 -53zM199 641l-161 -81l-22 33l202 165l133 -168l-25 -31z" />
    <glyph glyph-name="Kcommaaccent" unicode="&#x136;" horiz-adv-x="645" 
d="M367 -136c0 -75 -65 -129 -151 -145l-19 31c54 17 78 34 78 58c0 12 -7 17 -25 25c-17 7 -33 22 -33 53c0 34 29 62 72 62c51 0 78 -38 78 -84zM556 559l-165 -165l139 -304c17 -36 38 -46 84 -49l-7 -41h-181l-152 355l218 227c17 17 26 32 26 44c0 15 -15 24 -43 25
l7 41h219l-8 -41c-46 -6 -75 -30 -137 -92zM301 576l-90 -462c-2 -11 -4 -23 -4 -32c0 -31 17 -40 63 -41l-7 -41h-278l7 41c60 1 78 16 89 73l90 462c11 57 -1 73 -60 74l8 42h278l-8 -42c-60 -1 -77 -17 -88 -74z" />
    <glyph glyph-name="kcommaaccent" unicode="&#x137;" horiz-adv-x="518" 
d="M288 -136c0 -75 -65 -129 -151 -145l-19 31c54 17 78 34 78 58c0 12 -7 17 -25 25c-17 7 -33 22 -33 53c0 34 29 62 72 62c51 0 78 -38 78 -84zM265 561l-122 -561h-121l125 579c3 14 5 31 5 38c0 34 -20 48 -65 49l9 38l166 26h13c3 -9 6 -28 6 -47
c0 -29 -5 -72 -16 -122zM277 90l-65 179l206 232h124l-9 -43c-49 0 -98 -39 -138 -78l-75 -74l74 -189c16 -42 28 -59 66 -59c9 0 20 1 32 3l3 -35c-36 -22 -77 -33 -108 -33c-56 0 -84 23 -110 97z" />
    <glyph glyph-name="kgreenlandic" unicode="&#x138;" horiz-adv-x="529" 
d="M34 0l77 355c3 15 5 27 5 38c0 35 -20 49 -73 49l8 35c29 15 74 29 115 29c50 0 77 -23 77 -78c0 -11 -2 -29 -7 -54l-81 -374h-121zM289 90l-65 179l206 232h123l-9 -43c-48 0 -99 -38 -156 -96l-56 -56l74 -189c16 -42 28 -59 66 -59c3 0 20 1 32 3l3 -35
c-36 -22 -77 -33 -108 -33c-56 0 -84 23 -110 97z" />
    <glyph glyph-name="Lacute" unicode="&#x139;" horiz-adv-x="548" 
d="M159 761l198 147l55 -112l-231 -71zM200 59h115c69 0 103 29 140 123h62l-49 -182h-483l7 41c60 1 78 16 89 73l90 462c11 57 -1 73 -60 74l8 42h281l-8 -42c-63 -1 -81 -18 -93 -81z" />
    <glyph glyph-name="lacute" unicode="&#x13a;" horiz-adv-x="283" 
d="M130 784l198 147l55 -112l-231 -71zM262 561l-93 -430c-2 -9 -6 -30 -6 -41c0 -23 11 -33 43 -33c10 0 22 1 37 3l3 -37c-44 -22 -84 -32 -123 -32c-58 0 -83 30 -83 84c0 17 3 36 7 57l96 447c3 15 5 28 5 38c0 36 -20 47 -64 49l8 38l166 26h13c3 -9 6 -25 6 -50
c0 -28 -4 -68 -15 -119z" />
    <glyph glyph-name="Lcommaaccent" unicode="&#x13b;" horiz-adv-x="548" 
d="M309 -136c0 -75 -65 -129 -151 -145l-19 31c54 17 78 34 78 58c0 12 -7 17 -25 25c-17 7 -33 22 -33 53c0 34 29 62 72 62c51 0 78 -38 78 -84zM200 59h115c69 0 103 29 140 123h62l-49 -182h-483l7 41c60 1 78 16 89 73l90 462c11 57 -1 73 -60 74l8 42h281l-8 -42
c-63 -1 -81 -18 -93 -81z" />
    <glyph glyph-name="lcommaaccent" unicode="&#x13c;" horiz-adv-x="283" 
d="M155 -136c0 -75 -65 -129 -151 -145l-19 31c54 17 78 34 78 58c0 12 -7 17 -25 25c-17 7 -33 22 -33 53c0 34 29 62 72 62c51 0 78 -38 78 -84zM262 561l-93 -430c-2 -9 -6 -30 -6 -41c0 -23 11 -33 43 -33c10 0 22 1 37 3l3 -37c-44 -22 -84 -32 -123 -32
c-58 0 -83 30 -83 84c0 17 3 36 7 57l96 447c3 15 5 28 5 38c0 36 -20 47 -64 49l8 38l166 26h13c3 -9 6 -25 6 -50c0 -28 -4 -68 -15 -119z" />
    <glyph glyph-name="Lcaron" unicode="&#x13d;" horiz-adv-x="548" 
d="M200 59h115c69 0 103 29 140 123h62l-49 -182h-483l7 41c60 1 78 16 89 73l90 462c11 57 -1 73 -60 74l8 42h281l-8 -42c-63 -1 -81 -18 -93 -81zM584 720l-86 -182l-52 10l35 186z" />
    <glyph glyph-name="lcaron" unicode="&#x13e;" horiz-adv-x="283" 
d="M262 561l-93 -430c-2 -9 -6 -30 -6 -41c0 -23 11 -33 43 -33c10 0 22 1 37 3l3 -37c-44 -22 -84 -32 -123 -32c-58 0 -83 30 -83 84c0 17 3 36 7 57l96 447c3 15 5 28 5 38c0 36 -20 47 -64 49l8 38l166 26h13c3 -9 6 -25 6 -50c0 -28 -4 -68 -15 -119zM441 720l-81 -182
l-52 10l31 186z" />
    <glyph glyph-name="Ldot" unicode="&#x13f;" horiz-adv-x="548" 
d="M200 59h115c69 0 103 29 140 123h62l-49 -182h-483l7 41c60 1 78 16 89 73l90 462c11 57 -1 73 -60 74l8 42h281l-8 -42c-63 -1 -81 -18 -93 -81zM569 374c0 -47 -37 -83 -82 -83c-46 0 -82 36 -82 83c0 45 36 83 82 83c45 0 82 -38 82 -83z" />
    <glyph glyph-name="ldot" unicode="&#x140;" horiz-adv-x="407" 
d="M262 561l-93 -430c-2 -9 -6 -30 -6 -41c0 -23 11 -33 43 -33c10 0 22 1 37 3l3 -37c-44 -22 -84 -32 -123 -32c-58 0 -83 30 -83 84c0 17 3 36 7 57l96 447c3 15 5 28 5 38c0 36 -20 47 -64 49l8 38l166 26h13c3 -9 6 -25 6 -50c0 -28 -4 -68 -15 -119zM427 348
c0 -42 -33 -76 -75 -76s-74 34 -74 76c0 41 32 75 74 75s75 -34 75 -75z" />
    <glyph glyph-name="Lslash" unicode="&#x141;" horiz-adv-x="548" 
d="M200 59h115c69 0 103 29 140 123h62l-49 -182h-483l7 41c60 1 78 16 89 73l30 155l-80 -25l11 58l81 26l48 248c11 57 -1 73 -60 74l8 42h281l-8 -42c-62 -1 -81 -19 -92 -75l-39 -203l195 64l-11 -60l-196 -63z" />
    <glyph glyph-name="lslash" unicode="&#x142;" horiz-adv-x="295" 
d="M263 561l-28 -128l81 35l-15 -57l-78 -34l-53 -246c-2 -9 -6 -30 -6 -41c0 -23 11 -33 43 -33c10 0 22 1 37 3l3 -37c-44 -22 -84 -32 -123 -32c-58 0 -83 30 -83 84c0 17 3 36 7 57l40 187l-72 -31l14 57l70 30l44 204c3 15 5 28 5 38c0 36 -20 47 -64 49l8 38l166 26
h13c3 -9 6 -25 6 -50c0 -28 -4 -68 -15 -119z" />
    <glyph glyph-name="Nacute" unicode="&#x143;" horiz-adv-x="685" 
d="M333 761l198 147l55 -112l-231 -71zM543 0h-83l-171 396c-38 89 -47 146 -50 168h-6c-2 -25 -7 -87 -24 -176l-52 -274c-2 -11 -4 -23 -4 -32c0 -31 17 -40 63 -41l-7 -41h-224l7 41c60 1 78 16 89 73l90 462c11 57 -1 73 -60 74l8 42h189l159 -374
c28 -66 35 -116 38 -142h6c2 25 10 102 25 181l43 219c2 8 4 23 4 32c0 31 -17 41 -63 42l8 42h218l-8 -42c-56 -1 -72 -17 -83 -74z" />
    <glyph glyph-name="nacute" unicode="&#x144;" horiz-adv-x="568" 
d="M234 596l184 171l66 -109l-227 -97zM343 132l49 223c2 10 4 22 4 28c0 24 -9 35 -31 35c-51 0 -110 -71 -149 -134l-61 -284h-121l78 362c3 13 4 25 4 31c0 34 -19 49 -72 49l8 35c31 16 71 29 113 29c43 0 68 -27 68 -87c0 -14 -1 -30 -4 -48c49 78 118 143 200 143
c65 0 93 -41 93 -97c0 -14 -1 -24 -5 -44l-54 -242c-3 -12 -6 -33 -6 -41c0 -23 11 -33 42 -33c10 0 21 1 35 3l3 -37c-45 -22 -82 -32 -118 -32c-59 0 -84 31 -84 82c0 14 3 37 8 59z" />
    <glyph glyph-name="Ncommaaccent" unicode="&#x145;" horiz-adv-x="685" 
d="M373 -136c0 -75 -65 -129 -151 -145l-19 31c54 17 78 34 78 58c0 12 -7 17 -25 25c-17 7 -33 22 -33 53c0 34 29 62 72 62c51 0 78 -38 78 -84zM543 0h-83l-171 396c-38 89 -47 146 -50 168h-6c-2 -25 -7 -87 -24 -176l-52 -274c-2 -11 -4 -23 -4 -32
c0 -31 17 -40 63 -41l-7 -41h-224l7 41c60 1 78 16 89 73l90 462c11 57 -1 73 -60 74l8 42h189l159 -374c28 -66 35 -116 38 -142h6c2 25 10 102 25 181l43 219c2 8 4 23 4 32c0 31 -17 41 -63 42l8 42h218l-8 -42c-56 -1 -72 -17 -83 -74z" />
    <glyph glyph-name="ncommaaccent" unicode="&#x146;" horiz-adv-x="568" 
d="M317 -136c0 -75 -65 -129 -151 -145l-19 31c54 17 78 34 78 58c0 12 -7 17 -25 25c-17 7 -33 22 -33 53c0 34 29 62 72 62c51 0 78 -38 78 -84zM343 132l49 223c2 10 4 22 4 28c0 24 -9 35 -31 35c-51 0 -110 -71 -149 -134l-61 -284h-121l78 362c3 13 4 25 4 31
c0 34 -19 49 -72 49l8 35c31 16 71 29 113 29c43 0 68 -27 68 -87c0 -14 -1 -30 -4 -48c49 78 118 143 200 143c65 0 93 -41 93 -97c0 -14 -1 -24 -5 -44l-54 -242c-3 -12 -6 -33 -6 -41c0 -23 11 -33 42 -33c10 0 21 1 35 3l3 -37c-45 -22 -82 -32 -118 -32
c-59 0 -84 31 -84 82c0 14 3 37 8 59z" />
    <glyph glyph-name="Ncaron" unicode="&#x147;" horiz-adv-x="685" 
d="M436 843l162 81l21 -33l-202 -164l-133 168l25 30zM543 0h-83l-171 396c-38 89 -47 146 -50 168h-6c-2 -25 -7 -87 -24 -176l-52 -274c-2 -11 -4 -23 -4 -32c0 -31 17 -40 63 -41l-7 -41h-224l7 41c60 1 78 16 89 73l90 462c11 57 -1 73 -60 74l8 42h189l159 -374
c28 -66 35 -116 38 -142h6c2 25 10 102 25 181l43 219c2 8 4 23 4 32c0 31 -17 41 -63 42l8 42h218l-8 -42c-56 -1 -72 -17 -83 -74z" />
    <glyph glyph-name="ncaron" unicode="&#x148;" horiz-adv-x="568" 
d="M333 665l162 81l22 -33l-202 -164l-133 168l25 30zM343 132l49 223c2 10 4 22 4 28c0 24 -9 35 -31 35c-51 0 -110 -71 -149 -134l-61 -284h-121l78 362c3 13 4 25 4 31c0 34 -19 49 -72 49l8 35c31 16 71 29 113 29c43 0 68 -27 68 -87c0 -14 -1 -30 -4 -48
c49 78 118 143 200 143c65 0 93 -41 93 -97c0 -14 -1 -24 -5 -44l-54 -242c-3 -12 -6 -33 -6 -41c0 -23 11 -33 42 -33c10 0 21 1 35 3l3 -37c-45 -22 -82 -32 -118 -32c-59 0 -84 31 -84 82c0 14 3 37 8 59z" />
    <glyph glyph-name="napostrophe" unicode="&#x149;" horiz-adv-x="828" 
d="M289 610c0 -96 -89 -170 -186 -194l-20 34c63 22 106 55 106 88c0 19 -11 25 -29 33c-23 11 -39 27 -39 61c0 43 32 75 79 75c57 0 89 -44 89 -97zM603 132l49 223c2 10 4 22 4 28c0 24 -9 35 -31 35c-51 0 -110 -71 -149 -134l-61 -284h-121l78 362c3 13 4 25 4 31
c0 34 -19 49 -72 49l8 35c31 16 71 29 113 29c43 0 68 -27 68 -87c0 -14 -1 -30 -4 -48c49 78 118 143 200 143c65 0 93 -41 93 -97c0 -14 -1 -24 -5 -44l-54 -242c-3 -12 -6 -33 -6 -41c0 -23 11 -33 42 -33c10 0 21 1 35 3l3 -37c-45 -22 -82 -32 -118 -32
c-59 0 -84 31 -84 82c0 14 3 37 8 59z" />
    <glyph glyph-name="Eng" unicode="&#x14a;" horiz-adv-x="685" 
d="M655 576l-105 -540c-29 -148 -103 -198 -240 -218l-16 42c86 32 127 74 148 179l-153 357c-38 89 -47 146 -50 168h-6c-2 -25 -7 -87 -24 -176l-52 -274c-2 -11 -4 -23 -4 -32c0 -31 17 -40 63 -41l-7 -41h-224l7 41c60 1 78 16 89 73l90 462c11 57 -1 73 -60 74l8 42
h189l159 -374c28 -66 35 -116 38 -142h6c2 25 10 102 25 181l43 219c2 8 4 23 4 32c0 31 -17 41 -63 42l8 42h218l-8 -42c-56 -1 -72 -17 -83 -74z" />
    <glyph glyph-name="eng" unicode="&#x14b;" horiz-adv-x="554" 
d="M517 373l-73 -366c-25 -128 -98 -181 -234 -212l-16 49c85 35 110 65 131 169l67 342c2 10 4 22 4 28c0 24 -9 35 -31 35c-51 0 -110 -71 -149 -134l-61 -284h-121l78 362c3 13 4 25 4 31c0 34 -19 49 -72 49l8 35c31 16 71 29 113 29c43 0 68 -27 68 -87
c0 -14 -1 -30 -4 -48c49 78 118 143 200 143c65 0 93 -41 93 -97c0 -14 -1 -24 -5 -44z" />
    <glyph glyph-name="Omacron" unicode="&#x14c;" horiz-adv-x="689" 
d="M575 771h-292l13 69h292zM666 430c0 -197 -103 -444 -352 -444c-167 0 -258 109 -258 276c0 192 107 441 354 441c155 0 256 -95 256 -273zM528 470c0 114 -32 173 -119 173c-62 0 -101 -26 -132 -75c-61 -95 -84 -246 -84 -353c0 -117 37 -171 120 -171
c59 0 98 24 131 75c59 92 84 249 84 351z" />
    <glyph glyph-name="omacron" unicode="&#x14d;" horiz-adv-x="537" 
d="M467 596h-292l13 68h292zM507 312c0 -170 -100 -326 -277 -326c-121 0 -197 80 -197 199c0 175 111 329 275 329c123 0 199 -77 199 -202zM381 346c0 73 -23 111 -77 111c-37 0 -67 -21 -91 -65c-32 -60 -55 -156 -55 -245c0 -65 22 -105 76 -105c32 0 60 12 89 58
c34 54 58 152 58 246z" />
    <glyph glyph-name="Obreve" unicode="&#x14e;" horiz-adv-x="689" 
d="M422 743c-85 0 -130 78 -134 152l37 19c21 -53 51 -79 107 -79c55 0 97 31 139 80l35 -22c-35 -73 -100 -150 -184 -150zM666 430c0 -197 -103 -444 -352 -444c-167 0 -258 109 -258 276c0 192 107 441 354 441c155 0 256 -95 256 -273zM528 470c0 114 -32 173 -119 173
c-62 0 -101 -26 -132 -75c-61 -95 -84 -246 -84 -353c0 -117 37 -171 120 -171c59 0 98 24 131 75c59 92 84 249 84 351z" />
    <glyph glyph-name="obreve" unicode="&#x14f;" horiz-adv-x="537" 
d="M507 312c0 -170 -100 -326 -277 -326c-121 0 -197 80 -197 199c0 175 111 329 275 329c123 0 199 -77 199 -202zM381 346c0 73 -23 111 -77 111c-37 0 -67 -21 -91 -65c-32 -60 -55 -156 -55 -245c0 -65 22 -105 76 -105c32 0 60 12 89 58c34 54 58 152 58 246zM324 566
c-91 0 -131 80 -139 155l39 14c21 -53 52 -78 107 -78c57 0 97 29 138 81l34 -22c-35 -77 -93 -150 -179 -150z" />
    <glyph glyph-name="Ohungarumlaut" unicode="&#x150;" horiz-adv-x="689" 
d="M476 915l-121 -183l-45 19l62 205zM655 885l-145 -161l-41 26l91 194zM666 430c0 -197 -103 -444 -352 -444c-167 0 -258 109 -258 276c0 192 107 441 354 441c155 0 256 -95 256 -273zM528 470c0 114 -32 173 -119 173c-62 0 -101 -26 -132 -75
c-61 -95 -84 -246 -84 -353c0 -117 37 -171 120 -171c59 0 98 24 131 75c59 92 84 249 84 351z" />
    <glyph glyph-name="ohungarumlaut" unicode="&#x151;" horiz-adv-x="537" 
d="M398 766l-132 -204l-45 19l73 226zM579 735l-158 -181l-41 26l103 214zM507 312c0 -170 -100 -326 -277 -326c-121 0 -197 80 -197 199c0 175 111 329 275 329c123 0 199 -77 199 -202zM381 346c0 73 -23 111 -77 111c-37 0 -67 -21 -91 -65c-32 -60 -55 -156 -55 -245
c0 -65 22 -105 76 -105c32 0 60 12 89 58c34 54 58 152 58 246z" />
    <glyph glyph-name="OE" unicode="&#x152;" horiz-adv-x="926" 
d="M838 0h-487c-178 0 -295 82 -295 268c0 230 146 424 402 424h491l-20 -160h-59c-8 76 -17 99 -81 99h-133l-48 -246h73c62 0 83 14 98 71h55l-39 -200h-55c7 54 -7 71 -69 71h-74l-53 -268h142c71 0 97 23 124 116h62zM414 59l112 572h-61c-87 0 -146 -21 -192 -86
c-54 -76 -81 -189 -81 -298c0 -119 48 -188 169 -188h53z" />
    <glyph glyph-name="oe" unicode="&#x153;" horiz-adv-x="830" 
d="M489 171c0 -69 34 -111 98 -111c55 0 100 20 147 63l29 -40c-50 -58 -124 -97 -214 -97c-69 0 -121 26 -145 73c-42 -47 -104 -73 -174 -73c-121 0 -197 80 -197 199c0 175 111 329 275 329c76 0 133 -36 164 -89c46 56 110 89 185 89c95 0 160 -42 160 -132
c0 -115 -127 -165 -304 -165h-21c-2 -13 -3 -30 -3 -46zM381 346c0 73 -23 111 -77 111c-37 0 -67 -21 -91 -65c-32 -60 -55 -156 -55 -245c0 -65 22 -105 76 -105c32 0 59 12 87 55c36 56 60 155 60 249zM701 395c0 36 -20 61 -52 61c-69 0 -125 -79 -148 -185h13
c134 0 187 45 187 124z" />
    <glyph glyph-name="Racute" unicode="&#x154;" horiz-adv-x="636" 
d="M276 761l198 147l55 -112l-231 -71zM311 631l-52 -269h63c100 0 154 60 154 164c0 78 -36 105 -113 105h-52zM248 304l-37 -190c-2 -11 -4 -23 -4 -32c0 -31 17 -40 63 -41l-7 -41h-278l7 41c60 1 78 16 89 73l90 462c11 57 -1 73 -60 74l8 42h273
c139 0 218 -49 218 -160c0 -139 -98 -205 -231 -213v-4c41 -12 75 -36 93 -68c20 -35 37 -86 60 -148c13 -37 23 -57 69 -58l-7 -41h-170c-25 88 -45 151 -72 222c-24 64 -50 78 -104 82z" />
    <glyph glyph-name="racute" unicode="&#x155;" horiz-adv-x="392" 
d="M170 596l184 171l66 -109l-227 -97zM34 0l78 362c1 5 4 22 4 31c0 34 -19 49 -72 49l8 35c31 16 71 29 113 29c44 0 66 -32 66 -95c0 -17 -1 -28 -3 -45c36 81 92 148 154 148c14 0 25 -2 38 -8l-29 -128c-15 6 -26 8 -44 8c-68 0 -120 -45 -147 -172l-45 -214h-121z" />
    <glyph glyph-name="Rcommaaccent" unicode="&#x156;" horiz-adv-x="636" 
d="M361 -136c0 -75 -65 -129 -151 -145l-19 31c54 17 78 34 78 58c0 12 -7 17 -25 25c-17 7 -33 22 -33 53c0 34 29 62 72 62c51 0 78 -38 78 -84zM311 631l-52 -269h63c100 0 154 60 154 164c0 78 -36 105 -113 105h-52zM248 304l-37 -190c-2 -11 -4 -23 -4 -32
c0 -31 17 -40 63 -41l-7 -41h-278l7 41c60 1 78 16 89 73l90 462c11 57 -1 73 -60 74l8 42h273c139 0 218 -49 218 -160c0 -139 -98 -205 -231 -213v-4c41 -12 75 -36 93 -68c20 -35 37 -86 60 -148c13 -37 23 -57 69 -58l-7 -41h-170c-25 88 -45 151 -72 222
c-24 64 -50 78 -104 82z" />
    <glyph glyph-name="rcommaaccent" unicode="&#x157;" horiz-adv-x="392" 
d="M147 -136c0 -75 -65 -129 -151 -145l-19 31c54 17 78 34 78 58c0 12 -7 17 -25 25c-17 7 -33 22 -33 53c0 34 29 62 72 62c51 0 78 -38 78 -84zM34 0l78 362c1 5 4 22 4 31c0 34 -19 49 -72 49l8 35c31 16 71 29 113 29c44 0 66 -32 66 -95c0 -17 -1 -28 -3 -45
c36 81 92 148 154 148c14 0 25 -2 38 -8l-29 -128c-15 6 -26 8 -44 8c-68 0 -120 -45 -147 -172l-45 -214h-121z" />
    <glyph glyph-name="Rcaron" unicode="&#x158;" horiz-adv-x="636" 
d="M385 843l162 81l21 -33l-202 -164l-133 168l25 30zM311 631l-52 -269h63c100 0 154 60 154 164c0 78 -36 105 -113 105h-52zM248 304l-37 -190c-2 -11 -4 -23 -4 -32c0 -31 17 -40 63 -41l-7 -41h-278l7 41c60 1 78 16 89 73l90 462c11 57 -1 73 -60 74l8 42h273
c139 0 218 -49 218 -160c0 -139 -98 -205 -231 -213v-4c41 -12 75 -36 93 -68c20 -35 37 -86 60 -148c13 -37 23 -57 69 -58l-7 -41h-170c-25 88 -45 151 -72 222c-24 64 -50 78 -104 82z" />
    <glyph glyph-name="rcaron" unicode="&#x159;" horiz-adv-x="392" 
d="M269 665l162 81l22 -33l-202 -164l-133 168l25 30zM34 0l78 362c1 5 4 22 4 31c0 34 -19 49 -72 49l8 35c31 16 71 29 113 29c44 0 66 -32 66 -95c0 -17 -1 -28 -3 -45c36 81 92 148 154 148c14 0 25 -2 38 -8l-29 -128c-15 6 -26 8 -44 8c-68 0 -120 -45 -147 -172
l-45 -214h-121z" />
    <glyph glyph-name="Sacute" unicode="&#x15a;" horiz-adv-x="521" 
d="M226 39c81 0 133 46 133 126c0 62 -30 95 -91 124l-62 30c-70 34 -116 84 -116 173c0 129 100 211 239 211c110 0 170 -33 197 -55l-23 -123h-81v4c0 74 -27 119 -105 119c-74 0 -117 -46 -117 -112c0 -59 33 -85 82 -110l64 -31c75 -35 132 -81 132 -182
c0 -139 -98 -227 -261 -227c-109 0 -181 30 -216 61l24 132h84v-5c0 -89 28 -135 117 -135zM231 761l198 147l55 -112l-231 -71z" />
    <glyph glyph-name="sacute" unicode="&#x15b;" horiz-adv-x="441" 
d="M165 596l184 171l66 -109l-227 -97zM172 -14c-97 0 -145 28 -169 46l17 103h79v-8c0 -58 23 -85 84 -85c54 0 101 20 101 79c0 42 -26 58 -69 75l-47 18c-64 24 -106 62 -106 137c0 107 92 163 203 163c80 0 127 -22 154 -38l-17 -99h-75c-2 52 -21 82 -79 82
c-48 0 -84 -26 -84 -72c0 -29 16 -48 59 -64l46 -18c82 -31 123 -70 123 -145c0 -105 -87 -174 -220 -174z" />
    <glyph glyph-name="Scircumflex" unicode="&#x15c;" horiz-adv-x="521" 
d="M356 809l-161 -82l-22 33l202 165l133 -168l-25 -30zM226 39c81 0 133 46 133 126c0 62 -30 95 -91 124l-62 30c-70 34 -116 84 -116 173c0 129 100 211 239 211c110 0 170 -33 197 -55l-23 -123h-81v4c0 74 -27 119 -105 119c-74 0 -117 -46 -117 -112
c0 -59 33 -85 82 -110l64 -31c75 -35 132 -81 132 -182c0 -139 -98 -227 -261 -227c-109 0 -181 30 -216 61l24 132h84v-5c0 -89 28 -135 117 -135z" />
    <glyph glyph-name="scircumflex" unicode="&#x15d;" horiz-adv-x="441" 
d="M293 641l-161 -81l-22 33l202 165l133 -168l-25 -31zM172 -14c-97 0 -145 28 -169 46l17 103h79v-8c0 -58 23 -85 84 -85c54 0 101 20 101 79c0 42 -26 58 -69 75l-47 18c-64 24 -106 62 -106 137c0 107 92 163 203 163c80 0 127 -22 154 -38l-17 -99h-75
c-2 52 -21 82 -79 82c-48 0 -84 -26 -84 -72c0 -29 16 -48 59 -64l46 -18c82 -31 123 -70 123 -145c0 -105 -87 -174 -220 -174z" />
    <glyph glyph-name="Scedilla" unicode="&#x15e;" horiz-adv-x="521" 
d="M307 -116c0 -58 -38 -85 -109 -85c-43 0 -72 12 -91 25l17 36c22 -14 42 -19 64 -19s38 7 38 32s-31 31 -67 32l1 21l26 61c-92 5 -154 32 -185 60l24 132h84v-5c0 -89 28 -135 117 -135c81 0 133 46 133 126c0 62 -30 95 -91 124l-62 30c-70 34 -116 84 -116 173
c0 129 100 211 239 211c110 0 170 -33 197 -55l-23 -123h-81v4c0 74 -27 119 -105 119c-74 0 -117 -46 -117 -112c0 -59 33 -85 82 -110l64 -31c75 -35 132 -81 132 -182c0 -136 -94 -223 -250 -227l-11 -26c62 -5 90 -35 90 -76z" />
    <glyph glyph-name="scedilla" unicode="&#x15f;" horiz-adv-x="441" 
d="M258 -116c0 -58 -38 -85 -109 -85c-43 0 -72 12 -91 25l17 36c22 -14 42 -19 64 -19s38 7 38 32s-31 31 -67 32l1 21l26 61c-74 6 -113 29 -134 45l17 103h79v-8c0 -58 23 -85 84 -85c54 0 101 20 101 79c0 42 -26 58 -69 75l-47 18c-64 24 -106 62 -106 137
c0 107 92 163 203 163c80 0 127 -22 154 -38l-17 -99h-75c-2 52 -21 82 -79 82c-48 0 -84 -26 -84 -72c0 -29 16 -48 59 -64l46 -18c82 -31 123 -70 123 -145c0 -103 -84 -171 -213 -174l-11 -26c62 -5 90 -35 90 -76z" />
    <glyph glyph-name="Scaron" unicode="&#x160;" horiz-adv-x="521" 
d="M349 843l162 81l21 -33l-202 -164l-133 168l25 30zM226 39c81 0 133 46 133 126c0 62 -30 95 -91 124l-62 30c-70 34 -116 84 -116 173c0 129 100 211 239 211c110 0 170 -33 197 -55l-23 -123h-81v4c0 74 -27 119 -105 119c-74 0 -117 -46 -117 -112
c0 -59 33 -85 82 -110l64 -31c75 -35 132 -81 132 -182c0 -139 -98 -227 -261 -227c-109 0 -181 30 -216 61l24 132h84v-5c0 -89 28 -135 117 -135z" />
    <glyph glyph-name="scaron" unicode="&#x161;" horiz-adv-x="441" 
d="M280 665l162 81l22 -33l-202 -164l-133 168l25 30zM172 -14c-97 0 -145 28 -169 46l17 103h79v-8c0 -58 23 -85 84 -85c54 0 101 20 101 79c0 42 -26 58 -69 75l-47 18c-64 24 -106 62 -106 137c0 107 92 163 203 163c80 0 127 -22 154 -38l-17 -99h-75
c-2 52 -21 82 -79 82c-48 0 -84 -26 -84 -72c0 -29 16 -48 59 -64l46 -18c82 -31 123 -70 123 -145c0 -105 -87 -174 -220 -174z" />
    <glyph glyph-name="Tcommaaccent" unicode="&#x162;" horiz-adv-x="594" 
d="M116 692h534l-30 -172h-61c-1 79 -1 111 -64 111h-58l-101 -517c-3 -15 -3 -22 -3 -30c0 -32 18 -42 70 -43l-8 -41h-131l-18 -40c62 -5 90 -35 90 -76c0 -58 -38 -85 -109 -85c-43 0 -72 12 -91 25l17 36c22 -14 42 -19 64 -19s38 7 38 32s-31 31 -67 32l1 21l31 74
h-117l8 41c65 1 84 16 95 73l100 517h-55c-66 0 -81 -28 -111 -111h-63z" />
    <glyph glyph-name="tcommaaccent" unicode="&#x163;" horiz-adv-x="339" 
d="M223 -116c0 -58 -38 -85 -109 -85c-43 0 -72 12 -91 25l17 36c22 -14 42 -19 64 -19s38 7 38 32s-31 31 -67 32l1 21l29 69c-38 13 -58 44 -58 89c0 17 2 38 7 62l61 290h-59l9 42l71 23c19 50 48 110 81 142l77 8c-14 -35 -34 -104 -44 -150h119l-27 -65h-106l-61 -286
c-4 -20 -6 -35 -6 -49c0 -35 16 -49 53 -49c17 0 41 4 63 12l8 -40c-40 -25 -86 -38 -131 -38c-6 0 -12 0 -17 1l-12 -27c62 -5 90 -35 90 -76z" />
    <glyph glyph-name="Tcaron" unicode="&#x164;" horiz-adv-x="594" 
d="M391 843l162 81l21 -33l-202 -164l-133 168l25 30zM116 692h534l-30 -172h-61c-1 79 -1 111 -64 111h-58l-101 -517c-3 -15 -3 -22 -3 -30c0 -32 18 -42 70 -43l-8 -41h-292l8 41c65 1 84 16 95 73l100 517h-55c-66 0 -81 -28 -111 -111h-63z" />
    <glyph glyph-name="tcaron" unicode="&#x165;" horiz-adv-x="339" 
d="M369 501l-27 -65h-106l-61 -286c-4 -20 -6 -35 -6 -49c0 -35 16 -49 53 -49c17 0 41 4 63 12l8 -40c-40 -25 -86 -38 -131 -38c-75 0 -115 34 -115 98c0 17 2 38 7 62l61 290h-59l9 42l71 23c19 50 48 110 81 142l77 8c-14 -35 -34 -104 -44 -150h119zM455 720l-81 -182
l-52 10l31 186z" />
    <glyph glyph-name="Tbar" unicode="&#x166;" horiz-adv-x="594" 
d="M116 692h534l-30 -172h-61c-1 79 -1 111 -64 111h-58l-48 -244h125l-12 -61h-125l-41 -212c-3 -15 -3 -22 -3 -30c0 -32 18 -42 70 -43l-8 -41h-292l8 41c65 1 84 16 95 73l41 212h-112l12 61h112l47 244h-55c-66 0 -81 -28 -111 -111h-63z" />
    <glyph glyph-name="tbar" unicode="&#x167;" horiz-adv-x="339" 
d="M369 501l-27 -65h-106l-20 -91h116l-13 -54h-114l-30 -141c-4 -20 -6 -35 -6 -49c0 -35 16 -49 53 -49c17 0 41 4 63 12l8 -40c-40 -25 -86 -38 -131 -38c-75 0 -115 34 -115 98c0 17 2 38 7 62l30 145h-61l13 54h60l19 91h-59l9 42l71 23c19 50 48 110 81 142l77 8
c-14 -35 -34 -104 -44 -150h119z" />
    <glyph glyph-name="Utilde" unicode="&#x168;" horiz-adv-x="678" 
d="M337 58c97 0 148 60 168 166l68 352c11 57 0 73 -62 74l8 42h222l-7 -42c-57 -1 -73 -17 -84 -74l-68 -352c-31 -161 -114 -238 -261 -238c-160 0 -233 66 -233 176c0 25 2 53 9 89l62 325c11 57 -3 73 -59 74l7 42h279l-8 -42c-61 -1 -77 -17 -88 -74l-66 -332
c-6 -31 -9 -58 -9 -82c1 -71 37 -104 122 -104zM529 839c33 0 56 14 74 46l36 -15c-17 -62 -54 -114 -112 -114c-65 0 -95 40 -139 40c-35 0 -54 -17 -72 -48l-34 14c12 64 49 119 108 119c63 0 89 -42 139 -42z" />
    <glyph glyph-name="utilde" unicode="&#x169;" horiz-adv-x="558" 
d="M327 112c-45 -69 -108 -126 -188 -126c-66 0 -96 40 -96 97c0 15 2 31 6 48l50 224c3 15 5 28 5 39c0 35 -19 48 -71 48l8 35c29 15 70 29 113 29c47 0 75 -28 75 -86c0 -15 -2 -33 -6 -53l-50 -223c-3 -13 -4 -25 -4 -34c0 -25 10 -35 32 -35c51 0 109 73 145 134
l62 292h119l-77 -370c-3 -14 -5 -26 -5 -36c0 -25 13 -37 47 -37c8 0 18 1 29 2l3 -37c-39 -21 -77 -32 -117 -32c-57 0 -83 34 -83 88c0 10 1 21 3 33zM397 678c31 0 53 13 70 44l36 -16c-16 -61 -54 -117 -108 -117c-56 0 -91 30 -130 30c-33 0 -51 -15 -67 -45l-34 14
c11 64 48 123 103 123c56 0 86 -33 130 -33z" />
    <glyph glyph-name="Umacron" unicode="&#x16a;" horiz-adv-x="678" 
d="M337 58c97 0 148 60 168 166l68 352c11 57 0 73 -62 74l8 42h222l-7 -42c-57 -1 -73 -17 -84 -74l-68 -352c-31 -161 -114 -238 -261 -238c-160 0 -233 66 -233 176c0 25 2 53 9 89l62 325c11 57 -3 73 -59 74l7 42h279l-8 -42c-61 -1 -77 -17 -88 -74l-66 -332
c-6 -31 -9 -58 -9 -82c1 -71 37 -104 122 -104zM598 771h-292l13 69h292z" />
    <glyph glyph-name="umacron" unicode="&#x16b;" horiz-adv-x="558" 
d="M327 112c-45 -69 -108 -126 -188 -126c-66 0 -96 40 -96 97c0 15 2 31 6 48l50 224c3 15 5 28 5 39c0 35 -19 48 -71 48l8 35c29 15 70 29 113 29c47 0 75 -28 75 -86c0 -15 -2 -33 -6 -53l-50 -223c-3 -13 -4 -25 -4 -34c0 -25 10 -35 32 -35c51 0 109 73 145 134
l62 292h119l-77 -370c-3 -14 -5 -26 -5 -36c0 -25 13 -37 47 -37c8 0 18 1 29 2l3 -37c-39 -21 -77 -32 -117 -32c-57 0 -83 34 -83 88c0 10 1 21 3 33zM468 596h-292l13 68h292z" />
    <glyph glyph-name="Ubreve" unicode="&#x16c;" horiz-adv-x="678" 
d="M337 58c97 0 148 60 168 166l68 352c11 57 0 73 -62 74l8 42h222l-7 -42c-57 -1 -73 -17 -84 -74l-68 -352c-31 -161 -114 -238 -261 -238c-160 0 -233 66 -233 176c0 25 2 53 9 89l62 325c11 57 -3 73 -59 74l7 42h279l-8 -42c-61 -1 -77 -17 -88 -74l-66 -332
c-6 -31 -9 -58 -9 -82c1 -71 37 -104 122 -104zM445 743c-85 0 -130 78 -134 152l37 19c21 -53 51 -79 107 -79c55 0 97 31 139 80l35 -22c-35 -73 -100 -150 -184 -150z" />
    <glyph glyph-name="ubreve" unicode="&#x16d;" horiz-adv-x="558" 
d="M327 112c-45 -69 -108 -126 -188 -126c-66 0 -96 40 -96 97c0 15 2 31 6 48l50 224c3 15 5 28 5 39c0 35 -19 48 -71 48l8 35c29 15 70 29 113 29c47 0 75 -28 75 -86c0 -15 -2 -33 -6 -53l-50 -223c-3 -13 -4 -25 -4 -34c0 -25 10 -35 32 -35c51 0 109 73 145 134
l62 292h119l-77 -370c-3 -14 -5 -26 -5 -36c0 -25 13 -37 47 -37c8 0 18 1 29 2l3 -37c-39 -21 -77 -32 -117 -32c-57 0 -83 34 -83 88c0 10 1 21 3 33zM319 566c-91 0 -131 80 -139 155l39 14c21 -53 52 -78 107 -78c57 0 97 29 138 81l34 -22c-35 -77 -93 -150 -179 -150z
" />
    <glyph glyph-name="Uring" unicode="&#x16e;" horiz-adv-x="678" 
d="M337 58c97 0 148 60 168 166l68 352c11 57 0 73 -62 74l8 42h222l-7 -42c-57 -1 -73 -17 -84 -74l-68 -352c-31 -161 -114 -238 -261 -238c-160 0 -233 66 -233 176c0 25 2 53 9 89l62 325c11 57 -3 73 -59 74l7 42h279l-8 -42c-61 -1 -77 -17 -88 -74l-66 -332
c-6 -31 -9 -58 -9 -82c1 -71 37 -104 122 -104zM451 721c-65 0 -104 46 -104 103c0 68 48 116 117 116c65 0 104 -46 104 -104c0 -67 -46 -115 -117 -115zM460 895c-37 0 -61 -29 -61 -69c0 -35 19 -58 52 -58c38 0 64 28 64 65c0 36 -20 62 -55 62z" />
    <glyph glyph-name="uring" unicode="&#x16f;" horiz-adv-x="558" 
d="M321 561c-65 0 -105 46 -105 103c0 68 49 116 118 116c65 0 104 -46 104 -104c0 -67 -46 -115 -117 -115zM330 735c-37 0 -61 -29 -61 -68c0 -36 18 -59 52 -59c38 0 64 28 64 65c0 36 -20 62 -55 62zM327 112c-45 -69 -108 -126 -188 -126c-66 0 -96 40 -96 97
c0 15 2 31 6 48l50 224c3 15 5 28 5 39c0 35 -19 48 -71 48l8 35c29 15 70 29 113 29c47 0 75 -28 75 -86c0 -15 -2 -33 -6 -53l-50 -223c-3 -13 -4 -25 -4 -34c0 -25 10 -35 32 -35c51 0 109 73 145 134l62 292h119l-77 -370c-3 -14 -5 -26 -5 -36c0 -25 13 -37 47 -37
c8 0 18 1 29 2l3 -37c-39 -21 -77 -32 -117 -32c-57 0 -83 34 -83 88c0 10 1 21 3 33z" />
    <glyph glyph-name="Uhungarumlaut" unicode="&#x170;" horiz-adv-x="678" 
d="M509 915l-121 -183l-45 19l62 205zM688 885l-145 -161l-41 26l91 194zM337 58c97 0 148 60 168 166l68 352c11 57 0 73 -62 74l8 42h222l-7 -42c-57 -1 -73 -17 -84 -74l-68 -352c-31 -161 -114 -238 -261 -238c-160 0 -233 66 -233 176c0 25 2 53 9 89l62 325
c11 57 -3 73 -59 74l7 42h279l-8 -42c-61 -1 -77 -17 -88 -74l-66 -332c-6 -31 -9 -58 -9 -82c1 -71 37 -104 122 -104z" />
    <glyph glyph-name="uhungarumlaut" unicode="&#x171;" horiz-adv-x="558" 
d="M327 112c-45 -69 -108 -126 -188 -126c-66 0 -96 40 -96 97c0 15 2 31 6 48l50 224c3 15 5 28 5 39c0 35 -19 48 -71 48l8 35c29 15 70 29 113 29c47 0 75 -28 75 -86c0 -15 -2 -33 -6 -53l-50 -223c-3 -13 -4 -25 -4 -34c0 -25 10 -35 32 -35c51 0 109 73 145 134
l62 292h119l-77 -370c-3 -14 -5 -26 -5 -36c0 -25 13 -37 47 -37c8 0 18 1 29 2l3 -37c-39 -21 -77 -32 -117 -32c-57 0 -83 34 -83 88c0 10 1 21 3 33zM367 766l-132 -204l-45 19l73 226zM548 735l-158 -181l-41 26l103 214z" />
    <glyph glyph-name="Uogonek" unicode="&#x172;" horiz-adv-x="678" 
d="M402 -137l17 -24c-27 -28 -64 -44 -111 -44c-61 0 -102 30 -102 78c0 49 41 84 110 113c-153 0 -228 67 -228 176c0 25 2 53 9 89l62 325c11 57 -3 73 -59 74l7 42h279l-8 -42c-61 -1 -77 -17 -88 -74l-66 -332c-6 -31 -9 -58 -9 -82c1 -71 37 -104 122 -104
c97 0 148 60 168 166l68 352c11 57 0 73 -62 74l8 42h222l-7 -42c-57 -1 -73 -17 -84 -74l-68 -352c-22 -114 -68 -181 -146 -216c-59 -26 -128 -55 -128 -119c0 -26 19 -42 43 -42c20 0 32 5 51 16z" />
    <glyph glyph-name="uogonek" unicode="&#x173;" horiz-adv-x="558" 
d="M521 60l3 -37c-77 -34 -157 -74 -157 -134c0 -26 19 -42 43 -42c20 0 32 5 51 16l17 -24c-26 -28 -64 -44 -111 -44c-61 0 -102 30 -102 78c0 51 44 88 119 121c-40 7 -60 40 -60 86c0 10 1 21 3 32c-45 -69 -108 -126 -188 -126c-66 0 -96 40 -96 97c0 15 2 31 6 48
l50 224c3 15 5 28 5 39c0 35 -19 48 -71 48l8 35c29 15 70 29 113 29c47 0 75 -28 75 -86c0 -15 -2 -33 -6 -53l-50 -223c-3 -13 -4 -25 -4 -34c0 -25 10 -35 32 -35c51 0 109 73 145 134l62 292h119l-77 -370c-3 -14 -5 -26 -5 -36c0 -25 13 -37 47 -37c8 0 18 1 29 2z" />
    <glyph glyph-name="Wcircumflex" unicode="&#x174;" horiz-adv-x="904" 
d="M575 809l-161 -82l-22 33l202 165l133 -168l-25 -30zM607 692l21 -401c2 -40 2 -86 2 -118v-39h6c6 19 25 77 57 158l115 291c3 8 8 23 8 33c0 24 -20 33 -59 34l7 42h220l-7 -42c-47 -6 -68 -24 -92 -81l-241 -569h-120l-21 379c-1 16 -1 37 -1 57c0 32 1 64 2 78h-6
c-9 -31 -27 -88 -46 -131l-165 -383h-123l-23 574c-2 58 -14 71 -58 76l8 42h259l-7 -42c-53 -3 -74 -16 -74 -57v-6l9 -295v-23c0 -50 -2 -104 -4 -136h6c8 24 27 85 59 160l166 399h102z" />
    <glyph glyph-name="wcircumflex" unicode="&#x175;" horiz-adv-x="736" 
d="M454 641l-161 -81l-22 33l202 165l133 -168l-25 -31zM126 -3l-40 372c-6 59 -11 73 -75 74l8 35c26 15 69 28 107 28c50 0 67 -30 75 -114l14 -142c3 -31 4 -58 4 -79c0 -31 -1 -37 -2 -49h6l161 379h88l24 -239c8 -78 8 -106 9 -140h5l48 103c70 151 81 225 84 283
l106 -15v-39l-249 -457h-87l-21 223c-3 38 -5 75 -5 102c0 12 0 24 1 30h-4l-160 -355h-97z" />
    <glyph glyph-name="Ycircumflex" unicode="&#x176;" horiz-adv-x="610" 
d="M214 114l29 154l-90 310c-16 57 -34 67 -70 72l8 42h251l-7 -42c-42 -1 -56 -14 -56 -39c0 -9 2 -19 5 -31l61 -237h5l151 239c12 18 18 33 18 43c0 17 -18 24 -49 25l7 42h213l-8 -42c-42 -5 -60 -18 -96 -70l-211 -308l-31 -158c-11 -57 2 -72 67 -73l-8 -41h-292l8 41
c65 1 85 16 95 73zM431 809l-161 -82l-22 33l202 165l133 -168l-25 -30z" />
    <glyph glyph-name="ycircumflex" unicode="&#x177;" horiz-adv-x="479" 
d="M176 7l-47 -3c-2 57 -7 127 -22 226l-19 134c-10 66 -20 79 -77 79l7 36c26 13 64 27 106 27c56 0 68 -36 81 -132l15 -114c6 -45 8 -83 8 -111c0 -15 -1 -44 -3 -57h6c20 38 36 70 58 115c45 92 90 203 93 301l110 -15v-39l-255 -467c-68 -126 -132 -179 -230 -197
l-37 81c86 16 159 43 206 136zM308 641l-161 -81l-22 33l202 165l133 -168l-25 -31z" />
    <glyph glyph-name="Ydieresis" unicode="&#x178;" horiz-adv-x="610" 
d="M214 114l29 154l-90 310c-16 57 -34 67 -70 72l8 42h251l-7 -42c-42 -1 -56 -14 -56 -39c0 -9 2 -19 5 -31l61 -237h5l151 239c12 18 18 33 18 43c0 17 -18 24 -49 25l7 42h213l-8 -42c-42 -5 -60 -18 -96 -70l-211 -308l-31 -158c-11 -57 2 -72 67 -73l-8 -41h-292l8 41
c65 1 85 16 95 73zM385 803c0 -39 -31 -71 -72 -71c-40 0 -72 32 -72 71c0 40 32 72 73 72c40 0 71 -32 71 -72zM602 803c0 -39 -32 -71 -72 -71s-72 32 -72 71c0 40 32 72 72 72c41 0 72 -32 72 -72z" />
    <glyph glyph-name="Zacute" unicode="&#x179;" horiz-adv-x="563" 
d="M262 761l198 147l55 -112l-231 -71zM-16 0l10 56l452 578h-149c-67 0 -100 -35 -135 -113h-62l45 171h463l-10 -56l-451 -577h166c77 0 111 33 149 123h60l-48 -182h-490z" />
    <glyph glyph-name="zacute" unicode="&#x17a;" horiz-adv-x="460" 
d="M184 596l184 171l66 -109l-227 -97zM474 447l-358 -341c14 1 28 2 41 2c56 0 98 -9 131 -9c46 0 75 15 103 71l36 -10c-33 -141 -68 -172 -136 -172c-84 0 -127 44 -196 44c-32 0 -52 -13 -66 -32h-51l9 52l347 339c-65 1 -116 6 -149 6c-41 0 -68 -19 -86 -67l-42 7
c16 115 55 171 132 171c71 0 138 -42 185 -42c25 0 40 9 61 35h50z" />
    <glyph glyph-name="Zdotaccent" unicode="&#x17b;" horiz-adv-x="563" 
d="M-16 0l10 56l452 578h-149c-67 0 -100 -35 -135 -113h-62l45 171h463l-10 -56l-451 -577h166c77 0 111 33 149 123h60l-48 -182h-490zM460 819c0 -41 -33 -75 -75 -75c-41 0 -74 34 -74 75s33 74 75 74s74 -33 74 -74z" />
    <glyph glyph-name="zdotaccent" unicode="&#x17c;" horiz-adv-x="460" 
d="M474 447l-358 -341c14 1 28 2 41 2c56 0 98 -9 131 -9c46 0 75 15 103 71l36 -10c-33 -141 -68 -172 -136 -172c-84 0 -127 44 -196 44c-32 0 -52 -13 -66 -32h-51l9 52l347 339c-65 1 -116 6 -149 6c-41 0 -68 -19 -86 -67l-42 7c16 115 55 171 132 171
c71 0 138 -42 185 -42c25 0 40 9 61 35h50zM381 649c0 -42 -33 -75 -75 -75c-41 0 -74 33 -74 75c0 41 33 74 75 74s74 -33 74 -74z" />
    <glyph glyph-name="Zcaron" unicode="&#x17d;" horiz-adv-x="563" 
d="M375 843l162 81l21 -33l-202 -164l-133 168l25 30zM-16 0l10 56l452 578h-149c-67 0 -100 -35 -135 -113h-62l45 171h463l-10 -56l-451 -577h166c77 0 111 33 149 123h60l-48 -182h-490z" />
    <glyph glyph-name="zcaron" unicode="&#x17e;" horiz-adv-x="460" 
d="M296 665l162 81l22 -33l-202 -164l-133 168l25 30zM474 447l-358 -341c14 1 28 2 41 2c56 0 98 -9 131 -9c46 0 75 15 103 71l36 -10c-33 -141 -68 -172 -136 -172c-84 0 -127 44 -196 44c-32 0 -52 -13 -66 -32h-51l9 52l347 339c-65 1 -116 6 -149 6
c-41 0 -68 -19 -86 -67l-42 7c16 115 55 171 132 171c71 0 138 -42 185 -42c25 0 40 9 61 35h50z" />
    <glyph glyph-name="longs" unicode="&#x17f;" horiz-adv-x="329" 
d="M146 -31c-20 -96 -76 -157 -169 -157c-32 0 -54 8 -72 17v35c84 5 108 27 123 106l91 466h-63l10 42l66 22l15 72c22 105 102 160 201 160c44 0 88 -9 115 -22l-17 -89h-77c0 34 -6 57 -33 57c-29 0 -51 -16 -63 -73z" />
    <glyph glyph-name="uni018F" unicode="&#x18f;" horiz-adv-x="626" 
d="M232 -14c-129 0 -212 56 -212 169c0 165 157 236 388 236c17 0 34 0 52 -1c3 18 4 39 4 61c0 101 -43 161 -141 161c-74 0 -134 -31 -198 -89l-32 41c68 79 158 140 278 140c166 0 229 -99 229 -266c0 -229 -146 -452 -368 -452zM158 143c0 -67 29 -102 81 -102
c96 0 174 110 209 290h-24c-189 0 -266 -68 -266 -188z" />
    <glyph glyph-name="florin" unicode="&#x192;" horiz-adv-x="387" 
d="M54 375l13 45l75 13l27 97c34 122 103 173 215 173c53 0 100 -9 127 -23l-26 -95h-76v17c0 33 -6 49 -33 49c-30 0 -54 -19 -74 -88l-37 -133h116l-14 -55h-117l-114 -410c-28 -101 -116 -160 -234 -161l1 38c59 14 88 38 107 108l116 425h-72z" />
    <glyph glyph-name="uni01B5" unicode="&#x1b5;" horiz-adv-x="563" 
d="M95 332l10 59h151l190 243h-149c-67 0 -100 -35 -135 -113h-62l45 171h463l-10 -56l-192 -245h108l-10 -59h-144l-213 -273h166c77 0 111 33 149 123h60l-48 -182h-490l10 56l216 276h-115z" />
    <glyph glyph-name="uni01B6" unicode="&#x1b6;" horiz-adv-x="460" 
d="M474 447l-183 -174h98l-3 -43h-140l-130 -124c14 1 28 2 41 2c56 0 98 -9 131 -9c46 0 75 15 103 71l36 -10c-33 -141 -68 -172 -136 -172c-84 0 -127 44 -196 44c-32 0 -52 -13 -66 -32h-51l9 52l182 178h-93l4 43h133l121 118c-65 1 -116 6 -149 6
c-41 0 -68 -19 -86 -67l-42 7c16 115 55 171 132 171c71 0 138 -42 185 -42c25 0 40 9 61 35h50z" />
    <glyph glyph-name="Aringacute" unicode="&#x1fa;" horiz-adv-x="646" 
d="M409 104l-9 96h-219l-46 -93c-25 -50 -14 -64 45 -66l-7 -41h-219l8 41c47 6 67 15 98 75l298 576h110l74 -575c7 -54 18 -71 63 -76l-8 -41h-264l8 41c62 2 72 18 68 63zM316 469l-104 -207h181l-21 196c-5 46 -6 76 -6 93c0 7 1 13 1 19h-6c-1 -4 -13 -38 -45 -101z
M305 968l198 147l55 -112l-231 -71zM414 715c-65 0 -104 46 -104 103c0 68 48 116 117 116c65 0 104 -46 104 -104c0 -67 -46 -115 -117 -115zM423 889c-37 0 -61 -29 -61 -69c0 -35 19 -58 52 -58c38 0 64 28 64 65c0 36 -20 62 -55 62z" />
    <glyph glyph-name="aringacute" unicode="&#x1fb;" horiz-adv-x="564" 
d="M344 514c49 0 85 -19 94 -55c11 19 25 32 39 44h72c-16 -29 -33 -79 -46 -135l-53 -237c-4 -19 -5 -25 -5 -36c0 -28 13 -37 44 -37c9 0 24 1 31 2l3 -37c-39 -21 -75 -32 -115 -32c-58 0 -82 33 -82 87c0 11 1 22 3 35c-42 -66 -103 -126 -179 -126
c-77 0 -121 52 -121 140c0 201 151 387 315 387zM343 454c-102 0 -188 -160 -188 -312c0 -53 18 -74 45 -74c46 0 106 74 145 139l52 219c-8 17 -26 28 -54 28zM369 547c-65 0 -105 46 -105 103c0 68 49 116 118 116c65 0 104 -46 104 -104c0 -67 -46 -115 -117 -115z
M378 721c-37 0 -61 -29 -61 -68c0 -36 18 -59 52 -59c38 0 64 28 64 65c0 36 -20 62 -55 62zM275 810l198 147l55 -112l-231 -71z" />
    <glyph glyph-name="AEacute" unicode="&#x1fc;" horiz-adv-x="925" 
d="M564 761l198 147l55 -112l-231 -71zM-46 0l8 41c47 6 71 21 111 75l342 472c12 16 17 28 17 36c0 18 -20 25 -59 26l8 42h567l-20 -160h-60c-7 76 -16 99 -81 99h-133l-47 -246h73c62 0 83 14 98 71h55l-39 -200h-55c1 8 2 18 2 22c0 36 -18 49 -71 49h-75l-52 -268h142
c71 0 97 23 124 116h61l-33 -175h-509l7 41c60 1 78 16 89 73l24 126h-205l-97 -133c-13 -17 -19 -31 -19 -41c0 -16 17 -24 53 -25l-7 -41h-219zM531 632l-242 -330h171l29 149c16 82 39 155 48 181h-6z" />
    <glyph glyph-name="aeacute" unicode="&#x1fd;" horiz-adv-x="777" 
d="M376 596l184 171l66 -109l-227 -97zM436 171c0 -69 33 -111 96 -111c56 0 101 20 148 63l29 -40c-51 -58 -124 -97 -214 -97c-79 0 -133 31 -161 89c-34 -46 -84 -89 -169 -89c-88 0 -143 45 -143 133c0 130 133 165 285 165h21l7 40c5 26 8 49 8 67c0 45 -18 65 -59 65
c-63 0 -89 -28 -104 -82h-86l19 99c51 26 111 41 182 41c74 0 119 -19 143 -66c47 44 106 66 164 66c96 0 161 -42 161 -132c0 -113 -116 -158 -296 -158h-29c-2 -13 -2 -37 -2 -53zM209 60c45 0 75 21 109 59c-4 20 -6 39 -6 63c0 14 1 33 4 48h-13
c-86 0 -157 -16 -157 -101c0 -48 23 -69 63 -69zM647 395c0 36 -20 61 -53 61c-68 0 -124 -71 -147 -177h15c132 0 185 38 185 116z" />
    <glyph glyph-name="Oslashacute" unicode="&#x1fe;" horiz-adv-x="689" 
d="M666 430c0 -197 -103 -444 -352 -444c-67 0 -122 18 -164 50l-63 -82l-40 30l67 88c-38 48 -58 113 -58 190c0 192 107 441 354 441c60 0 112 -15 154 -44l59 77l43 -31l-63 -82c40 -46 63 -111 63 -193zM530 470c0 20 -1 38 -3 54l-320 -415c18 -44 53 -65 106 -65
c59 0 99 24 132 75c59 92 85 249 85 351zM191 215c0 -15 0 -28 1 -41l317 413c-19 37 -51 56 -100 56c-62 0 -102 -26 -132 -73c-62 -97 -86 -248 -86 -355zM328 761l198 147l55 -112l-231 -71z" />
    <glyph glyph-name="oslashacute" unicode="&#x1ff;" horiz-adv-x="537" 
d="M507 312c0 -170 -100 -326 -277 -326c-43 0 -79 10 -109 27l-51 -66l-36 27l51 67c-34 35 -52 85 -52 144c0 175 111 329 275 329c44 0 83 -10 114 -29l50 66l39 -28l-53 -69c31 -34 49 -83 49 -142zM156 147v-13l214 283c-12 26 -34 40 -66 40c-37 0 -69 -21 -93 -65
c-33 -60 -55 -156 -55 -245zM383 346v10l-213 -279c12 -22 33 -35 64 -35c32 0 64 14 87 54c38 55 62 156 62 250zM222 596l184 171l66 -109l-227 -97z" />
    <glyph glyph-name="Scommaaccent" unicode="&#x218;" horiz-adv-x="521" 
d="M279 -136c0 -75 -65 -129 -151 -145l-19 31c54 17 78 34 78 58c0 12 -7 17 -25 25c-17 7 -33 22 -33 53c0 34 29 62 72 62c51 0 78 -38 78 -84zM226 39c81 0 133 46 133 126c0 62 -30 95 -91 124l-62 30c-70 34 -116 84 -116 173c0 129 100 211 239 211
c110 0 170 -33 197 -55l-23 -123h-81v4c0 74 -27 119 -105 119c-74 0 -117 -46 -117 -112c0 -59 33 -85 82 -110l64 -31c75 -35 132 -81 132 -182c0 -139 -98 -227 -261 -227c-109 0 -181 30 -216 61l24 132h84v-5c0 -89 28 -135 117 -135z" />
    <glyph glyph-name="scommaaccent" unicode="&#x219;" horiz-adv-x="441" 
d="M229 -136c0 -75 -65 -129 -151 -145l-19 31c54 17 78 34 78 58c0 12 -7 17 -25 25c-17 7 -33 22 -33 53c0 34 29 62 72 62c51 0 78 -38 78 -84zM172 -14c-97 0 -145 28 -169 46l17 103h79v-8c0 -58 23 -85 84 -85c54 0 101 20 101 79c0 42 -26 58 -69 75l-47 18
c-64 24 -106 62 -106 137c0 107 92 163 203 163c80 0 127 -22 154 -38l-17 -99h-75c-2 52 -21 82 -79 82c-48 0 -84 -26 -84 -72c0 -29 16 -48 59 -64l46 -18c82 -31 123 -70 123 -145c0 -105 -87 -174 -220 -174z" />
    <glyph glyph-name="uni021A" unicode="&#x21a;" horiz-adv-x="594" 
d="M116 692h534l-30 -172h-61c-1 79 -1 111 -64 111h-58l-101 -517c-3 -15 -3 -22 -3 -30c0 -32 18 -42 70 -43l-8 -41h-292l8 41c65 1 84 16 95 73l100 517h-55c-66 0 -81 -28 -111 -111h-63zM303 -136c0 -75 -65 -129 -151 -145l-19 31c54 17 78 34 78 58
c0 12 -7 17 -25 25c-17 7 -33 22 -33 53c0 34 29 62 72 62c51 0 78 -38 78 -84z" />
    <glyph glyph-name="uni021B" unicode="&#x21b;" horiz-adv-x="339" 
d="M369 501l-27 -65h-106l-61 -286c-4 -20 -6 -35 -6 -49c0 -35 16 -49 53 -49c17 0 41 4 63 12l8 -40c-40 -25 -86 -38 -131 -38c-75 0 -115 34 -115 98c0 17 2 38 7 62l61 290h-59l9 42l71 23c19 50 48 110 81 142l77 8c-14 -35 -34 -104 -44 -150h119zM199 -136
c0 -75 -65 -129 -151 -145l-19 31c54 17 78 34 78 58c0 12 -7 17 -25 25c-17 7 -33 22 -33 53c0 34 29 62 72 62c51 0 78 -38 78 -84z" />
    <glyph glyph-name="uni0237" unicode="&#x237;" horiz-adv-x="275" 
d="M160 -4c-24 -121 -94 -170 -231 -201l-16 49c86 32 110 64 131 169l68 342c4 20 5 27 5 38c0 37 -21 49 -73 49l8 35c29 15 74 29 115 29c50 0 77 -22 77 -79c0 -14 -3 -32 -7 -53z" />
    <glyph glyph-name="uni0259" unicode="&#x259;" horiz-adv-x="494" 
d="M344 328c0 70 -34 112 -97 112c-56 0 -101 -21 -148 -63l-29 39c51 58 125 98 215 98c121 0 182 -72 182 -196c0 -168 -125 -332 -290 -332c-96 0 -161 41 -161 131c0 115 127 166 305 166h20c2 13 3 29 3 45zM132 104c0 -35 20 -61 53 -61c69 0 124 80 147 185h-17
c-131 0 -183 -46 -183 -124z" />
    <glyph glyph-name="uni02BB" unicode="&#x2bb;" horiz-adv-x="260" 
d="M85 513c0 96 90 170 187 194l20 -34c-64 -21 -107 -55 -107 -88c0 -18 10 -23 29 -33c23 -10 40 -27 40 -60c0 -44 -32 -75 -79 -75c-57 0 -90 43 -90 96z" />
    <glyph glyph-name="afii57929" unicode="&#x2bc;" horiz-adv-x="260" 
d="M289 610c0 -96 -89 -170 -186 -194l-20 34c63 22 106 55 106 88c0 19 -11 25 -29 33c-23 11 -39 27 -39 61c0 43 32 75 79 75c57 0 89 -44 89 -97z" />
    <glyph glyph-name="circumflex" unicode="&#x2c6;" horiz-adv-x="534" 
d="M277 641l-161 -81l-22 33l202 165l133 -168l-25 -31z" />
    <glyph glyph-name="caron" unicode="&#x2c7;" horiz-adv-x="484" 
d="M252 665l162 81l22 -33l-202 -164l-133 168l25 30z" />
    <glyph glyph-name="breve" unicode="&#x2d8;" horiz-adv-x="441" 
d="M208 566c-91 0 -131 80 -139 155l39 14c21 -53 52 -78 107 -78c57 0 97 29 138 81l34 -22c-35 -77 -93 -150 -179 -150z" />
    <glyph glyph-name="dotaccent" unicode="&#x2d9;" horiz-adv-x="283" 
d="M215 649c0 -42 -33 -75 -75 -75c-41 0 -74 33 -74 75c0 41 33 74 75 74s74 -33 74 -74z" />
    <glyph glyph-name="ring" unicode="&#x2da;" horiz-adv-x="350" 
d="M167 561c-65 0 -105 46 -105 103c0 68 49 116 118 116c65 0 104 -46 104 -104c0 -67 -46 -115 -117 -115zM176 735c-37 0 -61 -29 -61 -68c0 -36 18 -59 52 -59c38 0 64 28 64 65c0 36 -20 62 -55 62z" />
    <glyph glyph-name="ogonek" unicode="&#x2db;" horiz-adv-x="336" 
d="M245 -137l16 -24c-26 -28 -63 -44 -110 -44c-62 0 -103 30 -103 78c0 67 70 108 198 152l16 -20c-77 -40 -111 -73 -111 -116c0 -26 18 -42 42 -42c21 0 32 5 52 16z" />
    <glyph glyph-name="tilde" unicode="&#x2dc;" horiz-adv-x="538" 
d="M332 678c31 0 53 13 70 44l36 -16c-16 -61 -54 -117 -108 -117c-56 0 -91 30 -130 30c-33 0 -51 -15 -67 -45l-34 14c11 64 48 123 103 123c56 0 86 -33 130 -33z" />
    <glyph glyph-name="hungarumlaut" unicode="&#x2dd;" horiz-adv-x="508" 
d="M250 766l-132 -204l-45 19l73 226zM431 735l-158 -181l-41 26l103 214z" />
    <glyph glyph-name="gravecomb" unicode="&#x300;" 
d="M-94 596l-23 -35l-228 97l67 109z" />
    <glyph glyph-name="acutecomb" unicode="&#x301;" 
d="M-314 596l184 171l66 -109l-227 -97z" />
    <glyph glyph-name="uni0302" unicode="&#x302;" 
d="M-192 641l-161 -81l-22 33l202 165l133 -168l-25 -31z" />
    <glyph glyph-name="tildecomb" unicode="&#x303;" 
d="M-131 678c31 0 53 13 70 44l36 -16c-16 -61 -54 -117 -108 -117c-56 0 -91 30 -130 30c-33 0 -51 -15 -67 -45l-34 14c11 64 48 123 103 123c56 0 86 -33 130 -33z" />
    <glyph glyph-name="uni0304" unicode="&#x304;" 
d="M-61 616h-292l13 68h292z" />
    <glyph glyph-name="uni0306" unicode="&#x306;" 
d="M-232 549c-91 0 -131 80 -139 155l39 14c21 -53 52 -78 107 -78c57 0 97 29 138 81l34 -22c-35 -77 -93 -150 -179 -150z" />
    <glyph glyph-name="uni0307" unicode="&#x307;" 
d="M-1 650c0 -41 -33 -74 -74 -74c-42 0 -75 33 -75 74s33 74 75 74s74 -33 74 -74z" />
    <glyph glyph-name="uni0308" unicode="&#x308;" 
d="M-282 643c0 -40 -31 -71 -72 -71c-40 0 -72 31 -72 71s32 71 73 71c40 0 71 -31 71 -71zM-65 643c0 -40 -32 -71 -72 -71s-72 31 -72 71s32 71 73 71c40 0 71 -31 71 -71z" />
    <glyph glyph-name="uni030A" unicode="&#x30a;" 
d="M-182 561c-65 0 -105 46 -105 103c0 68 49 116 118 116c65 0 104 -46 104 -104c0 -67 -46 -115 -117 -115zM-173 735c-37 0 -61 -29 -61 -68c0 -36 18 -59 52 -59c38 0 64 28 64 65c0 36 -20 62 -55 62z" />
    <glyph glyph-name="uni030B" unicode="&#x30b;" 
d="M-257 773l-132 -204l-45 19l73 226zM-76 742l-158 -181l-41 26l103 214z" />
    <glyph glyph-name="uni030C" unicode="&#x30c;" 
d="M-163 665l162 81l22 -33l-202 -164l-133 168l25 30z" />
    <glyph glyph-name="uni0312" unicode="&#x312;" 
d="M-267 657c0 77 73 131 159 148l16 -33c-54 -18 -84 -37 -84 -61c0 -12 6 -17 20 -22c24 -8 39 -23 39 -55c0 -35 -29 -64 -73 -64c-50 0 -77 39 -77 87z" />
    <glyph glyph-name="uni0313" unicode="&#x313;" 
d="M-67 720l-81 -182l-52 10l31 186z" />
    <glyph glyph-name="dotbelowcomb" unicode="&#x323;" 
d="M210 -125c0 -42 -34 -76 -77 -76c-42 0 -76 34 -76 76s34 76 77 76s76 -34 76 -76z" />
    <glyph glyph-name="uni0326" unicode="&#x326;" 
d="M242 -136c0 -75 -65 -129 -151 -145l-19 31c54 17 78 34 78 58c0 10 -4 16 -25 25c-16 7 -33 22 -33 53c0 34 29 62 72 62c51 0 78 -38 78 -84z" />
    <glyph glyph-name="uni0327" unicode="&#x327;" 
d="M-64 -116c0 -58 -38 -85 -109 -85c-43 0 -72 12 -91 25l17 36c22 -14 42 -19 64 -19s38 7 38 32s-31 31 -67 32l1 21l37 87l41 -6l-21 -47c62 -5 90 -35 90 -76z" />
    <glyph glyph-name="uni0328" unicode="&#x328;" 
d="M-90 -133l16 -24c-26 -28 -63 -44 -110 -44c-62 0 -103 30 -103 78c0 67 70 108 198 152l16 -20c-77 -40 -111 -73 -111 -116c0 -26 18 -42 42 -42c21 0 32 5 52 16z" />
    <glyph glyph-name="uni0335" unicode="&#x335;" 
d="M-61 214h-292l13 68h292z" />
    <glyph glyph-name="uni0336" unicode="&#x336;" 
d="M-58 211h-709l15 74h708z" />
    <glyph glyph-name="uni037E" unicode="&#x37e;" horiz-adv-x="312" 
d="M263 373c0 -47 -37 -84 -84 -84c-46 0 -82 37 -82 84c0 46 36 84 82 84c47 0 84 -38 84 -84zM212 52c0 -97 -89 -170 -186 -194l-20 34c63 21 106 55 106 88c0 19 -11 24 -28 32c-24 11 -40 28 -40 61c0 44 32 75 79 75c56 0 89 -43 89 -96z" />
    <glyph glyph-name="tonos" unicode="&#x384;" horiz-adv-x="392" 
d="M197 550l-70 4l47 199l112 -24z" />
    <glyph glyph-name="dieresistonos" unicode="&#x385;" horiz-adv-x="489" 
d="M173 616c0 -38 -30 -68 -69 -68c-38 0 -68 30 -68 68s30 68 69 68c38 0 68 -30 68 -68zM453 616c0 -38 -30 -68 -68 -68s-68 30 -68 68s30 68 68 68c39 0 68 -30 68 -68zM255 553l-66 4l35 205l107 -28z" />
    <glyph glyph-name="Alphatonos" unicode="&#x386;" horiz-adv-x="646" 
d="M409 104l-9 96h-219l-46 -93c-25 -50 -14 -64 45 -66l-7 -41h-219l8 41c47 6 67 15 98 75l298 576h110l74 -575c7 -54 18 -71 63 -76l-8 -41h-264l8 41c62 2 72 18 68 63zM316 469l-104 -207h181l-21 196c-5 46 -6 76 -6 93c0 7 1 13 1 19h-6c-1 -4 -13 -38 -45 -101z
M192 505l-70 4l45 200l112 -25z" />
    <glyph glyph-name="anoteleia" unicode="&#x387;" horiz-adv-x="293" 
d="M231 284c0 -47 -37 -84 -83 -84c-47 0 -83 37 -83 84c0 46 36 84 83 84c46 0 83 -38 83 -84z" />
    <glyph glyph-name="Epsilontonos" unicode="&#x388;" horiz-adv-x="582" 
d="M-15 0l7 41c60 1 78 16 89 73l90 462c11 57 -1 73 -60 74l8 42h486l-20 -160h-60c-7 76 -16 99 -81 99h-133l-47 -246h73c62 0 83 14 98 71h55l-40 -200h-54c7 54 -7 71 -69 71h-75l-52 -268h142c71 0 97 23 124 116h61l-33 -175h-509zM2 505l-70 4l45 200l112 -25z" />
    <glyph glyph-name="Etatonos" unicode="&#x389;" horiz-adv-x="727" 
d="M111 650l8 42h278l-8 -42c-60 -1 -77 -17 -88 -74l-36 -184h252l37 184c2 12 4 23 4 31c0 32 -17 42 -64 43l8 42h278l-8 -42c-60 -1 -77 -17 -88 -74l-90 -462c-11 -57 0 -72 59 -73l-7 -41h-278l7 41c60 1 78 16 89 73l41 215h-253l-41 -215c-2 -11 -4 -23 -4 -32
c0 -31 17 -40 63 -41l-7 -41h-278l7 41c60 1 78 16 89 73l90 462c11 57 -1 73 -60 74zM6 505l-70 4l45 200l112 -25z" />
    <glyph glyph-name="Iotatonos" unicode="&#x38a;" horiz-adv-x="344" 
d="M301 576l-90 -462c-2 -11 -4 -23 -4 -32c0 -31 17 -40 63 -41l-7 -41h-278l7 41c60 1 78 16 89 73l90 462c11 57 -1 73 -60 74l8 42h278l-8 -42c-60 -1 -77 -17 -88 -74zM2 505l-70 4l45 200l112 -25z" />
    <glyph glyph-name="Omicrontonos" unicode="&#x38c;" horiz-adv-x="689" 
d="M666 430c0 -197 -103 -444 -352 -444c-167 0 -258 109 -258 276c0 192 107 441 354 441c155 0 256 -95 256 -273zM528 470c0 114 -32 173 -119 173c-62 0 -101 -26 -132 -75c-61 -95 -84 -246 -84 -353c0 -117 37 -171 120 -171c59 0 98 24 131 75c59 92 84 249 84 351z
M57 505l-70 4l45 200l112 -25z" />
    <glyph glyph-name="Upsilontonos" unicode="&#x38e;" horiz-adv-x="610" 
d="M214 114l29 154l-90 310c-16 57 -34 67 -70 72l8 42h251l-7 -42c-42 -1 -56 -14 -56 -39c0 -9 2 -19 5 -31l61 -237h5l151 239c12 18 18 33 18 43c0 17 -18 24 -49 25l7 42h213l-8 -42c-42 -5 -60 -18 -96 -70l-211 -308l-31 -158c-11 -57 2 -72 67 -73l-8 -41h-292l8 41
c65 1 85 16 95 73zM-25 505l-70 4l45 200l112 -25z" />
    <glyph glyph-name="Omegatonos" unicode="&#x38f;" horiz-adv-x="732" 
d="M437 647c-166 0 -217 -199 -217 -350c0 -92 19 -170 79 -220l-16 -77h-274l18 159h51c2 -69 23 -75 94 -75h48c-68 50 -134 150 -134 265c0 197 148 354 356 354c165 0 262 -111 262 -262c0 -187 -136 -294 -250 -357h41c71 0 94 6 124 75h52l-44 -159h-274l15 77
c129 88 202 219 202 401c0 101 -38 169 -133 169zM70 505l-70 4l45 200l112 -25z" />
    <glyph glyph-name="iotadieresistonos" unicode="&#x390;" horiz-adv-x="284" 
d="M45 132l46 217c15 70 21 107 26 143l108 18h24l-79 -365c-6 -27 -9 -46 -9 -53c0 -23 11 -35 41 -35c11 0 22 1 36 3l4 -36c-32 -18 -74 -33 -119 -33c-58 0 -86 31 -86 83c0 17 3 35 8 58zM134 616c0 -38 -30 -68 -69 -68c-38 0 -68 30 -68 68s30 68 69 68
c38 0 68 -30 68 -68zM414 616c0 -38 -30 -68 -68 -68s-68 30 -68 68s30 68 68 68c39 0 68 -30 68 -68zM216 553l-66 4l35 205l107 -28z" />
    <glyph glyph-name="Alpha" unicode="&#x391;" horiz-adv-x="646" 
d="M409 104l-9 96h-219l-46 -93c-25 -50 -14 -64 45 -66l-7 -41h-219l8 41c47 6 67 15 98 75l298 576h110l74 -575c7 -54 18 -71 63 -76l-8 -41h-264l8 41c62 2 72 18 68 63zM316 469l-104 -207h181l-21 196c-5 46 -6 76 -6 93c0 7 1 13 1 19h-6c-1 -4 -13 -38 -45 -101z
" />
    <glyph glyph-name="Beta" unicode="&#x392;" horiz-adv-x="625" 
d="M264 385h63c49 0 80 6 107 31c29 26 45 68 45 123c0 72 -33 92 -110 92h-58zM333 326h-81l-52 -267h76c54 0 93 5 120 26c32 25 51 72 51 135c0 71 -29 106 -114 106zM111 650l8 42h289c143 0 205 -56 205 -153c0 -106 -72 -168 -175 -178v-4c91 -11 146 -67 146 -141
s-30 -133 -99 -176c-57 -36 -120 -40 -219 -40h-281l7 41c60 1 78 16 89 73l90 462c11 57 -1 73 -60 74z" />
    <glyph glyph-name="Gamma" unicode="&#x393;" horiz-adv-x="534" 
d="M422 631h-112l-100 -514c-2 -11 -4 -23 -4 -32c0 -33 20 -43 75 -44l-7 -41h-289l7 41c59 1 77 16 88 73l89 462c2 11 4 23 4 32c0 32 -17 41 -63 42l8 42h476l-19 -174h-62c-4 87 -17 113 -91 113z" />
    <glyph glyph-name="uni0394" unicode="&#x394;" horiz-adv-x="587" 
d="M527 0h-560l8 43l356 650h109l95 -650zM70 64h325l-49 398c-4 32 -6 58 -6 78c0 10 -1 21 0 32h-5c-3 -10 -25 -58 -54 -112z" />
    <glyph glyph-name="Epsilon" unicode="&#x395;" horiz-adv-x="582" 
d="M-15 0l7 41c60 1 78 16 89 73l90 462c11 57 -1 73 -60 74l8 42h486l-20 -160h-60c-7 76 -16 99 -81 99h-133l-47 -246h73c62 0 83 14 98 71h55l-40 -200h-54c7 54 -7 71 -69 71h-75l-52 -268h142c71 0 97 23 124 116h61l-33 -175h-509z" />
    <glyph glyph-name="Zeta" unicode="&#x396;" horiz-adv-x="563" 
d="M-16 0l10 56l452 578h-149c-67 0 -100 -35 -135 -113h-62l45 171h463l-10 -56l-451 -577h166c77 0 111 33 149 123h60l-48 -182h-490z" />
    <glyph glyph-name="Eta" unicode="&#x397;" horiz-adv-x="727" 
d="M111 650l8 42h278l-8 -42c-60 -1 -77 -17 -88 -74l-36 -184h252l37 184c2 12 4 23 4 31c0 32 -17 42 -64 43l8 42h278l-8 -42c-60 -1 -77 -17 -88 -74l-90 -462c-11 -57 0 -72 59 -73l-7 -41h-278l7 41c60 1 78 16 89 73l41 215h-253l-41 -215c-2 -11 -4 -23 -4 -32
c0 -31 17 -40 63 -41l-7 -41h-278l7 41c60 1 78 16 89 73l90 462c11 57 -1 73 -60 74z" />
    <glyph glyph-name="Theta" unicode="&#x398;" horiz-adv-x="706" 
d="M323 -14c-162 0 -267 101 -267 276c0 195 108 441 362 441c156 0 264 -95 264 -273c0 -197 -106 -444 -359 -444zM322 44c62 0 111 28 144 79c59 91 87 245 87 347c0 114 -48 173 -135 173c-65 0 -117 -29 -149 -79c-59 -90 -84 -239 -84 -344c0 -123 53 -176 137 -176z
M229 272l31 162h43c-2 -10 -2 -15 -2 -17c0 -27 12 -34 58 -34h32c55 0 66 10 78 51h43l-31 -162h-43v15c0 28 -11 36 -58 36h-32c-55 0 -65 -11 -77 -51h-42z" />
    <glyph glyph-name="Iota" unicode="&#x399;" horiz-adv-x="344" 
d="M301 576l-90 -462c-2 -11 -4 -23 -4 -32c0 -31 17 -40 63 -41l-7 -41h-278l7 41c60 1 78 16 89 73l90 462c11 57 -1 73 -60 74l8 42h278l-8 -42c-60 -1 -77 -17 -88 -74z" />
    <glyph glyph-name="Kappa" unicode="&#x39a;" horiz-adv-x="645" 
d="M556 559l-165 -165l139 -304c17 -36 38 -46 84 -49l-7 -41h-181l-152 355l218 227c17 17 26 32 26 44c0 15 -15 24 -43 25l7 41h219l-8 -41c-46 -6 -75 -30 -137 -92zM301 576l-90 -462c-2 -11 -4 -23 -4 -32c0 -31 17 -40 63 -41l-7 -41h-278l7 41c60 1 78 16 89 73
l90 462c11 57 -1 73 -60 74l8 42h278l-8 -42c-60 -1 -77 -17 -88 -74z" />
    <glyph glyph-name="Lambda" unicode="&#x39b;" horiz-adv-x="636" 
d="M-46 0l8 41c47 6 67 15 98 75l293 576h111l67 -574c6 -53 19 -72 64 -77l-9 -41h-262l8 41c44 2 70 11 70 47c0 3 -1 13 -2 22l-32 349c-3 28 -5 66 -5 78v31h-6c-2 -9 -14 -40 -44 -101l-180 -362c-9 -17 -13 -30 -13 -39c0 -19 21 -24 60 -25l-8 -41h-218z" />
    <glyph glyph-name="Mu" unicode="&#x39c;" horiz-adv-x="863" 
d="M901 692l-8 -41c-71 -4 -84 -23 -91 -76l-59 -456c-7 -58 -1 -76 56 -78l-7 -41h-269l7 41c64 2 76 15 84 71l47 339c6 46 16 99 22 128h-6c-10 -27 -29 -78 -52 -123l-233 -456h-76l-44 437c-4 36 -5 98 -5 125v17h-6c-4 -21 -14 -86 -28 -137l-88 -329
c-4 -15 -7 -28 -7 -38c0 -25 17 -33 63 -34l-7 -41h-218l7 41c58 2 72 18 88 78l123 456c15 56 7 72 -61 76l7 41h230l37 -392c3 -30 6 -76 6 -100c0 -18 -1 -33 -1 -39h6c5 18 21 73 49 131l198 400h236z" />
    <glyph glyph-name="Nu" unicode="&#x39d;" horiz-adv-x="685" 
d="M543 0h-83l-171 396c-38 89 -47 146 -50 168h-6c-2 -25 -7 -87 -24 -176l-52 -274c-2 -11 -4 -23 -4 -32c0 -31 17 -40 63 -41l-7 -41h-224l7 41c60 1 78 16 89 73l90 462c11 57 -1 73 -60 74l8 42h189l159 -374c28 -66 35 -116 38 -142h6c2 25 10 102 25 181l43 219
c2 8 4 23 4 32c0 31 -17 41 -63 42l8 42h218l-8 -42c-56 -1 -72 -17 -83 -74z" />
    <glyph glyph-name="Xi" unicode="&#x39e;" horiz-adv-x="579" 
d="M118 260l38 189h54c-1 -8 -1 -10 -1 -12c0 -41 16 -51 73 -51h68c62 0 80 12 96 63h55l-38 -189h-55c1 7 1 8 1 11c0 39 -15 52 -72 52h-69c-62 0 -80 -16 -96 -63h-54zM-10 0l27 181h62c0 -78 10 -87 81 -87h198c65 0 89 14 114 87h62l-42 -181h-502zM93 515l43 177h477
l-24 -177h-59c-5 73 -19 87 -84 87h-177c-65 0 -84 -14 -117 -87h-59z" />
    <glyph glyph-name="Omicron" unicode="&#x39f;" horiz-adv-x="689" 
d="M666 430c0 -197 -103 -444 -352 -444c-167 0 -258 109 -258 276c0 192 107 441 354 441c155 0 256 -95 256 -273zM528 470c0 114 -32 173 -119 173c-62 0 -101 -26 -132 -75c-61 -95 -84 -246 -84 -353c0 -117 37 -171 120 -171c59 0 98 24 131 75c59 92 84 249 84 351z
" />
    <glyph glyph-name="Pi" unicode="&#x3a0;" horiz-adv-x="716" 
d="M310 631l-100 -517c-3 -16 -4 -25 -4 -34c0 -29 15 -39 60 -39l-7 -41h-274l7 41c59 1 77 16 88 73l89 462c3 14 4 23 4 32c0 32 -17 41 -63 42l8 42h651l-7 -42c-60 -1 -78 -17 -89 -74l-90 -462c-3 -13 -4 -23 -4 -31c0 -32 17 -42 64 -42l-7 -41h-275l7 41
c60 1 74 16 85 73l100 517h-243z" />
    <glyph glyph-name="Rho" unicode="&#x3a1;" horiz-adv-x="591" 
d="M211 116c-2 -10 -4 -22 -4 -31c0 -33 20 -43 75 -44l-7 -41h-290l7 41c60 1 78 16 89 73l90 462c11 57 -1 73 -60 74l8 42h258c162 0 236 -51 236 -177c0 -98 -49 -174 -131 -212c-46 -21 -101 -27 -163 -27h-77zM479 517c0 76 -25 114 -110 114h-58l-57 -293h60
c42 0 76 4 105 28c35 27 60 80 60 151z" />
    <glyph glyph-name="Sigma" unicode="&#x3a3;" horiz-adv-x="561" 
d="M390 368l-266 -268h198c76 0 102 24 135 95h61l-55 -195h-487l11 59l275 284l-159 292l10 57h478l-18 -161h-61c-5 78 -22 103 -93 103h-171z" />
    <glyph glyph-name="Tau" unicode="&#x3a4;" horiz-adv-x="594" 
d="M116 692h534l-30 -172h-61c-1 79 -1 111 -64 111h-58l-101 -517c-3 -15 -3 -22 -3 -30c0 -32 18 -42 70 -43l-8 -41h-292l8 41c65 1 84 16 95 73l100 517h-55c-66 0 -81 -28 -111 -111h-63z" />
    <glyph glyph-name="Upsilon" unicode="&#x3a5;" horiz-adv-x="610" 
d="M214 114l29 154l-90 310c-16 57 -34 67 -70 72l8 42h251l-7 -42c-42 -1 -56 -14 -56 -39c0 -9 2 -19 5 -31l61 -237h5l151 239c12 18 18 33 18 43c0 17 -18 24 -49 25l7 42h213l-8 -42c-42 -5 -60 -18 -96 -70l-211 -308l-31 -158c-11 -57 2 -72 67 -73l-8 -41h-292l8 41
c65 1 85 16 95 73z" />
    <glyph glyph-name="Phi" unicode="&#x3a6;" horiz-adv-x="805" 
d="M216 0l7 41c53 1 73 13 85 57c-183 1 -275 65 -275 192c0 200 140 305 371 307c5 39 -9 53 -62 53l8 42h274l-8 -42c-53 -1 -72 -13 -84 -53c182 -1 275 -64 275 -190c0 -204 -141 -308 -372 -309c-6 -41 9 -57 62 -57l-7 -41h-274zM318 152l76 390
c-83 -1 -125 -19 -159 -53c-44 -45 -70 -138 -70 -212c0 -89 47 -123 153 -125zM445 152c81 1 123 17 157 50c47 44 72 141 72 216c0 88 -46 122 -153 124z" />
    <glyph glyph-name="Chi" unicode="&#x3a7;" horiz-adv-x="640" 
d="M566 579l-167 -204l110 -266c20 -49 38 -63 76 -68l-7 -41h-266l7 41c42 1 59 14 59 38c0 9 -3 21 -7 31l-69 178h-5l-133 -176c-15 -20 -22 -34 -22 -46c0 -17 19 -24 49 -25l-7 -41h-215l7 41c40 5 64 20 111 80l185 232l-95 230c-21 52 -37 62 -73 67l8 42h260l-7 -42
c-43 -1 -59 -14 -59 -35c0 -10 2 -20 7 -32l56 -146h5l109 144c15 19 22 34 22 45c0 15 -14 23 -44 24l8 42h210l-8 -42c-40 -5 -64 -20 -105 -71z" />
    <glyph glyph-name="Psi" unicode="&#x3a8;" horiz-adv-x="758" 
d="M106 456c0 29 5 60 5 94c0 51 -11 66 -44 77l25 74c98 -8 136 -38 136 -133c0 -38 -7 -75 -7 -119c0 -90 31 -120 102 -127l50 254c2 11 4 26 4 34c0 30 -16 39 -60 40l7 42h270l-7 -42c-60 -1 -75 -17 -86 -74l-50 -254c90 6 132 47 172 185c44 151 74 185 203 193
l12 -79c-51 -14 -64 -29 -94 -124c-27 -87 -50 -143 -93 -177c-52 -42 -123 -57 -212 -59l-28 -147c-3 -12 -4 -23 -4 -31c0 -32 18 -42 64 -42l-7 -41h-275l7 41c60 1 76 16 87 73l29 147c-74 4 -132 22 -167 62c-25 29 -39 69 -39 133z" />
    <glyph glyph-name="uni03A9" unicode="&#x3a9;" horiz-adv-x="732" 
d="M437 647c-166 0 -217 -199 -217 -350c0 -92 19 -170 79 -220l-16 -77h-274l18 159h51c2 -69 23 -75 94 -75h48c-68 50 -134 150 -134 265c0 197 148 354 356 354c165 0 262 -111 262 -262c0 -187 -136 -294 -250 -357h41c71 0 94 6 124 75h52l-44 -159h-274l15 77
c129 88 202 219 202 401c0 101 -38 169 -133 169z" />
    <glyph glyph-name="Iotadieresis" unicode="&#x3aa;" horiz-adv-x="344" 
d="M301 576l-90 -462c-2 -11 -4 -23 -4 -32c0 -31 17 -40 63 -41l-7 -41h-278l7 41c60 1 78 16 89 73l90 462c11 57 -1 73 -60 74l8 42h278l-8 -42c-60 -1 -77 -17 -88 -74zM238 803c0 -39 -31 -71 -72 -71c-40 0 -72 32 -72 71c0 40 32 72 73 72c40 0 71 -32 71 -72z
M455 803c0 -39 -32 -71 -72 -71s-72 32 -72 71c0 40 32 72 72 72c41 0 72 -32 72 -72z" />
    <glyph glyph-name="Upsilondieresis" unicode="&#x3ab;" horiz-adv-x="610" 
d="M214 114l29 154l-90 310c-16 57 -34 67 -70 72l8 42h251l-7 -42c-42 -1 -56 -14 -56 -39c0 -9 2 -19 5 -31l61 -237h5l151 239c12 18 18 33 18 43c0 17 -18 24 -49 25l7 42h213l-8 -42c-42 -5 -60 -18 -96 -70l-211 -308l-31 -158c-11 -57 2 -72 67 -73l-8 -41h-292l8 41
c65 1 85 16 95 73zM385 803c0 -39 -31 -71 -72 -71c-40 0 -72 32 -72 71c0 40 32 72 73 72c40 0 71 -32 71 -72zM602 803c0 -39 -32 -71 -72 -71s-72 32 -72 71c0 40 32 72 72 72c41 0 72 -32 72 -72z" />
    <glyph glyph-name="alphatonos" unicode="&#x3ac;" horiz-adv-x="558" 
d="M350 550l-70 4l47 199l112 -24zM547 465c-35 -69 -72 -139 -111 -202c4 -140 14 -206 68 -206c5 0 20 1 32 3l3 -37c-30 -18 -68 -32 -106 -32c-56 0 -88 33 -91 136h-4c-71 -100 -120 -140 -186 -140c-86 0 -124 60 -124 143c0 203 120 385 280 385
c73 0 111 -40 119 -148h4c26 51 38 87 53 145l60 -13zM194 68c30 0 72 38 143 154v58c0 126 -8 177 -44 177c-71 0 -139 -164 -139 -315c0 -54 14 -74 40 -74z" />
    <glyph glyph-name="epsilontonos" unicode="&#x3ad;" horiz-adv-x="470" 
d="M323 550l-70 4l47 199l112 -24zM227 59c69 0 119 21 174 61l28 -36c-63 -63 -132 -96 -235 -96c-111 0 -189 43 -189 129c0 89 59 137 161 147l1 5c-66 12 -92 51 -92 89c0 100 91 156 221 156c66 0 131 -15 173 -46l-20 -93h-87c1 4 2 14 2 18c0 39 -16 66 -64 66
c-70 0 -103 -53 -103 -117c0 -33 21 -54 72 -54h56l-12 -56h-55c-78 0 -121 -41 -121 -107c0 -45 36 -66 90 -66z" />
    <glyph glyph-name="etatonos" unicode="&#x3ae;" horiz-adv-x="567" 
d="M379 550l-70 4l47 199l112 -24zM74 182l37 178c3 15 4 26 4 35c0 33 -19 47 -72 47l8 35c31 16 71 29 113 29c43 0 70 -27 70 -88c0 -11 -1 -29 -5 -47c49 78 117 143 198 143c66 0 94 -42 94 -97c0 -14 -2 -28 -5 -44l-54 -242c-3 -14 -6 -30 -6 -41
c0 -24 11 -33 42 -33c10 0 22 1 35 3l3 -37c-45 -22 -83 -32 -118 -32c-59 0 -84 30 -84 82c0 17 3 41 7 59l50 223c2 9 4 23 4 31c0 20 -10 32 -32 32c-50 0 -108 -71 -147 -134c-21 -101 -53 -250 -64 -284h-125v24c15 27 31 82 47 158z" />
    <glyph glyph-name="iotatonos" unicode="&#x3af;" horiz-adv-x="284" 
d="M217 550l-70 4l47 199l112 -24zM45 132l46 217c15 70 21 107 26 143l108 18h24l-79 -365c-6 -27 -9 -46 -9 -53c0 -23 11 -35 41 -35c11 0 22 1 36 3l4 -36c-32 -18 -74 -33 -119 -33c-58 0 -86 31 -86 83c0 17 3 35 8 58z" />
    <glyph glyph-name="upsilondieresistonos" unicode="&#x3b0;" horiz-adv-x="561" 
d="M232 616c0 -38 -30 -68 -69 -68c-38 0 -68 30 -68 68s30 68 69 68c38 0 68 -30 68 -68zM512 616c0 -38 -30 -68 -68 -68s-68 30 -68 68s30 68 68 68c39 0 68 -30 68 -68zM314 553l-66 4l35 205l107 -28zM229 364l-49 -224c-4 -20 -6 -40 -6 -51c0 -29 10 -46 36 -46
c130 0 186 218 186 335c0 42 -6 75 -12 94l5 24l104 17c12 -20 32 -72 32 -139c0 -205 -114 -388 -338 -388c-79 0 -133 38 -133 109c0 15 2 33 6 52l44 208c3 13 5 28 5 38c0 33 -17 48 -71 49l7 35c31 16 73 30 112 30c52 0 79 -31 79 -83c0 -12 -3 -42 -7 -60z" />
    <glyph glyph-name="alpha" unicode="&#x3b1;" horiz-adv-x="558" 
d="M547 465c-35 -69 -72 -139 -111 -202c4 -140 14 -206 68 -206c5 0 20 1 32 3l3 -37c-30 -18 -68 -32 -106 -32c-56 0 -88 33 -91 136h-4c-71 -100 -120 -140 -186 -140c-86 0 -124 60 -124 143c0 203 120 385 280 385c73 0 111 -40 119 -148h4c26 51 38 87 53 145l60 -13
zM194 68c30 0 72 38 143 154v58c0 126 -8 177 -44 177c-71 0 -139 -164 -139 -315c0 -54 14 -74 40 -74z" />
    <glyph glyph-name="beta" unicode="&#x3b2;" horiz-adv-x="542" 
d="M269 -13c-51 0 -96 15 -129 43c0 -11 -22 -121 -27 -144l-14 -64l-133 -24v27c22 53 39 114 54 183l110 521c30 143 103 206 229 206c112 0 175 -61 175 -146c0 -92 -58 -174 -161 -197v-4c71 -10 130 -67 130 -150c0 -138 -77 -251 -234 -251zM249 524l-95 -444
c28 -29 64 -38 93 -38c102 0 129 125 129 210c0 77 -41 112 -110 112h-14l20 54h21c90 0 118 102 118 192c0 45 -17 72 -53 72c-55 0 -83 -35 -109 -158z" />
    <glyph glyph-name="gamma" unicode="&#x3b3;" horiz-adv-x="490" 
d="M106 290c-21 140 -32 153 -90 153l7 36c27 13 65 27 107 27c56 0 79 -38 93 -171c6 -56 10 -120 10 -158c0 -54 -2 -88 -14 -128h5l61 104c87 149 107 221 107 355l107 -15l2 -40c-45 -153 -161 -335 -247 -454c-78 -110 -159 -190 -275 -215l-14 73v22
c132 14 172 58 172 120c0 69 -3 103 -31 291z" />
    <glyph glyph-name="delta" unicode="&#x3b4;" horiz-adv-x="535" 
d="M170 564c0 111 90 173 194 173c101 0 159 -40 159 -103c0 -24 -6 -45 -15 -67l-50 -15c-11 67 -35 113 -121 113c-39 0 -85 -18 -85 -58c0 -37 37 -63 105 -106c70 -44 143 -101 143 -206c0 -155 -95 -307 -275 -307c-127 0 -192 69 -192 171c0 143 74 241 193 302
c-36 30 -56 64 -56 103zM160 131c0 -51 17 -88 66 -88c36 0 65 20 86 51c36 53 56 138 56 188c0 70 -30 101 -90 142c-84 -67 -118 -184 -118 -293z" />
    <glyph glyph-name="epsilon" unicode="&#x3b5;" horiz-adv-x="470" 
d="M227 59c69 0 119 21 174 61l28 -36c-63 -63 -132 -96 -235 -96c-111 0 -189 43 -189 129c0 89 59 137 161 147l1 5c-66 12 -92 51 -92 89c0 100 91 156 221 156c66 0 131 -15 173 -46l-20 -93h-87c1 4 2 14 2 18c0 39 -16 66 -64 66c-70 0 -103 -53 -103 -117
c0 -33 21 -54 72 -54h56l-12 -56h-55c-78 0 -121 -41 -121 -107c0 -45 36 -66 90 -66z" />
    <glyph glyph-name="zeta" unicode="&#x3b6;" horiz-adv-x="406" 
d="M261 574c-37 22 -61 65 -61 109c0 12 2 25 5 38l48 18c11 -57 38 -91 93 -100l139 86l52 -13l-3 -22c-32 -76 -114 -132 -199 -133c-90 -80 -170 -236 -170 -359c0 -60 32 -83 109 -111c66 -25 102 -46 102 -95c0 -81 -76 -145 -140 -198l-63 40c26 28 73 73 73 114
c0 24 -18 35 -58 47c-105 32 -154 94 -154 184c0 148 105 294 227 395z" />
    <glyph glyph-name="eta" unicode="&#x3b7;" horiz-adv-x="567" 
d="M74 182l37 178c3 15 4 26 4 35c0 33 -19 47 -72 47l8 35c31 16 71 29 113 29c43 0 70 -27 70 -88c0 -11 -1 -29 -5 -47c49 78 117 143 198 143c66 0 94 -42 94 -97c0 -14 -2 -28 -5 -44l-54 -242c-3 -14 -6 -30 -6 -41c0 -24 11 -33 42 -33c10 0 22 1 35 3l3 -37
c-45 -22 -83 -32 -118 -32c-59 0 -84 30 -84 82c0 17 3 41 7 59l50 223c2 9 4 23 4 31c0 20 -10 32 -32 32c-50 0 -108 -71 -147 -134c-21 -101 -53 -250 -64 -284h-125v24c15 27 31 82 47 158z" />
    <glyph glyph-name="theta" unicode="&#x3b8;" horiz-adv-x="528" 
d="M528 518c0 -230 -108 -531 -307 -531c-113 0 -179 86 -179 224c0 232 109 524 310 524c108 0 176 -76 176 -217zM223 42c43 0 78 43 108 114c20 45 38 112 52 181h-206c-13 -70 -20 -139 -20 -184c0 -74 22 -111 66 -111zM350 679c-40 0 -74 -35 -103 -99
c-22 -46 -43 -112 -58 -184h205c12 67 19 131 19 175c0 74 -20 108 -63 108z" />
    <glyph glyph-name="iota" unicode="&#x3b9;" horiz-adv-x="284" 
d="M45 132l46 217c15 70 21 107 26 143l108 18h24l-79 -365c-6 -27 -9 -46 -9 -53c0 -23 11 -35 41 -35c11 0 22 1 36 3l4 -36c-32 -18 -74 -33 -119 -33c-58 0 -86 31 -86 83c0 17 3 35 8 58z" />
    <glyph glyph-name="kappa" unicode="&#x3ba;" horiz-adv-x="528" 
d="M390 366c-15 -15 -38 -39 -52 -55l61 -175c16 -46 28 -56 79 -65l-22 -80c-145 0 -162 51 -185 136l-25 91c-11 -12 -35 -35 -49 -48c-19 -85 -31 -132 -41 -170h-129v19c16 25 34 79 55 176l35 165c3 14 4 25 4 35c0 33 -20 47 -72 47l8 35c30 16 71 29 114 29
c45 0 74 -29 74 -90c0 -14 -3 -38 -7 -57l-21 -99c48 50 96 101 138 154c58 73 79 97 180 100v-98l-47 -5c-53 -6 -70 -16 -98 -45z" />
    <glyph glyph-name="lambda" unicode="&#x3bb;" horiz-adv-x="502" 
d="M376 633l40 -480c7 -82 16 -95 44 -95c12 0 21 1 35 4l3 -42c-29 -20 -61 -30 -92 -30c-83 0 -106 50 -112 164l-16 291h-3l-214 -455h-31l-62 20c25 24 44 53 85 134l186 371l29 -4l-9 87c-6 59 -35 67 -100 67l7 42c31 17 61 26 99 26c44 0 103 -7 111 -100z" />
    <glyph glyph-name="uni03BC" unicode="&#x3bc;" horiz-adv-x="572" 
d="M-18 -202v27c23 53 38 114 54 183l77 347c3 15 5 29 5 39c0 35 -19 48 -71 48l8 35c29 15 70 29 113 29c47 0 76 -27 76 -84c0 -13 -3 -34 -8 -55l-49 -220c-4 -17 -6 -27 -6 -37c0 -24 12 -35 34 -35c51 0 109 73 145 134l62 292h119l-77 -368c-4 -18 -5 -29 -5 -38
c0 -26 14 -37 47 -37c7 0 18 1 29 2l3 -37c-39 -21 -77 -32 -117 -32c-54 0 -77 30 -79 81c0 12 1 27 4 41c-41 -76 -97 -127 -154 -127c-30 0 -47 11 -55 32l-4 -2c4 -13 6 -28 6 -47c0 -18 -3 -38 -8 -61l-19 -86z" />
    <glyph glyph-name="nu" unicode="&#x3bd;" horiz-adv-x="478" 
d="M123 0c-1 52 -4 94 -23 235l-16 121c-10 73 -24 87 -80 87l8 36c26 13 64 27 105 27c56 0 71 -35 82 -132l15 -132c4 -32 9 -81 9 -147h5l50 76c94 140 101 214 102 337l105 -15l2 -40c-45 -153 -145 -312 -255 -453h-109z" />
    <glyph glyph-name="xi" unicode="&#x3be;" horiz-adv-x="436" 
d="M254 584c-33 17 -52 52 -52 93c0 14 3 29 7 44l48 18c10 -56 32 -85 85 -96l148 82l54 -13l-4 -22c-41 -86 -108 -121 -217 -123c-40 -29 -73 -63 -73 -115c0 -50 40 -76 123 -76h33l-13 -60h-30c-88 -1 -210 -34 -210 -145c0 -49 45 -63 142 -83c71 -14 103 -45 103 -92
c0 -86 -76 -151 -138 -202l-64 40c26 28 73 79 73 116c0 23 -16 37 -63 45c-116 20 -187 59 -187 140c0 115 106 187 220 210v5c-74 8 -105 43 -105 85c0 70 60 116 120 149z" />
    <glyph glyph-name="omicron" unicode="&#x3bf;" horiz-adv-x="537" 
d="M507 312c0 -170 -100 -326 -277 -326c-121 0 -197 80 -197 199c0 175 111 329 275 329c123 0 199 -77 199 -202zM381 346c0 73 -23 111 -77 111c-37 0 -67 -21 -91 -65c-32 -60 -55 -156 -55 -245c0 -65 22 -105 76 -105c32 0 60 12 89 58c34 54 58 152 58 246z" />
    <glyph glyph-name="pi" unicode="&#x3c0;" horiz-adv-x="610" 
d="M361 193l43 208h-140l-6 -25c-32 -137 -64 -276 -119 -376h-122l13 65c62 46 111 115 170 336c-51 -2 -80 -18 -114 -52l-25 26c42 90 95 132 209 132h228c62 0 95 3 147 23l-39 -108c-24 -13 -52 -18 -88 -21l-43 -210c-8 -36 -12 -64 -12 -86c0 -38 13 -59 48 -77
l-21 -41c-78 14 -136 47 -136 142c0 19 2 40 7 64z" />
    <glyph glyph-name="rho" unicode="&#x3c1;" horiz-adv-x="553" 
d="M234 44c38 0 70 19 95 56c46 68 67 190 67 261c0 64 -23 95 -73 95c-78 0 -114 -65 -136 -167l-40 -191c15 -30 49 -54 87 -54zM105 -102l-16 -76l-133 -24v27c22 53 38 114 53 183l57 270c31 148 110 236 265 236c115 0 192 -69 192 -184c0 -155 -83 -342 -267 -342
c-59 0 -107 25 -128 58l-3 -1c-2 -43 -9 -97 -20 -147z" />
    <glyph glyph-name="sigma1" unicode="&#x3c2;" horiz-adv-x="461" 
d="M274 84c67 -24 102 -47 102 -94c0 -79 -78 -147 -139 -196l-64 40c30 31 73 76 73 115c0 22 -11 32 -57 46c-99 31 -158 96 -158 192c0 172 106 327 287 327c79 0 120 -20 153 -43l-22 -101h-91c1 13 1 21 1 26c-1 38 -16 63 -52 63s-66 -18 -92 -56
c-36 -54 -54 -133 -54 -192c0 -64 28 -96 113 -127z" />
    <glyph glyph-name="sigma" unicode="&#x3c3;" horiz-adv-x="559" 
d="M499 306c0 -167 -95 -320 -273 -320c-121 0 -193 80 -193 199c0 175 107 329 271 329c58 0 100 -12 171 -12c35 0 63 3 103 19l3 -62l-4 -25c-25 -12 -38 -15 -66 -15c-25 0 -51 12 -65 19l-3 -5c37 -28 56 -77 56 -127zM373 346c0 73 -18 111 -73 111
c-37 0 -63 -21 -87 -65c-32 -60 -55 -156 -55 -245c0 -65 18 -105 72 -105c33 0 59 14 82 54c37 55 61 156 61 250z" />
    <glyph glyph-name="tau" unicode="&#x3c4;" horiz-adv-x="491" 
d="M150 133c2 13 35 144 39 162c7 29 20 74 30 103h-53c-57 0 -85 -17 -124 -52l-27 25c45 88 97 130 206 130h169c48 0 75 3 111 13h25l-33 -98c-21 -9 -53 -18 -95 -18h-72l-53 -257c-3 -13 -8 -39 -8 -49c0 -23 11 -35 41 -35c11 0 22 1 37 3l4 -36
c-31 -18 -74 -33 -119 -33c-58 0 -85 31 -85 83c0 17 3 36 7 59z" />
    <glyph glyph-name="upsilon" unicode="&#x3c5;" horiz-adv-x="561" 
d="M229 364l-49 -224c-4 -20 -6 -40 -6 -51c0 -29 10 -46 36 -46c130 0 186 218 186 335c0 42 -6 75 -12 94l5 24l104 17c12 -20 32 -72 32 -139c0 -205 -114 -388 -338 -388c-79 0 -133 38 -133 109c0 15 2 33 6 52l44 208c3 13 5 28 5 38c0 33 -17 48 -71 49l7 35
c31 16 73 30 112 30c52 0 79 -31 79 -83c0 -12 -3 -42 -7 -60z" />
    <glyph glyph-name="phi" unicode="&#x3c6;" horiz-adv-x="733" 
d="M704 349c0 -177 -94 -355 -345 -356l-37 -177l-128 -18v27c20 50 35 105 49 168c-122 8 -210 68 -210 178c0 140 76 254 189 339l92 -13c-95 -86 -158 -196 -158 -321c0 -74 35 -122 99 -128l54 257c25 119 73 209 217 209c109 0 178 -64 178 -165zM427 306l-55 -258
c58 2 105 26 138 69c51 66 69 176 69 255c0 57 -23 84 -57 84c-47 0 -70 -32 -95 -150z" />
    <glyph glyph-name="chi" unicode="&#x3c7;" horiz-adv-x="499" 
d="M78 112l120 143l-40 132c-10 33 -22 46 -44 52c-10 3 -26 4 -45 4l7 36c29 16 60 28 98 28c54 0 80 -20 99 -91l22 -83h4l136 177h31l65 -23c-32 -22 -58 -48 -104 -100l-105 -121l49 -152c13 -40 27 -56 58 -56c7 0 20 3 28 4l4 -37c-27 -21 -58 -35 -97 -35
c-74 0 -92 39 -113 110l-25 89h-4l-155 -200h-31l-64 21c34 24 66 54 106 102z" />
    <glyph glyph-name="psi" unicode="&#x3c8;" horiz-adv-x="749" 
d="M218 -202v27c20 49 35 103 50 168c-120 4 -201 57 -201 160c0 15 2 33 6 51l31 151c3 14 5 29 5 38c0 33 -17 48 -71 49l7 35c31 16 72 30 112 30c54 0 79 -31 79 -83c0 -14 -2 -35 -6 -54c-7 -33 -31 -139 -37 -172c-5 -21 -8 -40 -8 -57c0 -55 27 -88 95 -92l106 502
c15 72 24 116 31 164l97 17h27l-146 -683c135 16 193 183 193 327c0 43 -7 76 -13 96l6 24l100 17c12 -20 35 -72 35 -139c0 -197 -99 -378 -333 -381l-38 -177z" />
    <glyph glyph-name="omega" unicode="&#x3c9;" horiz-adv-x="755" 
d="M464 380l-49 -231c-6 -27 -9 -49 -9 -61c0 -30 11 -45 34 -45c37 0 69 25 93 67c42 73 61 178 61 249c0 52 -10 90 -17 112l5 24l101 18c12 -21 39 -85 39 -158c0 -172 -98 -369 -290 -369c-68 0 -106 36 -113 77c-32 -51 -78 -77 -139 -77c-86 0 -150 54 -150 159
c0 151 74 276 194 365l94 -13c-117 -105 -166 -239 -166 -372c0 -49 14 -79 51 -79c69 0 92 86 114 190c7 34 16 84 22 129l100 15h25z" />
    <glyph glyph-name="iotadieresis" unicode="&#x3ca;" horiz-adv-x="284" 
d="M170 643c0 -40 -31 -71 -72 -71c-40 0 -72 31 -72 71s32 71 73 71c40 0 71 -31 71 -71zM387 643c0 -40 -32 -71 -72 -71s-72 31 -72 71s32 71 73 71c40 0 71 -31 71 -71zM45 132l46 217c15 70 21 107 26 143l108 18h24l-79 -365c-6 -27 -9 -46 -9 -53
c0 -23 11 -35 41 -35c11 0 22 1 36 3l4 -36c-32 -18 -74 -33 -119 -33c-58 0 -86 31 -86 83c0 17 3 35 8 58z" />
    <glyph glyph-name="upsilondieresis" unicode="&#x3cb;" horiz-adv-x="561" 
d="M272 643c0 -40 -31 -71 -72 -71c-40 0 -72 31 -72 71s32 71 73 71c40 0 71 -31 71 -71zM489 643c0 -40 -32 -71 -72 -71s-72 31 -72 71s32 71 73 71c40 0 71 -31 71 -71zM229 364l-49 -224c-4 -20 -6 -40 -6 -51c0 -29 10 -46 36 -46c130 0 186 218 186 335
c0 42 -6 75 -12 94l5 24l104 17c12 -20 32 -72 32 -139c0 -205 -114 -388 -338 -388c-79 0 -133 38 -133 109c0 15 2 33 6 52l44 208c3 13 5 28 5 38c0 33 -17 48 -71 49l7 35c31 16 73 30 112 30c52 0 79 -31 79 -83c0 -12 -3 -42 -7 -60z" />
    <glyph glyph-name="omicrontonos" unicode="&#x3cc;" horiz-adv-x="537" 
d="M353 550l-70 4l47 199l112 -24zM507 312c0 -170 -100 -326 -277 -326c-121 0 -197 80 -197 199c0 175 111 329 275 329c123 0 199 -77 199 -202zM381 346c0 73 -23 111 -77 111c-37 0 -67 -21 -91 -65c-32 -60 -55 -156 -55 -245c0 -65 22 -105 76 -105c32 0 60 12 89 58
c34 54 58 152 58 246z" />
    <glyph glyph-name="upsilontonos" unicode="&#x3cd;" horiz-adv-x="561" 
d="M340 550l-70 4l47 199l112 -24zM229 364l-49 -224c-4 -20 -6 -40 -6 -51c0 -29 10 -46 36 -46c130 0 186 218 186 335c0 42 -6 75 -12 94l5 24l104 17c12 -20 32 -72 32 -139c0 -205 -114 -388 -338 -388c-79 0 -133 38 -133 109c0 15 2 33 6 52l44 208c3 13 5 28 5 38
c0 33 -17 48 -71 49l7 35c31 16 73 30 112 30c52 0 79 -31 79 -83c0 -12 -3 -42 -7 -60z" />
    <glyph glyph-name="omegatonos" unicode="&#x3ce;" horiz-adv-x="755" 
d="M473 550l-70 4l47 199l112 -24zM464 380l-49 -231c-6 -27 -9 -49 -9 -61c0 -30 11 -45 34 -45c37 0 69 25 93 67c42 73 61 178 61 249c0 52 -10 90 -17 112l5 24l101 18c12 -21 39 -85 39 -158c0 -172 -98 -369 -290 -369c-68 0 -106 36 -113 77
c-32 -51 -78 -77 -139 -77c-86 0 -150 54 -150 159c0 151 74 276 194 365l94 -13c-117 -105 -166 -239 -166 -372c0 -49 14 -79 51 -79c69 0 92 86 114 190c7 34 16 84 22 129l100 15h25z" />
    <glyph glyph-name="uni03D0" unicode="&#x3d0;" horiz-adv-x="543" 
d="M540 601c0 -111 -66 -170 -150 -206c76 -27 114 -73 114 -141c0 -151 -103 -267 -269 -267c-112 0 -192 66 -192 207c0 39 5 83 16 135c68 320 176 408 307 408c103 0 174 -54 174 -136zM378 260c0 47 -19 86 -62 112c-23 -6 -47 -12 -71 -16l3 55c111 20 170 80 170 205
c0 43 -15 68 -56 68c-66 0 -114 -68 -174 -347c-17 -79 -25 -138 -25 -183c0 -78 24 -112 71 -112c100 0 144 123 144 218z" />
    <glyph glyph-name="theta1" unicode="&#x3d1;" horiz-adv-x="547" 
d="M223 42c67 0 119 74 165 275c-178 33 -265 92 -265 193c0 129 88 227 235 227c97 0 187 -43 187 -199c0 -51 -9 -120 -26 -200c-51 -237 -137 -351 -296 -351c-126 0 -193 57 -193 141c0 43 17 85 17 131c0 20 -3 33 -8 49l84 32c25 -21 42 -46 42 -88
c0 -44 -18 -87 -18 -134c0 -54 27 -76 76 -76zM247 509c0 -68 42 -113 153 -136c19 92 28 170 28 213c0 79 -28 98 -70 98c-76 0 -111 -98 -111 -175z" />
    <glyph glyph-name="Upsilon1" unicode="&#x3d2;" horiz-adv-x="643" 
d="M388 236l-24 -125c-2 -10 -4 -22 -4 -31c0 -31 18 -39 67 -39l-7 -41h-285l7 41c63 1 80 13 91 70l27 141c5 28 9 60 9 87c0 133 -67 242 -198 274l23 88c226 -6 268 -171 266 -342h4c62 188 159 342 343 342l7 -70c-156 -19 -286 -196 -326 -395z" />
    <glyph glyph-name="uni03D3" unicode="&#x3d3;" horiz-adv-x="643" 
d="M388 236l-24 -125c-2 -10 -4 -22 -4 -31c0 -31 18 -39 67 -39l-7 -41h-285l7 41c63 1 80 13 91 70l27 141c5 28 9 60 9 87c0 133 -67 242 -198 274l23 88c226 -6 268 -171 266 -342h4c62 188 159 342 343 342l7 -70c-156 -19 -286 -196 -326 -395zM-26 505l-70 4l45 200
l112 -25z" />
    <glyph glyph-name="uni03D4" unicode="&#x3d4;" horiz-adv-x="643" 
d="M388 236l-24 -125c-2 -10 -4 -22 -4 -31c0 -31 18 -39 67 -39l-7 -41h-285l7 41c63 1 80 13 91 70l27 141c5 28 9 60 9 87c0 133 -67 242 -198 274l23 88c226 -6 268 -171 266 -342h4c62 188 159 342 343 342l7 -70c-156 -19 -286 -196 -326 -395zM371 803
c0 -39 -31 -71 -72 -71c-40 0 -72 32 -72 71c0 40 32 72 73 72c40 0 71 -32 71 -72zM588 803c0 -39 -32 -71 -72 -71s-72 32 -72 71c0 40 32 72 72 72c41 0 72 -32 72 -72z" />
    <glyph glyph-name="phi1" unicode="&#x3d5;" horiz-adv-x="751" 
d="M538 734l-47 -221c154 -7 233 -82 233 -189c0 -226 -130 -325 -344 -331l-38 -177l-127 -18v27c21 50 35 104 50 169c-143 6 -232 72 -232 185c0 209 116 327 342 335l8 37c19 85 25 123 32 166l97 17h26zM595 335c0 87 -43 118 -116 122l-87 -408c57 3 98 20 130 58
c47 54 73 139 73 228zM276 49l87 408c-62 -3 -113 -21 -148 -80c-31 -53 -54 -130 -54 -205c0 -83 43 -119 115 -123z" />
    <glyph glyph-name="uni0400" unicode="&#x400;" horiz-adv-x="582" 
d="M494 761l-22 -36l-231 71l55 112zM-15 0l7 41c60 1 78 16 89 73l90 462c11 57 -1 73 -60 74l8 42h486l-20 -160h-60c-7 76 -16 99 -81 99h-133l-47 -246h73c62 0 83 14 98 71h55l-40 -200h-54c7 54 -7 71 -69 71h-75l-52 -268h142c71 0 97 23 124 116h61l-33 -175h-509z
" />
    <glyph glyph-name="afii10023" unicode="&#x401;" horiz-adv-x="582" 
d="M-15 0l7 41c60 1 78 16 89 73l90 462c11 57 -1 73 -60 74l8 42h486l-20 -160h-60c-7 76 -16 99 -81 99h-133l-47 -246h73c62 0 83 14 98 71h55l-40 -200h-54c7 54 -7 71 -69 71h-75l-52 -268h142c71 0 97 23 124 116h61l-33 -175h-509zM354 803c0 -39 -31 -71 -72 -71
c-40 0 -72 32 -72 71c0 40 32 72 73 72c40 0 71 -32 71 -72zM571 803c0 -39 -32 -71 -72 -71s-72 32 -72 71c0 40 32 72 72 72c41 0 72 -32 72 -72z" />
    <glyph glyph-name="afii10051" unicode="&#x402;" horiz-adv-x="781" 
d="M116 692h534l-30 -168h-61c0 82 -2 107 -64 107h-58l-46 -235c48 32 107 59 180 59c106 0 173 -50 173 -138c0 -16 -1 -27 -5 -48l-9 -49c-31 -169 -107 -220 -268 -262l-15 46c103 48 127 85 149 196l10 53c3 19 4 29 4 38c0 57 -31 78 -85 78c-49 0 -103 -17 -147 -40
l-42 -215c-3 -16 -4 -23 -4 -32c0 -31 19 -40 67 -41l-8 -41h-288l8 41c65 1 84 16 95 73l100 517h-55c-66 0 -81 -28 -111 -111h-63z" />
    <glyph glyph-name="afii10052" unicode="&#x403;" horiz-adv-x="534" 
d="M422 631h-112l-100 -514c-2 -11 -4 -23 -4 -32c0 -33 20 -43 75 -44l-7 -41h-289l7 41c59 1 77 16 88 73l89 462c2 11 4 23 4 32c0 32 -17 41 -63 42l8 42h476l-19 -174h-62c-4 87 -17 113 -91 113zM265 761l198 147l55 -112l-231 -71z" />
    <glyph glyph-name="afii10053" unicode="&#x404;" horiz-adv-x="625" 
d="M318 -12c-175 0 -262 95 -262 249c0 242 133 467 371 467c107 0 171 -23 216 -55l-23 -117h-87c-3 76 -30 112 -106 112c-64 0 -112 -32 -150 -97c-32 -45 -53 -103 -65 -163h244l-12 -63h-244c-7 -43 -9 -86 -9 -124c0 -109 48 -150 126 -150c75 0 122 33 151 113h88
l-23 -121c-43 -27 -117 -51 -215 -51z" />
    <glyph glyph-name="afii10054" unicode="&#x405;" horiz-adv-x="521" 
d="M226 39c81 0 133 46 133 126c0 62 -30 95 -91 124l-62 30c-70 34 -116 84 -116 173c0 129 100 211 239 211c110 0 170 -33 197 -55l-23 -123h-81v4c0 74 -27 119 -105 119c-74 0 -117 -46 -117 -112c0 -59 33 -85 82 -110l64 -31c75 -35 132 -81 132 -182
c0 -139 -98 -227 -261 -227c-109 0 -181 30 -216 61l24 132h84v-5c0 -89 28 -135 117 -135z" />
    <glyph glyph-name="afii10055" unicode="&#x406;" horiz-adv-x="344" 
d="M301 576l-90 -462c-2 -11 -4 -23 -4 -32c0 -31 17 -40 63 -41l-7 -41h-278l7 41c60 1 78 16 89 73l90 462c11 57 -1 73 -60 74l8 42h278l-8 -42c-60 -1 -77 -17 -88 -74z" />
    <glyph glyph-name="afii10056" unicode="&#x407;" horiz-adv-x="344" 
d="M301 576l-90 -462c-2 -11 -4 -23 -4 -32c0 -31 17 -40 63 -41l-7 -41h-278l7 41c60 1 78 16 89 73l90 462c11 57 -1 73 -60 74l8 42h278l-8 -42c-60 -1 -77 -17 -88 -74zM238 803c0 -39 -31 -71 -72 -71c-40 0 -72 32 -72 71c0 40 32 72 73 72c40 0 71 -32 71 -72z
M455 803c0 -39 -32 -71 -72 -71s-72 32 -72 71c0 40 32 72 72 72c41 0 72 -32 72 -72z" />
    <glyph glyph-name="afii10057" unicode="&#x408;" horiz-adv-x="347" 
d="M303 576l-92 -475c-31 -160 -106 -222 -272 -248l-16 42c113 40 135 94 157 205l93 476c11 57 -1 73 -59 74l7 42h278l-7 -42c-60 -1 -78 -17 -89 -74z" />
    <glyph glyph-name="afii10058" unicode="&#x409;" horiz-adv-x="912" 
d="M239 576c3 14 4 25 4 32c0 32 -18 41 -64 42l8 42h539l-8 -42c-60 -1 -77 -17 -88 -74l-32 -163h65c151 0 228 -59 228 -159c0 -161 -104 -254 -277 -254h-299l7 41c60 1 77 16 88 73l100 517h-187c-37 -185 -71 -344 -122 -461c-62 -139 -112 -181 -230 -181l-8 85
c57 11 91 28 123 63c63 66 97 177 153 439zM641 351h-55l-56 -289h70c121 0 153 104 153 200c0 64 -32 89 -112 89z" />
    <glyph glyph-name="afii10059" unicode="&#x40a;" horiz-adv-x="959" 
d="M671 576l-34 -173h70c152 0 231 -56 231 -156c0 -162 -105 -247 -277 -247h-303l7 41c60 1 75 16 86 73l43 225h-240l-43 -225c-2 -9 -4 -24 -4 -31c0 -32 15 -41 60 -42l-7 -41h-275l7 41c60 1 78 16 89 73l89 462c2 11 4 24 4 32c0 32 -17 41 -63 42l8 42h275l-7 -42
c-60 -1 -75 -17 -86 -74l-34 -174h239l34 174c2 11 4 23 4 32c0 32 -14 41 -60 42l7 42h276l-8 -42c-60 -1 -77 -17 -88 -74zM685 342h-60l-54 -280h76c118 0 153 95 153 191c0 64 -34 89 -115 89z" />
    <glyph glyph-name="afii10060" unicode="&#x40b;" horiz-adv-x="810" 
d="M578 114l28 146c2 13 3 22 3 32c0 56 -32 77 -85 77c-50 0 -106 -17 -150 -40l-42 -215c-3 -16 -4 -23 -4 -32c0 -31 19 -40 67 -41l-8 -41h-288l8 41c65 1 84 16 95 73l100 517h-55c-66 0 -81 -28 -111 -111h-63l39 172h534l-30 -168h-61c1 81 -3 107 -64 107h-58
l-46 -236c49 32 110 61 183 61c107 0 172 -51 172 -139c0 -13 -3 -31 -7 -53l-29 -150c-2 -9 -3 -19 -3 -31c0 -32 16 -42 62 -42l-7 -41h-270l7 41c57 1 72 16 83 73z" />
    <glyph glyph-name="afii10061" unicode="&#x40c;" horiz-adv-x="659" 
d="M413 371v-5c81 -16 105 -51 111 -179c3 -67 15 -107 87 -115l-22 -84c-132 0 -185 44 -193 184c-7 126 -21 164 -90 164h-53l-43 -222c-3 -15 -4 -23 -4 -32c0 -31 16 -41 63 -41l-7 -41h-277l7 41c60 1 77 16 88 73l90 462c3 15 4 23 4 32c0 32 -18 41 -64 42l8 42h277
l-8 -42c-60 -1 -76 -17 -87 -74l-35 -178h33c93 0 145 14 191 152c36 106 83 148 210 152l6 -99l-59 -9c-44 -6 -79 -25 -96 -71c-34 -97 -64 -134 -137 -152zM346 761l198 147l55 -112l-231 -71z" />
    <glyph glyph-name="uni040D" unicode="&#x40d;" horiz-adv-x="719" 
d="M-15 0l7 41c60 1 77 16 88 73l90 462c2 11 4 23 4 32c0 32 -18 41 -63 42l7 42h275l-8 -42c-57 -1 -74 -17 -85 -74l-46 -237c-15 -76 -33 -136 -42 -161h5c16 28 51 77 108 153l207 274c22 29 27 48 34 87h206l-7 -42c-60 -1 -78 -17 -89 -74l-90 -462
c-3 -15 -4 -23 -4 -31c0 -32 17 -42 64 -42l-7 -41h-275l7 41c57 1 74 16 85 73l48 240c15 77 34 137 42 161h-5c-16 -28 -50 -78 -107 -153l-210 -276c-21 -28 -26 -47 -33 -86h-206zM529 761l-22 -36l-231 71l55 112z" />
    <glyph glyph-name="afii10062" unicode="&#x40e;" horiz-adv-x="649" 
d="M430 732c-88 0 -144 59 -150 129l38 21c22 -48 68 -62 121 -62c54 0 99 15 142 63l35 -23c-32 -69 -93 -128 -186 -128zM281 579l63 -299h15c7 18 21 43 78 135l104 169c10 16 13 27 13 38c0 20 -18 28 -57 29l8 41h219l-7 -41c-47 -6 -59 -18 -95 -75l-247 -396
c-105 -168 -135 -191 -270 -191l-8 86c89 9 151 28 195 109l-38 -4l-104 396c-13 51 -22 70 -66 75l8 41h263l-7 -41c-29 -1 -70 -8 -70 -48c0 -6 1 -14 3 -24z" />
    <glyph glyph-name="afii10145" unicode="&#x40f;" horiz-adv-x="715" 
d="M672 576l-90 -462c-3 -16 -4 -23 -4 -31c0 -32 17 -42 63 -42l-7 -41h-231c-39 0 -62 -56 -86 -180h-80c9 55 15 92 15 117c0 34 -6 63 -34 63h-233l7 41c60 1 78 16 89 73l89 462c3 14 4 23 4 32c0 32 -18 41 -63 42l8 42h274l-8 -42c-60 -1 -75 -17 -86 -74l-100 -515
h244l100 515c3 15 4 24 4 33c0 31 -16 40 -61 41l8 42h274l-8 -42c-60 -1 -77 -17 -88 -74z" />
    <glyph glyph-name="afii10017" unicode="&#x410;" horiz-adv-x="646" 
d="M409 104l-9 96h-219l-46 -93c-25 -50 -14 -64 45 -66l-7 -41h-219l8 41c47 6 67 15 98 75l298 576h110l74 -575c7 -54 18 -71 63 -76l-8 -41h-264l8 41c62 2 72 18 68 63zM316 469l-104 -207h181l-21 196c-5 46 -6 76 -6 93c0 7 1 13 1 19h-6c-1 -4 -13 -38 -45 -101z
" />
    <glyph glyph-name="afii10018" unicode="&#x411;" horiz-adv-x="599" 
d="M269 413h73c152 0 229 -59 229 -159c0 -161 -104 -254 -277 -254h-309l7 41c60 1 77 16 88 73l90 462c3 14 4 23 4 32c0 32 -18 41 -63 42l7 42h465l-17 -167h-61c-3 86 -20 108 -93 108h-101zM320 351h-64l-56 -289h80c121 0 153 104 153 200c0 64 -32 89 -113 89z" />
    <glyph glyph-name="afii10019" unicode="&#x412;" horiz-adv-x="625" 
d="M264 385h63c49 0 80 6 107 31c29 26 45 68 45 123c0 72 -33 92 -110 92h-58zM333 326h-81l-52 -267h76c54 0 93 5 120 26c32 25 51 72 51 135c0 71 -29 106 -114 106zM111 650l8 42h289c143 0 205 -56 205 -153c0 -106 -72 -168 -175 -178v-4c91 -11 146 -67 146 -141
s-30 -133 -99 -176c-57 -36 -120 -40 -219 -40h-281l7 41c60 1 78 16 89 73l90 462c11 57 -1 73 -60 74z" />
    <glyph glyph-name="afii10020" unicode="&#x413;" horiz-adv-x="534" 
d="M422 631h-112l-100 -514c-2 -11 -4 -23 -4 -32c0 -33 20 -43 75 -44l-7 -41h-289l7 41c59 1 77 16 88 73l89 462c2 11 4 23 4 32c0 32 -17 41 -63 42l8 42h476l-19 -174h-62c-4 87 -17 113 -91 113z" />
    <glyph glyph-name="afii10021" unicode="&#x414;" horiz-adv-x="691" 
d="M-72 -180l46 241h40c32 17 60 45 83 76c59 80 111 229 149 438c2 11 4 24 4 33c0 32 -18 41 -64 42l8 42h546l-7 -42c-60 -1 -78 -17 -89 -74l-85 -439c-5 -25 -7 -36 -7 -42c0 -27 14 -33 57 -34h28l-11 -61l-61 -180h-69c12 67 19 110 19 138c0 31 -9 42 -30 42h-373
c-49 0 -90 -68 -111 -180h-73zM134 61h279l112 570h-195c-36 -184 -73 -347 -120 -444c-23 -48 -51 -91 -75 -120z" />
    <glyph glyph-name="afii10022" unicode="&#x415;" horiz-adv-x="582" 
d="M-15 0l7 41c60 1 78 16 89 73l90 462c11 57 -1 73 -60 74l8 42h486l-20 -160h-60c-7 76 -16 99 -81 99h-133l-47 -246h73c62 0 83 14 98 71h55l-40 -200h-54c7 54 -7 71 -69 71h-75l-52 -268h142c71 0 97 23 124 116h61l-33 -175h-509z" />
    <glyph glyph-name="afii10024" unicode="&#x416;" horiz-adv-x="947" 
d="M595 336h-41l-43 -222c-2 -11 -4 -23 -4 -32c0 -31 17 -41 63 -41l-7 -41h-275l7 41c60 1 76 16 87 73l43 222h-41c-71 0 -97 -43 -150 -164c-63 -146 -99 -184 -240 -184l-8 85c69 8 87 43 118 114c55 127 87 166 186 182v4c-54 27 -77 63 -77 130c0 16 -2 34 -6 49
c-7 27 -26 42 -58 47l-52 8l21 95c93 -4 128 -37 149 -93c7 -19 11 -43 11 -76c0 -122 64 -135 143 -135h16l35 178c2 12 4 24 4 32c0 32 -17 41 -63 42l8 42h275l-7 -42c-60 -1 -76 -17 -87 -74l-36 -178h22c93 0 147 16 193 152c36 106 80 148 206 152l6 -99l-58 -9
c-51 -8 -77 -27 -94 -73c-35 -99 -63 -133 -139 -151v-4c81 -16 101 -51 107 -179c3 -67 16 -107 87 -115l-22 -84c-132 0 -186 44 -194 184c-7 126 -16 164 -85 164z" />
    <glyph glyph-name="afii10025" unicode="&#x417;" horiz-adv-x="562" 
d="M239 334h-54l12 63h69c94 0 151 71 151 160c0 51 -31 85 -91 85c-80 0 -115 -39 -144 -109h-89l23 119c48 29 132 51 211 51c144 0 224 -55 224 -143c0 -110 -80 -174 -190 -189l-1 -4c92 -13 156 -55 156 -137c0 -161 -123 -242 -300 -242c-104 0 -182 31 -223 60
l22 115h89c0 -73 20 -114 113 -114c111 0 161 86 161 185c0 61 -34 100 -139 100z" />
    <glyph glyph-name="afii10026" unicode="&#x418;" horiz-adv-x="719" 
d="M-15 0l7 41c60 1 77 16 88 73l90 462c2 11 4 23 4 32c0 32 -18 41 -63 42l7 42h275l-8 -42c-57 -1 -74 -17 -85 -74l-46 -237c-15 -76 -33 -136 -42 -161h5c16 28 51 77 108 153l207 274c22 29 27 48 34 87h206l-7 -42c-60 -1 -78 -17 -89 -74l-90 -462
c-3 -15 -4 -23 -4 -31c0 -32 17 -42 64 -42l-7 -41h-275l7 41c57 1 74 16 85 73l48 240c15 77 34 137 42 161h-5c-16 -28 -50 -78 -107 -153l-210 -276c-21 -28 -26 -47 -33 -86h-206z" />
    <glyph glyph-name="afii10027" unicode="&#x419;" horiz-adv-x="719" 
d="M-15 0l7 41c60 1 77 16 88 73l90 462c2 11 4 23 4 32c0 32 -18 41 -63 42l7 42h275l-8 -42c-57 -1 -74 -17 -85 -74l-46 -237c-15 -76 -33 -136 -42 -161h5c16 28 51 77 108 153l207 274c22 29 27 48 34 87h206l-7 -42c-60 -1 -78 -17 -89 -74l-90 -462
c-3 -15 -4 -23 -4 -31c0 -32 17 -42 64 -42l-7 -41h-275l7 41c57 1 74 16 85 73l48 240c15 77 34 137 42 161h-5c-16 -28 -50 -78 -107 -153l-210 -276c-21 -28 -26 -47 -33 -86h-206zM463 732c-88 0 -144 59 -150 129l38 21c22 -48 68 -62 121 -62c54 0 99 15 142 63
l35 -23c-32 -69 -93 -128 -186 -128z" />
    <glyph glyph-name="afii10028" unicode="&#x41a;" horiz-adv-x="659" 
d="M413 371v-5c81 -16 105 -51 111 -179c3 -67 15 -107 87 -115l-22 -84c-132 0 -185 44 -193 184c-7 126 -21 164 -90 164h-53l-43 -222c-3 -15 -4 -23 -4 -32c0 -31 16 -41 63 -41l-7 -41h-277l7 41c60 1 77 16 88 73l90 462c3 15 4 23 4 32c0 32 -18 41 -64 42l8 42h277
l-8 -42c-60 -1 -76 -17 -87 -74l-35 -178h33c93 0 145 14 191 152c36 106 83 148 210 152l6 -99l-59 -9c-44 -6 -79 -25 -96 -71c-34 -97 -64 -134 -137 -152z" />
    <glyph glyph-name="afii10029" unicode="&#x41b;" horiz-adv-x="680" 
d="M239 576c2 10 4 24 4 32c0 32 -18 41 -64 42l8 42h546l-8 -42c-60 -1 -77 -17 -88 -74l-90 -462c-3 -15 -4 -22 -4 -31c0 -32 17 -42 63 -42l-7 -41h-278l8 41c60 1 77 16 88 73l100 517h-194c-37 -185 -71 -344 -122 -461c-62 -139 -112 -181 -230 -181l-8 85
c57 11 91 29 124 63c63 66 103 193 152 439z" />
    <glyph glyph-name="afii10030" unicode="&#x41c;" horiz-adv-x="863" 
d="M901 692l-8 -41c-71 -4 -84 -23 -91 -76l-59 -456c-7 -58 -1 -76 56 -78l-7 -41h-269l7 41c64 2 76 15 84 71l47 339c6 46 16 99 22 128h-6c-10 -27 -29 -78 -52 -123l-233 -456h-76l-44 437c-4 36 -5 98 -5 125v17h-6c-4 -21 -14 -86 -28 -137l-88 -329
c-4 -15 -7 -28 -7 -38c0 -25 17 -33 63 -34l-7 -41h-218l7 41c58 2 72 18 88 78l123 456c15 56 7 72 -61 76l7 41h230l37 -392c3 -30 6 -76 6 -100c0 -18 -1 -33 -1 -39h6c5 18 21 73 49 131l198 400h236z" />
    <glyph glyph-name="afii10031" unicode="&#x41d;" horiz-adv-x="727" 
d="M111 650l8 42h278l-8 -42c-60 -1 -77 -17 -88 -74l-36 -184h252l37 184c2 12 4 23 4 31c0 32 -17 42 -64 43l8 42h278l-8 -42c-60 -1 -77 -17 -88 -74l-90 -462c-11 -57 0 -72 59 -73l-7 -41h-278l7 41c60 1 78 16 89 73l41 215h-253l-41 -215c-2 -11 -4 -23 -4 -32
c0 -31 17 -40 63 -41l-7 -41h-278l7 41c60 1 78 16 89 73l90 462c11 57 -1 73 -60 74z" />
    <glyph glyph-name="afii10032" unicode="&#x41e;" horiz-adv-x="689" 
d="M666 430c0 -197 -103 -444 -352 -444c-167 0 -258 109 -258 276c0 192 107 441 354 441c155 0 256 -95 256 -273zM528 470c0 114 -32 173 -119 173c-62 0 -101 -26 -132 -75c-61 -95 -84 -246 -84 -353c0 -117 37 -171 120 -171c59 0 98 24 131 75c59 92 84 249 84 351z
" />
    <glyph glyph-name="afii10033" unicode="&#x41f;" horiz-adv-x="716" 
d="M310 631l-100 -517c-3 -16 -4 -25 -4 -34c0 -29 15 -39 60 -39l-7 -41h-274l7 41c59 1 77 16 88 73l89 462c3 14 4 23 4 32c0 32 -17 41 -63 42l8 42h651l-7 -42c-60 -1 -78 -17 -89 -74l-90 -462c-3 -13 -4 -23 -4 -31c0 -32 17 -42 64 -42l-7 -41h-275l7 41
c60 1 74 16 85 73l100 517h-243z" />
    <glyph glyph-name="afii10034" unicode="&#x420;" horiz-adv-x="591" 
d="M211 116c-2 -10 -4 -22 -4 -31c0 -33 20 -43 75 -44l-7 -41h-290l7 41c60 1 78 16 89 73l90 462c11 57 -1 73 -60 74l8 42h258c162 0 236 -51 236 -177c0 -98 -49 -174 -131 -212c-46 -21 -101 -27 -163 -27h-77zM479 517c0 76 -25 114 -110 114h-58l-57 -293h60
c42 0 76 4 105 28c35 27 60 80 60 151z" />
    <glyph glyph-name="afii10035" unicode="&#x421;" horiz-adv-x="599" 
d="M308 -14c-176 0 -252 99 -252 264c0 230 133 453 382 453c91 0 145 -22 183 -51l-24 -123h-90c-3 77 -13 115 -83 115c-164 0 -231 -227 -231 -420c0 -135 44 -178 123 -178c75 0 115 35 144 115h89l-24 -122c-44 -28 -132 -53 -217 -53z" />
    <glyph glyph-name="afii10036" unicode="&#x422;" horiz-adv-x="594" 
d="M116 692h534l-30 -172h-61c-1 79 -1 111 -64 111h-58l-101 -517c-3 -15 -3 -22 -3 -30c0 -32 18 -42 70 -43l-8 -41h-292l8 41c65 1 84 16 95 73l100 517h-55c-66 0 -81 -28 -111 -111h-63z" />
    <glyph glyph-name="afii10037" unicode="&#x423;" horiz-adv-x="649" 
d="M281 579l63 -299h15c7 18 21 43 78 135l104 169c10 16 13 27 13 38c0 20 -18 28 -57 29l8 41h219l-7 -41c-47 -6 -59 -18 -95 -75l-247 -396c-105 -168 -135 -191 -270 -191l-8 86c89 9 151 28 195 109l-38 -4l-104 396c-13 51 -22 70 -66 75l8 41h263l-7 -41
c-29 -1 -70 -8 -70 -48c0 -6 1 -14 3 -24z" />
    <glyph glyph-name="afii10038" unicode="&#x424;" horiz-adv-x="815" 
d="M621 683c-52 -1 -72 -12 -84 -52c178 -4 273 -94 273 -218c0 -202 -134 -316 -376 -318c-6 -43 9 -54 62 -54l-7 -41h-274l7 41c52 1 72 12 83 54c-176 3 -266 90 -266 217c0 203 133 316 370 318c5 39 -11 53 -62 53l7 42h275zM170 296c0 -86 41 -143 147 -146l83 425
c-159 -5 -230 -114 -230 -279zM444 150c165 5 235 121 235 279c0 85 -45 143 -153 147z" />
    <glyph glyph-name="afii10039" unicode="&#x425;" horiz-adv-x="640" 
d="M566 579l-167 -204l110 -266c20 -49 38 -63 76 -68l-7 -41h-266l7 41c42 1 59 14 59 38c0 9 -3 21 -7 31l-69 178h-5l-133 -176c-15 -20 -22 -34 -22 -46c0 -17 19 -24 49 -25l-7 -41h-215l7 41c40 5 64 20 111 80l185 232l-95 230c-21 52 -37 62 -73 67l8 42h260l-7 -42
c-43 -1 -59 -14 -59 -35c0 -10 2 -20 7 -32l56 -146h5l109 144c15 19 22 34 22 45c0 15 -14 23 -44 24l8 42h210l-8 -42c-40 -5 -64 -20 -105 -71z" />
    <glyph glyph-name="afii10040" unicode="&#x426;" horiz-adv-x="725" 
d="M513 0h-528l7 41c60 1 78 16 89 73l89 462c2 11 4 22 4 32c0 31 -18 41 -63 42l8 42h276l-8 -42c-60 -1 -75 -17 -86 -74l-101 -515h241l101 515c3 16 4 24 4 33c0 30 -16 40 -62 41l8 42h276l-8 -42c-60 -1 -77 -17 -88 -74l-89 -458c-2 -9 -3 -18 -3 -25
c0 -24 14 -31 50 -32h35l-11 -61l-62 -180h-68c12 67 19 110 19 138c0 31 -9 42 -30 42z" />
    <glyph glyph-name="afii10041" unicode="&#x427;" horiz-adv-x="699" 
d="M279 576l-35 -180c-2 -12 -4 -25 -4 -32c0 -56 29 -77 84 -77c49 0 107 16 153 39l49 250c3 15 4 24 4 33c0 30 -16 40 -59 41l8 42h273l-8 -42c-60 -1 -77 -17 -88 -74l-90 -462c-3 -16 -4 -22 -4 -31c0 -32 17 -42 63 -42l-7 -41h-278l7 41c60 1 78 16 89 73l28 145
c-48 -32 -108 -59 -184 -59c-104 0 -174 55 -174 141c0 13 2 27 5 44l36 186c3 14 5 30 5 37c0 32 -17 41 -63 42l8 42h272l-7 -42c-57 -1 -72 -17 -83 -74z" />
    <glyph glyph-name="afii10042" unicode="&#x428;" horiz-adv-x="988" 
d="M452 692h255l-7 -42c-55 -1 -71 -17 -82 -74l-100 -516h198l100 516c3 16 4 26 4 35c0 29 -13 38 -50 39l7 42h264l-7 -42c-60 -1 -78 -17 -89 -74l-90 -462c-3 -15 -4 -23 -4 -31c0 -32 17 -42 64 -42l-8 -41h-922l7 41c60 1 77 16 88 73l90 462c3 15 4 24 4 32
c0 32 -18 41 -63 42l7 42h264l-7 -42c-51 -1 -65 -17 -76 -74l-100 -516h191l101 516c3 16 4 26 4 35c0 29 -12 38 -50 39z" />
    <glyph glyph-name="afii10043" unicode="&#x429;" horiz-adv-x="992" 
d="M788 0h-803l7 41c60 1 77 16 88 73l90 462c3 14 4 24 4 32c0 32 -18 41 -63 42l7 42h264l-7 -42c-51 -1 -65 -17 -76 -74l-100 -516h191l101 516c3 16 4 26 4 35c0 29 -12 38 -50 39l7 42h255l-7 -42c-55 -1 -71 -17 -82 -74l-100 -516h198l100 516c3 16 4 26 4 35
c0 29 -13 38 -50 39l7 42h264l-7 -42c-60 -1 -78 -17 -89 -74l-88 -455c-2 -8 -4 -18 -4 -27c0 -26 17 -33 63 -33h22l-11 -61l-62 -180h-68c12 67 19 110 19 138c0 31 -9 42 -28 42z" />
    <glyph glyph-name="afii10044" unicode="&#x42a;" horiz-adv-x="727" 
d="M435 576l-31 -163h73c152 0 229 -59 229 -159c0 -161 -104 -254 -277 -254h-309l7 41c60 1 77 16 88 73l101 517h-53c-74 0 -97 -26 -134 -113h-61l47 174h416l-7 -42c-59 -1 -78 -16 -89 -74zM455 351h-64l-56 -289h80c116 0 154 101 154 197c0 64 -33 92 -114 92z" />
    <glyph glyph-name="afii10045" unicode="&#x42b;" horiz-adv-x="890" 
d="M310 351h-54l-56 -289h70c117 0 155 103 155 199c0 64 -34 90 -115 90zM300 576l-31 -163h63c151 0 228 -59 228 -159c0 -161 -104 -254 -277 -254h-298l7 41c60 1 77 16 88 73l90 461c3 16 4 25 4 33c0 32 -18 41 -63 42l7 42h278l-7 -42c-59 -1 -78 -16 -89 -74z
M847 576l-90 -462c-2 -12 -4 -25 -4 -31c0 -32 18 -41 63 -42l-7 -41h-278l7 41c60 1 78 16 89 73l89 461c2 11 4 24 4 33c0 32 -17 41 -63 42l8 42h278l-8 -42c-60 -1 -77 -17 -88 -74z" />
    <glyph glyph-name="afii10046" unicode="&#x42c;" horiz-adv-x="592" 
d="M320 351h-64l-56 -289h80c118 0 154 102 154 198c0 64 -33 91 -114 91zM300 576l-31 -163h73c152 0 229 -59 229 -159c0 -161 -104 -254 -277 -254h-309l7 41c60 1 77 16 88 73l90 461c3 15 4 22 4 33c0 32 -18 41 -63 42l7 42h278l-7 -42c-59 -1 -78 -16 -89 -74z" />
    <glyph glyph-name="afii10047" unicode="&#x42d;" horiz-adv-x="623" 
d="M196 321l12 63h247c6 38 9 75 9 109c0 111 -40 150 -115 150c-76 0 -119 -35 -152 -112h-90l25 127c59 27 128 45 219 45c152 0 248 -80 248 -247c0 -238 -102 -468 -372 -468c-107 0 -180 28 -219 59l22 114h84c0 -77 29 -114 108 -114c63 0 116 22 158 94
c28 48 50 113 64 180h-248z" />
    <glyph glyph-name="afii10048" unicode="&#x42e;" horiz-adv-x="972" 
d="M948 430c0 -197 -95 -444 -343 -444c-168 0 -249 109 -249 276c0 21 1 43 4 67h-108l-41 -215c-2 -13 -4 -25 -4 -31c0 -32 18 -41 63 -42l-7 -41h-278l7 41c60 1 78 16 89 73l89 461c2 12 4 25 4 33c0 32 -17 41 -63 42l8 42h278l-8 -42c-60 -1 -77 -17 -88 -74
l-36 -184h105c35 159 138 311 331 311c155 0 247 -95 247 -273zM810 470c0 114 -23 173 -110 173c-60 0 -93 -28 -124 -77c-60 -95 -83 -244 -83 -351c0 -117 28 -171 111 -171c57 0 89 25 123 77c58 91 83 247 83 349z" />
    <glyph glyph-name="afii10049" unicode="&#x42f;" horiz-adv-x="628" 
d="M249 321c-73 5 -144 55 -144 141c0 160 114 230 273 230h303l-7 -42c-60 -1 -77 -17 -88 -74l-90 -462c-3 -16 -4 -23 -4 -31c0 -32 17 -42 63 -42l-7 -41h-274l7 41c54 1 74 18 85 72l37 193c-92 0 -110 -27 -165 -133c-82 -159 -123 -185 -259 -185l-10 86
c69 7 93 38 118 88c40 80 77 137 162 156v3zM394 631c-106 0 -153 -68 -153 -182c0 -66 35 -85 85 -85h88l52 267h-72z" />
    <glyph glyph-name="afii10065" unicode="&#x430;" horiz-adv-x="564" 
d="M344 514c49 0 85 -19 94 -55c11 19 25 32 39 44h72c-16 -29 -33 -79 -46 -135l-53 -237c-4 -19 -5 -25 -5 -36c0 -28 13 -37 44 -37c9 0 24 1 31 2l3 -37c-39 -21 -75 -32 -115 -32c-58 0 -82 33 -82 87c0 11 1 22 3 35c-42 -66 -103 -126 -179 -126
c-77 0 -121 52 -121 140c0 201 151 387 315 387zM343 454c-102 0 -188 -160 -188 -312c0 -53 18 -74 45 -74c46 0 106 74 145 139l52 219c-8 17 -26 28 -54 28z" />
    <glyph glyph-name="afii10066" unicode="&#x431;" horiz-adv-x="540" 
d="M463 605l-110 -32c-153 -44 -187 -87 -207 -207h6c42 80 107 134 187 134c108 0 176 -61 176 -175c0 -171 -95 -338 -283 -338c-124 0 -194 77 -194 198c0 242 103 430 282 485l112 35c33 10 47 21 64 44l69 -59c-21 -45 -52 -71 -102 -85zM318 438
c-37 0 -69 -20 -93 -51c-47 -60 -69 -165 -69 -240c0 -65 23 -103 75 -103c42 0 71 22 95 57c42 61 61 168 61 235c0 66 -16 102 -69 102z" />
    <glyph glyph-name="afii10067" unicode="&#x432;" horiz-adv-x="507" 
d="M469 407c0 -57 -46 -103 -111 -130c68 -7 120 -38 120 -102c0 -121 -129 -188 -247 -188c-121 0 -198 69 -198 193c0 200 138 334 284 334c100 0 152 -41 152 -107zM351 161c0 42 -15 77 -65 88c-43 -12 -89 -18 -126 -20c-2 -19 -3 -40 -3 -60c0 -82 17 -125 77 -125
c70 0 117 47 117 117zM309 458c-53 0 -113 -68 -139 -175c127 11 184 61 184 126c0 33 -16 49 -45 49z" />
    <glyph glyph-name="afii10068" unicode="&#x433;" horiz-adv-x="466" 
d="M210 -12c-124 0 -189 45 -189 123c0 101 63 135 180 170l31 9c66 20 93 52 93 107c0 36 -17 62 -60 62c-44 0 -69 -25 -91 -76h-75l20 97c28 12 88 34 168 34c98 0 169 -36 169 -112c0 -98 -58 -129 -164 -163l-30 -9c-76 -25 -104 -51 -104 -116c0 -39 25 -72 71 -72
c51 0 85 24 108 90h80l-20 -100c-30 -15 -95 -44 -187 -44z" />
    <glyph glyph-name="afii10069" unicode="&#x434;" horiz-adv-x="537" 
d="M279 501c49 0 87 -19 116 -45c-1 49 -7 108 -12 127c-12 53 -36 63 -140 63h-59l-14 67c23 11 66 22 100 22c93 0 143 -26 186 -126c28 -66 52 -149 52 -243c0 -200 -77 -380 -271 -380c-120 0 -202 67 -202 198c0 167 109 317 244 317zM239 42c105 0 149 225 155 354
c-26 29 -58 44 -87 44c-88 0 -145 -133 -145 -267c0 -93 26 -131 77 -131z" />
    <glyph glyph-name="afii10070" unicode="&#x435;" horiz-adv-x="498" 
d="M157 171c0 -69 33 -111 97 -111c55 0 101 20 148 63l28 -40c-50 -58 -124 -97 -214 -97c-121 0 -183 72 -183 196c0 167 126 332 291 332c95 0 160 -42 160 -132c0 -115 -126 -165 -304 -165h-21c-2 -13 -2 -30 -2 -46zM368 395c0 36 -20 61 -52 61
c-69 0 -125 -79 -147 -185h13c133 0 186 45 186 124z" />
    <glyph glyph-name="afii10072" unicode="&#x436;" horiz-adv-x="868" 
d="M99 -13c-44 0 -87 17 -113 54l19 77h72c-2 -14 -2 -25 -1 -37c2 -35 9 -41 28 -41c63 0 120 198 120 329c0 48 -10 79 -48 79c-27 0 -50 -17 -82 -53l-28 32c39 52 86 88 152 88c79 0 117 -54 117 -149c0 -21 -3 -45 -6 -66h62l33 194l95 15h26l-53 -209h64
c32 112 100 214 209 214c47 0 90 -18 115 -55l-20 -76h-71c1 11 2 25 2 34c-1 35 -10 44 -30 44c-66 0 -120 -200 -120 -331c0 -47 9 -79 47 -79c27 0 50 18 82 54l29 -31c-39 -53 -88 -88 -153 -88c-78 0 -115 52 -115 145c0 33 3 69 10 106h-62l-38 -232l-95 -15h-26
l58 247h-60c-28 -125 -98 -250 -219 -250z" />
    <glyph glyph-name="afii10073" unicode="&#x437;" horiz-adv-x="467" 
d="M254 459c-51 0 -80 -29 -99 -84h-84l21 99c54 25 116 40 176 40c138 0 182 -50 182 -108c0 -82 -58 -129 -142 -141l-1 -5c76 -8 117 -41 117 -95c0 -129 -119 -177 -247 -177c-71 0 -143 19 -182 43l21 97h79c0 -50 15 -84 81 -84c77 0 117 53 117 124
c0 40 -28 62 -88 62h-41l12 56h41c66 0 106 50 106 114c0 36 -22 59 -69 59z" />
    <glyph glyph-name="afii10074" unicode="&#x438;" horiz-adv-x="558" 
d="M327 112c-45 -69 -108 -126 -188 -126c-66 0 -96 40 -96 97c0 15 2 31 6 48l50 224c3 15 5 28 5 39c0 35 -19 48 -71 48l8 35c29 15 70 29 113 29c47 0 75 -28 75 -86c0 -15 -2 -33 -6 -53l-50 -223c-3 -13 -4 -25 -4 -34c0 -25 10 -35 32 -35c51 0 109 73 145 134
l62 292h119l-77 -370c-3 -14 -5 -26 -5 -36c0 -25 13 -37 47 -37c8 0 18 1 29 2l3 -37c-39 -21 -77 -32 -117 -32c-57 0 -83 34 -83 88c0 10 1 21 3 33z" />
    <glyph glyph-name="afii10075" unicode="&#x439;" horiz-adv-x="558" 
d="M327 112c-45 -69 -108 -126 -188 -126c-66 0 -96 40 -96 97c0 15 2 31 6 48l50 224c3 15 5 28 5 39c0 35 -19 48 -71 48l8 35c29 15 70 29 113 29c47 0 75 -28 75 -86c0 -15 -2 -33 -6 -53l-50 -223c-3 -13 -4 -25 -4 -34c0 -25 10 -35 32 -35c51 0 109 73 145 134
l62 292h119l-77 -370c-3 -14 -5 -26 -5 -36c0 -25 13 -37 47 -37c8 0 18 1 29 2l3 -37c-39 -21 -77 -32 -117 -32c-57 0 -83 34 -83 88c0 10 1 21 3 33zM323 566c-81 0 -138 59 -143 128l38 21c21 -48 61 -62 114 -62c54 0 93 15 136 63l35 -22c-32 -69 -93 -128 -180 -128z
" />
    <glyph glyph-name="afii10076" unicode="&#x43a;" horiz-adv-x="541" 
d="M242 229h-34l-49 -229h-121l76 352c4 19 6 32 6 43c0 33 -19 47 -71 47l8 35c30 16 71 29 113 29c43 0 75 -27 75 -88c0 -16 -3 -33 -7 -53l-17 -78h13c70 0 96 21 127 99c27 68 55 123 127 123c23 0 49 -9 72 -32l-45 -70c-15 10 -25 13 -40 13c-26 0 -37 -19 -57 -62
c-25 -57 -37 -79 -88 -95v-4c73 -7 93 -41 99 -109c4 -48 14 -74 64 -82l-13 -80c-128 0 -164 47 -171 132c-6 80 -17 108 -67 109z" />
    <glyph glyph-name="afii10077" unicode="&#x43b;" horiz-adv-x="590" 
d="M196 385c3 14 5 27 5 36c0 17 -8 28 -25 28c-13 0 -25 -3 -36 -7l-10 38c34 15 66 21 139 21h290l-77 -366c-3 -16 -7 -34 -7 -45c0 -24 11 -33 43 -33c9 0 21 1 34 3l3 -37c-45 -22 -82 -32 -118 -32c-59 0 -84 30 -84 82c0 17 4 39 8 59l65 309h-149
c-26 -122 -46 -216 -78 -298c-41 -105 -84 -154 -201 -154l-8 84c43 12 70 21 99 49c60 59 83 150 107 263z" />
    </font>
</defs>
</svg>
