<?xml version="1.0" encoding="UTF-8" standalone="no"?>
<!-- Created with Inkscape (http://www.inkscape.org/) -->
<svg
   xmlns:dc="http://purl.org/dc/elements/1.1/"
   xmlns:cc="http://creativecommons.org/ns#"
   xmlns:rdf="http://www.w3.org/1999/02/22-rdf-syntax-ns#"
   xmlns:svg="http://www.w3.org/2000/svg"
   xmlns="http://www.w3.org/2000/svg"
   xmlns:sodipodi="http://sodipodi.sourceforge.net/DTD/sodipodi-0.dtd"
   xmlns:inkscape="http://www.inkscape.org/namespaces/inkscape"
   width="1024"
   height="600"
   id="svg2"
   sodipodi:version="0.32"
   inkscape:version="0.46"
   version="1.0"
   sodipodi:docname="ladiaria-preview.svg"
   inkscape:output_extension="org.inkscape.output.svg.inkscape">
  <defs
     id="defs4">
    <inkscape:perspective
       sodipodi:type="inkscape:persp3d"
       inkscape:vp_x="0 : 526.18109 : 1"
       inkscape:vp_y="0 : 1000 : 0"
       inkscape:vp_z="744.09448 : 526.18109 : 1"
       inkscape:persp3d-origin="372.04724 : 350.78739 : 1"
       id="perspective10" />
    <inkscape:perspective
       id="perspective2447"
       inkscape:persp3d-origin="372.04724 : 350.78739 : 1"
       inkscape:vp_z="744.09448 : 526.18109 : 1"
       inkscape:vp_y="0 : 1000 : 0"
       inkscape:vp_x="0 : 526.18109 : 1"
       sodipodi:type="inkscape:persp3d" />
  </defs>
  <sodipodi:namedview
     id="base"
     pagecolor="#ffffff"
     bordercolor="#666666"
     borderopacity="1.0"
     gridtolerance="10000"
     guidetolerance="10"
     objecttolerance="10"
     inkscape:pageopacity="0.0"
     inkscape:pageshadow="2"
     inkscape:zoom="0.77333333"
     inkscape:cx="512"
     inkscape:cy="339.30998"
     inkscape:document-units="px"
     inkscape:current-layer="layer1"
     showgrid="false"
     inkscape:window-width="1014"
     inkscape:window-height="671"
     inkscape:window-x="0"
     inkscape:window-y="0" />
  <metadata
     id="metadata7">
    <rdf:RDF>
      <cc:Work
         rdf:about="">
        <dc:format>image/svg+xml</dc:format>
        <dc:type
           rdf:resource="http://purl.org/dc/dcmitype/StillImage" />
      </cc:Work>
    </rdf:RDF>
  </metadata>
  <g
     inkscape:label="Layer 1"
     inkscape:groupmode="layer"
     id="layer1">
    <rect
       style="fill:#0095cd;fill-opacity:1"
       id="rect2453"
       width="1024"
       height="140"
       x="0"
       y="38" />
    <rect
       style="fill:#ffffff;fill-opacity:1"
       id="rect2457"
       width="4"
       height="140"
       x="784.11786"
       y="38.400436" />
    <rect
       style="fill:#ffffff;fill-opacity:1"
       id="rect2461"
       width="4"
       height="140"
       x="792.11786"
       y="38.400436" />
    <rect
       style="fill:#ffffff;fill-opacity:1"
       id="rect2467"
       width="4"
       height="140"
       x="800.11786"
       y="38.400436" />
    <rect
       style="fill:#ffffff;fill-opacity:1"
       id="rect2471"
       width="4"
       height="140"
       x="808.11786"
       y="38.400436" />
    <rect
       style="fill:#ffffff;fill-opacity:1"
       id="rect2475"
       width="4"
       height="140"
       x="816.11786"
       y="38.400436" />
    <rect
       style="fill:#ffffff;fill-opacity:1"
       id="rect2479"
       width="4"
       height="140"
       x="824.11786"
       y="38.400436" />
    <rect
       style="fill:#ffffff;fill-opacity:1"
       id="rect2483"
       width="4"
       height="140"
       x="832.11786"
       y="38.400436" />
    <rect
       style="fill:#ffffff;fill-opacity:1"
       id="rect2487"
       width="4"
       height="140"
       x="840.11786"
       y="38.400436" />
    <rect
       style="fill:#ffffff;fill-opacity:1"
       id="rect2491"
       width="4"
       height="140"
       x="848.14362"
       y="38.30777" />
    <rect
       style="fill:#ffffff;fill-opacity:1"
       id="rect2495"
       width="4"
       height="140"
       x="856.14362"
       y="38.30777" />
    <rect
       style="fill:#ffffff;fill-opacity:1"
       id="rect2499"
       width="4"
       height="140"
       x="864.14362"
       y="38.30777" />
    <rect
       style="fill:#ffffff;fill-opacity:1"
       id="rect2503"
       width="4"
       height="140"
       x="872.14362"
       y="38.30777" />
    <rect
       style="fill:#ffffff;fill-opacity:1"
       id="rect2507"
       width="4"
       height="140"
       x="880.14362"
       y="38.30777" />
    <rect
       style="fill:#ffffff;fill-opacity:1"
       id="rect2511"
       width="4"
       height="140"
       x="888.14362"
       y="38.30777" />
    <rect
       style="fill:#ffffff;fill-opacity:1"
       id="rect2515"
       width="4"
       height="140"
       x="896.14362"
       y="38.30777" />
    <rect
       style="fill:#ffffff;fill-opacity:1"
       id="rect2521"
       width="4"
       height="140"
       x="904.20361"
       y="38.193832" />
    <rect
       style="fill:#ffffff;fill-opacity:1"
       id="rect2523"
       width="4"
       height="140"
       x="912.20355"
       y="38.193832" />
    <rect
       style="fill:#ffffff;fill-opacity:1"
       id="rect2525"
       width="4"
       height="140"
       x="920.20355"
       y="38.193832" />
    <rect
       style="fill:#ffffff;fill-opacity:1"
       id="rect2527"
       width="4"
       height="140"
       x="928.20355"
       y="38.193832" />
    <rect
       style="fill:#ffffff;fill-opacity:1"
       id="rect2529"
       width="4"
       height="140"
       x="936.20355"
       y="38.193832" />
    <rect
       style="fill:#ffffff;fill-opacity:1"
       id="rect2531"
       width="4"
       height="140"
       x="944.20355"
       y="38.193832" />
    <rect
       style="fill:#ffffff;fill-opacity:1"
       id="rect2533"
       width="4"
       height="140"
       x="952.20355"
       y="38.193832" />
    <rect
       style="fill:#ffffff;fill-opacity:1"
       id="rect2535"
       width="4"
       height="140"
       x="960.20355"
       y="38.193832" />
    <rect
       style="fill:#ffffff;fill-opacity:1"
       id="rect2537"
       width="4"
       height="140"
       x="968.22931"
       y="38.101166" />
    <rect
       style="fill:#ffffff;fill-opacity:1"
       id="rect2539"
       width="4"
       height="140"
       x="976.22931"
       y="38.101166" />
    <rect
       style="fill:#ffffff;fill-opacity:1"
       id="rect2541"
       width="4"
       height="140"
       x="984.22931"
       y="38.101166" />
    <rect
       style="fill:#ffffff;fill-opacity:1"
       id="rect2543"
       width="4"
       height="140"
       x="992.22931"
       y="38.101166" />
    <rect
       style="fill:#ffffff;fill-opacity:1"
       id="rect2545"
       width="4"
       height="140"
       x="1000.2293"
       y="38.101166" />
    <rect
       style="fill:#ffffff;fill-opacity:1"
       id="rect2547"
       width="4"
       height="140"
       x="1008.2292"
       y="38.101166" />
    <rect
       style="fill:#ffffff;fill-opacity:1"
       id="rect2549"
       width="4"
       height="140"
       x="1016.2292"
       y="38.101166" />
    <rect
       style="fill:#87cdde;fill-opacity:1"
       id="rect2581"
       width="1024"
       height="30"
       x="1.3120266"
       y="1.3319104" />
    <rect
       style="fill:#ffffff;fill-opacity:1"
       id="rect2583"
       width="4"
       height="140"
       x="687.69397"
       y="37.201515" />
    <rect
       style="fill:#ffffff;fill-opacity:1"
       id="rect2585"
       width="4"
       height="140"
       x="695.69397"
       y="37.201515" />
    <rect
       style="fill:#ffffff;fill-opacity:1"
       id="rect2587"
       width="4"
       height="140"
       x="703.69397"
       y="37.201515" />
    <rect
       style="fill:#ffffff;fill-opacity:1"
       id="rect2589"
       width="4"
       height="140"
       x="711.69397"
       y="37.201515" />
    <rect
       style="fill:#ffffff;fill-opacity:1"
       id="rect2591"
       width="4"
       height="140"
       x="719.69397"
       y="37.201515" />
    <rect
       style="fill:#ffffff;fill-opacity:1"
       id="rect2593"
       width="4"
       height="140"
       x="727.71973"
       y="37.108864" />
    <rect
       style="fill:#ffffff;fill-opacity:1"
       id="rect2595"
       width="4"
       height="140"
       x="735.71973"
       y="37.108864" />
    <rect
       style="fill:#ffffff;fill-opacity:1"
       id="rect2597"
       width="4"
       height="140"
       x="743.71973"
       y="37.108864" />
    <rect
       style="fill:#ffffff;fill-opacity:1"
       id="rect2599"
       width="4"
       height="140"
       x="751.71973"
       y="37.108864" />
    <rect
       style="fill:#ffffff;fill-opacity:1"
       id="rect2601"
       width="4"
       height="140"
       x="759.71973"
       y="37.108864" />
    <rect
       style="fill:#ffffff;fill-opacity:1"
       id="rect2603"
       width="4"
       height="140"
       x="767.7196"
       y="37.108864" />
    <rect
       style="fill:#ffffff;fill-opacity:1"
       id="rect2605"
       width="4"
       height="140"
       x="775.7196"
       y="37.108864" />
    <text
       xml:space="preserve"
       style="font-size:25.10707283px;font-style:normal;font-weight:normal;fill:#ffffff;fill-opacity:1;stroke:none;stroke-width:1px;stroke-linecap:butt;stroke-linejoin:miter;stroke-opacity:1;font-family:Bitstream Vera Sans"
       x="740.33569"
       y="22.439051"
       id="text2607"><tspan
         sodipodi:role="line"
         id="tspan2609"
         x="740.33569"
         y="22.439051">http://ladiaria.net/</tspan></text>
    <g
       id="g2685"
       transform="translate(0,-2)">
      <path
         style="fill:#ffffff"
         d="M 87.240856,148.77327 C 88.720016,148.5639 90.847326,147.91863 92.141096,147.287 C 93.398576,146.6731 94.530576,146.17078 94.656656,146.17078 C 94.782726,146.17078 95.131616,146.75891 95.431966,147.47774 C 96.061026,148.98332 95.913826,148.96461 103.79928,148.54063 L 108.33891,148.29653 L 108.33609,124.54859 C 108.33438,110.20099 108.18247,99.871417 107.95231,98.453132 C 106.83275,91.554093 103.74459,88.237305 96.859676,86.539274 C 93.159896,85.626793 85.842746,85.717477 79.914106,86.749284 C 75.102816,87.58663 70.342916,88.795682 69.828556,89.311091 C 69.670996,89.468975 70.321786,92.254881 71.274746,95.501993 C 72.992216,101.35405 73.015796,101.40365 73.962756,101.1571 C 80.427256,99.474049 87.916206,98.954798 90.021786,100.04364 C 91.483206,100.79937 92.732986,103.47947 92.584606,105.5395 L 92.468696,107.14874 L 87.987696,107.4338 C 79.429106,107.97826 74.852606,109.27923 71.780936,112.04093 C 68.547946,114.94766 67.030006,119.1906 66.651156,126.37971 C 66.258946,133.82227 67.529946,140.5749 69.996766,144.15448 C 72.795156,148.21524 79.153306,149.91824 87.240856,148.77327 z M 84.018726,135.17311 C 82.441256,134.28179 81.826126,132.1516 81.827716,127.58575 C 81.828866,124.27076 81.954946,123.37271 82.558036,122.38361 C 83.677226,120.54807 85.260126,119.91367 89.176226,119.73114 L 92.605256,119.57131 L 92.865946,120.96089 C 93.009326,121.72515 93.047116,124.41438 92.949946,126.93695 C 92.757696,131.92755 92.316986,133.23477 90.326566,134.71836 C 89.002976,135.70492 85.417406,135.96342 84.018726,135.17311 z M 153.90555,148.76158 C 155.64588,148.54351 158.07802,147.9388 159.31029,147.41784 C 162.4511,146.09001 162.91825,146.10894 163.30723,147.57987 L 163.63048,148.80225 L 170.05897,148.70012 L 176.48746,148.59799 L 176.5825,108.54905 L 176.67754,68.500109 L 168.8341,68.500109 L 160.99067,68.500109 L 160.98495,77.742173 C 160.98181,82.825309 160.83355,87.214203 160.65549,87.495273 C 160.3882,87.917212 159.91718,87.858742 157.95394,87.159923 C 154.98088,86.101656 147.82035,85.705319 144.60205,86.42089 C 137.40722,88.020619 133.8395,93.037659 132.65027,103.22787 C 131.59244,112.29205 131.8678,129.15804 133.17762,135.52842 C 134.99247,144.35512 140.23342,148.94979 148.67771,149.11723 C 149.81269,149.1397 152.16521,148.9797 153.90555,148.76158 z M 150.97391,134.12669 C 148.61285,132.99073 147.66302,126.62151 148.05827,114.5755 C 148.33135,106.25294 148.7216,104.21975 150.36054,102.58081 C 151.51292,101.42843 151.73001,101.36078 154.27576,101.36078 C 156.89249,101.36078 157.01168,101.40154 158.37025,102.7611 C 160.23247,104.62467 160.61418,106.52016 160.87055,115.1772 C 161.22543,127.16025 160.28386,132.66234 157.6448,134.02706 C 156.36087,134.691 152.27369,134.75204 150.97391,134.12669 z M 232.87339,148.77327 C 234.37156,148.56117 236.48299,147.91703 237.81994,147.26422 C 239.10288,146.63778 240.29945,146.216 240.47898,146.32694 C 240.6585,146.43789 240.91121,147.05776 241.04055,147.70444 L 241.2757,148.88022 L 247.34351,148.60729 C 250.6808,148.45717 253.53734,148.25773 253.69137,148.16408 C 253.84541,148.07043 253.96557,137.45936 253.95841,124.58394 C 253.94452,99.622998 253.82295,97.596786 252.09881,93.588912 C 250.59398,90.090833 247.18437,87.714742 241.71765,86.354478 C 238.79597,85.627488 230.48399,85.832146 225.40506,86.756125 C 219.87151,87.762812 215.1361,89.008321 215.1361,89.457071 C 215.1361,89.882015 218.47204,101.08703 218.65218,101.26717 C 218.7253,101.34029 220.10658,101.04189 221.72168,100.60405 C 223.72324,100.06144 226.27227,99.743365 229.72756,99.605048 L 234.7969,99.402122 L 236.11901,100.56296 C 237.54016,101.81074 238.44161,104.16267 238.22547,106.05882 C 238.11329,107.04288 237.95615,107.15731 236.60756,107.23697 C 227.92913,107.74958 222.89593,108.64417 219.83846,110.21747 C 219.24138,110.52471 217.96085,111.51692 216.99284,112.42238 C 213.71605,115.48744 212.18591,120.63184 212.16179,128.66465 C 212.13937,136.13096 213.64849,142.0576 216.40068,145.31166 C 219.01273,148.4 225.65316,149.79546 232.87339,148.77327 z M 229.43963,135.00975 C 227.76565,133.954 227.36499,132.28217 227.51802,126.99156 L 227.64556,122.58259 L 228.84454,121.51215 C 230.38258,120.13898 232.44114,119.59653 235.5898,119.7347 L 238.10123,119.84491 L 238.19899,125.63287 C 238.30623,131.98202 238.00434,133.23213 236.01125,134.69191 C 234.51546,135.78746 230.94645,135.96008 229.43963,135.00975 z M 345.27183,148.77327 C 346.75099,148.5639 348.87829,147.91863 350.17207,147.287 C 351.42955,146.6731 352.56155,146.17078 352.68762,146.17078 C 352.8137,146.17078 353.17333,146.78464 353.4868,147.53487 L 354.05675,148.89896 L 358.59157,148.65512 C 361.08571,148.52103 363.85616,148.41128 364.74813,148.41128 L 366.36988,148.41128 L 366.36988,124.54547 C 366.36988,99.273539 366.24966,97.194441 364.5687,93.394362 C 363.09826,90.07018 359.33372,87.517085 354.23383,86.385296 C 350.83478,85.630968 343.45781,85.797381 337.94507,86.752753 C 333.13405,87.58651 328.37595,88.79408 327.857,89.313029 C 327.62888,89.541149 330.66999,100.84442 331.07841,101.28642 C 331.1355,101.34821 332.58798,101.03229 334.30615,100.58437 C 338.56273,99.474695 346.30797,99.141372 347.96196,99.996683 C 349.51667,100.80066 350.76856,103.41558 350.61557,105.5395 L 350.49966,107.14874 L 346.01866,107.4338 C 337.51949,107.97448 332.87965,109.28276 329.87243,111.98651 C 326.47307,115.04282 325.07456,118.92087 324.68193,126.37971 C 324.29012,133.82294 325.56112,140.57519 328.02774,144.15448 C 330.82613,148.21524 337.18428,149.91824 345.27183,148.77327 z M 342.0497,135.17311 C 340.47223,134.28179 339.85709,132.1516 339.85868,127.58575 C 339.85984,124.27076 339.98591,123.37271 340.589,122.38361 C 341.70757,120.54909 343.29153,119.91365 347.20001,119.73146 L 350.62186,119.57194 L 350.89167,121.73148 C 351.04007,122.91923 351.07071,125.53844 350.95976,127.55195 C 350.73626,131.60794 350.05261,133.49462 348.35754,134.73329 C 347.02844,135.70454 343.43379,135.95518 342.0497,135.17311 z M 203.46898,117.69033 L 203.56449,86.782664 L 195.62723,86.883453 L 187.68997,86.984238 L 187.59351,117.4177 C 187.54045,134.15611 187.5785,148.06464 187.67806,148.32554 C 187.81813,148.69261 189.6136,148.77708 195.61627,148.69896 L 203.37347,148.59799 L 203.46898,117.69033 z M 314.74717,117.69033 L 314.84268,86.782664 L 306.90542,86.883453 L 298.96815,86.984238 L 298.87169,117.4177 C 298.81864,134.15611 298.85669,148.06464 298.95625,148.32554 C 299.09632,148.69261 300.89179,148.77708 306.89446,148.69896 L 314.65166,148.59799 L 314.74717,117.69033 z M 58.301066,108.44827 L 58.301066,68.485258 L 50.365956,68.586036 L 42.430846,68.686818 L 42.334656,108.08228 C 42.281746,129.74979 42.318476,147.68779 42.416286,147.94451 C 42.550766,148.2975 44.508606,148.41128 50.447596,148.41128 L 58.301066,148.41128 L 58.301066,108.44827 z M 279.81807,128.52685 C 279.92286,108.83724 279.93197,108.62732 280.74771,107.10236 C 281.64376,105.42727 283.43539,103.74288 284.94398,103.15725 C 285.469,102.95343 286.99081,102.58199 288.32578,102.33181 L 290.75299,101.87694 L 290.75299,94.243881 L 290.75299,86.610821 L 288.51249,86.731532 C 285.50789,86.893412 281.7084,87.782573 280.18798,88.679647 C 278.09229,89.916134 277.12328,89.531089 277.12328,87.46186 C 277.12328,86.70739 277.01439,86.698238 271.05525,86.95178 C 267.71784,87.093776 264.69317,87.296522 264.33375,87.402323 C 263.71832,87.583493 263.68027,89.36493 263.68027,118.00299 L 263.68027,148.41128 L 271.69626,148.41128 L 279.71225,148.41128 L 279.81807,128.52685 z M 203.47611,74.560678 L 203.57875,68.485202 L 195.63436,68.58601 L 187.68997,68.686818 L 187.58619,74.271664 C 187.52911,77.343327 187.56716,80.077361 187.67074,80.347289 C 187.81971,80.735489 189.48038,80.816965 195.61627,80.73711 L 203.37347,80.636153 L 203.47611,74.560678 z M 314.7543,74.560678 L 314.85694,68.485202 L 306.91255,68.58601 L 298.96815,68.686818 L 298.86438,74.271664 C 298.8073,77.343327 298.84535,80.077361 298.94893,80.347289 C 299.0979,80.735489 300.75857,80.816965 306.89446,80.73711 L 314.65166,80.636153 L 314.7543,74.560678 z"
         id="path2648"
         sodipodi:nodetypes="cssscccssssssscccsssccsscccssccscccccccccssssssccssssssccsscccsssssssscccssssssccccccccsccssccccccssssssscccsssccsscccssccccccsccccccccsccccccccsccccsscccccssssccccccccccsccccccccsccc" />
      <path
         style="fill:#ffffff"
         d="M 86.494026,149.15042 C 88.893286,148.88272 90.492676,148.46277 92.084446,147.6826 C 94.415606,146.53998 95.269316,146.64073 95.269316,148.05844 C 95.269316,149.03866 95.933166,149.11002 102.55095,148.84093 L 108.52562,148.59799 L 108.52562,123.57908 C 108.52562,100.50009 108.4728,98.371955 107.84445,96.132948 C 106.25752,90.478246 103.61989,88.059712 97.199536,86.372252 C 91.682526,84.922223 81.647996,85.576001 72.786126,87.962862 C 71.202786,88.389323 69.749936,88.931722 69.557586,89.168199 C 69.330206,89.447728 69.830526,91.688512 70.987586,95.572823 C 72.492826,100.62597 72.875596,101.53917 73.469296,101.49352 C 73.855386,101.46384 75.767626,101.06792 77.718736,100.6137 C 79.963836,100.09103 82.642686,99.768115 85.015576,99.734123 C 89.186376,99.674369 90.239636,100.06708 91.509666,102.15547 C 92.287196,103.43401 92.832766,106.19706 92.389436,106.6111 C 92.227646,106.7622 89.658736,107.07254 86.680736,107.30073 C 78.233466,107.94801 74.316716,109.17145 71.246636,112.1217 C 67.661666,115.56675 66.435126,119.76118 66.422126,128.62021 C 66.405746,139.78271 68.430776,145.05012 73.744126,147.66587 C 77.117116,149.32638 80.933976,149.77082 86.494026,149.15042 z M 83.605936,134.253 L 82.386446,133.16429 L 82.263456,128.5038 C 82.163836,124.72865 82.257546,123.61691 82.756736,122.65157 C 83.547776,121.12187 85.685386,120.1907 89.141686,119.87022 C 92.789146,119.53202 92.771676,119.50057 92.600246,126.09474 C 92.483086,130.60105 92.345396,131.622 91.705696,132.72779 C 90.751846,134.37662 88.866456,135.34038 86.593276,135.34113 C 85.167706,135.3416 84.589326,135.13092 83.605936,134.253 z M 156.79769,148.56864 C 158.08569,148.28058 159.80138,147.70728 160.61034,147.29458 C 162.54639,146.30689 162.68841,146.33325 163.10247,147.7578 L 163.45522,148.97141 L 169.7648,148.88981 C 173.23507,148.84493 176.29411,148.72387 176.56267,148.6208 C 176.96139,148.46782 177.03352,141.08574 176.95592,108.37342 L 176.86088,68.313401 L 168.73907,68.212765 L 160.61725,68.112129 L 160.61725,77.619499 C 160.61725,83.635873 160.47836,87.212709 160.23901,87.360638 C 160.03097,87.489213 158.89672,87.232369 157.71844,86.789874 C 155.08776,85.801941 148.4429,85.386294 145.15997,86.004317 C 137.26673,87.490255 133.51139,92.663697 132.25105,103.78799 C 131.75915,108.12969 131.75793,127.06374 132.24928,131.42083 C 132.45772,133.26925 132.88074,135.78981 133.18932,137.02209 C 134.86548,143.71561 139.23156,148.0689 145.3231,149.12032 C 147.82796,149.55267 153.64897,149.27279 156.79769,148.56864 z M 152.25992,134.22277 C 151.66829,134.03784 150.79866,133.52431 150.32741,133.08159 C 148.75702,131.60628 148.47965,129.28449 148.50075,117.79112 C 148.51833,108.21579 148.59321,106.94588 149.24758,105.12549 C 150.2321,102.38667 151.42396,101.54361 154.28765,101.56041 C 159.44529,101.59068 160.59419,104.61557 160.59419,118.16454 C 160.59419,128.71139 159.87813,132.49874 157.668,133.64164 C 156.32894,134.3341 153.56593,134.631 152.25992,134.22277 z M 235.31562,148.59403 C 236.34466,148.32259 237.8043,147.73603 238.55925,147.29058 C 239.8639,146.52086 239.95593,146.51358 240.41688,147.14394 C 240.68361,147.50873 240.90185,148.01314 240.90185,148.26483 C 240.90185,148.51655 241.1119,148.79489 241.36862,148.88343 C 242.37245,149.22962 253.78944,148.6745 254.05907,148.2664 C 254.47048,147.64372 254.37823,103.10318 253.95883,99.867115 C 253.44754,95.921982 252.67376,93.510453 251.26663,91.47671 C 246.95222,85.241061 235.12228,83.880655 219.11924,87.779873 C 216.89432,88.321984 215.0004,88.95714 214.91054,89.191325 C 214.82067,89.425513 215.55703,92.301453 216.5469,95.582304 C 218.09556,100.71524 218.44831,101.53996 219.07523,101.49352 C 219.47595,101.46384 221.40016,101.06792 223.35126,100.6137 C 225.61608,100.08644 228.27235,99.768414 230.69782,99.734123 C 234.00298,99.68739 234.63412,99.780957 235.55223,100.45378 C 236.97534,101.49668 237.91323,103.45104 237.91394,105.37501 C 237.91448,106.85545 237.84556,106.9626 236.88762,106.97051 C 230.64787,107.02199 222.73089,108.34556 219.89702,109.81101 C 218.03593,110.77341 215.12841,113.72354 214.16262,115.62942 C 211.01992,121.83126 211.04655,136.22811 214.2123,142.48212 C 216.27995,146.56679 219.16672,148.45385 224.46868,149.18661 C 227.0951,149.5496 232.89424,149.2328 235.31562,148.59403 z M 229.6456,134.77546 C 229.10259,134.48047 228.47544,133.71453 228.25193,133.07337 C 227.63533,131.30459 227.33221,127.45139 227.62519,125.10645 C 228.07145,121.53469 229.60252,120.40847 234.77708,119.8457 C 238.2807,119.46465 238.41778,119.70971 238.21717,125.99558 C 238.02832,131.91305 237.45914,133.60934 235.3006,134.68765 C 233.73065,135.47193 231.00552,135.51424 229.6456,134.77546 z M 344.525,149.15042 C 346.94538,148.88037 348.51265,148.4661 350.12625,147.66986 C 352.18084,146.65607 352.40548,146.61589 352.83352,147.18576 C 353.09024,147.52755 353.30029,148.01583 353.30029,148.2708 C 353.30029,149.02032 354.28103,149.09714 360.58192,148.84093 L 366.55658,148.59799 L 366.65323,125.07275 C 366.73384,105.4509 366.65622,101.0043 366.1854,98.273761 C 364.9655,91.19894 362.21162,88.207095 355.23051,86.372252 C 351.28503,85.335267 344.25608,85.349893 338.17691,86.407735 C 333.65282,87.194979 328.46998,88.459895 327.6226,88.983601 C 327.27533,89.198229 327.58513,90.726826 328.88673,95.220989 C 329.83501,98.495186 330.72664,101.30147 330.86815,101.45718 C 331.00965,101.61289 332.43429,101.40554 334.034,100.9964 C 341.11791,99.18464 346.52348,99.160932 348.50668,100.93292 C 349.6512,101.95555 350.85861,105.33187 350.45548,106.38241 C 350.31425,106.75043 349.14123,106.95661 346.27186,107.11774 C 332.87587,107.86999 327.52483,111.02254 325.24841,119.50367 C 324.60155,121.91367 324.45175,123.56103 324.43642,128.4335 C 324.40103,139.67637 326.44297,145.04086 331.75281,147.65489 C 335.14954,149.32709 338.95164,149.77231 344.525,149.15042 z M 341.69868,134.30729 C 340.66735,133.38579 340.50403,132.94754 340.20273,130.29306 C 339.82364,126.95335 340.06769,124.10227 340.86812,122.51946 C 341.57024,121.13107 343.83405,120.17979 347.17266,119.87022 C 350.82012,119.53202 350.80264,119.50057 350.63121,126.09474 C 350.51406,130.60105 350.37637,131.622 349.73667,132.72779 C 348.1797,135.41918 343.88715,136.26268 341.69868,134.30729 z M 58.487766,108.4557 L 58.487766,68.313401 L 50.365956,68.212765 L 42.244146,68.112129 L 42.244146,108.19947 C 42.244146,130.24752 42.359416,148.40209 42.500306,148.54298 C 42.641206,148.68388 46.296016,148.75389 50.622126,148.69859 L 58.487766,148.59799 L 58.487766,108.4557 z M 203.74689,117.60441 L 203.74689,86.610821 L 195.62507,86.510185 L 187.50326,86.409549 L 187.50326,117.60441 L 187.50326,148.79926 L 195.62507,148.69863 L 203.74689,148.59799 L 203.74689,117.60441 z M 279.9183,147.94451 C 280.02574,147.48241 280.15497,138.4504 280.20548,127.87338 L 280.29732,108.64241 L 281.23086,106.97861 C 282.57927,104.57542 284.63639,103.2749 287.97995,102.71181 L 290.75299,102.2448 L 290.85393,94.278691 L 290.95487,86.31258 L 287.67989,86.533412 C 284.57417,86.742831 281.13932,87.642426 279.47367,88.682642 C 278.41051,89.346599 277.64335,88.931121 277.36528,87.540771 L 277.12767,86.352738 L 271.52005,86.623147 C 268.43586,86.771876 265.36819,87.004862 264.703,87.140893 L 263.49356,87.38823 L 263.3971,117.6197 C 263.34404,134.24701 263.38077,148.0612 263.47873,148.31793 C 263.61359,148.67137 265.60738,148.7847 271.6899,148.7847 C 279.71366,148.7847 279.72319,148.78373 279.9183,147.94451 z M 315.02507,117.60441 L 315.02507,86.610821 L 306.90326,86.510185 L 298.78145,86.409549 L 298.78145,117.60441 L 298.78145,148.79926 L 306.90326,148.69863 L 315.02507,148.59799 L 315.02507,117.60441 z M 203.75345,80.356091 C 203.86759,79.893987 203.9128,76.99534 203.85393,73.914652 L 203.74689,68.313401 L 195.62507,68.212765 L 187.50326,68.112129 L 187.50326,74.405258 C 187.50326,77.86648 187.61528,80.810416 187.7522,80.947333 C 187.88912,81.084253 191.49873,81.196278 195.77355,81.196278 C 203.52339,81.196278 203.54655,81.19384 203.75345,80.356091 z M 315.03164,80.356091 C 315.14577,79.893987 315.19098,76.99534 315.13211,73.914652 L 315.02507,68.313401 L 306.90326,68.212765 L 298.78145,68.112129 L 298.78145,74.405258 C 298.78145,77.86648 298.89347,80.810416 299.03039,80.947333 C 299.16731,81.084253 302.77692,81.196278 307.05173,81.196278 C 314.80158,81.196278 314.82474,81.19384 315.03164,80.356091 z"
         id="path2646"
         sodipodi:nodetypes="csscccssssssssssssssccccsssssccscccscccccsssssssccssssssccssssssssssssssssssssccsssssccssscccsssssssssssssccsssssccccccscccccccccccccccccccccsccccccssccccccccccccccccsscccccccssc" />
      <path
         style="fill:#ffffff"
         d="M 91.161736,148.25867 C 94.753216,146.74338 94.895906,146.71728 94.895906,147.5752 C 94.895906,149.10487 95.665946,149.26469 102.17629,149.08653 C 105.5608,148.99392 108.40256,148.84553 108.49131,148.75677 C 108.58007,148.66804 108.68982,137.50552 108.7352,123.9512 C 108.8154,100.00168 108.79577,99.226026 108.03903,96.434773 C 107.07125,92.865062 106.54673,91.846094 104.73385,90.013809 C 99.623016,84.848298 88.309306,83.962366 73.539276,87.571092 C 68.481616,88.806818 68.668306,88.276995 70.767796,95.436458 C 71.753126,98.796537 72.737326,101.65572 72.954916,101.79019 C 73.172496,101.92467 74.034246,101.79346 74.869916,101.49862 C 79.193386,99.97321 87.618446,99.367338 89.680286,100.43356 C 91.089306,101.16219 91.969006,102.8857 92.039456,105.05562 L 92.095276,106.77533 L 89.668066,106.86468 C 71.488216,107.53391 66.119816,112.58695 66.158006,128.99363 C 66.186296,141.14796 69.339086,147.0917 76.785186,149.02835 C 78.004716,149.34553 80.400696,149.47388 83.693396,149.39837 C 88.202076,149.29497 88.990896,149.17458 91.161736,148.25867 z M 84.617896,134.83546 C 82.982156,134.10102 82.486936,132.6878 82.309076,128.24679 C 82.178136,124.97712 82.264546,124.11096 82.829366,123.03166 C 83.885876,121.01285 85.484256,120.29976 89.051376,120.25582 L 92.095276,120.21833 L 92.193286,125.63287 C 92.300536,131.55788 91.963446,132.91047 90.041486,134.26728 C 88.751186,135.17816 86.018696,135.46442 84.617896,134.83546 z M 158.37675,148.25004 C 162.10417,146.91466 162.57284,146.89241 162.85124,148.03786 L 163.07813,148.97141 L 169.96951,148.97141 L 176.86088,148.97141 L 176.86088,108.4557 L 176.86088,67.939984 L 169.06669,67.838915 C 163.63254,67.768448 161.11676,67.867093 160.75817,68.164699 C 160.34656,68.506304 160.24384,70.446921 160.24384,77.881249 C 160.24384,82.990583 160.09693,87.170946 159.91737,87.170946 C 159.73781,87.170946 158.85561,86.911205 157.95693,86.593745 C 157.05825,86.276284 154.68532,85.860223 152.68375,85.669169 C 146.03657,85.034666 141.23638,86.199685 137.83444,89.273133 C 133.32921,93.343334 131.96699,98.730039 131.61421,113.87024 C 131.18875,132.12887 132.54401,139.97594 136.93333,144.66845 C 140.62612,148.61636 143.45731,149.6008 150.535,149.39792 C 154.83214,149.27477 155.98945,149.10535 158.37675,148.25004 z M 151.23374,133.65817 C 149.18248,132.54359 148.89599,130.94192 148.74373,119.73726 C 148.57659,107.43713 148.88924,104.79894 150.73253,102.95566 C 151.79893,101.88925 152.20042,101.7342 153.89533,101.7342 C 154.96307,101.7342 156.37357,101.98897 157.02977,102.30036 C 159.83782,103.63287 160.33864,106.36311 160.17952,119.47149 C 160.06456,128.94181 160.00707,129.66217 159.23236,131.34009 C 158.61836,132.66993 158.07272,133.26635 157.09721,133.67394 C 155.4465,134.36366 152.5176,134.35578 151.23374,133.65817 z M 233.60112,149.16345 C 234.8229,148.96338 236.68806,148.37622 237.74593,147.85866 C 238.8038,147.34111 239.78735,146.91761 239.9316,146.91761 C 240.07585,146.91761 240.3696,147.42173 240.58439,148.03786 L 240.97491,149.15811 L 245.69945,149.15487 C 248.29794,149.15311 251.30618,149.04568 252.38442,148.91618 L 254.34485,148.6807 L 254.34485,124.44487 C 254.34485,98.213958 254.24154,96.621284 252.29024,92.770569 C 248.36511,85.024703 235.34621,83.219932 217.65666,87.969419 C 215.28896,88.605128 214.76268,88.880239 214.76268,89.482239 C 214.76268,90.277594 217.65107,100.40976 218.16218,101.40731 C 218.44424,101.95783 218.79372,101.92962 221.93903,101.10249 C 226.7624,99.834075 233.41969,99.488739 235.14428,100.41749 C 236.60829,101.20591 237.56237,103.02154 237.65847,105.20199 L 237.72781,106.77533 L 232.93335,107.02534 C 219.78567,107.71092 214.30297,111.3373 212.32908,120.65344 C 211.6052,124.0699 211.60537,133.26738 212.32938,137.05143 C 213.65827,143.99693 217.11492,148.04066 222.65363,149.12914 C 224.93844,149.57817 230.95344,149.59703 233.60112,149.16345 z M 230.07277,134.70322 C 228.23213,133.76179 227.74985,132.06481 227.89962,127.05671 C 228.01388,123.23638 228.06518,123.01781 229.10142,121.93717 C 230.34102,120.64444 233.04207,119.91913 235.92987,120.10352 L 237.72781,120.21833 L 237.72781,126.02397 C 237.72781,132.25609 237.5006,133.13755 235.57546,134.37387 C 234.12999,135.30215 231.54613,135.4568 230.07277,134.70322 z M 349.19271,148.2658 C 350.52767,147.70646 351.81494,147.16209 352.0533,147.05608 C 352.29167,146.95006 352.7154,147.33767 352.99492,147.9174 L 353.50316,148.97141 L 359.91839,148.95841 C 363.44677,148.95128 366.42352,148.85553 366.53339,148.74568 C 366.64327,148.63578 366.74035,137.46714 366.74912,123.92645 C 366.76435,100.42855 366.73076,99.173243 366.01191,96.371113 C 365.59767,94.756381 364.91695,92.882195 364.4992,92.206258 C 360.43848,85.635871 350.07569,83.737652 335.00287,86.80322 C 330.11216,87.797913 327.53217,88.609687 327.29469,89.228543 C 327.18423,89.516425 327.88846,92.447967 328.85967,95.743082 C 330.24482,100.44264 330.76245,101.7342 331.26078,101.7342 C 331.61019,101.7342 333.22524,101.38709 334.84978,100.96284 C 339.02623,99.872171 346.01125,99.55445 347.61219,100.38233 C 349.1144,101.15916 349.99849,102.83987 350.07042,105.05562 L 350.12625,106.77533 L 345.27183,107.04196 C 332.84569,107.72449 327.52305,110.8591 325.19521,118.8655 C 324.68197,120.63072 324.42106,122.99525 324.28363,127.12654 C 323.8364,140.57149 326.91504,146.97336 334.81616,149.02835 C 336.03568,149.34553 338.43166,149.47388 341.72437,149.39837 C 346.21851,149.29531 347.02886,149.17242 349.19271,148.2658 z M 342.64886,134.83546 C 340.98534,134.08854 340.49256,132.68735 340.33169,128.24679 C 340.21421,125.00361 340.30616,124.10221 340.86366,123.03166 C 341.91447,121.01385 343.51419,120.29977 347.08235,120.25582 L 350.12625,120.21833 L 350.22425,125.63287 C 350.3315,131.55788 349.99442,132.91047 348.07246,134.26728 C 346.78216,135.17816 344.04967,135.46442 342.64886,134.83546 z M 203.8424,117.81449 C 203.91805,93.135883 203.84041,86.595664 203.46898,86.359848 C 202.92498,86.014467 188.60111,85.939436 187.72051,86.277356 C 187.18845,86.481529 187.12984,89.587427 187.12984,117.58212 C 187.12984,134.67509 187.24506,148.77544 187.38587,148.91629 C 187.52669,149.05711 191.26553,149.12712 195.6944,149.07186 L 203.74689,148.97141 L 203.8424,117.81449 z M 279.62801,148.86009 C 279.96863,148.64362 280.10565,143.78065 280.18813,128.98137 C 280.29371,110.03645 280.32302,109.33373 281.07522,107.70887 C 282.21048,105.25655 284.10487,103.75304 286.71526,103.23256 C 287.90912,102.99452 289.39002,102.67975 290.00615,102.53306 L 291.1264,102.26637 L 291.1264,94.251887 L 291.1264,86.237404 L 288.32578,86.336263 C 285.08034,86.450823 281.59031,87.258512 279.81521,88.305845 C 278.13804,89.2954 277.99542,89.252188 277.61006,87.637717 L 277.27582,86.237404 L 273.55874,86.372857 C 271.51434,86.447358 268.41333,86.615395 266.66761,86.746274 L 263.49356,86.984238 L 263.39803,117.76773 C 263.32236,142.14758 263.40004,148.61315 263.77144,148.84896 C 264.37259,149.23063 279.02882,149.2409 279.62801,148.86009 z M 315.12059,117.81449 C 315.19624,93.135883 315.1186,86.595664 314.74717,86.359848 C 314.20317,86.014467 299.8793,85.939436 298.9987,86.277356 C 298.46663,86.481529 298.40803,89.587427 298.40803,117.58212 C 298.40803,134.67509 298.52324,148.77544 298.66406,148.91629 C 298.80488,149.05711 302.54372,149.12712 306.97258,149.07186 L 315.02507,148.97141 L 315.12059,117.81449 z M 58.674476,108.49565 C 58.674476,72.101773 58.617376,68.18468 58.083816,67.979936 C 57.313596,67.684377 43.231606,67.684377 42.461396,67.979936 C 41.927866,68.184669 41.870726,72.079835 41.870726,108.24671 C 41.870726,130.26877 41.982746,148.39885 42.119666,148.53578 C 42.256586,148.67267 46.037436,148.7847 50.521546,148.7847 L 58.674476,148.7847 L 58.674476,108.49565 z M 203.93359,74.701437 C 203.93359,69.123465 203.85021,68.174598 203.34293,67.979936 C 203.01806,67.855274 199.50302,67.753276 195.53172,67.753276 C 191.56042,67.753276 188.04537,67.855274 187.72051,67.979936 C 187.21447,68.17412 187.12984,69.101523 187.12984,74.452491 C 187.12984,77.887735 187.24187,80.810416 187.37879,80.947333 C 187.5157,81.084253 191.29655,81.196278 195.78066,81.196278 L 203.93359,81.196278 L 203.93359,74.701437 z M 315.21178,74.701437 C 315.21178,69.123465 315.1284,68.174598 314.62112,67.979936 C 314.29625,67.855274 310.7812,67.753276 306.80991,67.753276 C 302.83861,67.753276 299.32356,67.855274 298.9987,67.979936 C 298.49266,68.17412 298.40803,69.101523 298.40803,74.452491 C 298.40803,77.887735 298.52005,80.810416 298.65698,80.947333 C 298.79389,81.084253 302.57474,81.196278 307.05885,81.196278 L 315.21178,81.196278 L 315.21178,74.701437 z"
         id="path2644"
         sodipodi:nodetypes="cssssssssssscccsssccsscccscccccccccsssssssssccsssssssccssccccccsssssscccsssccsscccsccscccsssssssssscccssssccsscccsccssssccccssscccccsccccccsccssssccccssssccccsssssccccsssssccc" />
      <path
         style="fill:#ffffff"
         d="M 89.874696,148.95053 C 91.034396,148.64848 92.339916,148.15153 92.775836,147.84619 C 93.916036,147.04756 94.416176,147.15481 94.975856,148.31793 L 95.469966,149.34482 L 101.9978,149.20614 C 105.5881,149.12985 108.65165,148.99392 108.80568,148.90404 C 108.95971,148.81416 109.07988,137.95414 109.07271,124.77065 C 109.05883,99.233677 108.94139,97.232977 107.22153,93.235055 C 105.87793,90.111756 102.12807,87.190614 98.063686,86.101077 C 94.889146,85.250079 89.863056,84.931024 85.716906,85.317309 C 79.225586,85.922087 70.212226,87.83285 69.201786,88.81839 C 68.800466,89.209828 69.044946,90.410329 70.571996,95.546646 C 71.594276,98.985138 72.522356,101.89013 72.634396,102.00217 C 72.746446,102.11421 74.230316,101.85719 75.931906,101.43101 C 80.113036,100.38379 85.357096,99.769172 87.544626,100.06997 C 89.956066,100.40156 91.104356,101.46465 91.753286,103.96635 C 92.042556,105.08151 92.153826,106.11477 92.000546,106.26249 C 91.847266,106.4102 89.312536,106.70779 86.367806,106.9238 C 72.275176,107.95753 67.465496,112.0338 66.102296,124.0991 C 65.875526,126.10615 65.806496,129.33177 65.945606,131.42083 C 66.879736,145.44938 71.709296,150.29521 84.142746,149.67925 C 86.135616,149.58052 88.714986,149.25259 89.874696,148.95053 z M 84.311896,134.54539 C 83.056266,133.81551 82.573146,131.8692 82.573146,127.5406 C 82.573146,123.69079 82.629776,123.38237 83.533956,122.30783 C 84.547936,121.10277 85.870796,120.62881 89.326376,120.23247 C 92.326236,119.88841 92.400046,120.04312 92.212506,126.28245 C 92.035456,132.17303 91.568756,133.56006 89.468556,134.43759 C 87.979146,135.0599 85.293596,135.11604 84.311896,134.54539 z M 156.79769,148.94206 C 158.08569,148.654 159.80138,148.08069 160.61034,147.66799 C 161.4193,147.25529 162.15853,146.91761 162.25308,146.91761 C 162.34764,146.91761 162.53575,147.42191 162.67112,148.03824 C 162.84459,148.82805 163.2009,149.23003 163.87819,149.40001 C 165.11154,149.70958 176.76198,149.21969 177.13926,148.84239 C 177.29607,148.68559 177.38161,130.4184 177.32934,108.24864 L 177.2343,67.939984 L 168.83242,67.939984 L 160.43054,67.939984 L 160.24384,77.462111 C 160.12457,83.544875 159.92225,86.945731 159.68371,86.877627 C 159.47833,86.81899 158.47011,86.510775 157.44321,86.192699 C 154.84571,85.388143 147.78023,85.088498 144.85493,85.658836 C 140.12871,86.580298 136.35865,89.446958 134.27673,93.702244 C 132.26219,97.819817 131.79632,101.50542 131.59343,114.93067 C 131.387,128.58959 131.73342,133.70754 133.17274,138.2629 C 135.1786,144.61132 139.3443,148.46177 145.3231,149.49374 C 147.82796,149.92608 153.64897,149.64621 156.79769,148.94206 z M 152.04711,133.74811 C 149.39359,132.80041 148.67359,129.47446 148.67359,118.16454 C 148.67359,110.44075 149.13076,105.87703 150.09073,104.01802 C 150.94671,102.36038 152.87559,101.59145 155.27518,101.95129 C 159.21164,102.5416 159.88085,104.43768 160.14092,115.73733 C 160.40972,127.41684 159.75202,131.82764 157.52879,133.2553 C 156.31714,134.03338 153.54391,134.28269 152.04711,133.74811 z M 232.10767,149.516 C 234.20807,149.2754 236.25707,148.77077 237.62333,148.15762 C 238.81891,147.62109 239.84448,147.24861 239.90238,147.3299 C 239.96027,147.41123 240.28555,147.92281 240.62523,148.46673 L 241.24282,149.45576 L 247.51377,149.25849 C 250.97515,149.14964 254.00348,148.88716 254.27298,148.67271 C 254.66868,148.35784 254.73593,143.57171 254.62775,123.42218 C 254.48325,96.507238 254.49804,96.710762 252.37807,92.465932 C 248.71585,85.13305 235.83725,83.170357 219.05697,87.387808 C 217.00318,87.903993 215.09396,88.553275 214.81425,88.830653 C 214.38546,89.255877 214.59437,90.322019 216.14616,95.627943 C 218.2711,102.89355 217.54764,102.35481 223.35126,100.99341 C 227.55608,100.00705 233.86953,99.772379 235.23899,100.55154 C 236.292,101.15065 237.52161,103.71751 237.5329,105.34017 L 237.5411,106.51892 L 233.90029,106.74344 C 228.74249,107.06151 223.88542,107.86136 221.4301,108.79699 C 215.76967,110.95397 212.79109,115.26514 211.73316,122.83225 C 211.21763,126.51969 211.54631,135.01012 212.33053,138.26323 C 214.5405,147.43076 220.53534,150.8417 232.10767,149.516 z M 229.5298,134.12811 C 227.77379,132.5881 227.26097,125.55558 228.70153,122.76984 C 229.42112,121.3783 231.36946,120.56401 234.77796,120.23024 C 237.99176,119.91554 238.05064,120.02842 237.84141,126.10311 C 237.64455,131.81881 237.11377,133.43413 235.12196,134.37931 C 233.25977,135.26298 230.69234,135.14765 229.5298,134.12811 z M 344.7215,149.51185 C 346.5147,149.28907 348.75474,148.72275 349.89131,148.20489 C 350.99437,147.70227 352.03543,147.29103 352.20479,147.29103 C 352.37414,147.29103 352.73506,147.75313 353.00682,148.31793 L 353.50094,149.34482 L 360.02876,149.20614 C 363.61906,149.12985 366.68261,148.99392 366.83665,148.90404 C 367.28762,148.64093 367.17444,102.20327 366.71476,98.898349 C 366.49369,97.308908 365.98824,95.140936 365.59153,94.080634 C 362.26568,85.191527 349.561,82.811242 330.80002,87.562276 C 329.10669,87.991092 327.49787,88.559903 327.22485,88.826299 C 326.81296,89.228203 327.04336,90.370672 328.57835,95.537845 C 329.59578,98.962801 330.52607,101.86288 330.64566,101.98246 C 330.76524,102.10204 332.25664,101.84882 333.95987,101.41974 C 338.09407,100.37824 343.36404,99.765867 345.5756,100.06997 C 347.98703,100.40156 349.13532,101.46465 349.78425,103.96635 C 350.07352,105.08151 350.18479,106.11477 350.03152,106.26249 C 349.87824,106.4102 347.3435,106.70779 344.39877,106.9238 C 332.84193,107.77152 327.68451,110.73528 325.33689,117.87789 C 323.01925,124.92926 323.54097,136.82256 326.4256,142.69703 C 329.24801,148.44478 335.26645,150.68651 344.7215,149.51185 z M 342.20945,134.40701 C 341.01239,133.56856 340.52108,131.5694 340.50669,127.47836 C 340.48788,122.13102 341.35089,121.08258 346.34283,120.38825 C 350.49041,119.81138 350.42681,119.71694 350.24192,126.17815 C 350.07014,132.18121 349.61434,133.55395 347.49952,134.43759 C 345.84165,135.13029 343.22045,135.11514 342.20945,134.40701 z M 58.963686,109.20253 C 59.020056,87.329648 58.974046,69.052363 58.861426,68.586342 L 58.656676,67.739034 L 50.357056,67.839509 L 42.057436,67.939984 L 41.961256,108.08228 C 41.908356,130.16055 41.946326,148.43787 42.045636,148.69851 C 42.185696,149.06614 44.092246,149.1499 50.543696,149.07193 L 58.861186,148.97141 L 58.963686,109.20253 z M 204.08035,148.56748 C 204.42405,147.6718 204.34027,87.054653 203.99458,86.509998 C 203.76294,86.14504 201.8067,86.058993 195.50506,86.136582 L 187.31655,86.237404 L 187.22107,117.69776 L 187.1256,149.15811 L 195.48965,149.15811 C 202.77209,149.15811 203.883,149.08175 204.08035,148.56748 z M 280.29178,148.31793 C 280.39925,147.85582 280.52848,138.7398 280.57896,128.06008 L 280.67073,108.64241 L 281.73569,106.8306 C 282.9932,104.69119 285.42551,103.37658 288.93737,102.93825 L 291.1264,102.66502 L 291.2269,94.357859 L 291.3274,86.050696 L 288.9864,86.057178 C 286.04176,86.065334 282.14917,86.877784 280.13739,87.904116 C 278.36007,88.810836 278.02122,88.709046 277.68246,87.166663 C 277.44509,86.085928 277.3705,86.051039 275.31987,86.061588 C 270.6079,86.085827 263.54606,86.783765 263.24715,87.254763 C 262.9006,87.800829 262.8156,147.66971 263.1601,148.56748 C 263.35744,149.08171 264.46755,149.15811 271.74157,149.15811 L 280.09638,149.15811 L 280.29178,148.31793 z M 315.35854,148.56748 C 315.70224,147.6718 315.61846,87.054653 315.27277,86.509998 C 315.04113,86.14504 313.08489,86.058993 306.78325,86.136582 L 298.59474,86.237404 L 298.49926,117.69776 L 298.40379,149.15811 L 306.76783,149.15811 C 314.05028,149.15811 315.16119,149.08175 315.35854,148.56748 z M 203.85891,81.121595 C 204.37542,80.605089 204.49733,69.004696 203.99458,68.212578 C 203.76294,67.847619 201.8067,67.761573 195.50506,67.839162 L 187.31655,67.939984 L 187.2138,74.274357 C 187.15729,77.75826 187.19403,80.824945 187.29544,81.089212 C 187.55156,81.756642 203.19328,81.787225 203.85891,81.121595 z M 315.1371,81.121595 C 315.65361,80.605089 315.77552,69.004696 315.27277,68.212578 C 315.04113,67.847619 313.08489,67.761573 306.78325,67.839162 L 298.59474,67.939984 L 298.49199,74.274357 C 298.43548,77.75826 298.47222,80.824945 298.57363,81.089212 C 298.82974,81.756642 314.47147,81.787225 315.1371,81.121595 z"
         id="path2642"
         sodipodi:nodetypes="cscccssssssssssssssssccsssssccssssscccccsssssssccsssssccsscccsssssssscccsssccssssccsscccssssssssssssssccsssscccccccsccccscccccccccccccccsssssccccscccccccscccsccscccsc" />
      <path
         style="fill:#ffffff"
         d="M 88.590206,149.52776 C 89.696476,149.32033 91.406936,148.75438 92.391216,148.27005 L 94.180826,147.38954 L 94.734656,148.46053 L 95.288496,149.53153 L 101.78703,149.53153 C 107.29504,149.53153 108.37831,149.43881 108.89402,148.92309 C 109.44699,148.37013 109.48956,146.06312 109.36082,123.62411 C 109.20711,96.834004 109.19479,96.666941 107.06362,92.461287 C 103.27185,84.978572 90.599016,82.89553 73.984566,87.024059 C 69.331516,88.180295 68.756726,88.448072 68.756726,89.45958 C 68.756726,90.393742 72.073906,101.80089 72.466316,102.21615 C 72.619756,102.37853 73.990356,102.177 75.512086,101.7683 C 82.226116,99.965062 88.538736,99.773619 90.188206,101.32322 C 91.090176,102.17057 92.175536,105.48113 91.767716,106.14101 C 91.653956,106.32507 89.328596,106.57507 86.600246,106.69655 C 74.070236,107.25446 68.325406,111.20163 66.329196,120.62444 C 65.683946,123.67023 65.581796,133.01411 66.157816,136.30002 C 67.452596,143.68603 70.657946,147.82812 76.225066,149.30935 C 78.636616,149.95099 85.670706,150.07526 88.590206,149.52776 z M 83.779246,133.68566 C 82.422006,131.9602 82.149196,124.65904 83.368986,122.70584 C 84.130316,121.48676 85.934256,120.80047 89.075236,120.53495 L 91.908566,120.29545 L 91.906486,125.29802 C 91.903196,133.19093 91.329166,134.2899 87.084406,134.52975 C 84.714696,134.66364 84.506766,134.61054 83.779246,133.68566 z M 156.19002,149.36614 C 157.55455,149.07693 159.38095,148.47809 160.24868,148.0354 C 161.87571,147.20537 162.31496,147.31291 162.54627,148.59799 C 162.67435,149.30957 163.01541,149.34964 169.76953,149.44677 C 176.10566,149.53788 176.90805,149.48075 177.32639,148.90863 C 177.93863,148.07132 178.01811,69.242402 177.40787,68.102144 C 177.04387,67.422006 176.54706,67.379859 168.89397,67.379859 C 163.07059,67.379859 160.63959,67.506888 160.31852,67.827959 C 159.99399,68.152492 159.87042,70.840767 159.87042,77.576746 C 159.87042,86.291945 159.82928,86.85986 159.21694,86.598274 C 156.86662,85.594242 154.40252,85.213257 149.97488,85.169324 C 145.82872,85.128181 144.76633,85.243686 142.69325,85.960982 C 138.29682,87.482167 135.0807,90.680339 133.38216,95.220101 C 131.87377,99.251631 131.41956,103.2489 131.21645,114.27919 C 131.0141,125.26897 131.42444,132.73353 132.4492,136.70395 C 134.1375,143.24522 137.74673,147.50563 143.03266,149.19684 C 145.64851,150.03374 152.61716,150.12343 156.19002,149.36614 z M 151.77038,133.49394 C 149.59165,132.55539 149.0472,129.49158 149.04632,118.16454 C 149.04543,106.8965 149.5833,103.73919 151.6893,102.65013 C 153.92601,101.49349 157.51879,102.32795 158.50387,104.23288 C 159.52836,106.21403 159.87042,109.68735 159.87042,118.10918 C 159.87042,131.34074 159.21109,133.37678 154.82561,133.68784 C 153.59536,133.7751 152.2205,133.68785 151.77038,133.49394 z M 234.90172,149.32779 C 236.22268,149.01644 237.8489,148.42461 238.51555,148.01258 L 239.72764,147.26347 L 240.22594,148.30415 L 240.72425,149.34482 L 246.50765,149.4552 C 249.68853,149.51592 252.81231,149.47096 253.4494,149.35532 L 254.60774,149.14501 L 254.80646,126.83993 C 255.01671,103.2405 254.85575,98.95463 253.60827,94.935068 C 251.59248,88.439876 246.2812,85.381675 236.42085,85.038669 C 230.86331,84.845344 226.48378,85.35887 219.54935,87.01696 C 213.41592,88.483525 213.63131,87.983561 215.87238,95.552109 C 216.90283,99.032163 217.88036,102.01391 218.04466,102.17821 C 218.20896,102.34251 220.01628,102.04042 222.06093,101.50689 C 226.53738,100.33882 234.31608,100.02123 235.45197,100.96017 C 236.41585,101.75693 237.10464,103.29132 237.23669,104.93596 L 237.35439,106.40191 L 232.31327,106.66321 C 219.91608,107.30582 214.4373,110.78724 212.10592,119.50367 C 211.0678,123.38497 210.97179,133.25305 211.93006,137.57873 C 213.41814,144.29597 216.41562,147.85635 221.8576,149.37063 C 224.26806,150.04132 231.98197,150.016 234.90172,149.32779 z M 229.55921,133.8995 C 228.60184,132.84162 228.20568,130.99309 228.20568,127.58378 C 228.20568,122.10601 229.42249,120.8066 234.68554,120.66403 L 237.35439,120.59174 L 237.35439,125.81958 C 237.35439,131.66442 236.97253,133.17016 235.26655,134.05236 C 233.71103,134.85675 230.34389,134.76657 229.55921,133.8995 z M 346.62118,149.52776 C 347.72745,149.32033 349.4333,148.75662 350.41196,148.27513 L 352.19134,147.39966 L 352.65712,148.37226 L 353.12289,149.34482 L 359.71124,149.44665 C 365.43659,149.53515 366.38067,149.46742 366.91863,148.92943 C 367.4856,148.36248 367.52537,146.23363 367.39141,123.62199 C 367.26385,102.08921 367.16569,98.634351 366.62347,96.592564 C 364.88767,90.056225 361.37806,86.953804 354.03625,85.465724 C 348.17154,84.277034 336.61212,85.362478 329.0282,87.814007 C 327.45563,88.322347 326.94715,88.669404 326.85809,89.295191 C 326.73825,90.137141 329.98839,101.68889 330.49346,102.21615 C 330.64901,102.37853 332.02133,102.177 333.54305,101.7683 C 337.46375,100.71529 342.06521,100.12768 344.95131,100.31145 C 347.07617,100.44675 347.54936,100.61218 348.29668,101.48099 C 349.21597,102.54972 350.11169,105.22796 349.81149,106.01029 C 349.6883,106.33131 348.10126,106.54214 344.65207,106.69568 C 332.07736,107.25543 326.31583,111.18274 324.38979,120.50732 C 323.70304,123.83208 323.58999,132.89653 324.19282,136.30002 C 325.51484,143.76396 328.8304,148.02969 334.3487,149.36641 C 336.74819,149.94763 343.88196,150.04143 346.62118,149.52776 z M 341.92077,133.85875 C 341.07892,132.92852 340.6353,130.65876 340.64146,127.31325 C 340.65078,122.25132 341.85759,120.97863 347.0656,120.53839 L 349.93954,120.29545 L 349.93954,125.25469 C 349.93954,131.10489 349.513,132.91661 347.90481,133.89731 C 346.28942,134.8824 342.82697,134.8601 341.92077,133.85875 z M 58.847236,148.93201 C 59.391546,148.38772 59.436996,144.63805 59.340686,108.21588 C 59.247666,73.040696 59.165616,68.055669 58.674476,67.745285 C 57.813166,67.200955 42.496716,67.276647 41.945406,67.827959 C 41.602436,68.170935 41.497306,77.715231 41.497306,108.51183 C 41.497306,146.43766 41.534826,148.76946 42.150786,149.1282 C 42.535586,149.35233 45.979096,149.5135 50.525996,149.52018 C 57.127536,149.52989 58.334686,149.44456 58.847236,148.93201 z M 204.21579,117.81448 C 204.29144,92.837112 204.21383,86.222247 203.84238,85.986416 C 203.0464,85.481064 187.72084,85.609063 187.20452,86.125379 C 186.86315,86.466757 186.75642,94.011388 186.75642,117.80356 C 186.75642,134.98012 186.87153,149.14874 187.0122,149.28944 C 187.15288,149.43011 191.05975,149.50013 195.69414,149.44501 L 204.1203,149.34482 L 204.21579,117.81448 z M 279.89336,149.3049 C 280.42099,149.1024 280.48465,147.08012 280.48986,130.35399 C 280.4961,110.32384 280.626,108.63789 282.3496,106.21732 C 283.38698,104.76046 285.74054,103.64691 288.4195,103.34544 C 291.93086,102.95029 291.7144,103.57569 291.60027,94.155572 L 291.49982,85.863987 L 290.19881,85.740454 C 287.98391,85.530149 283.01931,86.432055 280.69767,87.466505 C 279.48021,88.008968 278.42735,88.290412 278.35799,88.091937 C 278.28862,87.893459 278.0167,87.310977 277.75372,86.797529 C 277.27898,85.870646 277.24466,85.864902 272.94205,85.992413 C 270.55861,86.063045 267.37364,86.231082 265.86434,86.36583 L 263.12015,86.610821 L 263.02464,117.76775 C 262.94898,142.44636 263.02662,148.98657 263.39805,149.22238 C 263.94188,149.56768 279.01218,149.64303 279.89336,149.3049 z M 315.49398,117.81448 C 315.56962,92.837112 315.49202,86.222247 315.12056,85.986416 C 314.32459,85.481064 298.99903,85.609063 298.48271,86.125379 C 298.14134,86.466757 298.03461,94.011388 298.03461,117.80356 C 298.03461,134.98012 298.14971,149.14874 298.29039,149.28944 C 298.43107,149.43011 302.33794,149.50013 306.97233,149.44501 L 315.39849,149.34482 L 315.49398,117.81448 z M 203.46682,81.707751 C 204.29927,81.484664 204.30701,81.419697 204.30701,74.657886 C 204.30701,68.779119 204.22514,67.801764 203.71634,67.606519 C 202.54031,67.15523 187.67793,67.354549 187.20452,67.827959 C 186.89064,68.141846 186.75642,70.205406 186.75642,74.717614 C 186.75642,80.458485 186.82751,81.200569 187.4099,81.539784 C 188.1114,81.948369 202.02583,82.093924 203.46682,81.707751 z M 314.74501,81.707751 C 315.57746,81.484664 315.5852,81.419697 315.5852,74.657886 C 315.5852,68.779119 315.50333,67.801764 314.99453,67.606519 C 313.81849,67.15523 298.95612,67.354549 298.48271,67.827959 C 298.16883,68.141846 298.03461,70.205406 298.03461,74.717614 C 298.03461,80.458485 298.1057,81.200569 298.68809,81.539784 C 299.38959,81.948369 313.30402,82.093924 314.74501,81.707751 z"
         id="path2640"
         sodipodi:nodetypes="ccccccsssssssssssssccscccsccsssssssssssssssccsssssccccccccccssssssscccsssccscccscccccccsssssssssssssssccscccsccssssssccssssccccssscccsssscccsccssssccccsssssccsssssc" />
      <path
         style="fill:#ffffff"
         d="M 88.385886,149.87283 C 89.604536,149.64975 91.398496,149.06924 92.372456,148.58272 L 94.143306,147.69817 L 94.374196,148.61812 C 94.516486,149.18507 94.963566,149.62802 95.539356,149.77253 C 96.878716,150.10868 108.69598,149.6989 109.08194,149.30289 C 109.25963,149.12059 109.44485,137.88094 109.49355,124.32592 C 109.57463,101.75278 109.5259,99.444908 108.91395,96.879781 C 108.54648,95.339437 107.8612,93.322987 107.39109,92.39878 C 104.31024,86.341968 95.304436,83.511694 83.683606,84.948168 C 79.567246,85.456997 73.972206,86.594969 70.858846,87.556588 C 68.772886,88.200878 68.383316,88.452636 68.383316,89.156384 C 68.383316,90.635353 71.960816,102.17696 72.515456,102.48735 C 72.828806,102.66272 74.447686,102.40463 76.412026,101.86616 C 78.700446,101.23885 81.202076,100.87812 84.253526,100.73546 C 88.454506,100.53905 88.797896,100.57644 89.748566,101.33377 C 90.306276,101.77807 90.935486,102.76408 91.146796,103.52492 C 91.880566,106.16692 92.012176,106.07908 86.960796,106.31863 C 74.575866,106.90596 68.727556,110.53459 66.331286,119.11841 C 65.376746,122.5377 65.156216,132.00705 65.927366,136.46196 C 67.249546,144.10011 70.553306,148.25755 76.430386,149.67881 C 79.116606,150.32844 85.344466,150.42952 88.385886,149.87283 z M 84.931416,134.23352 C 83.635526,133.68809 83.209846,132.42714 83.024876,128.58596 C 82.728366,122.42823 83.570306,121.33788 88.971276,120.88508 L 91.535156,120.67014 L 91.535156,125.77742 C 91.535156,131.1653 91.120386,133.07081 89.793036,133.78113 C 88.736036,134.34677 85.840616,134.6162 84.931416,134.23352 z M 158.19004,149.08026 C 159.6277,148.57424 161.05992,148.04533 161.37276,147.90489 C 161.77877,147.72263 162.06338,147.97229 162.36722,148.77727 L 162.79288,149.90495 L 169.70299,149.90495 C 173.50354,149.90495 176.87889,149.80297 177.20376,149.67832 C 177.73738,149.47354 177.79442,145.50826 177.79442,108.61559 C 177.79442,67.916567 177.79187,67.778186 177.03389,67.372529 C 176.13848,66.893319 160.48376,67.013791 159.9941,67.503662 C 159.82338,67.674444 159.63355,71.991081 159.57224,77.096189 L 159.46078,86.378201 L 157.89187,85.823957 C 157.02897,85.519122 154.68532,85.11339 152.68375,84.922335 C 147.595,84.436591 143.97461,84.942746 140.57049,86.615847 C 136.1581,88.78451 133.81235,92.02946 132.25489,98.119051 C 130.25867,105.92419 130.24853,129.24498 132.23797,137.02362 C 133.57816,142.2637 136.30664,146.13519 140.12354,148.21262 C 143.35848,149.97328 144.99521,150.27489 150.535,150.13109 C 154.71324,150.02265 156.02355,149.84277 158.19004,149.08026 z M 151.40377,132.93868 C 149.77745,131.76321 149.60146,130.30231 149.60146,117.97783 C 149.60146,106.87554 149.63472,106.32991 150.41449,104.64211 C 151.34539,102.62718 152.11762,102.28692 155.10763,102.57422 C 158.93277,102.94177 159.497,104.98338 159.497,118.45681 C 159.497,128.11413 159.18686,130.68479 157.83166,132.2603 C 157.11318,133.0956 156.61968,133.26743 154.59954,133.38571 C 152.85072,133.4881 151.9991,133.36897 151.40377,132.93868 z M 233.5533,149.91809 C 234.74876,149.72227 236.61076,149.15744 237.69108,148.66285 L 239.65529,147.76359 L 240.07678,148.88025 L 240.49826,149.99688 L 247.32967,149.84304 C 251.08694,149.75842 254.37046,149.5598 254.62638,149.40162 C 255.35753,148.94975 255.29147,101.35038 254.55434,97.497786 C 253.27437,90.80795 250.00701,87.325163 243.30873,85.510717 C 237.04439,83.813814 225.78489,84.686115 216.35421,87.598956 C 214.26798,88.243328 214.01585,88.426172 214.01585,89.294731 C 214.01585,90.654439 217.3301,101.81249 217.91281,102.41456 C 218.30827,102.82317 218.83399,102.77631 220.96428,102.14258 C 225.77414,100.7117 232.50552,100.13764 234.69828,100.97132 C 235.75561,101.37332 236.60895,102.79384 236.97943,104.76865 L 237.22861,106.09692 L 232.43708,106.33684 C 216.40621,107.13953 211.02851,112.77166 211.02851,128.75832 C 211.02851,137.27642 212.33191,142.39191 215.36057,145.76051 C 217.16683,147.76949 219.95514,149.34785 222.62135,149.87048 C 224.91964,150.32101 230.93321,150.34719 233.5533,149.91809 z M 230.61993,134.25423 C 229.06186,133.5926 228.77954,132.78256 228.63498,128.55889 C 228.4208,122.30143 229.19368,121.27373 234.41056,120.87918 L 237.16768,120.67065 L 237.16768,125.57142 C 237.16768,130.76391 236.69356,132.89147 235.34934,133.73094 C 234.39595,134.32635 231.53516,134.64289 230.61993,134.25423 z M 346.41685,149.87153 C 347.6355,149.64778 349.4334,149.08291 350.41217,148.61625 L 352.19176,147.76785 L 352.41391,148.65296 C 352.54652,149.18134 353.00726,149.63123 353.55708,149.76921 C 354.95505,150.12007 366.70843,149.71577 367.1216,149.30259 C 367.34738,149.07682 367.48781,139.61657 367.49535,124.12396 C 367.50677,100.6689 367.46723,99.14983 366.77495,96.443227 C 365.82223,92.718392 364.91105,90.987441 362.98888,89.250874 C 358.69118,85.368154 350.96243,83.805024 341.71458,84.948168 C 337.59822,85.456997 332.00318,86.594969 328.88982,87.556588 C 326.8165,88.196976 326.41408,88.455276 326.41304,89.146388 C 326.41139,90.243531 329.76024,101.78445 330.26282,102.41364 C 330.48824,102.69584 330.98665,102.81022 331.42932,102.68134 C 335.97735,101.3572 338.38741,100.92619 342.2845,100.74002 C 346.48894,100.53916 346.82808,100.57581 347.77953,101.33377 C 348.33725,101.77807 348.96645,102.76408 349.17776,103.52492 C 349.91138,106.16635 350.04914,106.07547 344.91707,106.33557 C 332.46581,106.96663 326.76484,110.51201 324.36226,119.11841 C 323.40772,122.5377 323.18719,132.00705 323.95834,136.46196 C 325.28052,144.10011 328.58428,148.25755 334.46136,149.67881 C 337.14992,150.32904 343.37858,150.42941 346.41685,149.87153 z M 342.84462,134.12841 C 341.56208,133.45997 341.02348,131.62398 340.99861,127.83574 C 340.96222,122.29067 341.76135,121.32862 346.75434,120.90655 L 349.56612,120.66887 L 349.56612,125.77678 C 349.56612,131.16532 349.15141,133.07079 347.82401,133.78113 C 346.56824,134.45314 343.83362,134.64386 342.84462,134.12841 z M 204.23233,149.45685 C 204.57376,149.11543 204.68043,141.51845 204.68043,117.54286 C 204.68043,86.815636 204.66347,86.067899 203.95814,85.690416 C 203.52605,85.459166 200.08618,85.303862 195.39623,85.303862 C 188.76718,85.303862 187.46599,85.394476 186.96981,85.890661 C 186.44568,86.414785 186.38301,89.82278 186.38301,117.79924 C 186.38301,147.23558 186.42234,149.14392 187.03649,149.50162 C 188.01375,150.07082 203.65909,150.03012 204.23233,149.45685 z M 280.21605,149.43818 C 280.77989,149.0148 280.84724,147.13132 280.9409,129.16966 L 281.04415,109.36789 L 281.99782,107.51148 C 283.19371,105.18355 284.94336,104.15805 288.71344,103.57537 C 290.24595,103.33852 291.62327,102.95339 291.77417,102.71952 C 291.92506,102.48566 292.05108,98.635904 292.05423,94.164504 L 292.05994,86.034684 L 291.14539,85.617984 C 289.85047,85.027982 283.9484,85.836112 281.03243,87.002684 C 279.77437,87.505987 278.65322,87.91778 278.54097,87.91778 C 278.42872,87.91778 278.2403,87.434884 278.12226,86.844681 C 278.00422,86.254477 277.66044,85.676726 277.35831,85.560788 C 276.56964,85.258149 264.40263,86.019262 263.40021,86.433948 L 262.56002,86.781517 L 262.56002,117.95127 C 262.56002,147.24279 262.5994,149.14396 263.2135,149.50162 C 264.21266,150.08359 279.43219,150.02679 280.21605,149.43818 z M 315.51052,149.45685 C 315.85195,149.11543 315.95862,141.51845 315.95862,117.54286 C 315.95862,86.815636 315.94166,86.067899 315.23633,85.690416 C 314.80424,85.459166 311.36437,85.303862 306.67442,85.303862 C 300.04537,85.303862 298.74418,85.394476 298.24799,85.890661 C 297.72389,86.41477 297.6612,89.817679 297.6612,117.74311 C 297.6612,141.56295 297.76791,149.11547 298.1093,149.45685 C 298.74455,150.0921 314.87527,150.0921 315.51052,149.45685 z M 59.330966,108.64241 C 59.420776,70.707689 59.384186,67.908244 58.792826,67.473213 C 58.332216,67.134367 55.984886,67.006442 50.227906,67.006442 C 43.516326,67.006442 42.207306,67.09663 41.710686,67.59324 C 41.184526,68.119403 41.123896,72.322026 41.123896,108.26512 C 41.123896,130.31192 41.227036,148.61901 41.353106,148.94754 C 41.555786,149.47571 42.604266,149.53329 50.408466,149.44486 L 59.234606,149.34482 L 59.330966,108.64241 z M 204.59585,74.849605 C 204.68702,68.684316 204.62925,67.892541 204.05771,67.474625 C 203.59205,67.134121 201.25469,67.006442 195.48702,67.006442 C 188.77544,67.006442 187.46642,67.09663 186.96981,67.59324 C 186.4828,68.080251 186.38301,69.249825 186.38301,74.470908 C 186.38301,77.930887 186.48615,81.030575 186.61222,81.359103 C 186.8149,81.887267 187.86338,81.944848 195.66758,81.856416 L 204.49372,81.756403 L 204.59585,74.849605 z M 315.87404,74.849605 C 315.96521,68.684316 315.90744,67.892541 315.3359,67.474625 C 314.87024,67.134121 312.53288,67.006442 306.76521,67.006442 C 300.05363,67.006442 298.7446,67.09663 298.24799,67.59324 C 297.76098,68.080251 297.6612,69.249825 297.6612,74.470908 C 297.6612,77.930887 297.76434,81.030575 297.89041,81.359103 C 298.09309,81.887267 299.14157,81.944848 306.94577,81.856416 L 315.77191,81.756403 L 315.87404,74.849605 z"
         id="path2638"
         sodipodi:nodetypes="ccccsssssssssssssssssccscccsccscccsssscccssssssccsssssscccccccsssssssscccsssccscccscccccsssssssssssssssssccscccsccsssssscccccsscccsssscccsccssssssccsssssccccsssssccccsssssccc" />
    </g>
  </g>
</svg>
