<?xml version="1.0" encoding="UTF-8" standalone="no"?>
<!-- Created with Inkscape (http://www.inkscape.org/) -->

<svg
   xmlns:dc="http://purl.org/dc/elements/1.1/"
   xmlns:cc="http://creativecommons.org/ns#"
   xmlns:rdf="http://www.w3.org/1999/02/22-rdf-syntax-ns#"
   xmlns:svg="http://www.w3.org/2000/svg"
   xmlns="http://www.w3.org/2000/svg"
   xmlns:sodipodi="http://sodipodi.sourceforge.net/DTD/sodipodi-0.dtd"
   xmlns:inkscape="http://www.inkscape.org/namespaces/inkscape"
   width="449.34375"
   height="150"
   id="svg11636"
   version="1.1"
   inkscape:version="0.48.3.1 r9886"
   sodipodi:docname="ladiaria_logo.svg">
  <defs
     id="defs11638" />
  <sodipodi:namedview
     id="base"
     pagecolor="#ffffff"
     bordercolor="#666666"
     borderopacity="1.0"
     inkscape:pageopacity="0.0"
     inkscape:pageshadow="2"
     inkscape:zoom="0.5"
     inkscape:cx="-70.01624"
     inkscape:cy="62.158757"
     inkscape:document-units="px"
     inkscape:current-layer="layer1"
     showgrid="true"
     fit-margin-top="0"
     fit-margin-left="0"
     fit-margin-right="0"
     fit-margin-bottom="0"
     inkscape:window-width="1366"
     inkscape:window-height="713"
     inkscape:window-x="0"
     inkscape:window-y="27"
     inkscape:window-maximized="1"
     inkscape:snap-nodes="true"
     inkscape:snap-bbox="true"
     inkscape:snap-bbox-edge-midpoints="false"
     inkscape:snap-grids="false"
     inkscape:bbox-nodes="false"
     inkscape:bbox-paths="true">
    <inkscape:grid
       type="xygrid"
       id="grid11960"
       empspacing="5"
       visible="true"
       enabled="true"
       snapvisiblegridlinesonly="true"
       originx="-390.65625px"
       originy="-209.99101px" />
  </sodipodi:namedview>
  <metadata
     id="metadata11641">
    <rdf:RDF>
      <cc:Work
         rdf:about="">
        <dc:format>image/svg+xml</dc:format>
        <dc:type
           rdf:resource="http://purl.org/dc/dcmitype/StillImage" />
        <dc:title></dc:title>
      </cc:Work>
    </rdf:RDF>
  </metadata>
  <g
     inkscape:label="Capa 1"
     inkscape:groupmode="layer"
     id="layer1"
     transform="translate(-283.71428,-210.78799)">
    <path
       style="fill:#3399ff;fill-opacity:1;fill-rule:nonzero;stroke:none;display:inline"
       d="m 391.5625,-214.75 0,0.15625 c -0.89733,0.40334 -0.90625,1.46875 -0.90625,1.46875 l 0,146.71875 c 0,0.884975 0.46635,1.278947 0.90625,1.46875 l 0,0.1875 0.75,0 446.03125,0 0.75,0 0,-0.1875 C 839.53365,-65.127303 840,-65.521275 840,-66.40625 l 0,-146.71875 c 0,0 -0.009,-1.06541 -0.90625,-1.46875 l 0,-0.15625 -0.75,0 -446.03125,0 -0.75,0 z"
       id="path11986"
       inkscape:connector-curvature="0"
       transform="translate(-106.94197,425.53799)"
       inkscape:export-filename="/home/bruno/Documentos/work/ladiaria/code/ladiaria/docs/ladiaria.png"
       inkscape:export-xdpi="33.649071"
       inkscape:export-ydpi="33.649071" />
    <g
       id="g12010"
       transform="translate(-4.65e-4,0)">
      <path
         id="path30"
         style="fill:#ffffff;fill-opacity:1;fill-rule:nonzero;stroke:none;display:inline"
         d="m 429.39756,325.08528 c -5.50805,-5.83869 -6.35728,-14.20206 -6.35728,-30.80556 0,-15.87747 0.7431,-26.26906 6.78618,-31.94289 2.71194,-2.47379 6.52991,-4.42211 12.8478,-4.42211 6.16863,0 9.79557,0.6842 12.89204,2.59184 0,0 0.0114,-22.37332 0.0114,-22.37332 l 18.90296,0 0,91.43642 -15.90287,0.18279 c 0,0 -0.54961,-3.39276 -0.54961,-3.39276 -4.03061,2.93197 -8.85202,3.73421 -16.12752,3.73421 -5.42561,0 -9.66123,-1.99655 -12.50492,-5.00862 z m 26.16874,-30.18234 c 0,-15.29101 -0.76288,-18.7473 -7.25264,-18.7473 -5.46752,0 -6.14714,3.57809 -6.14714,18.7473 0,15.16417 0.67962,17.94001 6.14714,17.94001 6.40548,0 7.25264,-2.53082 7.25264,-17.94001 z"
         inkscape:connector-curvature="0" />
      <path
         id="path32"
         style="fill:#ffffff;fill-opacity:1;fill-rule:nonzero;stroke:none;display:inline"
         d="m 326.03424,238.13324 18.92829,0 0,91.22316 -18.92818,0 0,-91.22316 z"
         inkscape:connector-curvature="0" />
      <path
         id="path34"
         style="fill:#ffffff;fill-opacity:1;fill-rule:nonzero;stroke:none;display:inline"
         d="m 401.44016,279.85683 c 0,-7.40118 -1.20325,-13.17763 -4.16258,-16.37752 -3.20746,-3.58195 -9.3616,-5.77785 -17.50092,-5.77785 -8.36075,0 -19.39267,2.55893 -23.46146,4.16333 0,0 4.38226,14.84806 4.38226,14.84806 4.48371,-1.62338 12.11791,-3.22782 17.8474,-2.45354 2.23462,0.29698 4.16765,2.38753 4.29073,7.82006 0,0 -1.11173,0 -1.11173,0 -20.3442,0 -28.53037,4.6114 -28.53037,24.33477 0,19.15725 6.71577,23.69882 18.31189,23.69882 7.27559,0 11.01609,-1.13853 13.85237,-3.69112 0,0 0.75779,3.31161 0.75779,3.31161 l 15.22823,-0.37705 c 0,0 0.0962,-49.49957 0.0962,-49.49957 z m -18.63561,16.91578 c 0,0 0.0952,7.91911 0.0952,7.91911 0,6.15851 -0.94635,9.2403 -6.73996,9.2403 -3.95314,0 -4.80227,-2.2123 -4.80227,-8.99918 0,-6.13571 0.71704,-8.16023 11.4477,-8.16023 z"
         inkscape:connector-curvature="0" />
      <path
         id="path36"
         style="fill:#ffffff;fill-opacity:1;fill-rule:nonzero;stroke:none;display:inline"
         d="m 690.7389,279.85683 c 0,-7.40118 -1.20336,-13.17763 -4.16207,-16.37752 -3.20497,-3.58195 -9.36087,-5.77785 -17.49833,-5.77785 -8.36323,0 -19.3934,2.55893 -23.4653,4.16333 0,0 4.38528,14.84806 4.38528,14.84806 4.48444,-1.62338 12.11791,-3.22782 17.84625,-2.45354 2.23648,0.29698 4.16713,2.38753 4.29157,7.82006 0,0 -1.11329,0 -1.11329,0 -20.34533,0 -28.52973,4.6114 -28.52973,24.33477 0,19.15725 6.71709,23.69882 18.31333,23.69882 7.27549,0 11.01475,-1.13853 13.85038,-3.69112 0,0 0.75769,3.31161 0.75769,3.31161 l 15.23022,-0.37705 c 0,0 0.0941,-49.49957 0.0941,-49.49957 z m -18.6356,16.91578 c 0,0 0.0941,7.91911 0.0941,7.91911 0,6.15851 -0.94427,9.2403 -6.73851,9.2403 -3.9514,0 -4.80176,-2.2123 -4.80176,-8.99918 0,-6.13571 0.71581,-8.16023 11.44647,-8.16023 z"
         inkscape:connector-curvature="0" />
      <path
         id="path38"
         style="fill:#ffffff;fill-opacity:1;fill-rule:nonzero;stroke:none;display:inline"
         d="m 613.63855,238.13324 18.92892,0 0,15.09018 -18.92892,0 0,-15.09018 z m 0,20.6306 18.92892,0 0,70.77281 -18.92892,0 0,-70.77281 z"
         inkscape:connector-curvature="0" />
      <path
         id="path40"
         style="fill:#ffffff;fill-opacity:1;fill-rule:nonzero;stroke:none;display:inline"
         d="m 572.71568,259.56229 15.77204,-0.96845 c 0,0 0.80859,3.88388 0.80859,3.88388 3.39527,-2.74659 7.80856,-3.7608 14.96108,-3.88388 0,0 0,18.60007 0,18.60007 -8.38618,0.24628 -12.57741,2.66292 -12.57741,12.28036 0,0 0,39.98624 0,39.98624 l -18.9643,0 0,-69.89822 z"
         inkscape:connector-curvature="0" />
      <path
         id="path42"
         style="fill:#ffffff;fill-opacity:1;fill-rule:nonzero;stroke:none;display:inline"
         d="m 562.77458,279.85683 c 0,-7.40118 -1.20317,-13.17763 -4.16321,-16.37752 -3.20497,-3.58195 -9.36222,-5.77785 -17.49844,-5.77785 -8.36333,0 -19.39205,2.55893 -23.46395,4.16333 0,0 4.38404,14.84806 4.38404,14.84806 4.48444,-1.62338 12.11801,-3.22782 17.84626,-2.45354 2.23647,0.29698 4.16702,2.38753 4.29258,7.82006 0,0 -1.1143,0 -1.1143,0 -20.34411,0 -28.53111,4.6114 -28.53111,24.33477 0,19.15725 6.7197,23.69882 18.31581,23.69882 7.27561,0 11.01239,-1.13853 13.85052,-3.69112 0,0 0.75646,3.31161 0.75646,3.31161 l 15.23144,-0.37705 c 0,0 0.0942,-49.49957 0.0942,-49.49957 z m -18.6357,16.91578 c 0,0 0.0941,7.91911 0.0941,7.91911 0,6.15851 -0.94686,9.2403 -6.73986,9.2403 -3.95004,0 -4.80288,-2.2123 -4.80288,-8.99918 0,-6.13571 0.71828,-8.16023 11.44873,-8.16023 z"
         inkscape:connector-curvature="0" />
      <path
         id="path44"
         style="fill:#ffffff;fill-opacity:1;fill-rule:nonzero;stroke:none;display:inline"
         d="m 485.67246,238.13324 18.92893,0 0,15.09018 -18.92893,0 0,-15.09018 z m 0,20.6306 18.92893,0 0,70.77281 -18.92893,0 0,-70.77281 z"
         inkscape:connector-curvature="0" />
    </g>
  </g>
</svg>
